<svg xmlns="http://www.w3.org/2000/svg" width="442" height="40"><g fill="#0033A0" fill-rule="evenodd"><path fill-rule="nonzero" d="M163.957 31.506l3.054-7.437h11.355l3.02 7.437h1.694l-9.595-23.24h-1.627l-9.594 23.24h1.693zm13.811-8.865h-10.192l5.112-12.483 5.08 12.483zm9.958 8.865v-9.263c0-1.173.216-2.213.647-3.12.432-.908 1.024-1.617 1.777-2.126.752-.509 1.615-.763 2.59-.763.575 0 1.217.088 1.925.265l.232-1.294a6.774 6.774 0 0 0-2.091-.332c-1.196 0-2.252.282-3.171.846a5.127 5.127 0 0 0-2.042 2.34l-.166-2.854h-1.295v16.3h1.594zm14.971.299c.531 0 .969-.034 1.312-.1.343-.066.736-.2 1.178-.398l-.199-1.196c-.443.133-.797.227-1.062.283a4.6 4.6 0 0 1-.93.083c-.863 0-1.455-.283-1.776-.847-.321-.564-.482-1.422-.482-2.573V16.499h4.184v-1.328h-4.184v-4.548h-1.593v4.548h-2.789V16.5h2.789v10.69c0 3.077 1.184 4.616 3.552 4.616zm6.572-20.352c.376 0 .68-.11.913-.332.232-.221.348-.509.348-.863s-.116-.642-.348-.863c-.233-.222-.537-.332-.913-.332s-.68.11-.913.332c-.233.221-.349.509-.349.863s.116.642.349.863c.232.221.537.332.913.332zm.797 20.053V15.17h-1.594v16.335h1.594zm7.6 0V16.499h7.836v15.007h1.593V15.17h-9.429v-1.826c0-1.217.377-2.196 1.13-2.938.752-.741 1.703-1.112 2.854-1.112.709 0 1.373.083 1.992.249.62.166 1.284.492 1.992.98l.465-1.196c-.797-.509-1.577-.863-2.34-1.062a9.234 9.234 0 0 0-2.341-.299c-1.571 0-2.855.487-3.851 1.46-.996.975-1.494 2.27-1.494 3.885v1.86h-2.922v1.327h2.922v15.007h1.593zm20.782.299c1.947 0 3.74-.664 5.378-1.992l-.764-1.196c-1.416 1.151-2.91 1.727-4.482 1.727-1.24 0-2.351-.293-3.336-.88-.985-.587-1.754-1.405-2.308-2.457-.553-1.051-.83-2.263-.83-3.635 0-1.35.277-2.562.83-3.636.554-1.073 1.323-1.909 2.308-2.506.985-.598 2.086-.897 3.303-.897.797 0 1.583.16 2.357.482.775.32 1.494.78 2.158 1.378l.764-1.229a7.785 7.785 0 0 0-2.54-1.577 7.96 7.96 0 0 0-2.805-.514c-1.55 0-2.927.365-4.134 1.095-1.206.73-2.152 1.743-2.838 3.038-.686 1.295-1.03 2.761-1.03 4.399 0 1.616.338 3.06 1.013 4.333a7.493 7.493 0 0 0 2.822 2.988c1.206.719 2.584 1.079 4.134 1.079zm10.29-20.352c.376 0 .68-.11.913-.332.232-.221.348-.509.348-.863s-.116-.642-.348-.863c-.233-.222-.537-.332-.913-.332-.377 0-.681.11-.913.332-.233.221-.349.509-.349.863s.116.642.349.863c.232.221.536.332.913.332zm.796 20.053V15.17h-1.593v16.335h1.593zm9.56.299c2.479 0 4.294-.952 5.445-2.856l.199 2.557h1.295V20.45c0-1.682-.565-3.032-1.693-4.05-1.13-1.018-2.601-1.527-4.416-1.527-1.129 0-2.141.149-3.038.448a8.503 8.503 0 0 0-2.54 1.378l.432 1.328c1.417-1.13 3.077-1.694 4.98-1.694 1.417 0 2.567.388 3.453 1.162.885.775 1.328 1.804 1.328 3.088v1.826a15.214 15.214 0 0 0-3.951-.498c-2.258 0-4.028.454-5.312 1.361-1.284.908-1.926 2.136-1.926 3.685 0 1.44.543 2.607 1.627 3.503 1.085.896 2.457 1.345 4.117 1.345zm.232-1.328c-1.261 0-2.307-.332-3.137-.996-.83-.664-1.245-1.528-1.245-2.59 0-1.107.52-1.998 1.56-2.673s2.48-1.012 4.316-1.012c1.262 0 2.501.166 3.719.498v1.427c0 .996-.216 1.904-.648 2.723a4.75 4.75 0 0 1-1.842 1.925c-.797.465-1.704.698-2.723.698zm13.245 1.029V8.266h-1.593v23.24h1.593zm14.571 0V8.266h-1.627v23.24h1.627zm7.07 0v-9.097c0-1.15.22-2.197.664-3.137.442-.941 1.062-1.677 1.859-2.208.797-.531 1.704-.797 2.722-.797 1.527 0 2.75.504 3.669 1.51.918 1.008 1.378 2.374 1.378 4.1v9.629h1.593v-9.894c0-1.328-.265-2.5-.797-3.519a5.798 5.798 0 0 0-2.24-2.374c-.963-.564-2.065-.846-3.304-.846-1.284 0-2.401.298-3.353.896-.952.598-1.716 1.428-2.291 2.49l-.2-3.054h-1.294v16.3h1.594zm20.814.299c.531 0 .968-.034 1.311-.1.343-.066.736-.2 1.179-.398l-.2-1.196c-.442.133-.796.227-1.062.283a4.6 4.6 0 0 1-.93.083c-.862 0-1.454-.283-1.775-.847-.321-.564-.482-1.422-.482-2.573V16.499h4.183v-1.328h-4.183v-4.548h-1.593v4.548h-2.79V16.5h2.79v10.69c0 3.077 1.184 4.616 3.552 4.616zm12.016 0c2.059 0 3.94-.675 5.644-2.026l-.597-1.228c-1.527 1.195-3.165 1.793-4.914 1.793-1.859 0-3.392-.598-4.598-1.793-1.206-1.195-1.865-2.767-1.975-4.714h12.815l.066-.83c0-1.55-.304-2.944-.913-4.184-.608-1.239-1.444-2.207-2.506-2.905-1.063-.697-2.247-1.045-3.553-1.045-1.416 0-2.695.37-3.834 1.112-1.14.741-2.037 1.754-2.69 3.038-.653 1.283-.979 2.722-.979 4.316 0 1.615.343 3.065 1.03 4.349a7.662 7.662 0 0 0 2.854 3.021c1.218.73 2.601 1.096 4.15 1.096zm4.814-9.396h-11.221c.177-1.77.808-3.226 1.892-4.366 1.085-1.14 2.402-1.71 3.951-1.71.974 0 1.865.26 2.673.78.807.52 1.455 1.24 1.942 2.159.487.918.741 1.964.763 3.137zm6.937 9.097V8.266H337.2v23.24h1.593zm6.373 0V8.266h-1.594v23.24h1.594zm6.04-20.053c.376 0 .68-.11.913-.332.232-.221.349-.509.349-.863s-.117-.642-.349-.863c-.232-.222-.537-.332-.913-.332s-.68.11-.913.332c-.232.221-.349.509-.349.863s.117.642.349.863c.232.221.537.332.913.332zm.797 20.053V15.17h-1.594v16.335h1.594zm11.618 7.27c1.416 0 2.695-.331 3.834-.995a7.253 7.253 0 0 0 2.69-2.706c.653-1.14.979-2.407.979-3.802V15.205h-1.295l-.265 3.386a6.868 6.868 0 0 0-2.573-2.706c-1.118-.675-2.374-1.012-3.769-1.012-1.394 0-2.65.37-3.768 1.112-1.118.741-1.992 1.76-2.623 3.054-.63 1.295-.946 2.74-.946 4.333s.316 3.027.946 4.3c.631 1.272 1.505 2.273 2.623 3.004 1.118.73 2.374 1.095 3.768 1.095 1.373 0 2.618-.326 3.735-.979 1.118-.653 1.976-1.522 2.573-2.606v3.12c0 1.152-.26 2.192-.78 3.121a5.822 5.822 0 0 1-2.158 2.208c-.918.542-1.953.814-3.104.814-1.217 0-2.285-.166-3.204-.498-.918-.332-1.887-.897-2.905-1.694l-.498 1.262c1.107.819 2.17 1.4 3.187 1.743 1.019.343 2.203.515 3.553.515zm-.133-8.465a5.439 5.439 0 0 1-3.071-.913c-.919-.609-1.638-1.445-2.158-2.507s-.78-2.247-.78-3.552c0-1.306.26-2.496.78-3.57.52-1.073 1.24-1.914 2.158-2.523a5.439 5.439 0 0 1 3.071-.913c1.129 0 2.152.305 3.071.913.919.61 1.643 1.45 2.175 2.524.53 1.073.796 2.263.796 3.569 0 1.305-.265 2.49-.796 3.552-.532 1.062-1.256 1.898-2.175 2.507a5.439 5.439 0 0 1-3.071.913zm19.42 1.494c2.058 0 3.94-.675 5.644-2.026l-.598-1.228c-1.527 1.195-3.165 1.793-4.913 1.793-1.86 0-3.392-.598-4.598-1.793-1.207-1.195-1.865-2.767-1.976-4.714h12.815l.067-.83c0-1.55-.305-2.944-.913-4.184-.609-1.239-1.444-2.207-2.507-2.905-1.062-.697-2.246-1.045-3.552-1.045-1.417 0-2.695.37-3.835 1.112-1.14.741-2.036 1.754-2.689 3.038-.653 1.283-.98 2.722-.98 4.316 0 1.615.344 3.065 1.03 4.349a7.662 7.662 0 0 0 2.855 3.021c1.217.73 2.6 1.096 4.15 1.096zm4.814-9.396H376.5c.177-1.77.808-3.226 1.893-4.366 1.084-1.14 2.401-1.71 3.95-1.71.974 0 1.865.26 2.673.78s1.455 1.24 1.942 2.159c.487.918.742 1.964.764 3.137zm6.937 9.097v-9.097c0-1.15.221-2.197.664-3.137.442-.941 1.062-1.677 1.859-2.208.797-.531 1.704-.797 2.722-.797 1.528 0 2.75.504 3.669 1.51.919 1.008 1.378 2.374 1.378 4.1v9.629h1.593v-9.894c0-1.328-.265-2.5-.796-3.519a5.798 5.798 0 0 0-2.241-2.374c-.963-.564-2.064-.846-3.304-.846-1.284 0-2.401.298-3.353.896-.952.598-1.715 1.428-2.29 2.49l-.2-3.054h-1.295v16.3h1.594zm23.404.299c1.948 0 3.74-.664 5.378-1.992l-.763-1.196c-1.417 1.151-2.91 1.727-4.482 1.727-1.24 0-2.352-.293-3.337-.88-.985-.587-1.754-1.405-2.307-2.457-.554-1.051-.83-2.263-.83-3.635 0-1.35.276-2.562.83-3.636.553-1.073 1.322-1.909 2.307-2.506.985-.598 2.086-.897 3.303-.897.797 0 1.583.16 2.358.482.774.32 1.494.78 2.158 1.378l.763-1.229a7.785 7.785 0 0 0-2.54-1.577 7.96 7.96 0 0 0-2.805-.514c-1.55 0-2.927.365-4.133 1.095-1.207.73-2.153 1.743-2.839 3.038-.686 1.295-1.03 2.761-1.03 4.399 0 1.616.338 3.06 1.013 4.333a7.493 7.493 0 0 0 2.822 2.988c1.207.719 2.584 1.079 4.134 1.079zm15.668 0c2.059 0 3.94-.675 5.644-2.026l-.597-1.228c-1.528 1.195-3.165 1.793-4.914 1.793-1.86 0-3.392-.598-4.598-1.793-1.206-1.195-1.865-2.767-1.976-4.714h12.816l.066-.83c0-1.55-.304-2.944-.913-4.184-.609-1.239-1.444-2.207-2.507-2.905-1.062-.697-2.246-1.045-3.552-1.045-1.417 0-2.695.37-3.835 1.112-1.14.741-2.036 1.754-2.689 3.038-.653 1.283-.98 2.722-.98 4.316 0 1.615.344 3.065 1.03 4.349a7.662 7.662 0 0 0 2.855 3.021c1.218.73 2.6 1.096 4.15 1.096zm4.814-9.396h-11.221c.177-1.77.807-3.226 1.892-4.366 1.085-1.14 2.401-1.71 3.95-1.71.975 0 1.866.26 2.673.78.808.52 1.456 1.24 1.943 2.159.487.918.741 1.964.763 3.137z" vector-effect="non-scaling-stroke"/><path d="M52.443 13.682c2.27 0 4.048.945 5.196 2.232v-1.89h4.772v16.98c0 4.93-3.104 8.9-8.997 8.9-4.43 0-7.67-2.3-9.065-5.025l4.225-2.369c.902 1.821 2.516 2.971 4.84 2.971 2.584 0 4.225-2.026 4.225-4.3V29.54c-1.148 1.355-2.994 2.3-5.264 2.3-3.705 0-8.409-2.93-8.409-9.078 0-6.176 4.54-9.079 8.477-9.079zM12.97 7.068c4.443 0 8.409 2.246 10.624 6.012l.068.123-4.252 2.725-.069-.137c-1.394-2.602-3.541-3.93-6.358-3.93-4.348 0-7.63 3.3-7.63 7.668 0 4.259 3.296 7.6 7.521 7.6 2.912 0 5.346-1.602 6.659-4.382l.068-.137 4.416 2.341-.068.124c-2.229 4.327-6.33 6.915-10.98 6.915C5.765 31.99.528 26.745.528 19.529c0-7.107 5.346-12.46 12.443-12.46zm20.755 6.614c5.018 0 9.038 4.053 9.038 9.079 0 5.025-4.006 9.078-9.038 9.078-5.018 0-9.038-4.053-9.038-9.078 0-5.026 4.007-9.079 9.038-9.079zm79.85 0c2.27 0 4.047.835 5.196 2.068v-1.712h4.772v17.459h-4.772v-1.958c-1.149 1.355-2.995 2.3-5.264 2.3-3.706 0-8.41-2.93-8.41-9.078 0-6.176 4.54-9.079 8.478-9.079zm-26.32.397v17.459h-4.772V14.079h4.772zm-13.372-.383c4.115 0 6.59 2.656 6.59 7.161V31.51h-4.854V21.487c0-2.341-1.08-3.697-3.213-3.697-1.819 0-3.309 1.26-3.309 4.19v9.53h-4.772V14.038h4.745v1.958c1.12-1.437 2.83-2.3 4.813-2.3zm61.145 0c4.115 0 6.59 2.656 6.59 7.161V31.51h-4.854V21.487c0-2.341-1.08-3.697-3.213-3.697-1.818 0-3.309 1.26-3.309 4.19v9.53h-4.771V14.038h4.744v1.958c1.121-1.437 2.83-2.3 4.813-2.3zm-30.381.342v4.3l-9.175 8.928h9.352v4.23H89.06v-4.258l9.174-8.969h-9.038v-4.23h15.45zm45.462-5.778v5.764h3.282v4.286h-3.282v5.56c0 2.725.356 3.15 3.282 3.15v4.463h-.698c-5.537 0-7.356-1.876-7.356-7.572v-5.587h-2.967v-4.3h2.967V8.26h4.772zm-35.659 9.79c-2.652 0-4.676 1.986-4.676 4.683 0 2.698 2.024 4.71 4.676 4.71 2.57 0 4.458-2.136 4.458-4.71 0-2.588-1.887-4.683-4.458-4.683zm-61.132 0c-2.652 0-4.676 1.986-4.676 4.683 0 2.698 2.024 4.71 4.676 4.71 2.571 0 4.458-2.136 4.458-4.71 0-2.588-1.887-4.683-4.458-4.683zm-19.593.165c-2.475 0-4.361 2.053-4.361 4.546 0 2.478 1.886 4.546 4.361 4.546 2.448 0 4.39-2.068 4.39-4.546 0-2.479-1.956-4.546-4.39-4.546zm53.598-9.928v4.34h-4.772v-4.34h4.772z" vector-effect="non-scaling-stroke"/></g></svg>