<svg xmlns="http://www.w3.org/2000/svg" xmlns:xlink="http://www.w3.org/1999/xlink" width="80" height="80"><style>*{vector-effect:non-scaling-stroke}</style><defs><circle id="a" cx="41.02" cy="40.02" r="40.02"/></defs><g fill="none" fill-rule="evenodd"><mask id="b" fill="#fff"><use xlink:href="#a"/></mask><circle cx="41.02" cy="40.02" r="39.52" stroke="#FFF"/><g stroke="#FFF" stroke-linecap="round" stroke-linejoin="round" mask="url(#b)"><g transform="translate(24.92 16.56)"><path d="M31.28 4.6C31.28 7.14038227 24.4831955 9.2 16.0991187 9.2 7.71592313 9.2.92 7.14038227.92 4.6.92 2.05961773 7.71592313 0 16.0991187 0 24.4831955 0 31.28 2.05961773 31.28 4.6zM31.28 16.56C31.28 19.1003823 24.4831955 21.16 16.0991187 21.16 7.71592313 21.16.92 19.1003823.92 16.56M31.28 29.44C31.28 31.9803823 24.4831955 34.04 16.0991187 34.04 7.71592313 34.04.92 31.9803823.92 29.44M31.28 42.32C31.28 44.8603823 24.4831955 46.92 16.0991187 46.92 7.71592313 46.92.92 44.8603823.92 42.32M28.52 14.26C28.52 15.0226603 27.9026603 15.64 27.14 15.64 26.3773397 15.64 25.76 15.0226603 25.76 14.26 25.76 13.4984323 26.3773397 12.88 27.14 12.88 27.9026603 12.88 28.52 13.4984323 28.52 14.26zM28.52 27.14C28.52 27.9026603 27.9026603 28.52 27.14 28.52 26.3773397 28.52 25.76 27.9026603 25.76 27.14 25.76 26.3784323 26.3773397 25.76 27.14 25.76 27.9026603 25.76 28.52 26.3784323 28.52 27.14zM28.52 40.02C28.52 40.7826603 27.9026603 41.4 27.14 41.4 26.3773397 41.4 25.76 40.7826603 25.76 40.02 25.76 39.2584323 26.3773397 38.64 27.14 38.64 27.9026603 38.64 28.52 39.2584323 28.52 40.02z"/><path d="M31.306 42.32L31.306 4.6"/><path d="M0.894 4.6L0.894 42.32"/></g></g><g stroke-linejoin="round" mask="url(#b)"><g stroke="#FFF" transform="translate(56.2 24.84)"><path stroke-linecap="square" d="M0,1.84 C0,1.84 0,0 4.22573964,0 C7.60633136,0 13.5223669,5.52 16.9029586,5.52 C19.1566864,5.52 20.8823669,4.6 22.08,2.76"/><path stroke-linecap="round" d="M0,8.28 C0,8.28 0,6.44 4.57788462,6.44 C8.24019231,6.44 14.6492308,11.96 18.3115385,11.96 C20.7530769,11.96 22.6225641,11.04 23.92,9.2"/><path stroke-linecap="square" d="M0 14.72C0 14.72 0 12.88 4.7539571 12.88 8.55712278 12.88 15.2126627 18.4 19.0158284 18.4 21.5512722 18.4 23.4926627 17.48 24.84 15.64M0 21.16C0 21.16 0 19.32 4.57788462 19.32 8.24019231 19.32 14.6492308 24.84 18.3115385 24.84 20.7530769 24.84 22.4692308 24.0733333 23.46 22.54"/><path stroke-linecap="round" d="M0,27.6 C0,27.6 0,25.76 4.22573964,25.76 C7.60633136,25.76 13.5223669,31.28 16.9029586,31.28 C19.1566864,31.28 20.8823669,30.36 22.08,28.52"/></g></g><g stroke-linejoin="round" mask="url(#b)"><g stroke="#FFF" transform="rotate(180 12.92 28)"><path stroke-linecap="square" d="M0,1.84 C0,1.84 0,0 4.22573964,0 C7.60633136,0 13.5223669,5.52 16.9029586,5.52 C19.1566864,5.52 20.8823669,4.6 22.08,2.76"/><path stroke-linecap="round" d="M0,8.28 C0,8.28 0,6.44 4.57788462,6.44 C8.24019231,6.44 14.6492308,11.96 18.3115385,11.96 C20.7530769,11.96 22.6225641,11.04 23.92,9.2"/><path stroke-linecap="square" d="M0 14.72C0 14.72 0 12.88 4.7539571 12.88 8.55712278 12.88 15.2126627 18.4 19.0158284 18.4 21.5512722 18.4 23.4926627 17.48 24.84 15.64M0 21.16C0 21.16 0 19.32 4.57788462 19.32 8.24019231 19.32 14.6492308 24.84 18.3115385 24.84 20.7530769 24.84 22.4692308 24.0733333 23.46 22.54"/><path stroke-linecap="round" d="M0,27.6 C0,27.6 0,25.76 4.22573964,25.76 C7.60633136,25.76 13.5223669,31.28 16.9029586,31.28 C19.1566864,31.28 20.8823669,30.36 22.08,28.52"/></g></g></g></svg>