<svg xmlns="http://www.w3.org/2000/svg" width="80" height="80"><style>*{vector-effect:non-scaling-stroke}</style><g fill="none" fill-rule="evenodd"><path fill="#0033A0" d="M29.528 67.597a1.408 1.408 0 1 1 1.99 1.992 1.408 1.408 0 0 1-1.99-1.992zm19.114.055a1.332 1.332 0 1 1 0 0zM27.067 46.074a4.889 4.889 0 0 1 6.912.001 4.872 4.872 0 0 1 1.416 3.77c-.291 4.675 1.807 5.841 4.86 6.034l-.011.012a3.16 3.16 0 0 1 2.063.916 3.188 3.188 0 1 1-4.508 4.508 3.166 3.166 0 0 1-.915-2.064l-.011.012c-.193-3.054-1.36-5.152-6.041-4.856-.218.009-.44.009-.663-.007-4.87-.345-6.013 1.923-6.225 4.874l-.012-.011a2.937 2.937 0 0 1-.847 1.891 2.959 2.959 0 1 1-4.186-4.186 2.931 2.931 0 0 1 1.893-.846l-.012-.011c2.952-.213 5.22-1.356 4.869-6.23a4.887 4.887 0 0 1 1.418-3.807zm29.812-8.312a3.164 3.164 0 0 1 4.474 4.474 3.141 3.141 0 0 1-2.056.91l.01.01c-3.105.19-5.22 1.371-4.933 6.083.008.213.008.433-.008.652-.353 4.78 2.167 6.17 4.958 6.379l-.01.012a2.772 2.772 0 0 1 1.78.8 2.798 2.798 0 1 1-3.957 3.958 2.778 2.778 0 0 1-.802-1.782l-.01.01c-.209-2.79-1.598-5.31-6.383-4.953a4.799 4.799 0 0 1-3.75-8.178 4.78 4.78 0 0 1 3.69-1.392c4.705.282 5.886-1.832 6.076-4.938l.011.011a3.145 3.145 0 0 1 .91-2.056zm-46.45 10.734a1.46 1.46 0 1 1 2.066 2.066 1.46 1.46 0 1 1-2.066-2.066zm57.276.092a1.332 1.332 0 1 1 1.884 1.883 1.332 1.332 0 0 1-1.884-1.883zM36.217 36.164a5.425 5.425 0 1 1 7.672 7.671 5.425 5.425 0 0 1-7.672-7.671zM18.953 18.898a2.882 2.882 0 0 1 4.079 0c.512.512.78 1.17.825 1.839l.011-.011c.213 2.876 1.447 5.251 6.297 4.893a4.863 4.863 0 0 1 3.796 8.287 4.847 4.847 0 0 1-3.742 1.411c-4.654-.282-5.832 1.802-6.022 4.879l-.012-.012a3.18 3.18 0 0 1-.923 2.086 3.21 3.21 0 0 1-4.54 0 3.21 3.21 0 0 1 0-4.541 3.186 3.186 0 0 1 2.084-.924l-.011-.011c3.078-.189 5.161-1.368 4.875-6.028-.01-.216-.01-.438.008-.659.353-4.845-2.022-6.08-4.898-6.293l.01-.01a2.86 2.86 0 0 1-1.837-.827 2.883 2.883 0 0 1 0-4.079zm18.846-.214a3.187 3.187 0 0 1 4.509 0c.574.575.871 1.314.915 2.067l.011-.012c.193 3.07 1.364 5.168 6.048 4.877.218-.01.441-.01.664.007 4.845.354 6.081-2.021 6.293-4.897l.012.01c.046-.669.313-1.326.825-1.838a2.885 2.885 0 0 1 4.08 4.08 2.861 2.861 0 0 1-1.84.825l.011.012c-2.876.212-5.25 1.447-4.893 6.296a4.863 4.863 0 0 1-8.288 3.796 4.85 4.85 0 0 1-1.41-3.746c.288-4.679-1.811-5.85-4.88-6.042l.011-.012a3.164 3.164 0 0 1-2.068-.916 3.188 3.188 0 0 1 0-4.507zm-27.333 10.79a1.407 1.407 0 1 1 1.99 1.989 1.407 1.407 0 0 1-1.99-1.99zm57.224.037a1.355 1.355 0 0 1 1.913 1.915 1.354 1.354 0 0 1-1.914-1.914zM29.528 10.413a1.407 1.407 0 1 1 1.99 1.988 1.407 1.407 0 0 1-1.99-1.988zm19.062 0a1.406 1.406 0 1 1 1.99 1.99c-.551.55-1.44.548-1.99 0a1.404 1.404 0 0 1 0-1.99z"/><circle cx="40" cy="40" r="39.5" stroke="#0033A0"/></g></svg>