<svg xmlns="http://www.w3.org/2000/svg" width="80" height="80"><style>*{vector-effect:non-scaling-stroke}</style><g fill="none" fill-rule="evenodd" stroke="#0033A0"><g transform="translate(18 10)"><path d="M34.92.5H12.467L.5 12.468v39.48h20.57a11.732 11.732 0 0 1-.451-3.536A11.7 11.7 0 0 1 24.26 40.2a11.704 11.704 0 0 1 8.383-3.234c.78.02 1.542.115 2.276.278V.5z"/><path stroke-linecap="round" d="M5.449 19.072L29.97 19.072"/><path stroke-linecap="round" d="M5.449 23.159L29.97 23.159"/><path stroke-linecap="round" d="M5.449 27.246L29.97 27.246"/><path stroke-linecap="round" d="M5.449 31.332L24.521 31.332"/><path stroke-linecap="round" d="M5.449 35.419L19.072 35.419"/><path stroke-linecap="round" d="M5.449 39.506L14.985 39.506"/><path stroke-linecap="round" d="M5.449 43.593L13.623 43.593"/><path stroke-linecap="round" stroke-linejoin="round" d="M12.942 0L12.942 12.261 0.681 12.261"/><g transform="translate(20.434 36.782)"><path d="M11.503.503a10.707 10.707 0 0 0-7.669 2.958 10.703 10.703 0 0 0-3.33 7.513 10.703 10.703 0 0 0 2.956 7.669 10.706 10.706 0 0 0 7.515 3.331 10.704 10.704 0 0 0 7.668-2.957 10.706 10.706 0 0 0 3.331-7.514 10.703 10.703 0 0 0-2.957-7.668A10.706 10.706 0 0 0 11.503.503z"/><path stroke-linecap="round" d="M11.579 5.449L11.579 17.029"/><path stroke-linecap="round" d="M6.13 11.579L11.579 17.029 17.029 11.579"/></g></g><circle cx="40" cy="40" r="39.5"/></g></svg>