<svg xmlns="http://www.w3.org/2000/svg" width="80" height="80"><style>*{vector-effect:non-scaling-stroke}</style><g fill="none" fill-rule="evenodd" stroke="#0033A0"><circle cx="40.02" cy="40.02" r="39.52"/><g stroke-linecap="round" stroke-linejoin="round" transform="translate(22.08 10.12)"><path d="M25.76 24.741L17.94 17.48 10.12 24.741 10.12 30.906 15.633 25.784 15.633 42.32 20.246 42.32 20.246 25.784 25.76 30.906z"/><path d="M35.88 17.923C35.88 8.024 27.847 0 17.94 0 8.034 0 0 8.024 0 17.923c0 3.87 1.23 7.447 3.316 10.376 2.5 4.169 5.676 8.596 5.676 13.165v.26a.6.6 0 0 0 .597.596h16.703a.598.598 0 0 0 .596-.596v-.26c0-4.833 3.382-9.264 5.885-13.458a17.823 17.823 0 0 0 3.107-10.083zM25.76 50.6H11.04a1.84 1.84 0 0 0 0 3.68h14.72a1.84 1.84 0 0 0 0-3.68zm0-5.52H11.04a1.84 1.84 0 0 0 0 3.68h14.72a1.84 1.84 0 1 0 0-3.68zM12.31 56.12c-.373 0-.462.196-.198.434l3.103 2.813c.263.238.782.433 1.155.433h4.06c.372 0 .893-.195 1.156-.433l3.103-2.813c.263-.238.173-.434-.197-.434H12.309z"/></g></g></svg>