<svg xmlns="http://www.w3.org/2000/svg" width="80" height="80"><style>*{vector-effect:non-scaling-stroke}</style><g fill="none" fill-rule="evenodd" stroke="#0033A0"><path d="M40 .5C29.092.5 19.217 4.921 12.07 12.07 4.92 19.216.5 29.091.5 40c0 10.908 4.421 20.783 11.57 27.93C19.216 75.08 29.091 79.5 40 79.5c10.908 0 20.783-4.421 27.93-11.57C75.08 60.784 79.5 50.909 79.5 40c0-10.908-4.421-20.783-11.57-27.93C60.784 4.92 50.909.5 40 .5z"/><path stroke-linecap="round" stroke-linejoin="round" d="M54.18 35.55c0 2.282-6.475 4.13-14.462 4.13s-14.461-1.848-14.461-4.13c0-2.28 6.474-4.13 14.461-4.13s14.462 1.85 14.462 4.13zm0 11.474c0 2.28-6.475 4.13-14.462 4.13s-14.461-1.85-14.461-4.13M54.18 58.497c0 2.281-6.475 4.13-14.462 4.13s-14.461-1.849-14.461-4.13M54.18 69.971c0 2.28-6.475 4.13-14.462 4.13s-14.461-1.85-14.461-4.13"/><path stroke-linecap="round" stroke-linejoin="round" d="M25.257 35.551L25.257 69.97"/><path stroke-linecap="round" stroke-linejoin="round" d="M54.18 69.971L54.18 35.551"/><path stroke-linecap="round" stroke-linejoin="round" d="M51.432 45.963a1.06 1.06 0 1 1-2.121 0 1.06 1.06 0 0 1 2.12 0zm0 11.474a1.06 1.06 0 1 1-2.121 0 1.06 1.06 0 0 1 2.12 0zm0 11.88a1.06 1.06 0 1 1-2.121 0 1.06 1.06 0 0 1 2.12 0z"/><path stroke-linecap="round" stroke-linejoin="round" d="M39.854 35.176L42.977 17.795 40.579 14.626 41.302 7.928 44.425 9.874 48.182 9.285 46.598 15.803 43.294 17.614"/><path stroke-linecap="round" stroke-linejoin="round" d="M47.843 35.323c0 1.15-3.607 2.082-8.057 2.082s-8.057-.932-8.057-2.082 3.608-2.082 8.057-2.082c4.45 0 8.057.932 8.057 2.082z"/><path stroke-linecap="round" stroke-linejoin="round" d="M43.486 1.286L43.283 2.474"/><path stroke-linecap="round" stroke-linejoin="round" d="M48.544 3.254L47.831 7.124"/><path stroke-linecap="round" stroke-linejoin="round" d="M42.706 5.189L42.434 6.615"/></g></svg>