<svg xmlns="http://www.w3.org/2000/svg" width="80" height="80"><style>*{vector-effect:non-scaling-stroke}</style><g fill="none" fill-rule="evenodd" stroke="#0033A0"><path d="M40 .5C29.092.5 19.217 4.921 12.07 12.07 4.92 19.216.5 29.091.5 40c0 10.908 4.421 20.783 11.57 27.93C19.216 75.08 29.091 79.5 40 79.5c10.908 0 20.783-4.421 27.93-11.57C75.08 60.784 79.5 50.909 79.5 40c0-10.908-4.421-20.783-11.57-27.93C60.784 4.92 50.909.5 40 .5z"/><g stroke-linecap="round" stroke-linejoin="round" transform="translate(19 11)"><path d="M18.99 14.781l-12.445 3.36v3.435l12.446-2.978v-3.817zm0 6.566L6.469 24.02v3.436l12.446-2.214.077-3.895zm0 13.363L6.469 35.932v3.512l12.523-.764v-3.97zm0-6.644l-12.522 1.91v3.436l12.523-1.527v-3.819zm0 13.364l-12.522.458V45.4h12.523v-3.97z"/><path d="M42 50.401L0 50.401"/><path d="M1.897 49.987L1.897 15.175 24.252 7.858 39.562 17.071 39.562 50.4"/><path d="M23.971 7.796L23.971 50.337"/><path d="M5.69 12.194L5.69 7.18 24.658 0 36.174 8.4 36.174 13.142"/></g></g></svg>