<svg xmlns="http://www.w3.org/2000/svg" width="80" height="80"><style>*{vector-effect:non-scaling-stroke}</style><g fill="none" fill-rule="evenodd"><path stroke="#0033A0" d="M40 .5C29.092.5 19.217 4.921 12.07 12.07 4.92 19.216.5 29.091.5 40c0 10.908 4.421 20.783 11.57 27.931 7.147 7.149 17.022 11.57 27.93 11.57 10.908 0 20.783-4.421 27.93-11.57C75.08 60.783 79.5 50.908 79.5 40c0-10.908-4.421-20.783-11.57-27.93C60.784 4.92 50.909.5 40 .5z"/><path stroke="#0033A0" d="M75.617 38.974S41.09 82.78 4.037 40.56c0 0 34.526-43.806 71.58-1.586z"/><path fill="#0033A0" d="M39.6 29.404c5.754 0 10.42 4.665 10.42 10.42s-4.666 10.42-10.42 10.42c-5.755 0-10.42-4.665-10.42-10.42s4.665-10.42 10.42-10.42zm-3.075 3.209a.5.5 0 0 0-.682-.19c-.095.055-.233.14-.404.259l-.279.2c-.497.372-.994.814-1.459 1.328-1.444 1.598-2.268 3.523-2.132 5.757a.5.5 0 1 0 .998-.06c-.118-1.939.598-3.614 1.876-5.027a9.17 9.17 0 0 1 1.754-1.502l.139-.084a.5.5 0 0 0 .189-.681z"/><path stroke="#0033A0" stroke-width="1.007" d="M58.12 39.848c0 10.246-8.306 18.552-18.551 18.552-10.246 0-18.552-8.306-18.552-18.552s8.306-18.551 18.552-18.551c10.245 0 18.551 8.305 18.551 18.551z"/><path stroke="#0033A0" stroke-width="4" d="M43.809 48.055L54.285 64.08"/><path stroke="#0033A0" stroke-width="6" d="M45.451 50.49L54.455 64.195"/></g></svg>