<svg xmlns="http://www.w3.org/2000/svg" width="80" height="80"><style>*{vector-effect:non-scaling-stroke}</style><g fill="none" fill-rule="evenodd" stroke="#0033A0"><g transform="translate(10 16)"><path stroke-linejoin="round" d="M25.782.022l4.63 26.267a7.833 7.833 0 0 0-8.262 12.413L6.126 41.528l-4.985-28.27 7.535-10.22L25.782.022z"/><path stroke-linecap="round" d="M6.077 15.326L24.468 15.326" transform="rotate(-10 15.273 15.326)"/><path stroke-linecap="round" d="M6.758 18.731L25.149 18.731" transform="rotate(-10 15.954 18.731)"/><path stroke-linecap="round" d="M6.758 21.456L25.149 21.456" transform="rotate(-10 15.954 21.456)"/><path stroke-linecap="round" d="M7.439 24.862L21.743 24.862" transform="rotate(-10 14.591 24.862)"/><path stroke-linecap="round" d="M8.121 28.267L18.338 28.267" transform="rotate(-10 13.23 28.267)"/><path stroke-linecap="round" d="M8.802 31.673L16.294 31.673" transform="rotate(-10 12.548 31.673)"/><path stroke-linecap="round" d="M9.483 35.079L15.613 35.079" transform="rotate(-10 12.548 35.079)"/><path stroke-linecap="round" stroke-linejoin="round" d="M10.179 4.135L10.298 12.201 0.751 12.308" transform="rotate(-10 5.525 8.222)"/><path stroke-linecap="round" stroke-linejoin="round" d="M34.987 6.777L39.509 7.224 34.407 28.726 34.303 2.374 26.567 2.71"/><path d="M56.55 33.83a7.833 7.833 0 1 1-15.666 0 7.833 7.833 0 0 1 15.666 0zm-20.434 0a7.833 7.833 0 1 1-15.666-.001 7.833 7.833 0 0 1 15.666 0z"/><path stroke-linecap="round" d="M36.116 34.17c0-1.505 1.068-2.725 2.385-2.725 1.316 0 2.383 1.22 2.383 2.725"/><path stroke-linecap="round" d="M56.551 33.489L59.276 33.489"/><path stroke-linecap="round" d="M17.726 33.489L20.451 33.489"/></g><circle cx="40" cy="40" r="39.5"/></g></svg>