<svg xmlns="http://www.w3.org/2000/svg" width="80" height="80"><style>*{vector-effect:non-scaling-stroke}</style><g fill="none" fill-rule="evenodd" stroke="#FFF"><circle cx="40" cy="40" r="39.5"/><g stroke-linejoin="round" transform="translate(14.713 15.632)"><path stroke-linecap="round" d="M13.687 18.703l5.016-5.017a2.774 2.774 0 0 1 3.924 0l8.744 8.745a2.774 2.774 0 0 1 0 3.924l-5.016 5.017a2.775 2.775 0 0 1-3.924 0l-8.744-8.745a2.774 2.774 0 0 1 0-3.924zm4.704-4.91c-1.84-1.839-3.678-.92-4.598 0-.92.92-1.839 2.759 0 4.598l4.598-4.598z"/><path stroke-linecap="round" d="M0 35.319L13.251 22.069 22.069 30.888 8.818 44.138z"/><path d="M18.391 26.667L11.495 33.562 4.598 40.46"/><path d="M15.632 37.701L11.035 33.103 6.437 28.506"/><path stroke-linecap="round" d="M22.069 13.25L35.32 0 44.138 8.819 30.887 22.069z"/><path d="M39.54 4.598L33.563 10.574 26.667 17.471z"/><path d="M37.701 15.632L33.103 11.034 28.506 6.437"/><path stroke-linecap="round" d="M45.977 28.299l-16.76 16.758c-4.627-4.628-4.627-12.13 0-16.758 4.629-4.628 12.133-4.628 16.76 0z"/><path stroke-linecap="round" d="M33.081 39.586L33.081 39.586"/></g></g></svg>