<svg xmlns="http://www.w3.org/2000/svg" width="80" height="80"><style>*{vector-effect:non-scaling-stroke}</style><g fill="none" fill-rule="evenodd" stroke="#0033A0"><g transform="translate(-.942 .767)"><path stroke-linejoin="round" d="M34.805.03l6.254 35.46a10.584 10.584 0 0 0-2.876-.395c-5.84 0-10.575 4.734-10.575 10.575 0 2.487.859 4.773 2.296 6.579L8.27 56.063 1.54 17.9 11.714 4.1 34.805.03z"/><path stroke-linecap="round" d="M8.204 20.69L33.032 20.69" transform="rotate(-10 20.618 20.69)"/><path stroke-linecap="round" d="M9.124 25.287L33.951 25.287" transform="rotate(-10 21.538 25.287)"/><path stroke-linecap="round" d="M9.124 28.966L33.951 28.966" transform="rotate(-10 21.538 28.966)"/><path stroke-linecap="round" d="M10.043 33.563L29.354 33.563" transform="rotate(-10 19.698 33.563)"/><path stroke-linecap="round" d="M10.963 38.161L24.756 38.161" transform="rotate(-10 17.86 38.16)"/><path stroke-linecap="round" d="M11.882 42.759L21.997 42.759" transform="rotate(-10 16.94 42.759)"/><path stroke-linecap="round" d="M12.802 47.356L21.078 47.356" transform="rotate(-10 16.94 47.356)"/><path stroke-linecap="round" stroke-linejoin="round" d="M13.742 5.582L13.902 16.471 1.014 16.616" transform="rotate(-10 7.458 11.1)"/></g><path stroke-linecap="round" stroke-linejoin="round" d="M46.29 9.916L52.395 10.519 45.508 39.547 45.368 3.972 34.924 4.426"/><g><path d="M75.403 46.437c0 5.84-4.734 10.574-10.574 10.574-5.842 0-10.576-4.735-10.576-10.574 0-5.841 4.734-10.575 10.576-10.575 5.84 0 10.574 4.734 10.574 10.575zm-27.587 0c0 5.84-4.734 10.574-10.574 10.574-5.841 0-10.575-4.735-10.575-10.574 0-5.841 4.734-10.575 10.575-10.575 5.84 0 10.574 4.734 10.574 10.575z"/><path stroke-linecap="round" d="M47.816 46.896c0-2.03 1.442-3.678 3.22-3.678 1.777 0 3.217 1.647 3.217 3.678"/></g><path stroke-linecap="round" d="M75.402 45.977L79.08 45.977"/><path stroke-linecap="round" d="M22.989 45.977L26.667 45.977"/></g></svg>