<svg xmlns="http://www.w3.org/2000/svg" width="80" height="80"><style>*{vector-effect:non-scaling-stroke}</style><g fill="none" fill-rule="evenodd" stroke="#0033A0"><circle cx="40.02" cy="40.02" r="39.52"/><g><g stroke-linecap="round" stroke-linejoin="round" transform="translate(20.97 14.511)"><path d="M32.39 4.809c0 2.54-7.003 4.6-15.641 4.6-8.637 0-15.64-2.06-15.64-4.6 0-2.541 7.003-4.6 15.64-4.6 8.638 0 15.64 2.059 15.64 4.6zm0 11.96c0 2.54-7.003 4.6-15.641 4.6-8.637 0-15.64-2.06-15.64-4.6m28.52-1.38a1.38 1.38 0 1 1-2.76-.001 1.38 1.38 0 0 1 2.76.001zm0 11.04a1.38 1.38 0 1 1-2.76-.001 1.38 1.38 0 0 1 2.76.001zM1.11 29.65c0 2.54 7.096 4.6 15.848 4.6 3.34 0 6.438-.3 8.992-.811m0 13.004c-2.404.436-6.069.687-9.104.687-8.691 0-15.736-2.06-15.736-4.6"/><path d="M1.109 4.525L1.109 42.241"/><path d="M32.389 4.525L32.389 28.507"/></g><g transform="translate(44.7 42.593)"><path d="M11.22.65C5.38.507.527 5.125.383 10.966.24 16.808 4.858 21.66 10.7 21.803c5.841.143 10.693-4.475 10.837-10.316C21.68 5.645 17.062.794 11.22.65z"/><path stroke-linecap="round" stroke-linejoin="round" d="M11.42 16.287L16.02 10.767 11.42 5.247"/><path stroke-linecap="round" stroke-linejoin="round" d="M4.98 10.767L16.02 10.767"/></g></g></g></svg>