<svg xmlns="http://www.w3.org/2000/svg" width="80" height="80"><style>*{vector-effect:non-scaling-stroke}</style><g fill="none" fill-rule="evenodd" stroke="#0033A0"><circle cx="40" cy="40" r="39.5"/><g><path d="M22.069 38.621v14.713h-6.437V38.62h6.437zm11.954-11.954v26.667h-6.437V26.667h6.437zM57.93 14.713v38.62H56.08a9.704 9.704 0 0 0-.084-1.838 9.593 9.593 0 0 0-4.501-6.86V14.712h6.436zm-11.954 4.598v23.92c-.295.016-.59.045-.888.088a9.648 9.648 0 0 0-5.549 2.821V19.31h6.437z"/><g transform="translate(36.782 43.219)"><path d="M19.215 8.276C18.47 3 13.588-.662 8.308.1 3.028.861-.648 5.756.096 11.034a9.616 9.616 0 0 0 10.906 8.176c5.28-.761 8.956-5.656 8.213-10.934z"/><path d="M15.632 17.471L21.149 22.989"/></g></g></g></svg>