<svg xmlns="http://www.w3.org/2000/svg" width="80" height="80"><style>*{vector-effect:non-scaling-stroke}</style><g fill="none" fill-rule="evenodd" stroke="#FFF"><circle cx="40.02" cy="40.02" r="39.52"/><g><path d="M40.02 65.32c-6.094-3.146-10.484-6.213-13.173-9.2-4.033-4.48-7.527-8.28-7.527-15.64V18.4c4.39.613 7.84.613 10.35 0s5.96-1.84 10.35-3.68c4.39 1.84 7.84 3.067 10.35 3.68s5.96.613 10.35 0v22.08c0 7.36-3.494 11.16-7.527 15.64-2.689 2.987-7.08 6.054-13.172 9.2h-.001z"/><path d="M39.48 61.362c-4.982-2.591-8.595-5.12-10.836-7.584-3.483-3.829-6.501-7.075-6.501-13.365V21.545c3.792.524 6.771.524 8.938 0 2.167-.524 5.147-1.573 8.939-3.145 3.792 1.572 6.772 2.62 8.939 3.145 2.167.524 5.146.524 8.938 0v18.868c0 6.29-3.018 9.536-6.5 13.365-2.322 2.553-6.115 5.174-11.377 7.862z"/></g></g></svg>