<svg xmlns="http://www.w3.org/2000/svg" xmlns:xlink="http://www.w3.org/1999/xlink" width="80" height="80"><style>*{vector-effect:non-scaling-stroke}</style><defs><path id="a" d="M80 40c0 22.091-17.909 40-40 40C17.908 80 0 62.091 0 40 0 17.908 17.908 0 40 0c22.091 0 40 17.908 40 40z"/></defs><g fill="none" fill-rule="evenodd"><mask id="b" fill="#fff"><use xlink:href="#a"/></mask><path stroke="#0033A0" d="M40 .5C29.092.5 19.217 4.921 12.069 12.069 4.921 19.217.5 29.092.5 40c0 10.908 4.421 20.783 11.57 27.93C19.216 75.08 29.091 79.5 40 79.5c10.908 0 20.783-4.421 27.93-11.57C75.08 60.784 79.5 50.909 79.5 40c0-10.908-4.421-20.783-11.57-27.93C60.784 4.92 50.909.5 40 .5z"/><path stroke="#0033A0" stroke-linecap="round" stroke-linejoin="round" stroke-width="1.999" d="M19.4 73.494c.081-4.212-.137-5.635.859-9.455 2.66-10.21 8.398-14.964 14.184-21.453 4.454-4.993 9.502-10.654 13.958-19.314 0 0 3.232-5.22 6.01-19.668" mask="url(#b)"/><path stroke="#0033A0" stroke-linecap="round" stroke-linejoin="round" stroke-width="1.069" d="M57.65 75.643c-4.481-7.781-9.02-12.619-12.31-16.104-.503-.534-.977-1.038-1.41-1.507a81.374 81.374 0 0 1-12.184-17.271c-3.871-7.347-6.811-15.603-8.737-24.538a121.945 121.945 0 0 1-1.891-11.496" mask="url(#b)"/><path stroke="#0033A0" stroke-linecap="round" stroke-linejoin="round" stroke-width=".5" d="M29.284 78.222c.86-17.192 6.707-31.165 9.647-41.11 3.63-12.286 8.483-21.175 9.035-36.148" mask="url(#b)"/><path stroke="#0033A0" stroke-linecap="round" stroke-linejoin="round" stroke-width="1.999" d="M39.303 79.644c6.254-7.973 11.728-15.07 14.961-22.42 3.603-8.19 3.438-15.139-.52-21.867-2.458-4.185-6.904-8.901-11.61-13.895-3.646-3.868-7.415-7.868-10.315-11.718-2.035-2.701-2.976-3.846-4.684-6.736" mask="url(#b)"/></g></svg>