<svg xmlns="http://www.w3.org/2000/svg" xmlns:xlink="http://www.w3.org/1999/xlink" width="80" height="80"><style>*{vector-effect:non-scaling-stroke}</style><defs><circle id="a" cx="40.02" cy="40.02" r="40.02"/></defs><g fill="none" fill-rule="evenodd"><mask id="b" fill="#fff"><use xlink:href="#a"/></mask><circle cx="40.02" cy="40.02" r="39.52" stroke="#FFF"/><g mask="url(#b)"><g transform="translate(50 12.874)"><path fill="#FFF" d="M16.656 40.24l-.867-2.243-.875 2.242h1.742zm.358.916h-2.458l-.566 1.458h-1.116l2.374-5.832h1.1l2.366 5.832h-1.142l-.558-1.458z"/><path fill="#FFF" d="M21.142 42.614L22.25 42.614 22.25 36.782 21.142 36.782z"/><path stroke="#FFF" stroke-linejoin="round" d="M6.437 50.575L30.345 50.575 30.345 29.425 6.437 29.425z"/><path stroke="#FFF" stroke-linejoin="round" d="M0 50.575L6.437 50.575 6.437 16.552 0 16.552z"/><path stroke="#FFF" stroke-linejoin="round" d="M11.287 27.317L11.287 22.924 17.876 22.924 17.876 27.317"/><path stroke="#FFF" stroke-linejoin="round" d="M1.84 13.793C1.84 7.7 3.524 2.76 10.83 2.76h1.124"/><path stroke="#FFF" stroke-linejoin="round" d="M10.115 6.437c0-3.048 2.376-5.517 5.307-5.517 2.127 0 3.96 1.3 4.808 3.178"/><path stroke="#FFF" stroke-linejoin="round" d="M5.517 13.793c0-1.758 2.965-3.183 6.621-3.183H28.69c2.437 0 4.413-1.9 4.413-4.244C33.103 2.454 30.14 0 26.483 0c-3.657 0-6.621 2.85-6.621 6.366M11.954 21.15c0-3.221.444-6.143 1.84-8.275"/><path stroke="#FFF" stroke-linejoin="round" d="M16.552 21.15c0-1.876 2.964-3.396 6.62-3.396h16.552c2.437 0 4.414-2.027 4.414-4.527 0-4.174-2.964-6.79-6.62-6.79-.774 0-1.518.136-2.208.386"/></g></g><g stroke="#FFF" stroke-linecap="round" stroke-width=".92" mask="url(#b)"><g transform="translate(11.173 30.724)"><path d="M36.988 0.423L0 0.423"/><path d="M39.188 30.809L2.2 30.809"/><path d="M41.897 5.163L8.548 5.163"/><path d="M36.056 16.082L14.727 16.082"/><path d="M41.643 26.408L10.241 26.408"/><path d="M43.251 21.837L34.533 21.837"/><path d="M30.808 21.837L22.09 21.837"/><path d="M34.11 10.411L19.382 10.411"/></g></g></g></svg>