<svg xmlns="http://www.w3.org/2000/svg" width="80" height="80"><style>*{vector-effect:non-scaling-stroke}</style><g fill="none" fill-rule="evenodd" stroke="#0033A0"><circle cx="40.02" cy="40.02" r="39.52"/><path d="M24.5 38c8.56 0 15.5-2.015 15.5-4.5S33.06 29 24.5 29C15.94 29 9 31.015 9 33.5S15.94 38 24.5 38zM9 46.5c0 2.485 6.94 4.5 15.5 4.5 8.56 0 15.5-2.015 15.5-4.5m-4.5-.5a1.5 1.5 0 1 0 0-3 1.5 1.5 0 0 0 0 3zM9 34v13m31-13v13m5.5-30c8.56 0 15.5-2.015 15.5-4.5S54.06 8 45.5 8C36.94 8 30 10.015 30 12.5S36.94 17 45.5 17zM30 25.5c0 2.485 6.94 4.5 15.5 4.5 8.56 0 15.5-2.015 15.5-4.5m-4.5-.5a1.5 1.5 0 1 0 0-3 1.5 1.5 0 0 0 0 3zM30 13v13m31-13v13M45.5 59c8.56 0 15.5-2.015 15.5-4.5S54.06 50 45.5 50C36.94 50 30 52.015 30 54.5S36.94 59 45.5 59zM30 67.5c0 2.485 6.94 4.5 15.5 4.5 8.56 0 15.5-2.015 15.5-4.5m-4.5-.5a1.5 1.5 0 1 0 0-3 1.5 1.5 0 0 0 0 3zM30 55v13m31-13v13"/></g></svg>