<svg xmlns="http://www.w3.org/2000/svg" width="80" height="80"><style>*{vector-effect:non-scaling-stroke}</style><g fill="none" fill-rule="evenodd" stroke="#0033A0"><path stroke-width="1.127" d="M39.181 12c-.671 0-1.343 0-1.918.096h-.192C27.385 13.151 20 21.304 20 31.086c0 8.728 4.027 12.372 7.576 15.538 2.301 2.013 4.412 4.027 4.891 7 .097.48.48.768.96.768h11.51c.478 0 .861-.384.958-.767.48-2.974 2.59-4.892 4.891-7.001 3.55-3.166 7.577-6.81 7.577-15.538 0-9.782-7.289-17.935-17.072-18.99H41.1c-.576 0-1.247-.096-1.919-.096zM33.62 55.447c-.48 0-.96.384-.96.959v1.438c0 .48.384.96.96.96h11.22c.48 0 .96-.384.96-.96v-1.438a.96.96 0 0 0-.96-.96H33.62zm0 4.22a.96.96 0 0 0-.96.96v1.437c0 .48.384.959.96.959h11.22a.96.96 0 0 0 .96-.96v-1.437a.96.96 0 0 0-.96-.959H33.62zm3.165 4.22c-.385 0-.672.191-.863.479a.87.87 0 0 0 0 .96c.67 1.15 1.917 1.822 3.26 1.822 1.343 0 2.59-.671 3.262-1.823a.873.873 0 0 0 0-.959c-.193-.288-.48-.48-.864-.48h-4.795z"/><path stroke-width="1.099" d="M39.275 45.515c-.562 0-1.122 0-1.684-.093-.187 0-.281-.188-.375-.28l-.56-1.873a1.134 1.134 0 0 0-.656-.655 6.623 6.623 0 0 1-.749-.28c-.093 0-.186-.094-.28-.094-.187 0-.374.094-.561.187l-1.591 1.217c-.093.093-.187.093-.28.093-.094 0-.188 0-.188-.093a15.123 15.123 0 0 1-2.807-1.965c-.094-.094-.186-.28-.094-.468l.656-1.778c.093-.28.093-.654-.187-.935-.188-.188-.28-.375-.469-.656-.187-.28-.467-.373-.748-.373l-2.058.093c-.188 0-.374-.093-.374-.28-.468-1.03-.843-2.06-1.029-3.182 0-.187 0-.374.186-.468l1.592-1.122c.28-.188.374-.468.374-.843v-.747c0-.281-.188-.655-.374-.75l-1.592-1.123c-.186-.092-.186-.28-.186-.466.186-1.123.561-2.153 1.029-3.182.094-.186.186-.28.468-.28l1.964.094c.281 0 .561-.188.748-.375.189-.188.281-.468.469-.654.187-.282.28-.563.187-.844l-.656-1.777c-.092-.187 0-.374.094-.467a15.042 15.042 0 0 1 2.807-1.965c.094 0 .187-.094.187-.094.094 0 .188 0 .281.094l1.59 1.216c.188.094.375.186.561.186.095 0 .188 0 .281-.092.282-.094.562-.188.75-.281.28-.094.561-.281.655-.655l.56-1.871c.094-.187.188-.281.375-.281.562-.094 1.122-.094 1.777-.094.562 0 1.123 0 1.684.094.188 0 .281.187.375.28l.561 1.872c.094.281.374.561.655.655.28.093.562.187.749.28.093 0 .187.093.28.093.188 0 .374-.092.561-.186l1.591-1.216c.094-.094.187-.094.28-.094.095 0 .188 0 .188.094a15.015 15.015 0 0 1 2.807 1.965c.093.093.187.28.093.467l-.655 1.777c-.093.281-.093.656.188.844.187.186.28.373.467.654.187.28.468.375.749.375l2.058-.095c.188 0 .375.095.375.281.467 1.029.842 2.059 1.029 3.182 0 .186 0 .374-.187.466l-1.591 1.124c-.28.186-.375.468-.375.842v.749c0 .28.188.654.375.841l1.59 1.123c.188.094.188.281.188.468-.187 1.123-.562 2.152-1.03 3.181-.094.187-.186.281-.374.281l-2.058-.094c-.281 0-.562.188-.75.375-.186.186-.28.373-.466.654-.188.281-.281.561-.188.842l.655 1.778c.094.187 0 .374-.093.468a15.094 15.094 0 0 1-2.807 1.965c-.093 0-.093.093-.188.093-.093 0-.186 0-.28-.093l-1.59-1.217c-.188-.093-.374-.187-.562-.187-.093 0-.187 0-.28.094a6.31 6.31 0 0 0-.75.28c-.28.094-.56.281-.654.655l-.561 1.872c-.094.186-.187.281-.375.281-.467.093-1.029.093-1.497.093h-.28z"/><path stroke-width="1.099" d="M45.17 31.387c-.094 3.275-2.714 5.895-5.989 5.895a5.87 5.87 0 0 1-5.894-5.895 5.87 5.87 0 0 1 5.894-5.894c1.03 0 2.06.28 2.994.748"/><path d="M40 .5C29.093.5 19.218 4.921 12.07 12.07 4.92 19.216.5 29.091.5 40c0 10.907 4.421 20.782 11.57 27.93C19.217 75.078 29.092 79.5 40 79.5c10.908 0 20.783-4.422 27.93-11.57C75.08 60.782 79.5 50.907 79.5 40c0-10.908-4.421-20.783-11.57-27.93C60.784 4.92 50.909.5 40 .5z"/></g></svg>