<svg xmlns="http://www.w3.org/2000/svg" width="80" height="80"><style>*{vector-effect:non-scaling-stroke}</style><g fill="none" fill-rule="evenodd" stroke="#0033A0"><path d="M40 .5C29.092.5 19.217 4.921 12.07 12.07 4.92 19.216.5 29.091.5 40c0 10.908 4.421 20.783 11.57 27.93C19.216 75.08 29.091 79.5 40 79.5c10.908 0 20.783-4.421 27.93-11.57C75.08 60.784 79.5 50.909 79.5 40c0-10.908-4.421-20.783-11.57-27.93C60.784 4.92 50.909.5 40 .5z"/><path stroke-linecap="round" stroke-linejoin="round" d="M43.819 21.972a7.133 7.133 0 1 1-14.266 0 7.133 7.133 0 0 1 14.266 0zm-7.133 44.914c-3.923 0-7.489-2.776-7.976-6.568l-2.2-17.137c-.92-7.17 3.585-14.076 10.176-14.076 6.59 0 11.095 6.907 10.176 14.076l-2.2 17.137c-.487 3.792-4.053 6.568-7.976 6.568z"/><path stroke-linecap="round" stroke-linejoin="round" d="M43.758 18.135a6.038 6.038 0 1 1-.23 7.766m-1.274 5.104c1.523-1.726 3.602-2.814 6.009-2.814 5.578 0 9.391 5.846 8.613 11.914L55.014 54.61c-.413 3.21-3.43 5.559-6.751 5.559a7.156 7.156 0 0 1-3.467-.9"/></g></svg>