<svg xmlns="http://www.w3.org/2000/svg" width="80" height="80"><style>*{vector-effect:non-scaling-stroke}</style><g fill="none" fill-rule="evenodd" stroke="#0033A0"><circle cx="35" cy="25" r="4.5"/><circle cx="50.5" cy="32.5" r="4"/><circle cx="39" cy="42" r="2.5"/><path d="M40 .5C29.092.5 19.217 4.921 12.069 12.069 4.921 19.217.5 29.092.5 40c0 10.908 4.421 20.783 11.57 27.93C19.216 75.08 29.091 79.5 40 79.5c10.908 0 20.783-4.421 27.93-11.57C75.08 60.784 79.5 50.909 79.5 40c0-10.908-4.421-20.783-11.57-27.93C60.784 4.92 50.909.5 40 .5z"/><path stroke-linecap="round" stroke-linejoin="round" d="M36 30L37.5 40"/><path stroke-linecap="round" stroke-linejoin="round" d="M39.5 26.5L47 30"/><path stroke-linecap="round" stroke-linejoin="round" d="M48.5 36L41 40"/><path stroke-linecap="round" stroke-linejoin="round" d="M24.5 63.5c.667-1 1-3.833 1-8.5 0-7-5.5-9.5-5.5-22.5s11-19 20-19 19.5 5 20 12.5.5 11 3 14 2 5 .5 5.5-.5 1.5-1 2.5-1 1-2 1h-3"/><path stroke-linecap="round" stroke-linejoin="round" d="M60.5 51.5c-1.333 1.333-2 2.667-2 4 0 2-.5 3-3 3s-6.5.5-8-1.5-2.5-3.5-2.5-5.5m3 9c-1 1.667-1.5 3.167-1.5 4.5"/></g></svg>