<svg xmlns="http://www.w3.org/2000/svg" width="80" height="80"><style>*{vector-effect:non-scaling-stroke}</style><g fill="none" fill-rule="evenodd"><path fill="#FFF" d="M19.655 56.621a4.827 4.827 0 1 1-9.655 0 4.827 4.827 0 0 1 9.655 0z"/><path stroke="#FFF" stroke-linecap="round" stroke-linejoin="round" d="M45.172 56.621a4.828 4.828 0 1 1-9.655 0 4.828 4.828 0 0 1 9.655 0zm11.035 0a4.828 4.828 0 1 1-9.655 0 4.828 4.828 0 0 1 9.655 0zm11.034 0a4.827 4.827 0 1 1-9.654 0 4.827 4.827 0 0 1 9.654 0zm-52.43-.164L30 23.517m39.395.577c-5.599 1.493-11.767 2.32-18.246 2.32-12.78 0-24.349-3.216-32.723-8.414m43.988 33.646V26.128M51.379 51.646V26.818M40.345 51.646V26.128"/><circle cx="40" cy="40" r="39.5" stroke="#FFF"/></g></svg>