<svg xmlns="http://www.w3.org/2000/svg" width="80" height="80"><style>*{vector-effect:non-scaling-stroke}</style><g fill="none" fill-rule="evenodd"><path fill="#0033A0" d="M39.34 60.943a4.528 4.528 0 1 1 0 9.056 4.528 4.528 0 0 1 0-9.056zm0-17.547a4.528 4.528 0 1 1 0 9.057 4.528 4.528 0 0 1 0-9.057zm-19.812 0a4.529 4.529 0 1 1 0 9.057 4.529 4.529 0 0 1 0-9.057zm40.755 0a4.529 4.529 0 1 1 0 9.057 4.529 4.529 0 0 1 0-9.057zM19.528 26.981a4.528 4.528 0 1 1 0 9.057 4.528 4.528 0 0 1 0-9.057zm40.755 0a4.528 4.528 0 1 1 0 9.057 4.528 4.528 0 0 1 0-9.057zm-20.943 0a4.528 4.528 0 1 1 0 9.057 4.528 4.528 0 0 1 0-9.057zm0-16.981a4.528 4.528 0 1 1 0 9.057 4.528 4.528 0 0 1 0-9.057z"/><path stroke="#0033A0" d="M39.34 14.528L19.528 31.51 39.34 47.925l20.943-16.416L39.34 14.53zM19.528 47.925L39.34 31.509l20.943 16.416L39.34 65.472 19.528 47.925zM39.34 14.528V31.51m0 16.416v17.547m20.943-33.963v16.416M19.528 31.509v16.416"/><circle cx="40" cy="40" r="39.5" stroke="#0033A0"/></g></svg>