<svg xmlns="http://www.w3.org/2000/svg" xmlns:xlink="http://www.w3.org/1999/xlink" width="80" height="80"><style>*{vector-effect:non-scaling-stroke}</style><defs><path id="a" d="M6 0L24 0 24 36 0 36 0 34 6 31z"/><path id="c" d="M0 0L17 0 17 31 22 32 22 34 0 34z"/></defs><g fill="none" fill-rule="evenodd"><circle cx="40.02" cy="40.02" r="39.52" stroke="#FFF"/><g stroke="#FFF" stroke-linecap="round" stroke-linejoin="round" transform="translate(26 26)"><path d="M26.392 3.72c0 2.053-5.734 3.718-12.808 3.718S.776 5.773.776 3.72 6.51 0 13.584 0s12.808 1.665 12.808 3.72zm0 9.669c0 2.054-5.734 3.72-12.808 3.72S.776 15.442.776 13.388m25.616 10.414c0 2.053-5.734 3.719-12.808 3.719S.776 25.856.776 23.802m25.616 10.414c0 2.054-5.734 3.72-12.808 3.72S.776 36.27.776 34.215M24.064 11.53c0 .617-.521 1.116-1.165 1.116-.643 0-1.164-.499-1.164-1.116 0-.615.52-1.115 1.164-1.115.644 0 1.165.5 1.165 1.115zm0 10.414c0 .617-.521 1.116-1.165 1.116-.643 0-1.164-.5-1.164-1.116 0-.616.52-1.116 1.164-1.116.644 0 1.165.5 1.165 1.116zm0 10.414c0 .616-.521 1.115-1.165 1.115-.643 0-1.164-.499-1.164-1.115s.52-1.116 1.164-1.116c.644 0 1.165.5 1.165 1.116z"/><path d="M26.414 34.216L26.414 3.719"/><path d="M0.755 3.719L0.755 34.216"/></g><g transform="translate(46 30)"><mask id="b" fill="#fff"><use xlink:href="#a"/></mask><g stroke="#FFF" stroke-linecap="round" stroke-linejoin="round" mask="url(#b)"><g transform="translate(2 2)"><path d="M20.527 3.132c0 1.73-4.46 3.132-9.962 3.132-5.501 0-9.961-1.402-9.961-3.132C.604 1.402 5.064 0 10.565 0c5.502 0 9.963 1.402 9.963 3.132zm0 8.143c0 1.73-4.46 3.132-9.962 3.132-5.501 0-9.961-1.402-9.961-3.132m19.923 8.77c0 1.729-4.46 3.131-9.962 3.131-5.501 0-9.961-1.402-9.961-3.132m19.923 8.77c0 1.73-4.46 3.132-9.962 3.132-5.501 0-9.961-1.403-9.961-3.132M18.716 9.709c0 .52-.405.94-.905.94s-.906-.42-.906-.94c0-.519.405-.94.906-.94.5 0 .905.421.905.94zm0 8.77c0 .519-.405.939-.905.939s-.906-.42-.906-.94c0-.518.405-.94.906-.94.5 0 .905.422.905.94zm0 8.769c0 .519-.405.94-.905.94s-.906-.421-.906-.94c0-.519.405-.94.906-.94.5 0 .905.421.905.94z"/><path d="M20.544 28.814L20.544 3.132"/><path d="M0.587 3.132L0.587 28.814"/></g></g></g><g transform="translate(10 31)"><mask id="d" fill="#fff"><use xlink:href="#c"/></mask><g stroke="#FFF" stroke-linecap="round" stroke-linejoin="round" mask="url(#d)"><g transform="translate(2 1)"><path d="M20.527 3.132c0 1.73-4.46 3.132-9.962 3.132-5.501 0-9.961-1.402-9.961-3.132C.604 1.402 5.064 0 10.565 0c5.502 0 9.963 1.402 9.963 3.132zm0 8.143c0 1.73-4.46 3.132-9.962 3.132-5.501 0-9.961-1.402-9.961-3.132m19.923 8.77c0 1.729-4.46 3.131-9.962 3.131-5.501 0-9.961-1.402-9.961-3.132m19.923 8.77c0 1.73-4.46 3.132-9.962 3.132-5.501 0-9.961-1.403-9.961-3.132M18.716 9.709c0 .52-.405.94-.905.94s-.906-.42-.906-.94c0-.519.405-.94.906-.94.5 0 .905.421.905.94zm0 8.77c0 .519-.405.939-.905.939s-.906-.42-.906-.94c0-.518.405-.94.906-.94.5 0 .905.422.905.94zm0 8.769c0 .519-.405.94-.905.94s-.906-.421-.906-.94c0-.519.405-.94.906-.94.5 0 .905.421.905.94z"/><path d="M20.544 28.814L20.544 3.132"/><path d="M0.587 3.132L0.587 28.814"/></g></g></g><path stroke="#FFF" stroke-linejoin="round" d="M43.688 22l-3.993-2.934a.356.356 0 0 0-.195-.06.356.356 0 0 0-.195.06L35.312 22l1.606-4.815a.342.342 0 0 0 .008-.188.275.275 0 0 0-.098-.158L33 13.544h4.579c.07 0 .132-.018.187-.053a.265.265 0 0 0 .113-.143L39.5 9l1.621 4.348c.02.06.058.108.113.143a.341.341 0 0 0 .187.053H46l-3.828 3.295a.275.275 0 0 0-.098.158.342.342 0 0 0 .008.188L43.688 22z"/></g></svg>