<svg xmlns="http://www.w3.org/2000/svg" width="80" height="80"><style>*{vector-effect:non-scaling-stroke}</style><g fill="none" fill-rule="evenodd"><path fill="#FFF" d="M29.202 66.637a1.385 1.385 0 1 1 1.958 1.96 1.385 1.385 0 0 1-1.958-1.96zm18.796.054a1.31 1.31 0 1 1 0 0zM26.783 45.473a4.807 4.807 0 0 1 6.797 0 4.79 4.79 0 0 1 1.392 3.707c-.287 4.598 1.777 5.745 4.779 5.935l-.011.011a3.107 3.107 0 0 1 2.029.9 3.135 3.135 0 1 1-4.433 4.434 3.113 3.113 0 0 1-.9-2.03l-.011.012c-.19-3.003-1.338-5.067-5.94-4.775a5.754 5.754 0 0 1-.652-.007c-4.79-.34-5.913 1.89-6.121 4.793l-.012-.011a2.888 2.888 0 0 1-.833 1.86 2.91 2.91 0 1 1-4.117-4.116 2.883 2.883 0 0 1 1.862-.833l-.011-.01c2.902-.21 5.132-1.334 4.787-6.126a4.806 4.806 0 0 1 1.395-3.744zM56.098 37.3a3.111 3.111 0 0 1 4.4 4.4 3.089 3.089 0 0 1-2.023.894l.01.011c-3.053.186-5.133 1.348-4.85 5.98.007.21.007.427-.009.642-.347 4.701 2.131 6.068 4.875 6.273l-.01.011c.638.045 1.264.3 1.752.787a2.752 2.752 0 1 1-3.892 3.892 2.732 2.732 0 0 1-.788-1.752l-.01.01c-.206-2.744-1.572-5.222-6.277-4.87a4.719 4.719 0 0 1-3.688-8.042 4.701 4.701 0 0 1 3.629-1.369c4.627.277 5.789-1.802 5.975-4.856l.01.011c.043-.736.334-1.46.896-2.022zM10.422 47.854a1.435 1.435 0 1 1 2.032 2.031 1.436 1.436 0 1 1-2.032-2.03zm56.321.09a1.31 1.31 0 1 1 1.853 1.852 1.31 1.31 0 0 1-1.853-1.851zM35.78 35.729a5.334 5.334 0 1 1 7.544 7.543 5.334 5.334 0 0 1-7.544-7.543zM18.804 18.75a2.834 2.834 0 0 1 4.01 0c.504.503.767 1.15.812 1.808l.011-.011c.21 2.829 1.423 5.164 6.192 4.812a4.782 4.782 0 0 1 3.733 8.149 4.766 4.766 0 0 1-3.68 1.387c-4.577-.277-5.735 1.772-5.922 4.798l-.012-.012a3.126 3.126 0 0 1-.907 2.051 3.156 3.156 0 0 1-4.465 0 3.156 3.156 0 0 1 0-4.465 3.133 3.133 0 0 1 2.05-.909l-.011-.01c3.026-.186 5.075-1.345 4.794-5.928-.01-.213-.01-.43.007-.648.348-4.765-1.988-5.98-4.816-6.188l.01-.01a2.813 2.813 0 0 1-1.806-.813 2.835 2.835 0 0 1 0-4.011zm18.532-.21a3.134 3.134 0 0 1 4.433 0 3.11 3.11 0 0 1 .9 2.032l.011-.012c.19 3.018 1.342 5.082 5.947 4.796a5.79 5.79 0 0 1 .653.006c4.765.35 5.98-1.987 6.189-4.815l.01.011a2.815 2.815 0 0 1 .813-1.809 2.837 2.837 0 0 1 4.011 4.012 2.814 2.814 0 0 1-1.808.812l.01.012c-2.828.208-5.163 1.423-4.812 6.19a4.782 4.782 0 0 1-8.15 3.732 4.768 4.768 0 0 1-1.386-3.682c.283-4.601-1.78-5.753-4.8-5.942l.012-.011a3.111 3.111 0 0 1-2.033-.9 3.135 3.135 0 0 1 0-4.433zM10.46 29.148a1.383 1.383 0 1 1 1.956 1.956 1.383 1.383 0 0 1-1.956-1.956zm56.27.037a1.332 1.332 0 0 1 1.881 1.883 1.331 1.331 0 0 1-1.882-1.883zm-37.527-18.78a1.383 1.383 0 1 1 1.958 1.955 1.383 1.383 0 0 1-1.958-1.955zm18.745 0a1.382 1.382 0 1 1 1.956 1.956 1.382 1.382 0 0 1-1.955 0 1.38 1.38 0 0 1-.001-1.956z"/><circle cx="40" cy="40" r="39.5" stroke="#FFF"/></g></svg>