<svg xmlns="http://www.w3.org/2000/svg" width="80" height="80" viewBox="0 0 80 80"><style>*{vector-effect:non-scaling-stroke}</style><g fill="none" fill-rule="evenodd" stroke="#FFFFFF"><path d="M40,0.5 C29.0921603,0.5 19.2172457,4.92115139 12.0692487,12.0691484 C4.92111211,19.217285 0.5,29.092372 0.5,40 C0.5,50.907628 4.92111211,60.782715 12.0692487,67.9308516 C19.2172457,75.0788486 29.0921603,79.5 40,79.5 C50.9075215,79.5 60.7825208,75.0787595 67.9306402,67.9306402 C75.0787595,60.7825208 79.5,50.9075215 79.5,40 C79.5,29.0924785 75.0787595,19.2174792 67.9306402,12.0693598 C60.7825208,4.92124047 50.9075215,0.5 40,0.5 Z"/><path stroke-linecap="round" stroke-linejoin="round" d="M43.8189247 21.9716129C43.8189247 25.9113978 40.6249462 29.1045161 36.6860215 29.1045161 32.7462366 29.1045161 29.5531183 25.9113978 29.5531183 21.9716129 29.5531183 18.031828 32.7462366 14.8387097 36.6860215 14.8387097 40.6249462 14.8387097 43.8189247 18.031828 43.8189247 21.9716129zM36.6860215 66.8855054L36.6860215 66.8855054C32.7625806 66.8855054 29.1969892 64.1095914 28.7101075 60.3177634L26.5105376 43.1805591C25.5901075 36.0115269 30.0950538 29.1048602 36.6860215 29.1048602 43.276129 29.1048602 47.7810753 36.0115269 46.8615054 43.1805591L44.6610753 60.3177634C44.1750538 64.1095914 40.6094624 66.8855054 36.6860215 66.8855054z"/><path stroke-linecap="round" stroke-linejoin="round" d="M43.7575914 18.1346237C44.8629677 16.895914 46.4715699 16.1165591 48.2625376 16.1165591 51.5967312 16.1165591 54.3003871 18.8193548 54.3003871 22.1535484 54.3003871 25.4877419 51.5967312 28.1905376 48.2625376 28.1905376 46.3442581 28.1905376 44.6350108 27.295914 43.527914 25.9006452M42.2539355 31.0050753C43.7773763 29.2794839 45.8556559 28.1913118 48.2625376 28.1913118 53.8410323 28.1913118 57.6543656 34.0373333 56.875871 40.1052903L55.0135054 54.6102366C54.6014624 57.8205591 51.583828 60.1689462 48.2625376 60.1689462 47.0255484 60.1689462 45.8298495 59.8429247 44.795871 59.2683011"/></g></svg>