<svg xmlns="http://www.w3.org/2000/svg" width="80" height="80"><style>*{vector-effect:non-scaling-stroke}</style><g fill="none" fill-rule="evenodd" stroke="#0033A0"><circle cx="40.02" cy="40.02" r="39.52"/><g stroke-linecap="round" stroke-linejoin="round" transform="translate(38.92 16.56)"><path d="M31.28 4.6c0 2.54-6.797 4.6-15.18 4.6C7.715 9.2.92 7.14.92 4.6.92 2.06 7.716 0 16.1 0c8.383 0 15.18 2.06 15.18 4.6zm0 11.96c0 2.54-6.797 4.6-15.18 4.6-8.384 0-15.18-2.06-15.18-4.6m30.36 12.88c0 2.54-6.797 4.6-15.18 4.6-8.384 0-15.18-2.06-15.18-4.6m30.36 12.88c0 2.54-6.797 4.6-15.18 4.6-8.384 0-15.18-2.06-15.18-4.6m27.6-28.06a1.38 1.38 0 1 1-2.759.001 1.38 1.38 0 0 1 2.759-.001zm0 12.88a1.38 1.38 0 1 1-2.759.001 1.38 1.38 0 0 1 2.759-.001zm0 12.88a1.38 1.38 0 1 1-2.759.001 1.38 1.38 0 0 1 2.759-.001z"/><path d="M31.306 42.32L31.306 4.6"/><path d="M0.894 4.6L0.894 42.32"/></g><path stroke-linecap="round" stroke-linejoin="round" d="M37 32L24 32"/><path stroke-linecap="round" stroke-linejoin="round" d="M36 50.5L30 50.5"/><path stroke-linecap="round" stroke-linejoin="round" d="M39 41.5L4 41.5"/><path stroke-linecap="round" stroke-linejoin="round" d="M39 57L20 57"/><path stroke-linecap="round" stroke-linejoin="round" d="M39 23L10 23"/></g></svg>