<svg xmlns="http://www.w3.org/2000/svg" width="80" height="80"><style>*{vector-effect:non-scaling-stroke}</style><g fill="none" fill-rule="evenodd" stroke="#FFF"><path d="M40 .5C29.092.5 19.217 4.921 12.069 12.069 4.921 19.217.5 29.092.5 40c0 10.908 4.421 20.783 11.57 27.93C19.216 75.08 29.091 79.5 40 79.5c10.908 0 20.783-4.421 27.93-11.57C75.08 60.784 79.5 50.909 79.5 40c0-10.908-4.421-20.783-11.57-27.93C60.784 4.92 50.909.5 40 .5z"/><circle cx="40" cy="38" r="14.5"/><path stroke-linecap="round" d="M61.5 63L48.5 50.5"/><path stroke-linecap="round" stroke-linejoin="round" d="M29 36L43 36"/><path stroke-linecap="round" stroke-linejoin="round" d="M35.5 41L50 41"/><path stroke-linecap="round" stroke-linejoin="round" d="M31.5 46.5L40.5 46.5"/><path stroke-linecap="round" stroke-linejoin="round" d="M55 30.5L61.5 30.5 61.5 26.5 71 36 61.5 45.5 61.5 41 57 41"/><path stroke-linecap="round" stroke-linejoin="round" transform="rotate(180 17 41.5)" d="M9 36L15.5 36 15.5 32 25 41.5 15.5 51 15.5 46.5 11 46.5"/><path stroke-linecap="round" stroke-linejoin="round" d="M38 31L47 31"/></g></svg>