<svg xmlns="http://www.w3.org/2000/svg" width="58" height="80"><style>*{vector-effect:non-scaling-stroke}</style><g fill="none" fill-rule="evenodd" stroke="#FFF"><g><path d="M47.316.5H16.76L.5 16.759v53.546h28.178a15.655 15.655 0 0 1-.667-4.944 15.62 15.62 0 0 1 4.86-10.965 15.626 15.626 0 0 1 11.193-4.316c1.118.027 2.206.171 3.253.42V.5z"/><path stroke-linecap="round" d="M7.356 25.747L40.46 25.747"/><path stroke-linecap="round" d="M7.356 31.264L40.46 31.264"/><path stroke-linecap="round" d="M7.356 36.782L40.46 36.782"/><path stroke-linecap="round" d="M7.356 42.299L33.103 42.299"/><path stroke-linecap="round" d="M7.356 47.816L25.747 47.816"/><path stroke-linecap="round" d="M7.356 53.333L20.23 53.333"/><path stroke-linecap="round" d="M7.356 58.851L18.391 58.851"/><path stroke-linecap="round" stroke-linejoin="round" d="M17.471 0L17.471 16.552 0.92 16.552"/></g><g transform="translate(27.586 49.655)"><path d="M15.534.505a14.629 14.629 0 0 0-10.479 4.04 14.623 14.623 0 0 0-4.55 10.266 14.624 14.624 0 0 0 4.04 10.478A14.628 14.628 0 0 0 14.81 29.84c4.05.1 7.758-1.451 10.478-4.04a14.627 14.627 0 0 0 4.551-10.266c.1-4.05-1.45-7.758-4.04-10.477A14.628 14.628 0 0 0 15.534.505z"/><path stroke-linecap="round" d="M15.632 7.356L15.632 22.989"/><path stroke-linecap="round" d="M8.276 15.632L15.632 22.989 22.989 15.632"/></g></g></svg>