<svg xmlns="http://www.w3.org/2000/svg" width="80" height="80"><style>*{vector-effect:non-scaling-stroke}</style><g fill="none" fill-rule="evenodd"><path stroke="#0033A0" d="M40 .5C29.092.5 19.217 4.921 12.07 12.07 4.92 19.216.5 29.091.5 40c0 10.908 4.421 20.783 11.57 27.93C19.216 75.08 29.091 79.5 40 79.5c10.908 0 20.783-4.421 27.93-11.57C75.08 60.784 79.5 50.909 79.5 40c0-10.908-4.421-20.783-11.57-27.93C60.784 4.92 50.909.5 40 .5z"/><g transform="translate(7 12)"><path stroke="#0033A0" stroke-linecap="round" stroke-linejoin="round" d="M47.402 12.212c0 2.228-6.327 4.034-14.13 4.034-7.806 0-14.133-1.806-14.133-4.034 0-2.23 6.327-4.035 14.132-4.035 7.804 0 14.131 1.806 14.131 4.035zm0 11.211c0 2.228-6.327 4.035-14.13 4.035-7.806 0-14.133-1.807-14.133-4.035m28.263 11.212c0 2.228-6.327 4.035-14.13 4.035-7.806 0-14.133-1.807-14.133-4.035m28.263 11.212c0 2.228-6.327 4.035-14.13 4.035-7.806 0-14.133-1.807-14.133-4.035"/><path stroke="#0033A0" stroke-linecap="round" stroke-linejoin="round" d="M19.139 12.212L19.139 45.846"/><path stroke="#0033A0" stroke-linecap="round" stroke-linejoin="round" d="M47.402 45.847L47.402 12.212"/><path stroke="#0033A0" stroke-linecap="round" stroke-linejoin="round" d="M44.717 22.387a1.036 1.036 0 1 1-2.072 0 1.036 1.036 0 0 1 2.072 0zm0 11.212a1.036 1.036 0 1 1-2.072 0 1.036 1.036 0 0 1 2.072 0zm0 11.61a1.036 1.036 0 1 1-2.072 0 1.036 1.036 0 0 1 2.072 0z"/><path stroke="#0033A0" stroke-linecap="round" stroke-linejoin="round" d="M37.447 8.186L52.852 1.678 62.014 12.7 47.539 20.004"/><path stroke="#0033A0" stroke-linecap="round" stroke-linejoin="round" d="M59.491 13.895L65.201 20.8 47.672 29.963"/><path stroke="#0033A0" stroke-linecap="round" stroke-linejoin="round" d="M60.022 23.59L65.732 30.229 47.54 39.258"/><path stroke="#0033A0" stroke-linecap="round" stroke-linejoin="round" d="M24.965 49.351L12.217 54.398 3.718 43.641 5.444 42.844 4.382 41.25 10.225 38.861 11.155 39.923 19.388 36.072"/><path stroke="#0033A0" stroke-linecap="round" stroke-linejoin="round" d="M6.108 40.587L0.797 32.885 2.523 32.088 1.461 30.495 7.303 28.104 8.234 29.166 19.786 24.253"/><path stroke="#0033A0" stroke-linecap="round" stroke-linejoin="round" d="M4.563 29.082L0 22.128 1.727 21.332 0.664 19.739 6.507 17.348 7.437 18.41 18.989 13.498"/><path stroke="#0033A0" stroke-linecap="round" stroke-linejoin="round" d="M43.158 3.405s-8.88-7.483-20.562-.262"/><path fill="#0033A0" d="M23.324 1.061L22.828 3.041 24.808 3.535 23.757 4.165 21.779 3.67 22.274 1.691z"/><path stroke="#0033A0" stroke-linecap="round" stroke-linejoin="round" d="M27.442 54.418s9.772 6.27 20.422-2.404"/><path fill="#0033A0" d="M47.411 54.173L47.647 52.146 45.619 51.912 46.579 51.15 48.606 51.386 48.372 53.412z"/></g></g></svg>