<svg xmlns="http://www.w3.org/2000/svg" width="80" height="80"><style>*{vector-effect:non-scaling-stroke}</style><g fill="none" fill-rule="evenodd"><path stroke="#FFF" stroke-width=".912" d="M8.491 39.38c.776 3.104 4.577 9.108 9.1 12.047 2.172 1.42 4.196 1.902 6.012 1.46 2.444-.598 3.755-2.848 3.878-6.665a.72.72 0 0 0 0-.209c.109-.341.249-.38.295-.396.87-.248 3.383 2.041 5.431 3.88.574.51 1.148 1.039 1.722 1.55 2.327 2.04 4.422 3.104 6.144 3.104.148.011.296.011.443 0a3.572 3.572 0 0 0 2.56-1.552c.775-1.125.496-3.475.07-5.98-.102-.598-.218-1.28-.218-1.381a1.43 1.43 0 0 1 1.07-.776c1.405-.295 3.508.574 5.36 2.195 2.329 2.033 4.926 3.056 6.983 2.73a3.379 3.379 0 0 0 2.475-1.605c.985-1.652.62-4.229-.862-6.75 2.98 1.35 6.393 1.428 8.93.109a6.856 6.856 0 0 0 3.653-6.143c.07-2.801-.675-4.772-2.234-5.913-2.187-1.605-5.85-1.55-11.179.14 1.249-2.095 1.599-4.165.916-5.709a3.738 3.738 0 0 0-2.614-2.08c-2.056-.495-4.616.272-6.843 2.057-4.328 3.475-7.501 4.452-8.276 4.484a5.426 5.426 0 0 1 .666-1.661c.776-1.551 1.854-3.669.55-5.6a3.204 3.204 0 0 0-2.133-1.42c-1.815-.358-4.313.551-7.44 2.676a33.704 33.704 0 0 0-4.724 3.964c-.28.271-.566.551-.776.73a9.788 9.788 0 0 0-5.15-5.385 5.617 5.617 0 0 0-5.097.521c-6.136 3.808-8.58 11.985-9.084 16.174l.372 1.405z"/><path stroke="#FFF" stroke-width=".912" d="M35.79 56.626a5.725 5.725 0 1 0-6.299 8.532 5.726 5.726 0 0 0 6.299-8.494v-.038zm.023 10.263c-.547 1.737.494 3.578 2.243 4.089.08.023.164.044.248.062.254.06.514.095.776.1a3.297 3.297 0 0 0 3.195-2.498 3.305 3.305 0 0 0-2.397-3.996s-3.109-.792-4.065 2.243z"/><path stroke="#FFF" d="M40 .5C29.092.5 19.217 4.921 12.07 12.07 4.92 19.216.5 29.091.5 40c0 10.908 4.421 20.783 11.57 27.93C19.216 75.08 29.091 79.5 40 79.5c10.908 0 20.783-4.421 27.93-11.57C75.08 60.784 79.5 50.909 79.5 40c0-10.908-4.421-20.783-11.57-27.93C60.784 4.92 50.909.5 40 .5z"/><path fill="#FFF" d="M5.345 37.575c5.282-1 10.554-1.642 15.858-2.172 5.299-.516 10.61-.866 15.925-1.086 5.315-.174 10.633-.297 15.948-.194 2.658 0 5.313.13 7.968.2 2.655.097 5.307.267 7.96.397-2.656-.066-5.31-.17-7.965-.204-2.655-.004-5.31-.07-7.963-.006-5.31.028-10.613.28-15.908.581-5.294.348-10.577.827-15.838 1.47-5.25.651-10.518 1.427-15.65 2.53l-.027.005a.776.776 0 1 1-.308-1.52"/></g></svg>