<svg height="80" viewBox="0 0 80 80" width="80" xmlns="http://www.w3.org/2000/svg"><style>*{vector-effect:non-scaling-stroke}</style><g fill="none" fill-rule="evenodd" stroke="#0033a0"><path d="m40 .5c-10.9076159 0-20.7826159 4.42119213-27.9307119 11.5692881-7.14809597 7.148096-11.5692881 17.023096-11.5692881 27.9307119 0 10.9076789 4.42124217 20.7829421 11.5694086 27.9312621 7.1480855 7.1482392 17.0230355 11.5695975 27.9305914 11.5695975s20.7825059-4.4213583 27.9305914-11.5695975c7.1481664-7.14832 11.5694086-17.0235832 11.5694086-27.9312621 0-10.9076159-4.4211921-20.7826159-11.5692881-27.9307119-7.148096-7.14809597-17.023096-11.5692881-27.9307119-11.5692881z"/><g stroke-linecap="round" stroke-linejoin="round"><path d="m59.1735319 25.9473191-13.8987234 3.7523405v3.8365957l13.8987234-3.3251064zm0 7.3336171-13.9846808 2.9846808v3.8374468l13.8995744-2.4731915zm0 14.9217021-13.9846808 1.3651064v3.9225532l13.9846808-.852766zm0-7.4178723-13.9846808 2.1310638v3.8374468l13.9846808-1.7055319zm0 14.9225531-13.9846808.5114894v3.9225532h13.9846808z"/><path d="m69.408 65.726h-31.443"/><path d="m40.084 65.264v-38.877l24.965-8.171 11.213 6.83"/><path d="m64.736 18.146v47.51"/><path d="m44.321 23.058v-5.598l20.372-7.683"/><path d="m40.246 19.406h-24.057"/><path d="m36.04 28.266h-10.43"/><path d="m34.205 40.439h-28.094"/><path d="m37.386 51.019h-8.748"/><path d="m38.731 59.274h-22.374"/></g></g></svg>