<svg xmlns="http://www.w3.org/2000/svg" xmlns:xlink="http://www.w3.org/1999/xlink" width="80" height="80"><style>*{vector-effect:non-scaling-stroke}</style><defs><circle id="a" cx="40.02" cy="40.02" r="40.02"/></defs><g fill="none" fill-rule="evenodd"><circle cx="40.02" cy="40.02" r="39.52" stroke="#FFF"/><mask id="b" fill="#fff"><use xlink:href="#a"/></mask><circle cx="40.02" cy="40.02" r="39.52" stroke="#FFF"/><path stroke="#FFF" stroke-linecap="round" stroke-linejoin="round" d="M26.814 60.994A29.08 29.08 0 0 0 34 41.812a29.08 29.08 0 0 0-7.185-19.18m-4.256 4.255a22.05 22.05 0 0 1 5.79 14.925 22.05 22.05 0 0 1-5.79 14.927m-4.71-4.71a13.158 13.158 0 0 0 4.85-10.217c0-4.12-1.889-7.798-4.849-10.215" mask="url(#b)" transform="matrix(-1 0 0 1 51.85 0)"/><path stroke="#FFF" stroke-linecap="round" stroke-linejoin="round" d="M65 9c-6.667.667-11.667 2.333-15 5-5 4-7 8-7 13s0 6-2 9-3 4.265-3 6c0 1.638 2 2 3 2s1 2 1 3 1 2 2 2 2 1 0 2-1 2 0 3 1 2 1 4 1 4 5 4 8-1 8 5" mask="url(#b)"/></g></svg>