<svg xmlns="http://www.w3.org/2000/svg" xmlns:xlink="http://www.w3.org/1999/xlink" width="80" height="80"><style>*{vector-effect:non-scaling-stroke}</style><defs><path id="a" d="M0.44 4.6L15.44 0.6 15.44 14.6 30.44 20.6 45.44 14.6 45.44 0.6 59.44 5.6 61 47 0 47z"/><path id="c" d="M0.5 0L32 0 32 29 16 35.5 0.5 29z"/></defs><g fill="none" fill-rule="evenodd"><circle cx="40.02" cy="40.02" r="39.52" stroke="#FFF"/><g transform="translate(9.56 25.4)"><mask id="b" fill="#fff"><use xlink:href="#a"/></mask><g stroke="#FFF" stroke-linecap="round" stroke-linejoin="round" mask="url(#b)"><g transform="translate(3.44 -1)"><path d="M48 25.6L47.88 36.8 27 47.6 27 22.6"/><path transform="matrix(-1 0 0 1 33 0)" d="M27 25.6L26.88 36.8 6 47.6 6 22.6"/><path d="M48 13.6L27 5.6 38 0 54.48 8.6z"/><path transform="matrix(-1 0 0 1 27.48 0)" d="M21 13.6L0 5.6 11 0 27.48 8.6z"/><path d="M35 31.68L54.4 22.528 48 13.6 27 22.6z"/><path transform="matrix(-1 0 0 1 27.4 0)" d="M8 31.68L27.4 22.528 21 13.6 0 22.6z"/></g></g></g><g transform="translate(24 11)"><mask id="d" fill="#fff"><use xlink:href="#c"/></mask><path stroke="#FFF" stroke-linecap="round" stroke-linejoin="round" d="M31.28 6.6c0 2.54-6.797 4.6-15.18 4.6C7.715 11.2.92 9.14.92 6.6.92 4.06 7.716 2 16.1 2c8.383 0 15.18 2.06 15.18 4.6zm0 11.96c0 2.54-6.797 4.6-15.18 4.6-8.384 0-15.18-2.06-15.18-4.6m30.36 12.88c0 2.54-6.797 4.6-15.18 4.6-8.384 0-15.18-2.06-15.18-4.6m30.36 12.88c0 2.54-6.797 4.6-15.18 4.6-8.384 0-15.18-2.06-15.18-4.6m27.6-28.06a1.38 1.38 0 1 1-2.759.001 1.38 1.38 0 0 1 2.759-.001zm0 12.88a1.38 1.38 0 1 1-2.759.001 1.38 1.38 0 0 1 2.759-.001zm0 12.88a1.38 1.38 0 1 1-2.759.001 1.38 1.38 0 0 1 2.759-.001z" mask="url(#d)"/><path stroke="#FFF" stroke-linecap="round" stroke-linejoin="round" mask="url(#d)" d="M31.306 44.32L31.306 6.6"/><path stroke="#FFF" stroke-linecap="round" stroke-linejoin="round" mask="url(#d)" d="M0.894 6.6L0.894 44.32"/></g></g></svg>