<svg xmlns="http://www.w3.org/2000/svg" width="80" height="80"><style>*{vector-effect:non-scaling-stroke}</style><g fill="none" fill-rule="evenodd" stroke="#FFF"><circle cx="40.02" cy="40.02" r="39.52"/><path d="M59.274 39.437a7.36 7.36 0 1 1-12.748 7.36zM48.3 35.149a7.36 7.36 0 0 1 10.054 2.694l-12.748 7.36A7.36 7.36 0 0 1 48.3 35.15z"/><path d="M39.496 59.181c-1.355 2.347-4.416 3.117-6.836 1.72-2.42-1.398-3.284-4.433-1.929-6.78zm-1.01-8.252c2.421 1.397 3.285 4.432 1.93 6.78l-8.765-5.06c1.355-2.348 4.416-3.117 6.836-1.72z"/><g><path d="M43.26 22.118a6.737 6.737 0 0 0-4.787-1.987c-1.737 0-3.498.66-4.92 1.993l-6.146 6.146 9.7 9.701 6.316-6.32a6.839 6.839 0 0 0 1.845-4.796 6.837 6.837 0 0 0-2.008-4.737z"/><path d="M21.198 44.18a6.737 6.737 0 0 0 4.787 1.987c1.737 0 3.498-.66 4.92-1.993l6.146-6.147-9.701-9.7-6.315 6.32a6.839 6.839 0 0 0-1.845 4.796 6.837 6.837 0 0 0 2.008 4.736z"/></g></g></svg>