<svg xmlns="http://www.w3.org/2000/svg" width="80" height="80"><style>*{vector-effect:non-scaling-stroke}</style><g fill="none" fill-rule="evenodd" stroke="#0033A0"><circle cx="40.02" cy="40.02" r="39.52"/><path stroke-linejoin="round" d="M39.526 62.108l-13.15-13.15a.393.393 0 0 0-.292-.125h-8.916a2.55 2.55 0 0 1-2.55-2.55V32.415a2.56 2.56 0 0 1 2.55-2.55h8.916a.39.39 0 0 0 .292-.125l13.15-13.142v45.509z"/><path stroke-linecap="round" stroke-linejoin="round" d="M54.37 59.37A30.88 30.88 0 0 0 62 39a30.88 30.88 0 0 0-7.63-20.368m-4.52 4.519A23.415 23.415 0 0 1 56 39c0 6.108-2.33 11.671-6.15 15.85m-5-5A13.972 13.972 0 0 0 50 39c0-4.375-2.007-8.281-5.15-10.848"/></g></svg>