<svg xmlns="http://www.w3.org/2000/svg" width="80" height="80"><style>*{vector-effect:non-scaling-stroke}</style><g fill="none" fill-rule="evenodd" stroke="#FFF"><circle cx="40.02" cy="40.02" r="39.52"/><g transform="translate(17.48 15.64)"><path d="M19.32 10.62H2.76c-.624 0-1.19.253-1.598.662A2.253 2.253 0 0 0 .5 12.88v26.68c0 .624.253 1.19.662 1.598.409.409.974.662 1.598.662H13.3l.005-15.323a3.251 3.251 0 0 1 1.022-2.192 3.249 3.249 0 0 1 2.233-.885h5.02V12.88c0-.624-.253-1.19-.662-1.598a2.253 2.253 0 0 0-1.598-.662z"/><rect width="8.2" height="10.04" x="6.94" y=".5" rx=".92"/><rect width="2.68" height="2.68" x="3.26" y="41.9" rx=".92"/><path stroke-linecap="round" d="M6.44 14.72L6.44 36.8"/><path stroke-linecap="round" d="M11.04 14.72L11.04 36.8"/><path stroke-linecap="round" d="M15.64 14.72L15.64 23.46"/></g><g transform="translate(30.36 34.96)"><rect width="31.2" height="21.08" x=".5" y="4.18" rx="2.76"/><rect width="8.2" height="3.6" x="12.46" y=".5" rx=".92"/><path stroke-linecap="round" d="M7.36 4.6L7.36 25.3"/><path stroke-linecap="round" d="M25.76 4.6L25.76 25.3"/></g></g></svg>