<svg height="80" viewBox="0 0 80 80" width="80" xmlns="http://www.w3.org/2000/svg" xmlns:xlink="http://www.w3.org/1999/xlink"><style>*{vector-effect:non-scaling-stroke}</style><mask id="a" fill="#fff"><circle cx="40.02" cy="40.02" fill="#fff" fill-rule="evenodd" r="40.02"/></mask><g fill="none" fill-rule="evenodd"><circle cx="40.02" cy="40.02" r="39.52" stroke="#0033a0"/><g mask="url(#a)"><g transform="translate(50 12.874)"><path d="m16.6556322 40.2390805-.8662069-2.2418391-.8754023 2.2418391zm.3586207.9167816h-2.4579311l-.5664367 1.4583908h-1.1163219l2.3742529-5.8326437h1.0997701l2.365977 5.8326437h-1.1411494z" fill="#0033a0"/><path d="m21.142 42.614h1.108v-5.832h-1.108z" fill="#0033a0"/><g stroke="#0033a0" stroke-linejoin="round"><path d="m6.437 50.575h23.908v-21.15h-23.908z"/><path d="m0 50.575h6.437v-34.023h-6.437z"/><path d="m11.287 27.317v-4.393h6.589v4.393"/><path d="m1.83908046 13.7931034c0-6.09433156 1.68551005-11.03448271 8.99032804-11.03448271h1.1246145"/><path d="m10.1149425 6.43678161c0-3.04737265 2.375856-5.51724138 5.3072339-5.51724138 2.1269822 0 3.9606489 1.30100081 4.8077087 3.17858153"/><path d="m5.51724138 13.7931034c0-1.7583452 2.96431137-3.1835022 6.62072662-3.1835022h16.5522786c2.4366861 0 4.4132017-1.8996171 4.4132017-4.24348511 0-3.91207385-2.9643114-6.36611609-6.6207266-6.36611609-3.6564153 0-6.6207267 2.85031409-6.6207267 6.36611609m-7.907972 14.78330921c0-3.221636.4437759-6.1432856 1.8390804-8.2758621"/><path d="m16.5517241 21.1494253c0-1.8755683 2.9643114-3.3957358 6.6207267-3.3957358h16.5513545c2.4376101 0 4.4141257-2.0262582 4.4141257-4.5263841 0-4.17382647-2.9643113-6.79052379-6.6207266-6.79052379-.7734191 0-1.5172691.13647389-2.2075249.38667602"/></g></g></g><g mask="url(#a)" stroke="#0033a0" stroke-linecap="round" stroke-width=".92"><g transform="translate(11.173 30.724)"><path d="m36.988.423h-36.988"/><path d="m39.188 30.809h-36.988"/><path d="m41.897 5.163h-33.349"/><path d="m36.056 16.082h-21.329"/><path d="m41.643 26.408h-31.402"/><path d="m43.251 21.837h-8.718"/><path d="m30.808 21.837h-8.718"/><path d="m34.11 10.411h-14.728"/></g></g></g></svg>