<svg xmlns="http://www.w3.org/2000/svg" width="442" height="40"><g fill="#0033A0" fill-rule="evenodd" transform="translate(.5)"><path fill-rule="nonzero" d="M163.4568,31.5058203 L166.5112,24.0690203 L177.8656,24.0690203 L180.8868,31.5058203 L182.58,31.5058203 L172.9852,8.26582028 L171.3584,8.26582028 L161.7636,31.5058203 L163.4568,31.5058203 Z M177.268,22.6414203 L167.0756,22.6414203 L172.1884,10.1582203 L177.268,22.6414203 Z M187.226,31.5058203 L187.226,22.2430203 C187.226,21.0699536 187.4418,20.0296869 187.8734,19.1222203 C188.305,18.2147536 188.897067,17.5064869 189.6496,16.9974203 C190.402133,16.4883536 191.265333,16.2338203 192.2392,16.2338203 C192.814667,16.2338203 193.456533,16.3223536 194.1648,16.4994203 L194.1648,16.4994203 L194.3972,15.2046203 C193.711067,14.9832869 193.013867,14.8726203 192.3056,14.8726203 C191.1104,14.8726203 190.053533,15.1548203 189.135,15.7192203 C188.216467,16.2836203 187.535867,17.0638203 187.0932,18.0598203 L187.0932,18.0598203 L186.9272,15.2046203 L185.6324,15.2046203 L185.6324,31.5058203 L187.226,31.5058203 Z M202.1972,31.8046203 C202.7284,31.8046203 203.165533,31.7714203 203.5086,31.7050203 C203.851667,31.6386203 204.244533,31.5058203 204.6872,31.3066203 L204.6872,31.3066203 L204.488,30.1114203 C204.045333,30.2442203 203.6912,30.3382869 203.4256,30.3936203 C203.16,30.4489536 202.850133,30.4766203 202.496,30.4766203 C201.6328,30.4766203 201.040733,30.1944203 200.7198,29.6300203 C200.398867,29.0656203 200.2384,28.2079536 200.2384,27.0570203 L200.2384,27.0570203 L200.2384,16.4994203 L204.4216,16.4994203 L204.4216,15.1714203 L200.2384,15.1714203 L200.2384,10.6230203 L198.6448,10.6230203 L198.6448,15.1714203 L195.856,15.1714203 L195.856,16.4994203 L198.6448,16.4994203 L198.6448,27.1898203 C198.6448,30.2663536 199.828933,31.8046203 202.1972,31.8046203 Z M208.7688,11.4530203 C209.145067,11.4530203 209.4494,11.3423536 209.6818,11.1210203 C209.9142,10.8996869 210.0304,10.6119536 210.0304,10.2578203 C210.0304,9.90368694 209.9142,9.61595361 209.6818,9.39462028 C209.4494,9.17328694 209.145067,9.06262028 208.7688,9.06262028 C208.392533,9.06262028 208.0882,9.17328694 207.8558,9.39462028 C207.6234,9.61595361 207.5072,9.90368694 207.5072,10.2578203 C207.5072,10.6119536 207.6234,10.8996869 207.8558,11.1210203 C208.0882,11.3423536 208.392533,11.4530203 208.7688,11.4530203 Z M209.5656,31.5058203 L209.5656,15.1714203 L207.972,15.1714203 L207.972,31.5058203 L209.5656,31.5058203 Z M217.1664,31.5058203 L217.1664,16.4994203 L225.0016,16.4994203 L225.0016,31.5058203 L226.5952,31.5058203 L226.5952,15.1714203 L217.1664,15.1714203 L217.1664,13.3454203 C217.1664,12.1280869 217.542667,11.1486869 218.2952,10.4072203 C219.047733,9.66575361 219.999467,9.29502028 221.1504,9.29502028 C221.858667,9.29502028 222.522667,9.37802028 223.1424,9.54402028 C223.762133,9.71002028 224.426133,10.0364869 225.1344,10.5234203 L225.1344,10.5234203 L225.5992,9.32822028 C224.8024,8.81915361 224.0222,8.46502028 223.2586,8.26582028 C222.495,8.06662028 221.7148,7.96702028 220.918,7.96702028 C219.346533,7.96702028 218.0628,8.45395361 217.0668,9.42782028 C216.0708,10.4016869 215.5728,11.6964869 215.5728,13.3122203 L215.5728,13.3122203 L215.5728,15.1714203 L212.6512,15.1714203 L212.6512,16.4994203 L215.5728,16.4994203 L215.5728,31.5058203 L217.1664,31.5058203 Z M237.9476,31.8046203 C239.895333,31.8046203 241.688133,31.1406203 243.326,29.8126203 L243.326,29.8126203 L242.5624,28.6174203 C241.145867,29.7683536 239.651867,30.3438203 238.0804,30.3438203 C236.840933,30.3438203 235.728733,30.0505536 234.7438,29.4640203 C233.758867,28.8774869 232.989733,28.0585536 232.4364,27.0072203 C231.883067,25.9558869 231.6064,24.7440869 231.6064,23.3718203 C231.6064,22.0216869 231.883067,20.8098869 232.4364,19.7364203 C232.989733,18.6629536 233.758867,17.8274203 234.7438,17.2298203 C235.728733,16.6322203 236.829867,16.3334203 238.0472,16.3334203 C238.844,16.3334203 239.629733,16.4938869 240.4044,16.8148203 C241.179067,17.1357536 241.8984,17.5950203 242.5624,18.1926203 L242.5624,18.1926203 L243.326,16.9642203 C242.551333,16.2559536 241.704733,15.7302869 240.7862,15.3872203 C239.867667,15.0441536 238.932533,14.8726203 237.9808,14.8726203 C236.431467,14.8726203 235.053667,15.2378203 233.8474,15.9682203 C232.641133,16.6986203 231.694933,17.7112203 231.0088,19.0060203 C230.322667,20.3008203 229.9796,21.7671536 229.9796,23.4050203 C229.9796,25.0207536 230.317133,26.4649536 230.9922,27.7376203 C231.667267,29.0102869 232.607933,30.0062869 233.8142,30.7256203 C235.020467,31.4449536 236.398267,31.8046203 237.9476,31.8046203 Z M248.2376,11.4530203 C248.613867,11.4530203 248.9182,11.3423536 249.1506,11.1210203 C249.383,10.8996869 249.4992,10.6119536 249.4992,10.2578203 C249.4992,9.90368694 249.383,9.61595361 249.1506,9.39462028 C248.9182,9.17328694 248.613867,9.06262028 248.2376,9.06262028 C247.861333,9.06262028 247.557,9.17328694 247.3246,9.39462028 C247.0922,9.61595361 246.976,9.90368694 246.976,10.2578203 C246.976,10.6119536 247.0922,10.8996869 247.3246,11.1210203 C247.557,11.3423536 247.861333,11.4530203 248.2376,11.4530203 Z M249.0344,31.5058203 L249.0344,15.1714203 L247.4408,15.1714203 L247.4408,31.5058203 L249.0344,31.5058203 Z M258.594,31.8046203 C261.072933,31.8046203 262.887867,30.8528869 264.0388,28.9494203 L264.0388,28.9494203 L264.238,31.5058203 L265.5328,31.5058203 L265.5328,20.4502203 C265.5328,18.7680869 264.9684,17.4179536 263.8396,16.3998203 C262.7108,15.3816869 261.238933,14.8726203 259.424,14.8726203 C258.2952,14.8726203 257.2826,15.0220203 256.3862,15.3208203 C255.4898,15.6196203 254.6432,16.0788869 253.8464,16.6986203 L253.8464,16.6986203 L254.278,18.0266203 C255.694533,16.8978203 257.354533,16.3334203 259.258,16.3334203 C260.674533,16.3334203 261.825467,16.7207536 262.7108,17.4954203 C263.596133,18.2700869 264.0388,19.2992869 264.0388,20.5830203 L264.0388,20.5830203 L264.0388,22.4090203 C262.799333,22.0770203 261.4824,21.9110203 260.088,21.9110203 C257.8304,21.9110203 256.059733,22.3647536 254.776,23.2722203 C253.492267,24.1796869 252.8504,25.4080869 252.8504,26.9574203 C252.8504,28.3960869 253.392667,29.5636203 254.4772,30.4600203 C255.561733,31.3564203 256.934,31.8046203 258.594,31.8046203 Z M258.8264,30.4766203 C257.5648,30.4766203 256.519,30.1446203 255.689,29.4806203 C254.859,28.8166203 254.444,27.9534203 254.444,26.8910203 C254.444,25.7843536 254.964133,24.8934869 256.0044,24.2184203 C257.044667,23.5433536 258.483333,23.2058203 260.3204,23.2058203 C261.582,23.2058203 262.821467,23.3718203 264.0388,23.7038203 L264.0388,23.7038203 L264.0388,25.1314203 C264.0388,26.1274203 263.823,27.0348869 263.3914,27.8538203 C262.9598,28.6727536 262.3456,29.3146203 261.5488,29.7794203 C260.752,30.2442203 259.844533,30.4766203 258.8264,30.4766203 Z M272.0712,31.5058203 L272.0712,8.26582028 L270.4776,8.26582028 L270.4776,31.5058203 L272.0712,31.5058203 Z M286.642,31.5058203 L286.642,8.26582028 L285.0152,8.26582028 L285.0152,31.5058203 L286.642,31.5058203 Z M293.7116,31.5058203 L293.7116,22.4090203 C293.7116,21.2580869 293.932933,20.2122869 294.3756,19.2716203 C294.818267,18.3309536 295.438,17.5950203 296.2348,17.0638203 C297.0316,16.5326203 297.939067,16.2670203 298.9572,16.2670203 C300.4844,16.2670203 301.707267,16.7705536 302.6258,17.7776203 C303.544333,18.7846869 304.0036,20.1514203 304.0036,21.8778203 L304.0036,21.8778203 L304.0036,31.5058203 L305.5972,31.5058203 L305.5972,21.6122203 C305.5972,20.2842203 305.3316,19.1111536 304.8004,18.0930203 C304.2692,17.0748869 303.5222,16.2836203 302.5594,15.7192203 C301.5966,15.1548203 300.495467,14.8726203 299.256,14.8726203 C297.972267,14.8726203 296.854533,15.1714203 295.9028,15.7690203 C294.951067,16.3666203 294.187467,17.1966203 293.612,18.2590203 L293.612,18.2590203 L293.4128,15.2046203 L292.118,15.2046203 L292.118,31.5058203 L293.7116,31.5058203 Z M314.526,31.8046203 C315.0572,31.8046203 315.494333,31.7714203 315.8374,31.7050203 C316.180467,31.6386203 316.573333,31.5058203 317.016,31.3066203 L317.016,31.3066203 L316.8168,30.1114203 C316.374133,30.2442203 316.02,30.3382869 315.7544,30.3936203 C315.4888,30.4489536 315.178933,30.4766203 314.8248,30.4766203 C313.9616,30.4766203 313.369533,30.1944203 313.0486,29.6300203 C312.727667,29.0656203 312.5672,28.2079536 312.5672,27.0570203 L312.5672,27.0570203 L312.5672,16.4994203 L316.7504,16.4994203 L316.7504,15.1714203 L312.5672,15.1714203 L312.5672,10.6230203 L310.9736,10.6230203 L310.9736,15.1714203 L308.1848,15.1714203 L308.1848,16.4994203 L310.9736,16.4994203 L310.9736,27.1898203 C310.9736,30.2663536 312.157733,31.8046203 314.526,31.8046203 Z M326.5424,31.8046203 C328.6008,31.8046203 330.482133,31.1295536 332.1864,29.7794203 L332.1864,29.7794203 L331.5888,28.5510203 C330.0616,29.7462203 328.423733,30.3438203 326.6752,30.3438203 C324.816,30.3438203 323.283267,29.7462203 322.077,28.5510203 C320.870733,27.3558203 320.212267,25.7843536 320.1016,23.8366203 L320.1016,23.8366203 L332.9168,23.8366203 L332.9832,23.0066203 C332.9832,21.4572869 332.678867,20.0628869 332.0702,18.8234203 C331.461533,17.5839536 330.626,16.6156203 329.5636,15.9184203 C328.5012,15.2212203 327.317067,14.8726203 326.0112,14.8726203 C324.594667,14.8726203 323.316467,15.2433536 322.1766,15.9848203 C321.036733,16.7262869 320.140333,17.7388869 319.4874,19.0226203 C318.834467,20.3063536 318.508,21.7450203 318.508,23.3386203 C318.508,24.9543536 318.851067,26.4040869 319.5372,27.6878203 C320.223333,28.9715536 321.175067,29.9786203 322.3924,30.7090203 C323.609733,31.4394203 324.993067,31.8046203 326.5424,31.8046203 Z M331.3564,22.4090203 L320.1348,22.4090203 C320.311867,20.6383536 320.942667,19.1830869 322.0272,18.0432203 C323.111733,16.9033536 324.428667,16.3334203 325.978,16.3334203 C326.951867,16.3334203 327.842733,16.5934869 328.6506,17.1136203 C329.458467,17.6337536 330.105867,18.3530869 330.5928,19.2716203 C331.079733,20.1901536 331.334267,21.2359536 331.3564,22.4090203 L331.3564,22.4090203 Z M338.2932,31.5058203 L338.2932,8.26582028 L336.6996,8.26582028 L336.6996,31.5058203 L338.2932,31.5058203 Z M344.6656,31.5058203 L344.6656,8.26582028 L343.072,8.26582028 L343.072,31.5058203 L344.6656,31.5058203 Z M350.706,11.4530203 C351.082267,11.4530203 351.3866,11.3423536 351.619,11.1210203 C351.8514,10.8996869 351.9676,10.6119536 351.9676,10.2578203 C351.9676,9.90368694 351.8514,9.61595361 351.619,9.39462028 C351.3866,9.17328694 351.082267,9.06262028 350.706,9.06262028 C350.329733,9.06262028 350.0254,9.17328694 349.793,9.39462028 C349.5606,9.61595361 349.4444,9.90368694 349.4444,10.2578203 C349.4444,10.6119536 349.5606,10.8996869 349.793,11.1210203 C350.0254,11.3423536 350.329733,11.4530203 350.706,11.4530203 Z M351.5028,31.5058203 L351.5028,15.1714203 L349.9092,15.1714203 L349.9092,31.5058203 L351.5028,31.5058203 Z M363.1208,38.7766203 C364.537333,38.7766203 365.815533,38.4446203 366.9554,37.7806203 C368.095267,37.1166203 368.991667,36.2146869 369.6446,35.0748203 C370.297533,33.9349536 370.624,32.6678203 370.624,31.2734203 L370.624,31.2734203 L370.624,15.2046203 L369.3292,15.2046203 L369.0636,18.5910203 C368.466,17.4622203 367.608333,16.5602869 366.4906,15.8852203 C365.372867,15.2101536 364.1168,14.8726203 362.7224,14.8726203 C361.328,14.8726203 360.071933,15.2433536 358.9542,15.9848203 C357.836467,16.7262869 356.9622,17.7444203 356.3314,19.0392203 C355.7006,20.3340203 355.3852,21.7782203 355.3852,23.3718203 C355.3852,24.9654203 355.7006,26.3985536 356.3314,27.6712203 C356.9622,28.9438869 357.836467,29.9454203 358.9542,30.6758203 C360.071933,31.4062203 361.328,31.7714203 362.7224,31.7714203 C364.094667,31.7714203 365.339667,31.4449536 366.4574,30.7920203 C367.575133,30.1390869 368.4328,29.2703536 369.0304,28.1858203 L369.0304,28.1858203 L369.0304,31.3066203 C369.0304,32.4575536 368.770333,33.4978203 368.2502,34.4274203 C367.730067,35.3570203 367.010733,36.0929536 366.0922,36.6352203 C365.173667,37.1774869 364.138933,37.4486203 362.988,37.4486203 C361.770667,37.4486203 360.702733,37.2826203 359.7842,36.9506203 C358.865667,36.6186203 357.897333,36.0542203 356.8792,35.2574203 L356.8792,35.2574203 L356.3812,36.5190203 C357.487867,37.3379536 358.550267,37.9189536 359.5684,38.2620203 C360.586533,38.6050869 361.770667,38.7766203 363.1208,38.7766203 Z M362.988,30.3106203 C361.8592,30.3106203 360.835533,30.0062869 359.917,29.3976203 C358.998467,28.7889536 358.279133,27.9534203 357.759,26.8910203 C357.238867,25.8286203 356.9788,24.6444869 356.9788,23.3386203 C356.9788,22.0327536 357.238867,20.8430869 357.759,19.7696203 C358.279133,18.6961536 358.998467,17.8550869 359.917,17.2464203 C360.835533,16.6377536 361.8592,16.3334203 362.988,16.3334203 C364.1168,16.3334203 365.140467,16.6377536 366.059,17.2464203 C366.977533,17.8550869 367.7024,18.6961536 368.2336,19.7696203 C368.7648,20.8430869 369.0304,22.0327536 369.0304,23.3386203 C369.0304,24.6444869 368.7648,25.8286203 368.2336,26.8910203 C367.7024,27.9534203 366.977533,28.7889536 366.059,29.3976203 C365.140467,30.0062869 364.1168,30.3106203 362.988,30.3106203 Z M382.408,31.8046203 C384.4664,31.8046203 386.347733,31.1295536 388.052,29.7794203 L388.052,29.7794203 L387.4544,28.5510203 C385.9272,29.7462203 384.289333,30.3438203 382.5408,30.3438203 C380.6816,30.3438203 379.148867,29.7462203 377.9426,28.5510203 C376.736333,27.3558203 376.077867,25.7843536 375.9672,23.8366203 L375.9672,23.8366203 L388.7824,23.8366203 L388.8488,23.0066203 C388.8488,21.4572869 388.544467,20.0628869 387.9358,18.8234203 C387.327133,17.5839536 386.4916,16.6156203 385.4292,15.9184203 C384.3668,15.2212203 383.182667,14.8726203 381.8768,14.8726203 C380.460267,14.8726203 379.182067,15.2433536 378.0422,15.9848203 C376.902333,16.7262869 376.005933,17.7388869 375.353,19.0226203 C374.700067,20.3063536 374.3736,21.7450203 374.3736,23.3386203 C374.3736,24.9543536 374.716667,26.4040869 375.4028,27.6878203 C376.088933,28.9715536 377.040667,29.9786203 378.258,30.7090203 C379.475333,31.4394203 380.858667,31.8046203 382.408,31.8046203 Z M387.222,22.4090203 L376.0004,22.4090203 C376.177467,20.6383536 376.808267,19.1830869 377.8928,18.0432203 C378.977333,16.9033536 380.294267,16.3334203 381.8436,16.3334203 C382.817467,16.3334203 383.708333,16.5934869 384.5162,17.1136203 C385.324067,17.6337536 385.971467,18.3530869 386.4584,19.2716203 C386.945333,20.1901536 387.199867,21.2359536 387.222,22.4090203 L387.222,22.4090203 Z M394.1588,31.5058203 L394.1588,22.4090203 C394.1588,21.2580869 394.380133,20.2122869 394.8228,19.2716203 C395.265467,18.3309536 395.8852,17.5950203 396.682,17.0638203 C397.4788,16.5326203 398.386267,16.2670203 399.4044,16.2670203 C400.9316,16.2670203 402.154467,16.7705536 403.073,17.7776203 C403.991533,18.7846869 404.4508,20.1514203 404.4508,21.8778203 L404.4508,21.8778203 L404.4508,31.5058203 L406.0444,31.5058203 L406.0444,21.6122203 C406.0444,20.2842203 405.7788,19.1111536 405.2476,18.0930203 C404.7164,17.0748869 403.9694,16.2836203 403.0066,15.7192203 C402.0438,15.1548203 400.942667,14.8726203 399.7032,14.8726203 C398.419467,14.8726203 397.301733,15.1714203 396.35,15.7690203 C395.398267,16.3666203 394.634667,17.1966203 394.0592,18.2590203 L394.0592,18.2590203 L393.86,15.2046203 L392.5652,15.2046203 L392.5652,31.5058203 L394.1588,31.5058203 Z M417.5628,31.8046203 C419.510533,31.8046203 421.303333,31.1406203 422.9412,29.8126203 L422.9412,29.8126203 L422.1776,28.6174203 C420.761067,29.7683536 419.267067,30.3438203 417.6956,30.3438203 C416.456133,30.3438203 415.343933,30.0505536 414.359,29.4640203 C413.374067,28.8774869 412.604933,28.0585536 412.0516,27.0072203 C411.498267,25.9558869 411.2216,24.7440869 411.2216,23.3718203 C411.2216,22.0216869 411.498267,20.8098869 412.0516,19.7364203 C412.604933,18.6629536 413.374067,17.8274203 414.359,17.2298203 C415.343933,16.6322203 416.445067,16.3334203 417.6624,16.3334203 C418.4592,16.3334203 419.244933,16.4938869 420.0196,16.8148203 C420.794267,17.1357536 421.5136,17.5950203 422.1776,18.1926203 L422.1776,18.1926203 L422.9412,16.9642203 C422.166533,16.2559536 421.319933,15.7302869 420.4014,15.3872203 C419.482867,15.0441536 418.547733,14.8726203 417.596,14.8726203 C416.046667,14.8726203 414.668867,15.2378203 413.4626,15.9682203 C412.256333,16.6986203 411.310133,17.7112203 410.624,19.0060203 C409.937867,20.3008203 409.5948,21.7671536 409.5948,23.4050203 C409.5948,25.0207536 409.932333,26.4649536 410.6074,27.7376203 C411.282467,29.0102869 412.223133,30.0062869 413.4294,30.7256203 C414.635667,31.4449536 416.013467,31.8046203 417.5628,31.8046203 Z M433.2312,31.8046203 C435.2896,31.8046203 437.170933,31.1295536 438.8752,29.7794203 L438.8752,29.7794203 L438.2776,28.5510203 C436.7504,29.7462203 435.112533,30.3438203 433.364,30.3438203 C431.5048,30.3438203 429.972067,29.7462203 428.7658,28.5510203 C427.559533,27.3558203 426.901067,25.7843536 426.7904,23.8366203 L426.7904,23.8366203 L439.6056,23.8366203 L439.672,23.0066203 C439.672,21.4572869 439.367667,20.0628869 438.759,18.8234203 C438.150333,17.5839536 437.3148,16.6156203 436.2524,15.9184203 C435.19,15.2212203 434.005867,14.8726203 432.7,14.8726203 C431.283467,14.8726203 430.005267,15.2433536 428.8654,15.9848203 C427.725533,16.7262869 426.829133,17.7388869 426.1762,19.0226203 C425.523267,20.3063536 425.1968,21.7450203 425.1968,23.3386203 C425.1968,24.9543536 425.539867,26.4040869 426.226,27.6878203 C426.912133,28.9715536 427.863867,29.9786203 429.0812,30.7090203 C430.298533,31.4394203 431.681867,31.8046203 433.2312,31.8046203 Z M438.0452,22.4090203 L426.8236,22.4090203 C427.000667,20.6383536 427.631467,19.1830869 428.716,18.0432203 C429.800533,16.9033536 431.117467,16.3334203 432.6668,16.3334203 C433.640667,16.3334203 434.531533,16.5934869 435.3394,17.1136203 C436.147267,17.6337536 436.794667,18.3530869 437.2816,19.2716203 C437.768533,20.1901536 438.023067,21.2359536 438.0452,22.4090203 L438.0452,22.4090203 Z"/><path d="M51.9434316,6.68215768 C54.2131367,6.68215768 55.9906166,7.62697095 57.1391421,8.91410788 L57.1391421,7.02448133 L61.910992,7.02448133 L61.910992,24.0037344 C61.910992,28.933195 58.8072386,32.9041494 52.9142091,32.9041494 C48.4841823,32.9041494 45.2436997,30.6037344 43.8490617,27.8788382 L48.0739946,25.5099585 C48.9764075,27.3311203 50.5898123,28.4813278 52.9142091,28.4813278 C55.4983914,28.4813278 57.1391421,26.4547718 57.1391421,24.1817427 L57.1391421,22.5385892 C55.9906166,23.8941909 54.1447721,24.8390041 51.875067,24.8390041 C48.1697051,24.8390041 43.4662198,21.9087137 43.4662198,15.7605809 C43.4662198,9.58506224 48.00563,6.68215768 51.9434316,6.68215768 Z M12.4697051,0.0684647303 C16.9134048,0.0684647303 20.8785523,2.31410788 23.0935657,6.07966805 L23.0935657,6.07966805 L23.1619303,6.20290456 L18.9096515,8.92780083 L18.8412869,8.79087137 C17.4466488,6.18921162 15.3,4.86099585 12.483378,4.86099585 C8.13538874,4.86099585 4.8538874,8.16099585 4.8538874,12.5290456 C4.8538874,16.7875519 8.14906166,20.1286307 12.3739946,20.1286307 C15.2863271,20.1286307 17.7201072,18.526556 19.0327078,15.746888 L19.0327078,15.746888 L19.1010724,15.6099585 L23.5174263,17.9514523 L23.4490617,18.0746888 C21.2203753,22.4016598 17.1184987,24.9896266 12.4697051,24.9896266 C5.26407507,24.9896266 0.0273458445,19.7452282 0.0273458445,12.5290456 C0.0273458445,5.42240664 5.37345845,0.0684647303 12.4697051,0.0684647303 Z M33.2252011,6.68215768 C38.2431635,6.68215768 42.2630027,10.7352697 42.2630027,15.7605809 C42.2630027,20.7858921 38.2568365,24.8390041 33.2252011,24.8390041 C28.2072386,24.8390041 24.1873995,20.7858921 24.1873995,15.7605809 C24.1873995,10.7352697 28.1935657,6.68215768 33.2252011,6.68215768 Z M113.075067,6.68215768 C115.344772,6.68215768 117.122252,7.51742739 118.270777,8.74979253 L118.270777,7.03817427 L123.042627,7.03817427 L123.042627,24.4966805 L118.270777,24.4966805 L118.270777,22.5385892 C117.122252,23.8941909 115.276408,24.8390041 113.006702,24.8390041 C109.30134,24.8390041 104.597855,21.9087137 104.597855,15.7605809 C104.597855,9.58506224 109.137265,6.68215768 113.075067,6.68215768 Z M86.7546917,7.07925311 L86.7546917,24.5377593 L81.9828418,24.5377593 L81.9828418,7.07925311 L86.7546917,7.07925311 Z M73.3825737,6.69585062 C77.4981233,6.69585062 79.9729223,9.35228216 79.9729223,13.8572614 L79.9729223,24.5103734 L75.1190349,24.5103734 L75.1190349,14.4871369 C75.1190349,12.1456432 74.038874,10.7900415 71.9058981,10.7900415 C70.0873995,10.7900415 68.5970509,12.0497925 68.5970509,14.980083 L68.5970509,24.5103734 L63.8252011,24.5103734 L63.8252011,7.03817427 L68.5697051,7.03817427 L68.5697051,8.99626556 C69.6908847,7.55850622 71.4,6.69585062 73.3825737,6.69585062 Z M134.527882,6.69585062 C138.643432,6.69585062 141.118231,9.35228216 141.118231,13.8572614 L141.118231,24.5103734 L136.264343,24.5103734 L136.264343,14.4871369 C136.264343,12.1456432 135.184182,10.7900415 133.051206,10.7900415 C131.232708,10.7900415 129.742359,12.0497925 129.742359,14.980083 L129.742359,24.5103734 L124.970509,24.5103734 L124.970509,7.03817427 L129.715013,7.03817427 L129.715013,8.99626556 C130.836193,7.55850622 132.545308,6.69585062 134.527882,6.69585062 Z M104.146649,7.03817427 L104.146649,11.3377593 L94.972118,20.2655602 L104.324397,20.2655602 L104.324397,24.4966805 L88.5595174,24.4966805 L88.5595174,20.2381743 L97.7340483,11.2692946 L88.6962466,11.2692946 L88.6962466,7.03817427 L104.146649,7.03817427 Z M149.609115,1.25975104 L149.609115,7.02448133 L152.890617,7.02448133 L152.890617,11.3103734 L149.609115,11.3103734 L149.609115,16.8697095 C149.609115,19.5946058 149.964611,20.0190871 152.890617,20.0190871 L152.890617,20.0190871 L152.890617,24.4829876 L152.193298,24.4829876 C146.655764,24.4829876 144.837265,22.6070539 144.837265,16.9107884 L144.837265,16.9107884 L144.837265,11.3240664 L141.870241,11.3240664 L141.870241,7.02448133 L144.837265,7.02448133 L144.837265,1.25975104 L149.609115,1.25975104 Z M113.950134,11.0502075 C111.297587,11.0502075 109.273995,13.0356846 109.273995,15.733195 C109.273995,18.4307054 111.297587,20.4435685 113.950134,20.4435685 C116.520643,20.4435685 118.407507,18.3074689 118.407507,15.733195 C118.407507,13.1452282 116.520643,11.0502075 113.950134,11.0502075 Z M52.8184987,11.0502075 C50.1659517,11.0502075 48.1423592,13.0356846 48.1423592,15.733195 C48.1423592,18.4307054 50.1659517,20.4435685 52.8184987,20.4435685 C55.389008,20.4435685 57.2758713,18.3074689 57.2758713,15.733195 C57.2758713,13.1452282 55.389008,11.0502075 52.8184987,11.0502075 Z M33.2252011,11.2145228 C30.7504021,11.2145228 28.8635389,13.2684647 28.8635389,15.7605809 C28.8635389,18.2390041 30.7504021,20.306639 33.2252011,20.306639 C35.6726542,20.306639 37.6142091,18.2390041 37.6142091,15.7605809 C37.6142091,13.2821577 35.6589812,11.2145228 33.2252011,11.2145228 Z M86.8230563,1.28713693 L86.8230563,5.62780083 L82.0512064,5.62780083 L82.0512064,1.28713693 L86.8230563,1.28713693 Z" transform="translate(0 7)"/></g></svg>