<svg xmlns="http://www.w3.org/2000/svg" width="431" height="1170"><g fill="none" transform="translate(0 -1164)"><path fill="#00DBE7" d="M284.10133,2482.11621 C201.59303,2334.32628 140.21315,2195.28115 101.66676,2068.84521 C50.27126,1900.26357 37.71462,1749.28121 64.34499,1620.09276 C86.57199,1512.26522 128.32155,1453.07905 176.66335,1384.54769 C213.8694,1331.80178 256.04035,1272.01869 293.26784,1180.55445 C313.77663,1130.16677 330.80299,1074.96506 343.87526,1016.48319 C359.23512,947.7671 369.68434,872.15642 374.93239,791.75077 C387.48219,599.48808 370.9529,371.47897 325.80202,114.05746 L327.76002,113.57715 C372.94902,371.2163 389.49102,599.44825 376.92652,791.9332 C371.66871,872.48086 361.19898,948.23355 345.80884,1017.08703 C332.70484,1075.71381 315.63355,1131.05695 295.07007,1181.57972 C257.73507,1273.30835 215.47974,1333.21037 178.19898,1386.06135 C130.01686,1454.36756 88.40504,1513.35856 66.28835,1620.65156 C39.75221,1749.38281 52.28835,1899.90679 103.54811,2068.04391 C142.04079,2194.30436 203.34938,2333.17976 285.77028,2480.81382 L284.10133,2482.11621 Z"/><path fill="#0095F5" d="M348.96071,2537.12598 L346.12087,2536.15723 C390.58766,2405.77734 417.01833,2280.35547 424.68141,2163.37695 C434.89235,2007.4834 412.33083,1862.2002 357.62282,1731.5625 C324.06569,1651.43164 286.85963,1597.1875 262.24001,1561.29297 C258.47292,1555.80078 254.91481,1550.61328 251.67213,1545.78125 C215.97096,1492.58301 185.27956,1432.74317 160.44948,1367.92285 C131.46462,1292.25585 109.45485,1207.23731 95.03148,1115.22803 C78.75609,1011.40234 71.65848,895.64551 73.93578,771.17334 C76.45287,633.59522 90.49144,481.52881 115.66185,319.19873 L118.62669,319.65873 C93.47682,481.85498 79.44997,633.78516 76.93532,771.22856 C74.6609,895.52738 81.74684,1011.10893 97.99538,1114.76371 C112.386,1206.56498 134.34108,1291.37944 163.25075,1366.85063 C188.00026,1431.46 218.58766,1491.09863 254.16335,1544.10942 C257.39723,1548.92875 260.95143,1554.11042 264.71413,1559.59574 C289.40313,1595.59184 326.71364,1649.9893 360.3904,1730.40434 C415.27907,1861.4727 437.91676,2007.21196 427.67458,2163.57328 C419.99489,2280.81445 393.51149,2406.49609 348.96071,2537.12598 Z"/><path fill="#EF00E4" stroke="#F0F" stroke-width="2" d="M169.66188,2460.0708 C141.11061,2213.73872 141.50465,1965.65325 170.83424,1722.70451 C190.48659,1559.91544 218.31667,1440.84678 242.87087,1335.79597 C273.19557,1206.05589 299.38503,1094.00885 303.99001,935.87897 C307.23854,824.34525 299.14137,714.85097 279.23512,601.13881 C253.09938,451.84156 206.31374,298.70415 140.17702,145.98089 L140.84502,145.57715 C207.01202,298.37135 253.82011,451.58429 279.96953,600.9594 C299.61162,713.16102 307.94511,825.85462 304.73953,935.90892 C300.13162,1094.14381 273.93093,1206.23757 243.59353,1336.03129 C219.04568,1441.05672 191.22195,1560.09654 171.57644,1722.82909 C142.25711,1965.69709 141.86306,2213.70065 170.40505,2459.95083 L169.66188,2460.0708 Z"/><path fill="#456EFF" d="M41.82838,2443.57715 C26.7365614,2393.38087 16.9406733,2341.74267 12.60085,2289.50671 C-6.88353,2054.18495 110.26979,1865.38556 213.6321,1698.81089 C265.8811,1614.60762 315.23268,1535.07432 342.24684,1457.43241 C372.34254,1370.93261 370.96462,1297.54783 337.9109,1226.48471 C317.35866,1182.29989 280.2229,1132.47991 240.90651,1079.73516 C210.45338,1038.88077 178.96413,996.63605 154.74151,955.97294 C111.59792,883.54822 77.06471,804.28981 52.10036,720.39886 C29.31325,643.82264 13.91725,561.42971 6.34108,475.5084 C-6.40501,330.94456 2.55495,170.96056 32.9734,0 L35.92262,0.57849 C5.55495,171.25285 -3.39232,330.94456 9.32838,475.21761 C16.88503,560.91943 32.23903,643.09388 54.96413,719.45932 C79.85133,803.09283 114.27713,882.10507 157.28444,954.30209 C181.4236,994.82467 212.86354,1037.00272 243.26881,1077.7925 C282.68532,1130.67161 319.91581,1180.61878 340.60622,1225.10105 C374.04274,1296.98678 375.45973,1371.15518 345.06471,1458.51452 C317.93288,1536.49388 268.49049,1616.17283 216.14528,1700.53098 C113.04811,1866.67898 -3.8054,2054.99525 15.58913,2289.23388 C19.9103756,2341.2403 29.6633837,2392.65157 44.68874,2442.62736 L41.82838,2443.57715 Z"/></g></svg>