<svg xmlns="http://www.w3.org/2000/svg" width="573" height="302"><defs><linearGradient id="a" x1="57.606%" x2="62.794%" y1="49.514%" y2="49.182%"><stop offset="0%" stop-color="#6F0093"/><stop offset="100%" stop-color="#24014B"/></linearGradient><linearGradient id="b" x1="55.236%" x2="58.113%" y1="43.064%" y2="39.255%"><stop offset="0%" stop-color="#B514BE"/><stop offset="100%" stop-color="#6F0093"/></linearGradient><linearGradient id="c" x1="-14.472%" x2="66.733%" y1="25.224%" y2="56.43%"><stop offset=".488%" stop-color="#3B1DA8"/><stop offset="100%" stop-color="#190F4B"/></linearGradient><linearGradient id="d" x1="41.647%" x2="61.017%" y1="54.274%" y2="44.411%"><stop offset="0%" stop-color="#E0FEFE"/><stop offset="100%" stop-color="#C1FFFF"/></linearGradient><linearGradient id="e" x1="-52.027%" x2="116.584%" y1="95.816%" y2="20.1%"><stop offset="0%" stop-color="#6F0093"/><stop offset="100%" stop-color="#24014B"/></linearGradient><linearGradient id="f" x1="5624.131%" x2="-979.683%" y1="-3833.993%" y2="767.446%"><stop offset="0%" stop-color="#3A265B"/><stop offset="100%" stop-color="#2A0B44"/></linearGradient><linearGradient id="g" x1="5475.466%" x2="-1133.885%" y1="-3727.344%" y2="874.254%"><stop offset="0%" stop-color="#3A265B"/><stop offset="100%" stop-color="#2A0B44"/></linearGradient><linearGradient id="h" x1="5316.467%" x2="-1285.774%" y1="-3619.999%" y2="980.884%"><stop offset="0%" stop-color="#3A265B"/><stop offset="100%" stop-color="#2A0B44"/></linearGradient><linearGradient id="i" x1="5173.022%" x2="-1441.82%" y1="-3515.31%" y2="1088.194%"><stop offset="0%" stop-color="#3A265B"/><stop offset="100%" stop-color="#2A0B44"/></linearGradient><linearGradient id="j" x1="5012.553%" x2="-1593.011%" y1="-3407.395%" y2="1194.625%"><stop offset="0%" stop-color="#3A265B"/><stop offset="100%" stop-color="#2A0B44"/></linearGradient><linearGradient id="k" x1="4861.941%" x2="-1747.205%" y1="-3300.309%" y2="1301.343%"><stop offset="0%" stop-color="#3A265B"/><stop offset="100%" stop-color="#2A0B44"/></linearGradient><linearGradient id="l" x1="6533.461%" x2="-69.697%" y1="-4467.875%" y2="133.384%"><stop offset="0%" stop-color="#3A265B"/><stop offset="100%" stop-color="#2A0B44"/></linearGradient><linearGradient id="m" x1="6386.329%" x2="-223.151%" y1="-4361.438%" y2="240.178%"><stop offset="0%" stop-color="#3A265B"/><stop offset="100%" stop-color="#2A0B44"/></linearGradient><linearGradient id="n" x1="6225.281%" x2="-375.952%" y1="-4253.679%" y2="346.88%"><stop offset="0%" stop-color="#3A265B"/><stop offset="100%" stop-color="#2A0B44"/></linearGradient><linearGradient id="o" x1="6084.58%" x2="-530.316%" y1="-4149.685%" y2="453.855%"><stop offset="0%" stop-color="#3A265B"/><stop offset="100%" stop-color="#2A0B44"/></linearGradient><linearGradient id="p" x1="5922.822%" x2="-682.791%" y1="-4041.582%" y2="560.483%"><stop offset="0%" stop-color="#3A265B"/><stop offset="100%" stop-color="#2A0B44"/></linearGradient><linearGradient id="q" x1="5772.6%" x2="-836.493%" y1="-3934.271%" y2="667.238%"><stop offset="0%" stop-color="#3A265B"/><stop offset="100%" stop-color="#2A0B44"/></linearGradient><linearGradient id="r" x1="1208.459%" x2="-5393.726%" y1="-757.348%" y2="3843.632%"><stop offset="0%" stop-color="#3A265B"/><stop offset="100%" stop-color="#2A0B44"/></linearGradient><linearGradient id="s" x1="1056.398%" x2="-5553.03%" y1="-650.656%" y2="3950.835%"><stop offset="0%" stop-color="#3A265B"/><stop offset="100%" stop-color="#2A0B44"/></linearGradient><linearGradient id="t" x1="902.16%" x2="-5700.283%" y1="-543.808%" y2="4057.159%"><stop offset="0%" stop-color="#3A265B"/><stop offset="100%" stop-color="#2A0B44"/></linearGradient><linearGradient id="u" x1="2118.385%" x2="-4484.35%" y1="-1391.376%" y2="3209.715%"><stop offset="0%" stop-color="#3A265B"/><stop offset="100%" stop-color="#2A0B44"/></linearGradient><linearGradient id="v" x1="1967.186%" x2="-4642.373%" y1="-1284.722%" y2="3316.763%"><stop offset="0%" stop-color="#3A265B"/><stop offset="100%" stop-color="#2A0B44"/></linearGradient><linearGradient id="w" x1="1811.791%" x2="-4790.023%" y1="-1177.748%" y2="3423.022%"><stop offset="0%" stop-color="#3A265B"/><stop offset="100%" stop-color="#2A0B44"/></linearGradient><linearGradient id="x" x1="1662.103%" x2="-4954.097%" y1="-1071.785%" y2="3532.067%"><stop offset="0%" stop-color="#3A265B"/><stop offset="100%" stop-color="#2A0B44"/></linearGradient><linearGradient id="y" x1="1506.174%" x2="-5099.102%" y1="-964.59%" y2="3637.478%"><stop offset="0%" stop-color="#3A265B"/><stop offset="100%" stop-color="#2A0B44"/></linearGradient><linearGradient id="z" x1="1353.952%" x2="-5256.425%" y1="-857.763%" y2="3744.256%"><stop offset="0%" stop-color="#3A265B"/><stop offset="100%" stop-color="#2A0B44"/></linearGradient><linearGradient id="A" x1="816.542%" x2="-667.154%" y1="-323.519%" y2="399.448%"><stop offset="0%" stop-color="#3A265B"/><stop offset="100%" stop-color="#2A0B44"/></linearGradient><linearGradient id="B" x1="48.544%" x2="50.764%" y1="95.004%" y2="9.126%"><stop offset="0%" stop-color="#FFF"/><stop offset="17.189%" stop-color="#FFF"/><stop offset="100%" stop-color="#FFF"/></linearGradient><linearGradient id="C" x1="57.053%" x2="60.036%" y1="50.271%" y2="50.386%"><stop offset="0%" stop-color="#56ABFF"/><stop offset="100%" stop-color="#2E54FF"/></linearGradient><linearGradient id="D" x1="37.468%" x2="67.507%" y1="60.88%" y2="34.834%"><stop offset="0%" stop-color="#B8E7FF"/><stop offset="40.788%" stop-color="#B6E6FF"/><stop offset="56.686%" stop-color="#AFE1FF"/><stop offset="68.242%" stop-color="#A3D9FF"/><stop offset="77.636%" stop-color="#92CEFF"/><stop offset="82.681%" stop-color="#85C5FF"/></linearGradient></defs><g fill="none" transform="translate(0 -436)"><path fill="#3570DF" d="M500.452195,275.763511 C391.704684,268.875021 329.068895,324.39601 298.012332,365.39018 L262.217259,344.723716 C252.654706,339.202928 237.046715,339.231257 227.424375,344.786912 L7.97679386,471.484838 C-1.64568597,477.040493 -1.69479097,486.051782 7.86776187,491.572423 L357.363574,693.354265 C366.925847,698.875053 382.53369,698.846871 392.15617,693.291209 L611.604186,566.592716 C621.226518,561.037516 621.275343,552.02634 611.713071,546.505559 L599.199038,539.280586 C630.435515,498.299934 693.251638,442.910607 801.877881,449.791411 L500.452195,275.763511 Z" opacity=".31" style="mix-blend-mode:multiply"/><path fill="#4F7FFE" d="M374.659951,668.618555 C368.253411,668.618555 361.86267,667.216546 357.00019,664.409539 L7.50381087,462.627983 C2.66509595,459.833926 0,456.063873 0,452.01214 C0,447.925673 2.70409995,444.114628 7.61283587,441.280293 L227.060851,314.582228 C236.883881,308.910422 252.817533,308.882667 262.580643,314.519172 L612.076742,516.300587 C616.915589,519.094357 619.580545,522.864697 619.580545,526.91657 C619.580545,531.003037 616.876732,534.814082 611.96771,537.648417 L392.519981,664.34677 C387.589181,667.193201 381.11631,668.618555 374.659951,668.618555 Z M244.920896,311.743903 C238.726288,311.743903 232.519304,313.110618 227.78834,315.842326 L8.34017786,442.540538 C3.90028793,445.103721 1.45524398,448.467263 1.45524398,452.01214 C1.45524398,455.522283 3.86171793,458.84526 8.23128586,461.367878 L357.727525,663.149294 C367.088247,668.553791 382.370436,668.525756 391.792219,663.086672 L611.240375,536.388179 L611.604039,537.018298 L611.240375,536.388179 C615.680118,533.824849 618.125574,530.46102 618.125574,526.91657 C618.125574,523.406287 615.719248,520.08387 611.349386,517.560692 L261.853308,315.77927 C257.192659,313.088127 251.062822,311.743903 244.920896,311.743903 Z"/><path fill="#4F7FFE" d="M374.659951,643.560739 C368.253411,643.560739 361.86267,642.15873 357.00019,639.351723 L7.50381087,437.570168 C2.66509595,434.776111 0,431.006093 0,426.954178 C0,422.867858 2.70409995,419.056813 7.61283587,416.222478 L227.060851,289.524412 C236.883881,283.852606 252.817533,283.824851 262.580643,289.461216 L612.076742,491.242772 C616.915589,494.036542 619.580545,497.806882 619.580545,501.858754 C619.580545,505.945221 616.876732,509.756266 611.96771,512.590601 L392.519981,639.288989 C387.589181,642.135385 381.11631,643.560739 374.659951,643.560739 Z M244.920896,286.686087 C238.726288,286.686087 232.519304,288.052802 227.78834,290.78451 L8.34017786,417.482716 C3.90028793,420.045906 1.45524398,423.409448 1.45524398,426.954178 C1.45524398,430.464468 3.86171793,433.787305 8.23128586,436.310063 L357.727525,638.091478 C367.088247,643.495975 382.370436,643.467933 391.792219,638.028849 L611.240375,511.330391 L611.604039,511.96051 L611.240375,511.330391 C615.680118,508.767061 618.125574,505.403232 618.125574,501.858782 C618.125574,498.348493 615.719248,495.026083 611.349386,492.502898 L261.853308,290.721454 C257.192659,288.030311 251.062822,286.686087 244.920896,286.686087 Z"/><g transform="translate(0 251.3)"><path fill="url(#a)" d="M0.214449766,141.05858 C0.214449766,140.885211 2.78978695,134.175067 6.89390088,131.805602 L227.44772,4.46860392 C237.35601,-1.25187298 254.662782,-0.534645991 266.103455,6.0709039 L609.911523,204.568592 C616.312939,208.264633 619.517923,213.020076 619.370403,217.494546 C619.30709,219.193327 619.107135,229.36978 611.425553,234.529046 L392.12628,361.141411 C382.274354,366.829009 365.06608,366.115765 353.690597,359.547959 L11.8387918,162.179385 C0.214449766,155.041093 0.178912997,141.858652 0.214449766,141.05858 Z"/><path fill="url(#b)" d="M392.132832,354.223171 L612.686792,226.886439 C622.594794,221.165962 621.352203,211.17412 609.911383,204.568592 L266.103455,6.0708689 C254.662355,-0.534659991 237.35601,-1.25188698 227.44772,4.46856892 L6.89390088,131.805602 C-3.01396195,137.525799 -1.77151097,147.51764 9.66958984,154.123197 L353.477517,352.620794 C364.918198,359.226281 382.224822,359.943648 392.132832,354.223171 Z"/><path fill="url(#c)" d="M609.27929,225.716011 C618.827471,220.203343 618.876009,211.261655 609.387321,205.783287 L262.583492,5.55589991 C253.09495,0.0778189987 237.607373,0.105433998 228.058911,5.6182489 L10.3015638,131.340732 C0.753241987,136.853407 0.704850988,145.795095 10.1933858,151.273602 L356.997061,351.500997 C366.485883,356.979078 381.973599,356.950896 391.521494,351.438228 L609.27929,225.716011 Z"/><g transform="translate(45.5 24.5)"><path fill="url(#d)" d="M301.506501,306.512166 C302.214981,306.921092 303.087777,306.921092 303.796257,306.512166 L527.419982,177.402929 C528.211796,176.945811 528.69958,176.100977 528.69958,175.186687 C528.69958,174.272397 528.211796,173.427563 527.419982,172.970445 L229.456041,0.941247984 C228.747551,0.532174365 227.874635,0.532174365 227.166145,0.941247984 L2.29284996,130.771961 C1.75892005,131.080277 1.43001529,131.650004 1.43001529,132.266559 C1.43001529,132.883114 1.75892005,133.452841 2.29284996,133.761157 L301.506501,306.512166 Z"/><path fill="#6F0093" d="M228.168755,1.92504897 C228.350706,1.92504897 228.529425,1.97313763 228.687,2.06411096 L527.805591,174.76003 C528.20988,174.993593 528.458905,175.425049 528.458905,175.891958 C528.458905,176.358864 528.20988,176.790323 527.805591,177.023886 L303.315301,306.633147 C302.994478,306.817993 302.599494,306.817993 302.278671,306.633147 L1.90555397,133.212595 C1.76004804,133.128578 1.67041434,132.97332 1.67041434,132.8053 C1.67041434,132.63728 1.76004804,132.482021 1.90555397,132.398005 L227.65037,2.06411096 C227.807996,1.97313748 227.98676,1.92504897 228.168755,1.92504897 Z M228.168755,0.662948989 C227.765159,0.662948989 227.368678,0.769225678 227.01911,0.970948983 L1.27469998,131.304598 C0.738507581,131.613983 0.408164552,132.185982 0.408164552,132.80503 C0.408164552,133.424079 0.738507581,133.996078 1.27469998,134.305463 L301.647838,307.726295 C302.359202,308.13641 303.235196,308.13641 303.946561,307.726295 L528.436403,178.116747 C529.231371,177.657979 529.72113,176.809882 529.72113,175.892035 C529.72113,174.974188 529.231371,174.126091 528.436403,173.667323 L229.317833,0.970969983 C228.968485,0.769213095 228.572178,0.662948989 228.168755,0.662948989 L228.168755,0.662948989 Z"/></g><path fill="url(#e)" d="M477.66805,280.025146 C483.472653,283.376445 492.913798,283.359246 498.75485,279.986863 C504.596034,276.614494 504.625357,271.163881 498.820755,267.812463 C493.015865,264.461017 483.575294,264.477957 477.734109,267.850606 C471.89291,271.222954 471.863167,276.673707 477.66805,280.025146 Z M479.72325,278.838492 C475.046088,276.138095 475.07014,271.746463 479.776198,269.029553 C484.482389,266.312643 492.088967,266.298552 496.765842,268.998949 C501.442429,271.699066 501.418804,276.090558 496.712607,278.807461 C492.006262,281.524798 484.399831,281.538595 479.723243,278.838492 L479.72325,278.838492 Z"/><g transform="translate(430.5 310.1)"><g transform="translate(22.4)"><path fill="url(#f)" d="M1.76343997,12.0203018 C1.15995409,12.3534933 0.746214592,12.9488921 0.644391989,13.6306868 C0.644391989,14.1638768 1.14541698,14.3060748 1.76343997,13.9477868 C2.36802793,13.6153622 2.78256273,13.0195333 2.88404895,12.3370868 C2.88404895,11.8039458 2.38302396,11.6631758 1.76343997,12.0203018 Z"/><path fill="url(#g)" d="M5.6234499,9.79145983 C5.01895146,10.1248882 4.60444599,10.7210654 4.50240692,11.4038398 C4.50240692,11.9354688 5.00500691,12.0777998 5.6234499,11.7206808 C6.22761728,11.3879429 6.64200757,10.7924382 6.74405889,10.1102958 C6.74405889,9.57709884 6.24259989,9.43448084 5.6234499,9.79145983 Z"/><path fill="url(#h)" d="M9.48302584,7.56461287 C8.87845457,7.89697391 8.46391605,8.49274599 8.36241686,9.17514484 C8.36241686,9.70705383 8.86344185,9.85052583 9.48302584,9.49224484 C10.0868352,9.15925835 10.5006812,8.56358983 10.6020738,7.88154487 C10.6020738,7.34883087 10.1010488,7.20607288 9.48302584,7.56461287 Z"/><path fill="url(#i)" d="M13.3414678,5.33591791 C12.7376606,5.66926735 12.3234364,6.2646938 12.2208588,6.94673688 C12.2208588,7.47992687 12.7235918,7.62054987 13.3414678,7.26357088 C13.9454809,6.93063325 14.3598477,6.33524053 14.4622238,5.6531859 C14.4622238,5.12155691 13.9590638,4.97922592 13.3414678,5.33591791 Z"/><path fill="url(#j)" d="M17.1996297,3.10750295 C16.5961611,3.44092528 16.1824545,4.03643724 16.0805817,4.71832192 C16.0805817,5.25151191 16.5816067,5.39382191 17.1996297,5.03516291 C17.8039638,4.7034413 18.2185224,4.10832403 18.3202387,3.42647894 C18.3202387,2.89328895 17.8191997,2.75053095 17.1996297,3.10750295 Z"/><path fill="url(#k)" d="M21.0596396,0.880802985 C20.455559,1.213642 20.0412012,1.80909897 19.9390237,2.49119496 C19.9390237,3.02267695 20.4416237,3.16543495 21.0596396,2.80845595 C21.6638894,2.47483593 22.078191,1.87872111 22.1802486,1.19607598 C22.1802486,0.664453989 21.6776626,0.522115991 21.0596396,0.880802985 Z"/></g><g transform="translate(0 13.3)"><path fill="url(#l)" d="M1.25304198,11.9662268 C0.6496033,12.2995138 0.235927359,12.8949538 0.134140998,13.5767588 C0.134140998,14.1098018 0.635018989,14.2521398 1.25304198,13.8938588 C1.85767582,13.5614838 2.27223023,12.9656305 2.37365796,12.2831588 C2.37365796,11.7500178 1.87277297,11.6092478 1.25304198,11.9662268 Z"/><path fill="url(#m)" d="M5.11319191,9.73752483 C4.50869586,10.0709579 4.09419347,10.667137 3.99215593,11.3499118 C3.99215593,11.8813938 4.49475592,12.0237248 5.11319191,11.6667528 C5.71733704,11.3339854 6.13171999,10.7384924 6.23380789,10.0563608 C6.23380789,9.52317084 5.7323559,9.38040584 5.11319191,9.73752483 Z"/><path fill="url(#n)" d="M8.97277485,7.51068487 C8.36820209,7.84304426 7.95366299,8.43881717 7.85216587,9.12121684 C7.85216587,9.65312584 8.35319086,9.79702483 8.97277485,9.43831684 C9.57658425,9.10533035 9.9904302,8.50966183 10.0918228,7.82761687 C10.0918228,7.29490288 9.59079784,7.15213788 8.97277485,7.51068487 Z"/><path fill="url(#o)" d="M12.8312168,5.28240991 C12.2274166,5.61549047 11.8131608,6.21075264 11.7106078,6.89266188 C11.7106078,7.42585187 12.2132078,7.56662187 12.8312168,7.20964288 C13.4351736,6.87666647 13.8494834,6.28127858 13.9518328,5.5992509 C13.9518328,5.06762891 13.4488128,4.92529092 12.8312168,5.28240991 Z"/><path fill="url(#p)" d="M16.6892317,3.05357495 C16.0858131,3.3870208 15.6721618,3.98252874 15.5703307,4.66438692 C15.5703307,5.19758391 16.0713557,5.33988691 16.6892317,4.98122792 C17.2936533,4.64950668 17.7082739,4.05432678 17.8099877,3.37240394 C17.8099877,2.83936095 17.3089627,2.69659595 16.6892317,3.05357495 Z"/><path fill="url(#q)" d="M20.5493887,0.826867986 C19.9453473,1.15968225 19.5309962,1.75507771 19.4287727,2.43711996 C19.4287727,2.96874195 19.9313727,3.11150695 20.5493887,2.75438095 C21.1534516,2.42076205 21.5677065,1.8248722 21.6699976,1.14242798 C21.6699976,0.61051899 21.1669846,0.468180992 20.5493887,0.826867986 Z"/></g></g><g transform="translate(541.1 246.4)"><g transform="translate(23.1)"><path fill="url(#r)" d="M1.61500497,11.4285708 C1.01151863,11.761945 0.59784154,12.3574927 0.496103992,13.0393898 C0.496103992,13.5725798 0.996981983,13.7147708 1.61500497,13.3560838 C2.21959482,13.0238836 2.63415805,12.4281822 2.73561395,11.7458388 C2.73561395,11.2126488 2.23473596,11.0714518 1.61500497,11.4285708 Z"/><path fill="url(#s)" d="M5.47469991,9.20016284 C4.87054072,9.53367502 4.45624845,10.1296185 4.35409093,10.8121158 C4.35409093,11.3435978 4.85669092,11.4863628 5.47469991,11.1293838 C6.07895387,10.796683 6.49344836,10.2011785 6.59559589,9.51899184 C6.59562389,8.98580185 6.0943189,8.84318385 5.47469991,9.20016284 Z"/><path fill="url(#t)" d="M9.33473784,6.97331588 C8.73016434,7.30567444 8.31562495,7.90144777 8.21412886,8.58384785 C8.21412886,9.11532984 8.71514685,9.25922884 9.33473784,8.90054185 C9.93850321,8.56772995 10.3523579,7.97221342 10.4537788,7.29029688 C10.4537788,6.75709988 9.95276083,6.61462889 9.33473784,6.97331588 Z"/></g><g transform="translate(0 13.3)"><path fill="url(#u)" d="M1.80475397,11.3746428 C1.20126373,11.7079831 0.787541548,12.3034735 0.685705988,12.9853428 C0.685705988,13.5185328 1.18673098,13.6608428 1.80475397,13.3021838 C2.40934026,12.9699078 2.82389315,12.3741669 2.92536295,11.6917918 C2.92536295,11.1585738 2.42433796,11.0175238 1.80475397,11.3746428 Z"/><path fill="url(#v)" d="M5.6644769,9.14608784 C5.06033152,9.47968703 4.64605348,10.0756644 4.54386792,10.7581878 C4.54386792,11.2896698 5.04646791,11.4324278 5.6644769,11.0754488 C6.2687605,10.7427571 6.68330156,10.1472627 6.78551288,9.46506384 C6.78551288,8.93187385 6.28406789,8.78910885 5.6644769,9.14608784 Z"/><path fill="url(#w)" d="M9.52448684,6.91938088 C8.91992543,7.25168583 8.5053805,7.84741161 8.40387086,8.52977285 C8.40387086,9.06139485 8.90489585,9.20527284 9.52448684,8.84704085 C10.1283008,8.51400267 10.5421395,7.91829674 10.6435278,7.23622188 C10.6434998,6.70303189 10.1425098,6.56070089 9.52448684,6.91938088 Z"/><path fill="url(#x)" d="M13.3829288,4.69069992 C12.7788653,5.0237898 12.3644289,5.61925044 12.2618928,6.30139989 C12.2618928,6.83458988 12.7644928,6.97535988 13.3829288,6.61838089 C13.9868829,6.28540286 14.40119,5.69001524 14.5035378,5.00798891 C14.5035378,4.47633192 14.0005248,4.33399393 13.3829288,4.69069992 Z"/><path fill="url(#y)" d="M17.2409437,2.46227796 C16.6374228,2.7956389 16.2236955,3.39117806 16.1218957,4.07308993 C16.1218957,4.60585292 16.6229207,4.74858992 17.2409437,4.38993093 C17.8454079,4.05807692 18.2599827,3.46272661 18.3615527,2.78067995 C18.3615527,2.24748996 17.8605347,2.10515896 17.2409437,2.46227796 Z"/><path fill="url(#z)" d="M21.1010936,0.235430996 C20.4969084,0.568149106 20.0825112,1.16366374 19.9804847,1.84581597 C19.9804847,2.37744496 20.4830847,2.51978296 21.1010936,2.16280396 C21.7052738,1.82924337 22.1195654,1.23324656 22.2217026,0.550703991 C22.2217026,0.0192219997 21.7186896,-0.123115998 21.1010936,0.235430996 Z"/></g></g><path fill="url(#A)" d="M514.112317,287.991692 C514.024116,288.89013 513.514504,289.693297 512.739204,290.15577 L504.766113,294.759341 C504.008601,295.197163 503.392993,294.938541 503.392993,294.180742 C503.481506,293.281854 503.99095,292.478162 504.766113,292.014529 L512.739204,287.411532 C513.498704,286.973563 514.112317,287.23418 514.112317,287.991692 Z"/></g><path fill="url(#B)" d="M575.432631,0.00853999985 L46.2009652,0 L46.2009652,407.842876 C46.2009652,408.46176 46.5311222,409.033637 47.0670822,409.343095 L347.393936,582.736746 C348.105199,583.147241 348.981396,583.147241 349.692659,582.736746 L574.147907,453.147148 C574.933169,452.693274 575.420635,451.858703 575.432631,450.951759 L575.432631,0.00853999985 Z" opacity=".32" style="mix-blend-mode:overlay"/><path fill="url(#C)" d="M274.70838,276.741222 C274.009914,276.332149 273.144985,276.332149 272.446519,276.741222 L46.9391222,391.637925 L46.9456672,407.762425 C46.9747032,408.810017 47.2861332,409.073196 47.7951312,409.367119 L347.007634,582.215085 C347.707304,582.639038 348.58001,582.657485 349.29697,582.263476 L572.94929,453.027847 C573.988202,452.514047 574.199574,452.224786 574.199574,450.915443 L574.199574,434.934815 L274.70838,276.741222 Z"/><path fill="url(#D)" d="M347.0065,565.732864 C347.71494,566.141938 348.587816,566.141938 349.296256,565.732864 L572.919981,436.623915 C573.711799,436.166766 574.199581,435.321911 574.199581,434.407603 C574.199581,433.493294 573.711799,432.648439 572.919981,432.191291 L274.95604,260.162094 C274.24755,259.75302 273.374634,259.75302 272.666144,260.162094 L47.7928492,389.992666 C47.2589193,390.300982 46.9300145,390.87071 46.9300145,391.487264 C46.9300145,392.103819 47.2589193,392.673546 47.7928492,392.981862 L347.0065,565.732864 Z"/><path fill="#4F7FFE" d="M572.715154,449.319709 L349.091149,578.428806 C348.509445,578.764295 347.793024,578.764295 347.21132,578.428806 L47.9979562,405.677944 C47.3373079,405.143903 46.9509382,404.340457 46.9509382,403.490955 L46.9509382,405.514543 C47.0665761,405.865291 47.2894188,406.170879 47.5880292,406.388199 L346.801393,579.138921 C347.63704,579.620017 348.665576,579.620017 349.501223,579.138921 L573.125081,450.029992 C573.652962,449.630197 574.033556,449.066814 574.207407,448.427853 L574.207407,446.410957 C574.201522,447.56284 573.647353,448.643046 572.715154,449.319709 L572.715154,449.319709 Z"/><path fill="#4F7FFE" d="M572.715154,445.220292 L349.091149,574.329389 C348.509443,574.664871 347.793026,574.664871 347.21132,574.329389 L47.9979562,401.578527 C47.3373079,401.044486 46.9509382,400.24104 46.9509382,399.391538 L46.9509382,401.415126 C47.0665782,401.765873 47.2894205,402.071461 47.5880292,402.288782 L346.801393,575.03949 C347.63704,575.520586 348.665576,575.520586 349.501223,575.03949 L573.125081,445.930547 C573.652961,445.530753 574.033554,444.967373 574.207407,444.328415 L574.207407,442.311519 C574.201529,443.463409 573.647359,444.543624 572.715154,445.220292 Z"/><path fill="#4F7FFE" d="M572.715154,441.121022 L349.091149,570.229972 C348.509443,570.565454 347.793026,570.565454 347.21132,570.229972 L47.9979562,397.47911 C47.3372844,396.945087 46.9509382,396.14163 46.9509382,395.292121 L46.9509382,397.315709 C47.0665782,397.666456 47.2894205,397.972044 47.5880292,398.189365 L346.801393,570.940262 C347.63709,571.421172 348.665526,571.421172 349.501223,570.940262 L573.125081,441.83113 C573.652961,441.431337 574.033554,440.867956 574.207407,440.228999 L574.198727,438.137658 C574.199418,439.30974 573.650166,440.414248 572.715154,441.121022 L572.715154,441.121022 Z"/><path fill="#0E1E75" d="M265.787559 114.197627L243.152871 127.266347 243.1476 127.271044 211.261074 145.678783C211.00614 145.825927 210.881866 146.125992 210.958113 146.410298 211.034359 146.694603 211.292103 146.892051 211.586455 146.892051 211.700448 146.892051 211.812441 146.862108 211.910982 146.804802L252.668314 123.276102 252.675573 123.26969 266.437607 115.323934C266.747691 115.143998 266.853624 114.747026 266.674415 114.436521 266.495206 114.126017 266.098483 114.019154 265.787559 114.197634L265.787559 114.197627zM328.292252 119.419361C328.206253 119.269827 328.064283 119.160662 327.897676 119.11596 327.731068 119.071258 327.553521 119.094694 327.404218 119.181095L295.761797 137.450052C295.560112 137.565891 295.435515 137.780661 295.435515 138.013245 295.435515 138.24583 295.559451 138.460783 295.760964 138.576921 295.962477 138.693059 296.210686 138.692682 296.411845 138.575932L328.054406 120.307395C328.20371 120.221177 328.312647 120.079178 328.357252 119.912639 328.401857 119.746099 328.378476 119.568661 328.292252 119.419361L328.292252 119.419361zM318.488865 135.86913C318.602885 135.86913 318.714856 135.838819 318.813392 135.781448L345.05644 120.630074C345.366531 120.450218 345.472532 120.053303 345.293398 119.742795 345.114264 119.432286 344.717597 119.325362 344.406672 119.503774L318.163631 134.655428C317.908714 134.802641 317.784445 135.102708 317.860638 135.387047 317.936832 135.671386 318.194494 135.86913 318.488865 135.86913zM263.398733 126.467129C263.484818 126.616575 263.626819 126.725635 263.793414 126.770255 263.960008 126.814875 264.13751 126.791388 264.286766 126.704975L289.764477 111.995693C289.966162 111.879853 290.090759 111.665084 290.090759 111.432499 290.090759 111.199915 289.966823 110.984961 289.76531 110.868824 289.563797 110.752686 289.315588 110.753063 289.114429 110.869813L263.636719 125.579095C263.325782 125.758605 263.219233 126.156186 263.398733 126.467129L263.398733 126.467129zM307.739511 170.339334L316.700554 165.166138C317.010263 164.986109 317.115987 164.589472 316.936977 164.279173 316.757966 163.968874 316.361678 163.861847 316.050793 164.039838L307.08975 169.213468C306.834757 169.360606 306.71042 169.660699 306.78663 169.945064 306.86284 170.229428 307.120584 170.427123 307.414984 170.427023 307.529019 170.427023 307.641018 170.396809 307.739511 170.339334L307.739511 170.339334zM291.095317 131.406049C291.209247 131.406049 291.321159 131.37598 291.419697 131.318794L312.549757 119.11932C312.86063 118.939707 312.967104 118.54213 312.787604 118.231191 312.608104 117.920252 312.210566 117.813633 311.899562 117.99302L290.769649 130.192781C290.514749 130.340001 290.390549 130.640102 290.46686 130.924398 290.543171 131.208694 290.800957 131.406262 291.095317 131.406049L291.095317 131.406049zM318.3972 144.576388L295.761797 157.644533 295.754965 157.650511 263.870435 176.057396C263.668653 176.173225 263.543922 176.388041 263.543922 176.620704 263.543922 176.853367 263.667822 177.068414 263.869387 177.184617 264.070953 177.300821 264.319247 177.30047 264.520482 177.183696L305.27724 153.654995 305.285073 153.647995 319.046961 145.7028C319.356841 145.52283 319.462694 145.126066 319.283641 144.815654 319.104589 144.505243 318.708139 144.398218 318.3972 144.576353L318.3972 144.576388zM350.761972 125.890238L324.880319 140.833236C324.625526 140.980579 324.501421 141.280654 324.577709 141.564926 324.653997 141.849197 324.911665 142.046798 325.205994 142.046798 325.319957 142.046798 325.431906 142.016768 325.530381 141.95941L351.411754 127.016552C351.721845 126.836696 351.827846 126.439781 351.648712 126.129272 351.469578 125.818764 351.07291 125.71184 350.761986 125.890252L350.761972 125.890238zM68.9020698 119.104942C68.8160259 118.955452 68.6740237 118.846353 68.5074114 118.80173 68.340799 118.757106 68.1632774 118.780628 68.0140358 118.867103L55.2052261 126.262022C54.8942842 126.441566 54.7877656 126.839184 54.9673101 127.150126 55.1468545 127.461068 55.5444722 127.567586 55.855414 127.388042L68.6637968 119.993123C68.8132511 119.907012 68.9223409 119.765017 68.9670338 119.598421 69.0117266 119.431825 68.9883558 119.254295 68.9020698 119.104942L68.9020698 119.104942zM87.5089375 118.501297C87.3294318 118.190379 86.9319415 118.083726 86.6209035 118.263024L63.9862149 131.331744C63.7841982 131.447404 63.6594342 131.662246 63.6590998 131.895029 63.6587668 132.127812 63.7829143 132.34301 63.9845986 132.459249 64.1862829 132.575489 64.4347232 132.575029 64.6359759 132.458044L87.2709515 119.389324C87.5818673 119.209802 87.6884113 118.812241 87.5089375 118.501297zM118.823416 150.013763C118.737391 149.864254 118.595401 149.755129 118.42879 149.710476 118.262178 149.665822 118.084646 149.689314 117.935382 149.775763L106.933524 156.12736C106.73238 156.24348 106.608455 156.458089 106.608455 156.690344 106.608455 156.9226 106.732344 157.137218 106.933479 157.253354 107.134614 157.36949 107.382428 157.3695 107.583572 157.25338L118.585598 150.901797C118.734914 150.815591 118.84386 150.67359 118.888461 150.507044 118.933063 150.340498 118.909665 150.163055 118.823416 150.013763L118.823416 150.013763zM124.74459 147.245754C124.858564 147.245754 124.970521 147.215681 125.069117 147.158505L156.711538 128.889829C156.912707 128.773709 157.036668 128.559087 157.036668 128.32681 157.036668 128.094532 156.912791 127.879887 156.711644 127.76373 156.510497 127.647572 156.262659 127.647549 156.06149 127.763669L124.418922 146.032486C124.163871 146.179615 124.039547 146.479792 124.11588 146.764171 124.192214 147.048549 124.450145 147.246121 124.74459 147.245754L124.74459 147.245754zM141.225243 147.219279C141.139056 147.069944 140.997068 146.960969 140.830524 146.916334 140.66398 146.871699 140.486526 146.895061 140.337209 146.981279L115.714513 161.197229C115.512731 161.313083 115.388034 161.527922 115.388034 161.760598 115.388034 161.993274 115.511981 162.208322 115.713569 162.324513 115.915157 162.440704 116.163465 162.440329 116.364701 162.323529L140.987397 148.107299C141.298208 147.927691 141.404673 147.530193 141.225243 147.219279L141.225243 147.219279zM147.145989 144.451711C147.260033 144.451711 147.372025 144.421374 147.470516 144.363882L173.713705 129.212648C174.023411 129.032579 174.129102 128.635912 173.950053 128.325615 173.771005 128.015319 173.374689 127.908322 173.063804 128.086348L146.820755 143.238009C146.565839 143.385222 146.441569 143.685289 146.517763 143.969628 146.593957 144.253967 146.851619 144.451711 147.145989 144.451711L147.145989 144.451711zM85.8107235 137.904821L80.5908236 140.918209C80.3890424 141.034038 80.2645278 141.248854 80.2643114 141.481516 80.2640955 141.714179 80.3882107 141.929226 80.5897764 142.04543 80.7913421 142.161634 81.0396357 142.161282 81.2408716 142.044509L86.4603375 139.030834C86.6623602 138.91523 86.7871461 138.700424 86.7874978 138.467664 86.787848 138.234904 86.6637105 138.019723 86.4620374 137.903511 86.2603642 137.787298 86.0119441 137.787795 85.8107375 137.904814L85.8107235 137.904821zM92.0560044 135.049556C92.1421105 135.198978 92.2840991 135.308028 92.4506768 135.352672 92.6172545 135.397316 92.7947479 135.37389 92.9440384 135.287556L118.421742 120.578274C118.732684 120.398729 118.839202 120.001112 118.659658 119.69017 118.480114 119.379228 118.082496 119.27271 117.771554 119.452254L92.2938434 134.161536C91.9829619 134.34109 91.8764818 134.738656 92.0560044 135.049556zM113.831695 142.756479C113.745652 142.606991 113.603683 142.497867 113.437094 142.45317 113.270504 142.408473 113.092978 142.431874 112.943661 142.518213L98.1528223 151.058079C97.8978566 151.205145 97.7735299 151.505182 97.849751 151.789481 97.925972 152.07378 98.183717 152.271384 98.4780563 152.27118 98.5920547 152.271381 98.7040566 152.241267 98.8025833 152.183924L113.593422 143.644478C113.742861 143.558399 113.851945 143.416437 113.896639 143.249872 113.941333 143.083306 113.917969 142.905805 113.831695 142.756479L113.831695 142.756479zM119.752442 139.988616C119.86644 139.988616 119.978417 139.95852 120.076969 139.901221L141.206882 127.701747C141.517862 127.522202 141.624412 127.124553 141.444868 126.813573 141.265323 126.502592 140.867674 126.396042 140.556694 126.575587L119.426774 138.775348C119.171944 138.92261 119.0478 139.222676 119.124101 139.506934 119.200402 139.791192 119.458121 139.988758 119.752442 139.988616L119.752442 139.988616zM110.003598 134.826802C109.917536 134.677331 109.775534 134.56825 109.608929 134.523629 109.442324 134.479008 109.264812 134.502515 109.115564 134.588963L89.3717985 145.988078C89.1706294 146.104199 89.0466706 146.318821 89.0466706 146.5511 89.0466706 146.783378 89.1705497 146.998023 89.3716981 147.11418 89.5728466 147.230337 89.8206844 147.230359 90.0218535 147.114237L109.765696 135.714836C109.915026 135.628643 110.02399 135.486648 110.068608 135.320101 110.113225 135.153554 110.08984 134.976103 110.003598 134.826802zM115.924744 132.059198C116.038764 132.059198 116.150733 132.028881 116.249271 131.971516L137.411496 119.753401C137.61318 119.637561 137.737778 119.422792 137.737778 119.190207 137.737778 118.957623 137.613842 118.742669 137.412329 118.626532 137.210815 118.510394 136.962607 118.510771 136.761448 118.627521L115.599048 130.845496C115.344062 130.992749 115.219802 131.292934 115.296112 131.577325 115.372422 131.861717 115.630265 132.059373 115.924716 132.059198L115.924744 132.059198zM147.054324 153.158961L124.418922 166.226967C124.217637 166.343068 124.093563 166.557756 124.093563 166.790124 124.093563 167.022493 124.217484 167.237223 124.418729 167.353393 124.619975 167.469563 124.867916 167.469515 125.069117 167.353267L147.704092 154.285261C148.014184 154.105406 148.120185 153.708491 147.941051 153.397982 147.761917 153.087473 147.365249 152.98055 147.054324 153.158961L147.054324 153.158961zM153.863105 150.629392C153.97708 150.629392 154.089037 150.599292 154.187632 150.542116L180.068865 135.599098C180.270882 135.483437 180.395646 135.268596 180.39598 135.035813 180.396313 134.803029 180.272166 134.587831 180.070481 134.471592 179.868797 134.355353 179.620357 134.355813 179.419104 134.472798L153.537444 149.415697C153.282686 149.563086 153.158612 149.863153 153.234887 150.147419 153.311162 150.431685 153.568784 150.629392 153.863105 150.629392L153.863105 150.629392zM185.9573 132.099798C186.071275 132.099798 186.183232 132.069721 186.281827 132.012543L240.808165 100.531534C241.009335 100.415466 241.133369 100.200891 241.133369 99.9686378 241.133369 99.7363848 241.009592 99.5217385 240.808489 99.4055542 240.607385 99.2893698 240.359574 99.2892986 240.158404 99.4053673L185.631639 130.886236C185.376859 131.033585 185.252763 131.333651 185.329046 131.617914 185.405328 131.902177 185.662979 132.099798 185.9573 132.099798L185.9573 132.099798zM154.964786 168.793286C154.878732 168.643807 154.73673 168.534718 154.570123 168.490095 154.403515 168.445472 154.225999 168.468983 154.076752 168.55544L141.267803 175.950359C141.066118 176.066199 140.941693 176.280968 140.941521 176.513553 140.941349 176.746137 141.065456 176.961091 141.26697 177.077228 141.468483 177.193366 141.716691 177.192989 141.917851 177.076239L154.72652 169.68132C154.875911 169.595187 154.984951 169.453219 155.029638 169.286667 155.074325 169.120116 155.050996 168.942632 154.964786 168.793286zM160.88554 166.025416C160.999533 166.025416 161.111503 165.995307 161.21006 165.938028L193.394359 147.356066C193.70436 147.176146 193.810224 146.779243 193.631004 146.468836 193.451785 146.158429 193.055122 146.051669 192.744311 146.230187L160.559872 164.812148C160.305042 164.95941 160.180898 165.259476 160.257199 165.543735 160.333501 165.827993 160.59122 166.025416 160.88554 166.025416L160.88554 166.025416zM247.180832 114.801699L234.371896 122.196625 234.365484 122.202316 198.957287 142.643611C198.75522 142.75918 198.630032 142.973993 198.630032 143.206774 198.630032 143.439555 198.753837 143.654752 198.955545 143.770945 199.157254 143.887138 199.405701 143.88658 199.606887 143.769484L243.887311 118.20666 243.895571 118.199548 247.830593 115.927579C248.032276 115.811789 248.156941 115.597066 248.156941 115.364507 248.156941 115.131949 248.033102 114.916997 247.831633 114.800834 247.630165 114.684671 247.381984 114.685001 247.180825 114.801699L247.180832 114.801699zM173.571514 168.189494C173.392022 167.878547 172.994466 167.771942 172.68348 167.951368L150.048791 181.020081C149.793895 181.167279 149.669638 181.467323 149.745834 181.751636 149.822029 182.035948 150.07968 182.233643 150.374025 182.233643 150.488036 182.233794 150.600036 182.203632 150.698552 182.146248L173.333528 169.077528C173.482871 168.991348 173.591851 168.84936 173.636485 168.682812 173.681118 168.516264 173.657747 168.338807 173.571514 168.189494zM179.492261 165.421632C179.60625 165.421632 179.718235 165.391656 179.816788 165.334376L205.698727 150.391805C205.899872 150.275737 206.023868 150.061176 206.023868 149.828946 206.023868 149.596715 205.900078 149.382097 205.698988 149.265936 205.497897 149.149774 205.250111 149.149717 205.048967 149.265785L179.167027 164.208356C178.912039 164.355442 178.787699 164.655507 178.863918 164.939838 178.940136 165.224168 179.197892 165.421807 179.492261 165.421632L179.492261 165.421632zM197.062212 195.184931C196.97618 195.035429 196.83419 194.926309 196.667581 194.881657 196.500973 194.837004 196.323444 194.86049 196.174178 194.946931L185.17218 201.298528C184.861238 201.478072 184.754719 201.87569 184.934264 202.186632 185.113808 202.497573 185.511426 202.604092 185.822368 202.424548L196.824226 196.072951C196.973558 195.986764 197.082529 195.844778 197.127162 195.678237 197.171794 195.511695 197.148431 195.334244 197.062212 195.184931L197.062212 195.184931zM202.983246 192.417068C203.097241 192.417068 203.209213 192.386953 203.307773 192.329673L234.950334 174.060996C235.261314 173.88145 235.367863 173.483799 235.188316 173.172819 235.00877 172.861838 234.611119 172.75529 234.300139 172.934836L202.657697 191.203653C202.402646 191.350779 202.278299 191.650938 202.354587 191.935328 202.430875 192.219717 202.688753 192.417344 202.983197 192.417068L202.983246 192.417068zM287.799101 143.548438L289.928445 142.319238C290.239346 142.139693 290.345832 141.742108 290.166288 141.431207 289.986743 141.120306 289.589158 141.01382 289.278257 141.193365L278.276252 147.544961 278.269994 147.550372 240.512394 169.34784C240.311276 169.46396 240.187389 169.678554 240.187389 169.910787 240.187389 170.14302 240.311291 170.357611 240.512413 170.473724 240.713534 170.589837 240.961324 170.589833 241.162442 170.473713L287.791695 143.554983 287.799101 143.548438zM219.463898 192.390307C219.377702 192.241018 219.235729 192.132089 219.069214 192.087483 218.902699 192.042878 218.725285 192.066251 218.576004 192.152461L193.953197 206.368263C193.642137 206.547808 193.535523 206.945521 193.715067 207.256581 193.894612 207.567641 194.292325 207.674255 194.603385 207.49471L219.22608 193.278341C219.375403 193.192141 219.484355 193.05014 219.528958 192.883591 219.57356 192.717042 219.550156 192.539596 219.463898 192.390307L219.463898 192.390307zM225.384785 189.622752C225.498748 189.622752 225.61068 189.592556 225.709172 189.535224L251.952396 174.383815C252.262105 174.203786 252.36783 173.807149 252.188819 173.49685 252.009808 173.186551 251.61352 173.079524 251.302635 173.257515L225.059404 188.409197C224.804515 188.556425 224.680286 188.856493 224.756516 189.140806 224.832747 189.425119 225.09043 189.622752 225.384785 189.622752L225.384785 189.622752zM257.840096 170.884488C257.954085 170.884488 258.066069 170.85451 258.164623 170.797232L296.572691 148.624424 296.578991 148.618726 312.330174 139.5246C312.531934 139.40881 312.656621 139.194023 312.656621 138.961398 312.656621 138.728773 312.532667 138.513783 312.331096 138.397664 312.129525 138.281544 311.881266 138.282003 311.680126 138.398867L287.057395 152.614697 287.052271 152.619107 257.514848 169.670897C257.259915 169.818075 257.13563 170.118139 257.211833 170.402471 257.288035 170.686803 257.545722 170.884488 257.840089 170.884488L257.840096 170.884488zM164.049379 183.075988L158.829479 186.089376C158.628194 186.205477 158.504121 186.420164 158.504121 186.652533 158.504121 186.884902 158.628041 187.099631 158.829287 187.215801 159.030532 187.331971 159.278474 187.331923 159.479674 187.215676L164.699133 184.201994C164.900376 184.085974 165.024412 183.871381 165.024495 183.639089 165.024578 183.406798 164.900696 183.192117 164.699536 183.075953 164.498375 182.959789 164.250515 182.959799 164.049365 183.075981L164.049379 183.075988zM219.341062 151.153307L202.153851 161.076395C201.952069 161.192224 201.827555 161.40704 201.827338 161.639703 201.827122 161.872366 201.951238 162.087413 202.152803 162.203617 202.354369 162.31982 202.602663 162.319469 202.803899 162.202695L219.990823 152.279173C220.191941 152.163105 220.3159 151.948558 220.3159 151.71635 220.3159 151.484143 220.192097 151.269553 219.99102 151.153414 219.789943 151.037275 219.54218 151.037232 219.341062 151.1533L219.341062 151.153307zM170.294653 180.22087C170.380737 180.370317 170.522738 180.479379 170.689334 180.523998 170.85593 180.568617 171.033432 180.545127 171.182687 180.458709L196.660398 165.749287C196.862158 165.633498 196.986845 165.418711 196.986845 165.186086 196.986845 164.953461 196.862891 164.73847 196.66132 164.622351 196.459749 164.506232 196.21149 164.506691 196.01035 164.623554L170.532639 179.332836C170.383315 179.419033 170.27435 179.561021 170.229719 179.727562 170.185087 179.894102 170.208445 180.071552 170.294653 180.22087L170.294653 180.22087zM226.202931 148.692597L261.449016 128.34581C261.759917 128.166383 261.866498 127.768894 261.687072 127.457993 261.507645 127.147092 261.110156 127.04051 260.799255 127.219937L257.162426 129.319237 257.153599 129.322366 251.933573 132.335761 251.926741 132.341739 225.55331 147.566738C225.298247 147.713779 225.173847 148.013883 225.250078 148.298254 225.32631 148.582625 225.58414 148.780263 225.878551 148.780007 225.992518 148.780007 226.104476 148.750002 226.202931 148.692597L226.202931 148.692597zM192.070491 187.927646C191.984449 187.778157 191.84248 187.669032 191.67589 187.624335 191.5093 187.579638 191.331773 187.603039 191.182457 187.68938L176.391597 196.229247C176.136539 196.376291 176.012142 196.676391 176.088371 196.960759 176.1646 197.245128 176.422423 197.442769 176.716831 197.442522 176.830794 197.442652 176.942745 197.412491 177.041218 197.355127L191.832218 188.81554C191.981611 188.729445 192.09066 188.587503 192.13535 188.42097 192.180041 188.254436 192.156708 188.076968 192.070491 187.927646zM233.90018 163.026399L224.93899 168.199882C224.736964 168.31554 224.612204 168.530397 224.611899 168.763187 224.611596 168.995977 224.735793 169.21116 224.937516 169.327345 225.13924 169.44353 225.387692 169.44298 225.588898 169.325902L234.549941 164.152559C234.751579 164.036723 234.875986 163.822004 234.876198 163.589462 234.876409 163.35692 234.752392 163.141975 234.550965 163.025772 234.349538 162.90957 234.101383 162.909809 233.90018 163.026399L233.90018 163.026399zM197.991238 185.159643C198.105171 185.159643 198.217087 185.129581 198.315625 185.072388L219.445537 172.872914C219.756518 172.693408 219.863099 172.295791 219.683593 171.98481 219.504087 171.67383 219.10647 171.567248 218.795489 171.746754L197.66557 183.946354C197.410674 184.093578 197.286477 184.393678 197.362788 184.677972 197.439098 184.962267 197.69688 185.159836 197.991238 185.159643L197.991238 185.159643zM240.437522 160.653379C240.551555 160.653379 240.663583 160.623387 240.762196 160.566123L279.010993 138.485261 279.018819 138.478261 284.936297 135.061911C285.137491 134.945842 285.261559 134.731254 285.261559 134.498981 285.261559 134.266707 285.137794 134.052036 284.936679 133.935831 284.735563 133.819626 284.48773 133.819542 284.286536 133.935611L269.49569 142.475485 269.49128 142.479468 240.112281 159.439767C239.857338 159.586937 239.733043 159.887005 239.809246 160.171343 239.885448 160.455681 240.143143 160.653379 240.437515 160.653379L240.437522 160.653379zM188.242366 179.997997C188.156316 179.848515 188.014326 179.739413 187.847725 179.694763 187.681124 179.650112 187.503604 179.673583 187.354332 179.759997L167.610482 191.159112C167.409197 191.275213 167.285124 191.4899 167.285124 191.722269 167.285124 191.954638 167.409044 192.169367 167.61029 192.285537 167.811535 192.401707 168.059476 192.401659 168.260677 192.285412L188.00438 180.88601C188.153734 180.799846 188.262725 180.657861 188.30736 180.491312 188.351995 180.324762 188.328615 180.147302 188.242366 179.997997zM194.1634 177.230386C194.277422 177.230386 194.389399 177.20011 194.48792 177.142711L215.650319 164.924596C215.961222 164.74505 216.067708 164.347462 215.888162 164.036559 215.708615 163.725656 215.311028 163.61917 215.000124 163.798716L193.8379 176.016831C193.582921 176.164029 193.458639 176.464164 193.534911 176.748529 193.611184 177.032894 193.868983 177.230547 194.1634 177.230386L194.1634 177.230386zM270.236549 133.409281L281.108459 127.132262C281.309577 127.016142 281.433465 126.801548 281.433465 126.569315 281.433465 126.337081 281.309562 126.122491 281.108441 126.006378 280.907319 125.890265 280.659529 125.890269 280.458411 126.006389L260.714562 137.405504 260.708017 137.411195 221.212617 160.212133C221.010688 160.3278 220.885713 160.542598 220.885713 160.775308 220.885713 161.008018 221.009564 161.223128 221.211202 161.339302 221.41284 161.455475 221.661202 161.454984 221.862378 161.338013L270.230004 133.415098 270.236549 133.409281zM225.29312 198.330129L202.657697 211.398274C202.456527 211.514394 202.332567 211.729016 202.332567 211.961293 202.332567 212.193571 202.456444 212.408216 202.657591 212.524373 202.858738 212.640531 203.106575 212.640554 203.307745 212.524434L225.942713 199.456436C226.251667 199.276105 226.35688 198.880049 226.178152 198.570164 225.999425 198.26028 225.603919 198.153016 225.293113 198.330136L225.29312 198.330129zM257.657753 179.643979L231.77624 194.586837C231.574459 194.702666 231.449728 194.917482 231.449728 195.150145 231.449728 195.382807 231.573627 195.597854 231.775193 195.714058 231.976759 195.830262 232.225052 195.82991 232.426288 195.713137L258.307521 180.770286C258.617612 180.59043 258.723613 180.193515 258.544479 179.883006 258.365345 179.572498 257.968677 179.465574 257.657753 179.643986L257.657753 179.643979z" transform="translate(128.8 310.1)"/></g></svg>