<svg xmlns="http://www.w3.org/2000/svg" width="164" height="94"><path fill="#FFF" fill-rule="evenodd" d="M11.288 30.594L6.142 43.044 16.434 43.044 11.288 30.594zM5.478 44.704L2.656 51.51.83 51.51 10.458 28.27 12.118 28.27 21.746 51.51 19.92 51.51 17.098 44.704 5.478 44.704zM32.63 36.736L31.966 36.736C31.2134629 36.736 30.49967 36.874332 29.8246 37.151 29.14953 37.4276681 28.5519359 37.8205308 28.0318 38.3296 27.5116641 38.8386692 27.0966682 39.4528631 26.7868 40.1722 26.4769318 40.8915369 26.322 41.6827957 26.322 42.546L26.322 51.51 24.828 51.51 24.828 35.574 26.322 35.574 26.322 38.23C26.6318682 37.6766639 27.0523974 37.1786689 27.5836 36.736 28.0262689 36.3597315 28.6017298 36.0166682 29.31 35.7068 30.0182702 35.3969318 30.9035947 35.242 31.966 35.242L32.63 35.242 32.63 36.736zM36.874 30.262L38.202 30.262 38.202 35.574 41.854 35.574 41.854 37.068 38.202 37.068 38.202 47.526C38.202 48.4556046 38.4288644 49.158331 38.8826 49.6342 39.3363356 50.110069 39.9394629 50.348 40.692 50.348 40.9797348 50.348 41.2563987 50.3258669 41.522 50.2816 41.7876013 50.2373331 42.019999 50.1820003 42.2192 50.1156 42.4626679 50.0270662 42.6729325 49.9385338 42.85 49.85L42.85 51.344C42.6729325 51.4325338 42.4626679 51.5210662 42.2192 51.6096 42.019999 51.6760003 41.7876013 51.7313331 41.522 51.7756 41.2563987 51.8198669 40.9797348 51.842 40.692 51.842 39.4303937 51.842 38.4510035 51.4768037 37.7538 50.7464 37.0565965 50.0159963 36.708 48.9425404 36.708 47.526L36.708 37.068 33.554 37.068 33.554 35.574 35.712 35.574C36.0440017 35.574 36.3206656 35.4578012 36.542 35.2254 36.7633345 34.9929988 36.874 34.6665354 36.874 34.246L36.874 30.262zM46.596 35.574L48.09 35.574 48.09 51.51 46.596 51.51 46.596 35.574zM46.264 29.93C46.264 29.5979983 46.3746656 29.3213344 46.596 29.1 46.8173345 28.8786656 47.0939984 28.768 47.426 28.768 47.7580017 28.768 48.0346656 28.8786656 48.256 29.1 48.4773345 29.3213344 48.588 29.5979983 48.588 29.93 48.588 30.2620017 48.4773345 30.5386656 48.256 30.76 48.0346656 30.9813344 47.7580017 31.092 47.426 31.092 47.0939984 31.092 46.8173345 30.9813344 46.596 30.76 46.3746656 30.5386656 46.264 30.2620017 46.264 29.93zM55.82 51.51L54.326 51.51 54.326 37.068 51.67 37.068 51.67 35.574 54.326 35.574 54.326 32.254C54.326 30.8374596 54.6745965 29.7640037 55.3718 29.0336 56.0690035 28.3031963 57.0483937 27.938 58.31 27.938 58.5977348 27.938 58.8743987 27.9656664 59.14 28.021 59.4056014 28.0763336 59.637999 28.1371997 59.8372 28.2036 60.0806679 28.2921338 60.2909325 28.3695997 60.468 28.436L60.468 29.93C60.2909325 29.8635997 60.0806679 29.7861338 59.8372 29.6976 59.637999 29.6311997 59.4056014 29.5703336 59.14 29.515 58.8743987 29.4596664 58.5977348 29.432 58.31 29.432 57.5574629 29.432 56.9543356 29.669931 56.5006 30.1458 56.0468644 30.621669 55.82 31.3243954 55.82 32.254L55.82 35.574 64.784 35.574 64.784 51.51 63.29 51.51 63.29 37.068 55.82 37.068 55.82 51.51zM62.958 29.93C62.958 29.5979983 63.0686656 29.3213344 63.29 29.1 63.5113345 28.8786656 63.7879984 28.768 64.12 28.768 64.4520017 28.768 64.7286656 28.8786656 64.95 29.1 65.1713345 29.3213344 65.282 29.5979983 65.282 29.93 65.282 30.2620017 65.1713345 30.5386656 64.95 30.76 64.7286656 30.9813344 64.4520017 31.092 64.12 31.092 63.7879984 31.092 63.5113345 30.9813344 63.29 30.76 63.0686656 30.5386656 62.958 30.2620017 62.958 29.93zM68.862 43.542C68.862 42.3910609 69.0722646 41.3065384 69.4928 40.2884 69.9133355 39.2702616 70.4832631 38.3904704 71.2026 37.649 71.921937 36.9075296 72.7519287 36.3210022 73.6926 35.8894 74.6332714 35.4577978 75.6237282 35.242 76.664 35.242 77.7042719 35.242 78.6172628 35.4135316 79.403 35.7566 80.1887373 36.0996684 80.8471974 36.4814646 81.3784 36.902 81.9981365 37.3889358 82.5293312 37.9422636 82.972 38.562L81.81 39.558C81.4779984 39.0267973 81.0574692 38.562002 80.5484 38.1636 80.1057312 37.8094649 79.5634699 37.4830015 78.9216 37.1842 78.2797302 36.8853985 77.5272044 36.736 76.664 36.736 75.8229292 36.736 75.0261371 36.9130649 74.2736 37.2672 73.5210629 37.6213351 72.8515363 38.1027303 72.265 38.7114 71.6784638 39.3200697 71.2136684 40.0393959 70.8706 40.8694 70.5275317 41.6994042 70.356 42.5902619 70.356 43.542 70.356 44.4937381 70.5275317 45.3845959 70.8706 46.2146 71.2136684 47.0446042 71.6784638 47.7639303 72.265 48.3726 72.8515363 48.9812697 73.5210629 49.4626649 74.2736 49.8168 75.0261371 50.1709351 75.8229292 50.348 76.664 50.348 77.5272044 50.348 78.2797302 50.2041348 78.9216 49.9164 79.5634699 49.6286652 80.1057312 49.3077351 80.5484 48.9536 81.0574692 48.555198 81.4779984 48.0793361 81.81 47.526L82.972 48.522C82.5293312 49.1417364 81.9981365 49.6950642 81.3784 50.182 80.8471974 50.6025354 80.1887373 50.9843316 79.403 51.3274 78.6172628 51.6704684 77.7042719 51.842 76.664 51.842 75.6237282 51.842 74.6332714 51.6262022 73.6926 51.1946 72.7519287 50.7629978 71.921937 50.1764704 71.2026 49.435 70.4832631 48.6935296 69.9133355 47.8192717 69.4928 46.8122 69.0722646 45.8051283 68.862 44.7150725 68.862 43.542zM86.718 35.574L88.212 35.574 88.212 51.51 86.718 51.51 86.718 35.574zM86.386 29.93C86.386 29.5979983 86.4966656 29.3213344 86.718 29.1 86.9393345 28.8786656 87.2159984 28.768 87.548 28.768 87.8800017 28.768 88.1566656 28.8786656 88.378 29.1 88.5993345 29.3213344 88.71 29.5979983 88.71 29.93 88.71 30.2620017 88.5993345 30.5386656 88.378 30.76 88.1566656 30.9813344 87.8800017 31.092 87.548 31.092 87.2159984 31.092 86.9393345 30.9813344 86.718 30.76 86.4966656 30.5386656 86.386 30.2620017 86.386 29.93zM103.08 41.55C103.08 40.8638632 102.963801 40.2275363 102.7314 39.641 102.498999 39.0544637 102.183602 38.5454022 101.7852 38.1138 101.386798 37.6821978 100.916469 37.3446679 100.3742 37.1012 99.8319307 36.8577321 99.2398699 36.736 98.5980001 36.736 97.8675964 36.736 97.2146696 36.8577321 96.6392001 37.1012 96.0637305 37.3446679 95.576802 37.6102652 95.1784001 37.898 94.7135977 38.2521351 94.3041352 38.6394646 93.9500001 39.06L92.9540001 38.064C93.352402 37.5327973 93.8393305 37.068002 94.4148001 36.6696 94.9017358 36.3154649 95.4937966 35.9890015 96.1910001 35.6902 96.8882035 35.3913985 97.6905288 35.242 98.5980001 35.242 99.4612044 35.242 100.257996 35.4024651 100.9884 35.7234 101.718804 36.0443349 102.349597 36.4869972 102.8808 37.0514 103.412003 37.6158028 103.826999 38.2853295 104.1258 39.06 104.424602 39.8346705 104.574 40.6646622 104.574 41.55L104.574 51.51 103.08 51.51 103.08 48.854C102.703732 49.4294695 102.22787 49.9274646 101.6524 50.348 101.165464 50.7242685 100.562337 51.0673318 99.8430001 51.3772 99.1236631 51.6870682 98.266005 51.842 97.2700001 51.842 96.4731961 51.842 95.7483366 51.7202679 95.0954001 51.4768 94.4424635 51.2333321 93.8836024 50.9013354 93.4188001 50.4808 92.9539977 50.0602646 92.5943347 49.5788694 92.3398001 49.0366 92.0852654 48.4943306 91.9580001 47.9354695 91.9580001 47.36 91.9580001 46.0983937 92.3840625 45.0415376 93.2362001 44.1894 94.0883376 43.3372624 95.2669259 42.7894679 96.7720001 42.546L103.08 41.55zM97.2700001 50.348C98.0889375 50.348 98.8580631 50.1986015 99.5774001 49.8998 100.296737 49.6009985 100.910931 49.1970692 101.42 48.688 101.929069 48.1789308 102.332999 47.5702702 102.6318 46.862 102.930602 46.1537298 103.08 45.3790709 103.08 44.538L103.08 43.044 97.1040001 44.04C95.8423937 44.239201 94.9183363 44.6320637 94.3318001 45.2186 93.7452638 45.8051363 93.4520001 46.5189291 93.4520001 47.36 93.4520001 47.7362685 93.5405325 48.1014649 93.7176001 48.4556 93.8946676 48.8097351 94.1491984 49.1306652 94.4812001 49.4184 94.8132017 49.7061348 95.217131 49.9329992 95.6930001 50.099 96.1688691 50.2650008 96.6945305 50.348 97.2700001 50.348zM111.142 51.51L109.648 51.51 109.648 28.27 111.142 28.27 111.142 51.51zM3.652 63.27L5.312 63.27 5.312 86.51 3.652 86.51 3.652 63.27zM12.71 73.396C13.0198682 72.8205305 13.4293308 72.3004023 13.9384 71.8356 14.3810689 71.437198 14.9509965 71.0720017 15.6482 70.74 16.3454035 70.4079983 17.191995 70.242 18.188 70.242 19.0954712 70.242 19.9420627 70.4079983 20.7278 70.74 21.5135373 71.0720017 22.1996637 71.5423303 22.7862 72.151 23.3727363 72.7596697 23.8319983 73.4789959 24.164 74.309 24.4960017 75.1390042 24.662 76.051995 24.662 77.048L24.662 86.51 23.168 86.51 23.168 77.048C23.168 76.251196 23.0407346 75.5263366 22.7862 74.8734 22.5316654 74.2204634 22.1830689 73.6616023 21.7404 73.1968 21.2977311 72.7319977 20.7720697 72.3723346 20.1634 72.1178 19.5547303 71.8632654 18.8962702 71.736 18.188 71.736 17.4354629 71.736 16.7272033 71.8853985 16.0632 72.1842 15.3991967 72.4830015 14.8182025 72.8869308 14.3202 73.396 13.8221975 73.9050692 13.4293348 74.5192631 13.1416 75.2386 12.8538652 75.9579369 12.71 76.7270626 12.71 77.546L12.71 86.51 11.216 86.51 11.216 70.574 12.71 70.574 12.71 73.396zM31.064 65.262L32.392 65.262 32.392 70.574 36.044 70.574 36.044 72.068 32.392 72.068 32.392 82.526C32.392 83.4556046 32.6188644 84.158331 33.0726 84.6342 33.5263356 85.110069 34.1294629 85.348 34.882 85.348 35.1697348 85.348 35.4463987 85.3258669 35.712 85.2816 35.9776013 85.2373331 36.209999 85.1820003 36.4092 85.1156 36.6526679 85.0270662 36.8629325 84.9385338 37.04 84.85L37.04 86.344C36.8629325 86.4325338 36.6526679 86.5210662 36.4092 86.6096 36.209999 86.6760003 35.9776013 86.7313331 35.712 86.7756 35.4463987 86.8198669 35.1697348 86.842 34.882 86.842 33.6203937 86.842 32.6410035 86.4768037 31.9438 85.7464 31.2465965 85.0159963 30.898 83.9425404 30.898 82.526L30.898 72.068 27.744 72.068 27.744 70.574 29.902 70.574C30.2340017 70.574 30.5106656 70.4578012 30.732 70.2254 30.9533345 69.9929988 31.064 69.6665354 31.064 69.246L31.064 65.262zM40.288 79.206C40.3322669 80.0470709 40.5314649 80.8383296 40.8856 81.5798 41.2397351 82.3212704 41.6989972 82.9686639 42.2634 83.522 42.8278028 84.0753361 43.4807296 84.5179983 44.2222 84.85 44.9636704 85.1820017 45.7549291 85.348 46.596 85.348 47.4592043 85.348 48.2227967 85.2041348 48.8868 84.9164 49.5508033 84.6286652 50.1041311 84.3077351 50.5468 83.9536 51.0780027 83.555198 51.5317315 83.0904027 51.908 82.5592L52.904 83.522C52.4613311 84.1417364 51.9301365 84.6950642 51.3104 85.182 50.7791974 85.6025354 50.1207373 85.9843316 49.335 86.3274 48.5492628 86.6704684 47.6362719 86.842 46.596 86.842 45.5557282 86.842 44.5652714 86.6262022 43.6246 86.1946 42.6839287 85.7629978 41.853937 85.1764704 41.1346 84.435 40.4152631 83.6935296 39.8453355 82.8192717 39.4248 81.8122 39.0042646 80.8051283 38.794 79.7150725 38.794 78.542 38.794 77.3910609 39.0042646 76.3065384 39.4248 75.2884 39.8453355 74.2702616 40.4097298 73.3904704 41.118 72.649 41.8262702 71.9075296 42.6396621 71.3210022 43.5582 70.8894 44.4767379 70.4577978 45.433995 70.242 46.43 70.242 47.426005 70.242 48.3666623 70.441198 49.252 70.8396 50.1373378 71.238002 50.9119967 71.8023963 51.576 72.5328 52.2400033 73.2632037 52.7656648 74.1374616 53.153 75.1556 53.5403353 76.1737384 53.734 77.3025271 53.734 78.542L53.734 79.206 40.288 79.206zM46.43 71.736C45.633196 71.736 44.875137 71.9019983 44.1558 72.234 43.4364631 72.5660017 42.7946028 73.0031306 42.2302 73.5454 41.6657972 74.0876694 41.2120684 74.7184631 40.869 75.4378 40.5259316 76.1571369 40.3322669 76.915196 40.288 77.712L52.24 77.712C52.1957331 76.8487957 52.0186682 76.0520037 51.7088 75.3216 51.3989318 74.5911963 50.983936 73.9604027 50.4638 73.4292 49.9436641 72.8979973 49.3405368 72.4830015 48.6544 72.1842 47.9682633 71.8853985 47.226804 71.736 46.43 71.736zM59.306 86.51L57.812 86.51 57.812 63.27 59.306 63.27 59.306 86.51zM66.206 86.51L64.712 86.51 64.712 63.27 66.206 63.27 66.206 86.51zM71.612 70.574L73.106 70.574 73.106 86.51 71.612 86.51 71.612 70.574zM71.28 64.93C71.28 64.5979983 71.3906656 64.3213344 71.612 64.1 71.8333345 63.8786656 72.1099984 63.768 72.442 63.768 72.7740017 63.768 73.0506656 63.8786656 73.272 64.1 73.4933345 64.3213344 73.604 64.5979983 73.604 64.93 73.604 65.2620017 73.4933345 65.5386656 73.272 65.76 73.0506656 65.9813344 72.7740017 66.092 72.442 66.092 72.1099984 66.092 71.8333345 65.9813344 71.612 65.76 71.3906656 65.5386656 71.28 65.2620017 71.28 64.93zM78.6780001 78.21C78.6780001 79.1174712 78.8384651 79.969596 79.1594001 80.7664 79.480335 81.563204 79.9119307 82.2493305 80.4542001 82.8248 80.9964694 83.4002695 81.6161966 83.8539983 82.3134001 84.186 83.0106035 84.5180017 83.735463 84.684 84.4880001 84.684 85.2405371 84.684 85.9709298 84.5180017 86.6792001 84.186 87.3874703 83.8539983 88.0237972 83.4002695 88.5882001 82.8248 89.1526029 82.2493305 89.6063317 81.563204 89.9494001 80.7664 90.2924684 79.969596 90.4640001 79.1174712 90.4640001 78.21 90.4640001 77.3025288 90.2924684 76.4559373 89.9494001 75.6702 89.6063317 74.8844627 89.1526029 74.1983363 88.5882001 73.6118 88.0237972 73.0252637 87.3874703 72.5660017 86.6792001 72.234 85.9709298 71.9019983 85.2405371 71.736 84.4880001 71.736 83.735463 71.736 83.0106035 71.9019983 82.3134001 72.234 81.6161966 72.5660017 80.9964694 73.0252637 80.4542001 73.6118 79.9119307 74.1983363 79.480335 74.8844627 79.1594001 75.6702 78.8384651 76.4559373 78.6780001 77.3025288 78.6780001 78.21zM90.4640001 82.858C90.0877315 83.4777364 89.6118696 84.0310642 89.0364001 84.518 88.5494643 84.9385354 87.9297371 85.3203316 87.1772001 85.6634 86.424663 86.0064684 85.5282719 86.178 84.4880001 86.178 83.536262 86.178 82.6177378 85.9732687 81.7324001 85.5638 80.8470623 85.1543313 80.0668701 84.5899369 79.3918001 83.8706 78.71673 83.1512631 78.180002 82.3102048 77.7816001 81.3474 77.3831981 80.3845952 77.1840001 79.3388056 77.1840001 78.21 77.1840001 77.0811944 77.3831981 76.0354048 77.7816001 75.0726 78.180002 74.1097952 78.71673 73.2687369 79.3918001 72.5494 80.0668701 71.8300631 80.8470623 71.2656687 81.7324001 70.8562 82.6177378 70.4467313 83.536262 70.242 84.4880001 70.242 85.5282719 70.242 86.424663 70.4135316 87.1772001 70.7566 87.9297371 71.0996684 88.5494643 71.4814646 89.0364001 71.902 89.6118696 72.3889358 90.0877315 72.9422636 90.4640001 73.562L90.4640001 70.574 91.9580001 70.574 91.9580001 85.514C91.9580001 86.6428056 91.7532688 87.6885952 91.3438001 88.6514 90.9343313 89.6142048 90.3810035 90.4552631 89.6838001 91.1746 88.9865966 91.8939369 88.178738 92.4583313 87.2602001 92.8678 86.3416621 93.2772687 85.3622719 93.482 84.3220001 93.482 83.2374613 93.482 82.296804 93.3104684 81.5000001 92.9674 80.7031961 92.6243316 80.0502693 92.2425354 79.5412001 91.822 78.9435971 91.3350642 78.4345355 90.7817364 78.0140001 90.162L79.0100001 89.166C79.3862686 89.7193361 79.8399974 90.195198 80.3712001 90.5936 80.8138689 90.9477351 81.3616635 91.2686652 82.0146001 91.5564 82.6675366 91.8441348 83.4366623 91.988 84.3220001 91.988 85.1409375 91.988 85.926663 91.8220017 86.6792001 91.49 87.4317371 91.1579983 88.084664 90.7042695 88.6380001 90.1288 89.1913362 89.5533305 89.6339984 88.867204 89.9660001 88.0704 90.2980017 87.273596 90.4640001 86.4214712 90.4640001 85.514L90.4640001 82.858zM97.5300001 79.206C97.5742669 80.0470709 97.773465 80.8383296 98.1276001 81.5798 98.4817352 82.3212704 98.9409972 82.9686639 99.5054001 83.522 100.069803 84.0753361 100.72273 84.5179983 101.4642 84.85 102.20567 85.1820017 102.996929 85.348 103.838 85.348 104.701204 85.348 105.464797 85.2041348 106.1288 84.9164 106.792803 84.6286652 107.346131 84.3077351 107.7888 83.9536 108.320003 83.555198 108.773732 83.0904027 109.15 82.5592L110.146 83.522C109.703331 84.1417364 109.172136 84.6950642 108.5524 85.182 108.021197 85.6025354 107.362737 85.9843316 106.577 86.3274 105.791263 86.6704684 104.878272 86.842 103.838 86.842 102.797728 86.842 101.807271 86.6262022 100.8666 86.1946 99.9259287 85.7629978 99.095937 85.1764704 98.3766001 84.435 97.6572631 83.6935296 97.0873355 82.8192717 96.6668001 81.8122 96.2462646 80.8051283 96.0360001 79.7150725 96.0360001 78.542 96.0360001 77.3910609 96.2462646 76.3065384 96.6668001 75.2884 97.0873355 74.2702616 97.6517298 73.3904704 98.3600001 72.649 99.0682703 71.9075296 99.8816621 71.3210022 100.8002 70.8894 101.718738 70.4577978 102.675995 70.242 103.672 70.242 104.668005 70.242 105.608662 70.441198 106.494 70.8396 107.379338 71.238002 108.153997 71.8023963 108.818 72.5328 109.482003 73.2632037 110.007665 74.1374616 110.395 75.1556 110.782335 76.1737384 110.976 77.3025271 110.976 78.542L110.976 79.206 97.5300001 79.206zM103.672 71.736C102.875196 71.736 102.117137 71.9019983 101.3978 72.234 100.678463 72.5660017 100.036603 73.0031306 99.4722001 73.5454 98.9077972 74.0876694 98.4540684 74.7184631 98.1110001 75.4378 97.7679317 76.1571369 97.5742669 76.915196 97.5300001 77.712L109.482 77.712C109.437733 76.8487957 109.260668 76.0520037 108.9508 75.3216 108.640932 74.5911963 108.225936 73.9604027 107.7058 73.4292 107.185664 72.8979973 106.582537 72.4830015 105.8964 72.1842 105.210263 71.8853985 104.468804 71.736 103.672 71.736zM116.548 73.396C116.857868 72.8205305 117.267331 72.3004023 117.7764 71.8356 118.219069 71.437198 118.788997 71.0720017 119.4862 70.74 120.183404 70.4079983 121.029995 70.242 122.026 70.242 122.933471 70.242 123.780063 70.4079983 124.5658 70.74 125.351537 71.0720017 126.037664 71.5423303 126.6242 72.151 127.210736 72.7596697 127.669998 73.4789959 128.002 74.309 128.334002 75.1390042 128.5 76.051995 128.5 77.048L128.5 86.51 127.006 86.51 127.006 77.048C127.006 76.251196 126.878735 75.5263366 126.6242 74.8734 126.369665 74.2204634 126.021069 73.6616023 125.5784 73.1968 125.135731 72.7319977 124.61007 72.3723346 124.0014 72.1178 123.39273 71.8632654 122.73427 71.736 122.026 71.736 121.273463 71.736 120.565203 71.8853985 119.9012 72.1842 119.237197 72.4830015 118.656203 72.8869308 118.1582 73.396 117.660198 73.9050692 117.267335 74.5192631 116.9796 75.2386 116.691865 75.9579369 116.548 76.7270626 116.548 77.546L116.548 86.51 115.054 86.51 115.054 70.574 116.548 70.574 116.548 73.396zM132.246 78.542C132.246 77.3910609 132.456265 76.3065384 132.8768 75.2884 133.297336 74.2702616 133.867263 73.3904704 134.5866 72.649 135.305937 71.9075296 136.135929 71.3210022 137.0766 70.8894 138.017271 70.4577978 139.007728 70.242 140.048 70.242 141.088272 70.242 142.001263 70.4135316 142.787 70.7566 143.572737 71.0996684 144.231197 71.4814646 144.7624 71.902 145.382137 72.3889358 145.913331 72.9422636 146.356 73.562L145.194 74.558C144.861998 74.0267973 144.441469 73.562002 143.9324 73.1636 143.489731 72.8094649 142.94747 72.4830015 142.3056 72.1842 141.66373 71.8853985 140.911204 71.736 140.048 71.736 139.206929 71.736 138.410137 71.9130649 137.6576 72.2672 136.905063 72.6213351 136.235536 73.1027303 135.649 73.7114 135.062464 74.3200697 134.597668 75.0393959 134.2546 75.8694 133.911532 76.6994042 133.74 77.5902619 133.74 78.542 133.74 79.4937381 133.911532 80.3845959 134.2546 81.2146 134.597668 82.0446042 135.062464 82.7639303 135.649 83.3726 136.235536 83.9812697 136.905063 84.4626649 137.6576 84.8168 138.410137 85.1709351 139.206929 85.348 140.048 85.348 140.911204 85.348 141.66373 85.2041348 142.3056 84.9164 142.94747 84.6286652 143.489731 84.3077351 143.9324 83.9536 144.441469 83.555198 144.861998 83.0793361 145.194 82.526L146.356 83.522C145.913331 84.1417364 145.382137 84.6950642 144.7624 85.182 144.231197 85.6025354 143.572737 85.9843316 142.787 86.3274 142.001263 86.6704684 141.088272 86.842 140.048 86.842 139.007728 86.842 138.017271 86.6262022 137.0766 86.1946 136.135929 85.7629978 135.305937 85.1764704 134.5866 84.435 133.867263 83.6935296 133.297336 82.8192717 132.8768 81.8122 132.456265 80.8051283 132.246 79.7150725 132.246 78.542zM150.268 79.206C150.312267 80.0470709 150.511465 80.8383296 150.8656 81.5798 151.219735 82.3212704 151.678997 82.9686639 152.2434 83.522 152.807803 84.0753361 153.46073 84.5179983 154.2022 84.85 154.94367 85.1820017 155.734929 85.348 156.576 85.348 157.439204 85.348 158.202797 85.2041348 158.8668 84.9164 159.530803 84.6286652 160.084131 84.3077351 160.5268 83.9536 161.058003 83.555198 161.511732 83.0904027 161.888 82.5592L162.884 83.522C162.441331 84.1417364 161.910137 84.6950642 161.2904 85.182 160.759197 85.6025354 160.100737 85.9843316 159.315 86.3274 158.529263 86.6704684 157.616272 86.842 156.576 86.842 155.535728 86.842 154.545271 86.6262022 153.6046 86.1946 152.663929 85.7629978 151.833937 85.1764704 151.1146 84.435 150.395263 83.6935296 149.825336 82.8192717 149.4048 81.8122 148.984265 80.8051283 148.774 79.7150725 148.774 78.542 148.774 77.3910609 148.984265 76.3065384 149.4048 75.2884 149.825336 74.2702616 150.38973 73.3904704 151.098 72.649 151.80627 71.9075296 152.619662 71.3210022 153.5382 70.8894 154.456738 70.4577978 155.413995 70.242 156.41 70.242 157.406005 70.242 158.346662 70.441198 159.232 70.8396 160.117338 71.238002 160.891997 71.8023963 161.556 72.5328 162.220003 73.2632037 162.745665 74.1374616 163.133 75.1556 163.520335 76.1737384 163.714 77.3025271 163.714 78.542L163.714 79.206 150.268 79.206zM156.41 71.736C155.613196 71.736 154.855137 71.9019983 154.1358 72.234 153.416463 72.5660017 152.774603 73.0031306 152.2102 73.5454 151.645797 74.0876694 151.192068 74.7184631 150.849 75.4378 150.505932 76.1571369 150.312267 76.915196 150.268 77.712L162.22 77.712C162.175733 76.8487957 161.998668 76.0520037 161.6888 75.3216 161.378932 74.5911963 160.963936 73.9604027 160.4438 73.4292 159.923664 72.8979973 159.320537 72.4830015 158.6344 72.1842 157.948263 71.8853985 157.206804 71.736 156.41 71.736zM31.912958 4.04979253C33.3074173 4.04979253 34.3994638 4.62240664 35.1050938 5.40248963L35.1050938 4.25726141 38.0368186 4.25726141 38.0368186 14.5477178C38.0368186 17.5352697 36.1299374 19.9419087 32.5093834 19.9419087 29.7876676 19.9419087 27.7967828 18.5477178 26.9399464 16.8962656L29.5356568 15.4605809C30.0900804 16.5643154 31.0813226 17.2614108 32.5093834 17.2614108 34.0970509 17.2614108 35.1050938 16.033195 35.1050938 14.6556017L35.1050938 13.659751C34.3994638 14.4813278 33.2654155 15.0539419 31.8709562 15.0539419 29.5944593 15.0539419 26.7047364 13.2780083 26.7047364 9.55186722 26.7047364 5.80912863 29.493655 4.04979253 31.912958 4.04979253zM7.66112601.0414937759C10.3912422.0414937759 12.8273458 1.40248963 14.1882038 3.6846473L14.1882038 3.6846473 14.2302055 3.7593361 11.6176944 5.41078838 11.5756926 5.32780083C10.7188561 3.75103734 9.4 2.94605809 7.66952636 2.94605809 4.99821269 2.94605809 2.9821269 4.94605809 2.9821269 7.593361 2.9821269 10.1742739 5.00661305 12.1991701 7.6023235 12.1991701 9.39159964 12.1991701 10.8868633 11.2282158 11.6932976 9.54356846L11.6932976 9.54356846 11.7352994 9.46058091 14.4486148 10.879668 14.406613 10.9543568C13.0373548 13.5767635 10.5172475 15.1452282 7.66112601 15.1452282 3.23413762 15.1452282.0168007149 11.966805.0168007149 7.593361.0168007149 3.28630705 3.30134048.0414937759 7.66112601.0414937759zM20.4128686 4.04979253C23.4957998 4.04979253 25.9655049 6.50622407 25.9655049 9.55186722 25.9655049 12.5975104 23.5042002 15.0539419 20.4128686 15.0539419 17.3299374 15.0539419 14.8602324 12.5975104 14.8602324 9.55186722 14.8602324 6.50622407 17.3215371 4.04979253 20.4128686 4.04979253zM69.4709562 4.04979253C70.8654155 4.04979253 71.957462 4.5560166 72.663092 5.30290456L72.663092 4.26556017 75.5948168 4.26556017 75.5948168 14.846473 72.663092 14.846473 72.663092 13.659751C71.957462 14.4813278 70.8234138 15.0539419 69.4289544 15.0539419 67.1524576 15.0539419 64.2627346 13.2780083 64.2627346 9.55186722 64.2627346 5.80912863 67.0516533 4.04979253 69.4709562 4.04979253zM53.3002681 4.29045643L53.3002681 14.8713693 50.3685433 14.8713693 50.3685433 4.29045643 53.3002681 4.29045643zM45.0847185 4.05809129C47.6132261 4.05809129 49.1336908 5.66804979 49.1336908 8.39834025L49.1336908 14.8547718 46.1515639 14.8547718 46.1515639 8.78008299C46.1515639 7.36099585 45.4879357 6.53941909 44.1774799 6.53941909 43.0602324 6.53941909 42.1445934 7.30290456 42.1445934 9.07883817L42.1445934 14.8547718 39.2128686 14.8547718 39.2128686 4.26556017 42.1277927 4.26556017 42.1277927 5.45228216C42.816622 4.58091286 43.8666667 4.05809129 45.0847185 4.05809129zM82.6511171 4.05809129C85.1796247 4.05809129 86.7000894 5.66804979 86.7000894 8.39834025L86.7000894 14.8547718 83.7179625 14.8547718 83.7179625 8.78008299C83.7179625 7.36099585 83.0543342 6.53941909 81.7438785 6.53941909 80.6266309 6.53941909 79.710992 7.30290456 79.710992 9.07883817L79.710992 14.8547718 76.7792672 14.8547718 76.7792672 4.26556017 79.6941912 4.26556017 79.6941912 5.45228216C80.3830206 4.58091286 81.4330652 4.05809129 82.6511171 4.05809129zM63.9855228 4.26556017L63.9855228 6.87136929 58.3488829 12.2821577 64.0947274 12.2821577 64.0947274 14.846473 54.4091153 14.846473 54.4091153 12.2655602 60.0457551 6.82987552 54.4931189 6.82987552 54.4931189 4.26556017 63.9855228 4.26556017zM91.9167113.763485477L91.9167113 4.25726141 93.9327971 4.25726141 93.9327971 6.85477178 91.9167113 6.85477178 91.9167113 10.2240664C91.9167113 11.8755187 92.1351206 12.1327801 93.9327971 12.1327801L93.9327971 12.1327801 93.9327971 14.8381743 93.5043789 14.8381743C90.1022341 14.8381743 88.9849866 13.7012448 88.9849866 10.2489627L88.9849866 10.2489627 88.9849866 6.86307054 87.162109 6.86307054 87.162109 4.25726141 88.9849866 4.25726141 88.9849866.763485477 91.9167113.763485477zM70.0085791 6.69709544C68.3789097 6.69709544 67.1356568 7.90041494 67.1356568 9.53526971 67.1356568 11.1701245 68.3789097 12.3900415 70.0085791 12.3900415 71.5878463 12.3900415 72.7470956 11.0954357 72.7470956 9.53526971 72.7470956 7.96680498 71.5878463 6.69709544 70.0085791 6.69709544zM32.4505809 6.69709544C30.8209115 6.69709544 29.5776586 7.90041494 29.5776586 9.53526971 29.5776586 11.1701245 30.8209115 12.3900415 32.4505809 12.3900415 34.0298481 12.3900415 35.1890974 11.0954357 35.1890974 9.53526971 35.1890974 7.96680498 34.0298481 6.69709544 32.4505809 6.69709544zM20.4128686 6.7966805C18.8924039 6.7966805 17.7331546 8.04149378 17.7331546 9.55186722 17.7331546 11.0539419 18.8924039 12.3070539 20.4128686 12.3070539 21.9165326 12.3070539 23.1093834 11.0539419 23.1093834 9.55186722 23.1093834 8.04979253 21.9081323 6.7966805 20.4128686 6.7966805zM53.3422699.780082988L53.3422699 3.41078838 50.4105451 3.41078838 50.4105451.780082988 53.3422699.780082988z"/></svg>