<svg xmlns="http://www.w3.org/2000/svg" width="445" height="33"><path fill="#FFF" fill-rule="evenodd" d="M172.288 3.58982028L167.142 16.0398203 177.434 16.0398203 172.288 3.58982028zM166.478 17.6998203L163.656 24.5058203 161.83 24.5058203 171.458 1.26582028 173.118 1.26582028 182.746 24.5058203 180.92 24.5058203 178.098 17.6998203 166.478 17.6998203zM193.63 9.73182028L192.966 9.73182028C192.213463 9.73182028 191.49967 9.87015223 190.8246 10.1468203 190.14953 10.4234883 189.551936 10.8163511 189.0318 11.3254203 188.511664 11.8344895 188.096668 12.4486833 187.7868 13.1680203 187.476932 13.8873572 187.322 14.678616 187.322 15.5418203L187.322 24.5058203 185.828 24.5058203 185.828 8.56982028 187.322 8.56982028 187.322 11.2258203C187.631868 10.6724842 188.052397 10.1744892 188.5836 9.73182028 189.026269 9.35555173 189.60173 9.01248849 190.31 8.70262028 191.01827 8.39275206 191.903595 8.23782028 192.966 8.23782028L193.63 8.23782028 193.63 9.73182028zM197.874 3.25782028L199.202 3.25782028 199.202 8.56982028 202.854 8.56982028 202.854 10.0638203 199.202 10.0638203 199.202 20.5218203C199.202 21.4514249 199.428864 22.1541512 199.8826 22.6300203 200.336336 23.1058893 200.939463 23.3438203 201.692 23.3438203 201.979735 23.3438203 202.256399 23.3216872 202.522 23.2774203 202.787601 23.2331534 203.019999 23.1778206 203.2192 23.1114203 203.462668 23.0228865 203.672932 22.9343541 203.85 22.8458203L203.85 24.3398203C203.672932 24.4283541 203.462668 24.5168865 203.2192 24.6054203 203.019999 24.6718206 202.787601 24.7271534 202.522 24.7714203 202.256399 24.8156872 201.979735 24.8378203 201.692 24.8378203 200.430394 24.8378203 199.451004 24.4726239 198.7538 23.7422203 198.056597 23.0118166 197.708 21.9383607 197.708 20.5218203L197.708 10.0638203 194.554 10.0638203 194.554 8.56982028 196.712 8.56982028C197.044002 8.56982028 197.320666 8.45362144 197.542 8.22122028 197.763334 7.98881912 197.874 7.66235571 197.874 7.24182028L197.874 3.25782028zM207.596 8.56982028L209.09 8.56982028 209.09 24.5058203 207.596 24.5058203 207.596 8.56982028zM207.264 2.92582028C207.264 2.59381862 207.374666 2.31715472 207.596 2.09582028 207.817334 1.87448584 208.093998 1.76382028 208.426 1.76382028 208.758002 1.76382028 209.034666 1.87448584 209.256 2.09582028 209.477334 2.31715472 209.588 2.59381862 209.588 2.92582028 209.588 3.25782194 209.477334 3.53448584 209.256 3.75582028 209.034666 3.97715472 208.758002 4.08782028 208.426 4.08782028 208.093998 4.08782028 207.817334 3.97715472 207.596 3.75582028 207.374666 3.53448584 207.264 3.25782194 207.264 2.92582028zM216.82 24.5058203L215.326 24.5058203 215.326 10.0638203 212.67 10.0638203 212.67 8.56982028 215.326 8.56982028 215.326 5.24982028C215.326 3.83327986 215.674597 2.75982393 216.3718 2.02942028 217.069004 1.29901663 218.048394.933820278 219.31.933820278 219.597735.933820278 219.874399.961486668 220.14 1.01682028 220.405601 1.07215389 220.637999 1.13301995 220.8372 1.19942028 221.080668 1.28795405 221.290932 1.36541995 221.468 1.43182028L221.468 2.92582028C221.290932 2.85941995 221.080668 2.78195405 220.8372 2.69342028 220.637999 2.62701995 220.405601 2.56615389 220.14 2.51082028 219.874399 2.45548667 219.597735 2.42782028 219.31 2.42782028 218.557463 2.42782028 217.954336 2.66575123 217.5006 3.14162028 217.046864 3.61748932 216.82 4.32021563 216.82 5.24982028L216.82 8.56982028 225.784 8.56982028 225.784 24.5058203 224.29 24.5058203 224.29 10.0638203 216.82 10.0638203 216.82 24.5058203zM223.958 2.92582028C223.958 2.59381862 224.068666 2.31715472 224.29 2.09582028 224.511334 1.87448584 224.787998 1.76382028 225.12 1.76382028 225.452002 1.76382028 225.728666 1.87448584 225.95 2.09582028 226.171334 2.31715472 226.282 2.59381862 226.282 2.92582028 226.282 3.25782194 226.171334 3.53448584 225.95 3.75582028 225.728666 3.97715472 225.452002 4.08782028 225.12 4.08782028 224.787998 4.08782028 224.511334 3.97715472 224.29 3.75582028 224.068666 3.53448584 223.958 3.25782194 223.958 2.92582028zM229.862 16.5378203C229.862 15.3868812 230.072265 14.3023587 230.4928 13.2842203 230.913335 12.2660819 231.483263 11.3862907 232.2026 10.6448203 232.921937 9.9033499 233.751929 9.31682244 234.6926 8.88522028 235.633271 8.45361812 236.623728 8.23782028 237.664 8.23782028 238.704272 8.23782028 239.617263 8.4093519 240.403 8.75242028 241.188737 9.09548866 241.847197 9.47728484 242.3784 9.89782028 242.998136 10.384756 243.529331 10.9380838 243.972 11.5578203L242.81 12.5538203C242.477998 12.0226176 242.057469 11.5578223 241.5484 11.1594203 241.105731 10.8052852 240.56347 10.4788218 239.9216 10.1800203 239.27973 9.88121878 238.527204 9.73182028 237.664 9.73182028 236.822929 9.73182028 236.026137 9.90888517 235.2736 10.2630203 234.521063 10.6171554 233.851536 11.0985506 233.265 11.7072203 232.678464 12.31589 232.213668 13.0352161 231.8706 13.8652203 231.527532 14.6952244 231.356 15.5860822 231.356 16.5378203 231.356 17.4895584 231.527532 18.3804161 231.8706 19.2104203 232.213668 20.0404244 232.678464 20.7597506 233.265 21.3684203 233.851536 21.97709 234.521063 22.4584852 235.2736 22.8126203 236.026137 23.1667554 236.822929 23.3438203 237.664 23.3438203 238.527204 23.3438203 239.27973 23.199955 239.9216 22.9122203 240.56347 22.6244855 241.105731 22.3035554 241.5484 21.9494203 242.057469 21.5510183 242.477998 21.0751564 242.81 20.5218203L243.972 21.5178203C243.529331 22.1375567 242.998136 22.6908845 242.3784 23.1778203 241.847197 23.5983557 241.188737 23.9801519 240.403 24.3232203 239.617263 24.6662887 238.704272 24.8378203 237.664 24.8378203 236.623728 24.8378203 235.633271 24.6220224 234.6926 24.1904203 233.751929 23.7588181 232.921937 23.1722907 232.2026 22.4308203 231.483263 21.6893499 230.913335 20.815092 230.4928 19.8080203 230.072265 18.8009486 229.862 17.7108928 229.862 16.5378203zM247.718 8.56982028L249.212 8.56982028 249.212 24.5058203 247.718 24.5058203 247.718 8.56982028zM247.386 2.92582028C247.386 2.59381862 247.496666 2.31715472 247.718 2.09582028 247.939334 1.87448584 248.215998 1.76382028 248.548 1.76382028 248.880002 1.76382028 249.156666 1.87448584 249.378 2.09582028 249.599334 2.31715472 249.71 2.59381862 249.71 2.92582028 249.71 3.25782194 249.599334 3.53448584 249.378 3.75582028 249.156666 3.97715472 248.880002 4.08782028 248.548 4.08782028 248.215998 4.08782028 247.939334 3.97715472 247.718 3.75582028 247.496666 3.53448584 247.386 3.25782194 247.386 2.92582028zM264.08 14.5458203C264.08 13.8596835 263.963801 13.2233565 263.7314 12.6368203 263.498999 12.050284 263.183602 11.5412224 262.7852 11.1096203 262.386798 10.6780181 261.916469 10.3404882 261.3742 10.0970203 260.831931 9.85355239 260.23987 9.73182028 259.598 9.73182028 258.867596 9.73182028 258.21467 9.85355239 257.6392 10.0970203 257.063731 10.3404882 256.576802 10.6060855 256.1784 10.8938203 255.713598 11.2479554 255.304135 11.6352848 254.95 12.0558203L253.954 11.0598203C254.352402 10.5286176 254.839331 10.0638223 255.4148 9.66542028 255.901736 9.31128517 256.493797 8.98482177 257.191 8.68602028 257.888204 8.38721878 258.690529 8.23782028 259.598 8.23782028 260.461204 8.23782028 261.257996 8.39828534 261.9884 8.71922028 262.718804 9.04015522 263.349597 9.48281746 263.8808 10.0472203 264.412003 10.6116231 264.826999 11.2811497 265.1258 12.0558203 265.424602 12.8304908 265.574 13.6604825 265.574 14.5458203L265.574 24.5058203 264.08 24.5058203 264.08 21.8498203C263.703732 22.4252898 263.22787 22.9232848 262.6524 23.3438203 262.165464 23.7200888 261.562337 24.0631521 260.843 24.3730203 260.123663 24.6828885 259.266005 24.8378203 258.27 24.8378203 257.473196 24.8378203 256.748337 24.7160882 256.0954 24.4726203 255.442463 24.2291524 254.883602 23.8971557 254.4188 23.4766203 253.953998 23.0560848 253.594335 22.5746897 253.3398 22.0324203 253.085265 21.4901509 252.958 20.9312898 252.958 20.3558203 252.958 19.094214 253.384062 18.0373579 254.2362 17.1852203 255.088338 16.3330827 256.266926 15.7852882 257.772 15.5418203L264.08 14.5458203zM258.27 23.3438203C259.088937 23.3438203 259.858063 23.1944218 260.5774 22.8956203 261.296737 22.5968188 261.910931 22.1928895 262.42 21.6838203 262.929069 21.1747511 263.332999 20.5660905 263.6318 19.8578203 263.930602 19.1495501 264.08 18.3748911 264.08 17.5338203L264.08 16.0398203 258.104 17.0358203C256.842394 17.2350213 255.918336 17.627884 255.3318 18.2144203 254.745264 18.8009565 254.452 19.5147494 254.452 20.3558203 254.452 20.7320888 254.540532 21.0972852 254.7176 21.4514203 254.894668 21.8055554 255.149198 22.1264855 255.4812 22.4142203 255.813202 22.701955 256.217131 22.9288194 256.693 23.0948203 257.168869 23.2608211 257.694531 23.3438203 258.27 23.3438203zM272.142 24.5058203L270.648 24.5058203 270.648 1.26582028 272.142 1.26582028 272.142 24.5058203zM283.95 1.26582028L285.61 1.26582028 285.61 24.5058203 283.95 24.5058203 283.95 1.26582028zM293.008 11.3918203C293.317868 10.8163507 293.727331 10.2962226 294.2364 9.83142028 294.679069 9.43301829 295.248997 9.06782194 295.9462 8.73582028 296.643404 8.40381862 297.489995 8.23782028 298.486 8.23782028 299.393471 8.23782028 300.240063 8.40381862 301.0258 8.73582028 301.811537 9.06782194 302.497664 9.53815057 303.0842 10.1468203 303.670736 10.75549 304.129998 11.4748161 304.462 12.3048203 304.794002 13.1348244 304.96 14.0478153 304.96 15.0438203L304.96 24.5058203 303.466 24.5058203 303.466 15.0438203C303.466 14.2470163 303.338735 13.5221569 303.0842 12.8692203 302.829665 12.2162837 302.481069 11.6574226 302.0384 11.1926203 301.595731 10.727818 301.07007 10.3681549 300.4614 10.1136203 299.85273 9.85908567 299.19427 9.73182028 298.486 9.73182028 297.733463 9.73182028 297.025203 9.88121878 296.3612 10.1800203 295.697197 10.4788218 295.116203 10.8827511 294.6182 11.3918203 294.120198 11.9008895 293.727335 12.5150833 293.4396 13.2344203 293.151865 13.9537572 293.008 14.7228828 293.008 15.5418203L293.008 24.5058203 291.514 24.5058203 291.514 8.56982028 293.008 8.56982028 293.008 11.3918203zM311.362 3.25782028L312.69 3.25782028 312.69 8.56982028 316.342 8.56982028 316.342 10.0638203 312.69 10.0638203 312.69 20.5218203C312.69 21.4514249 312.916864 22.1541512 313.3706 22.6300203 313.824336 23.1058893 314.427463 23.3438203 315.18 23.3438203 315.467735 23.3438203 315.744399 23.3216872 316.01 23.2774203 316.275601 23.2331534 316.507999 23.1778206 316.7072 23.1114203 316.950668 23.0228865 317.160933 22.9343541 317.338 22.8458203L317.338 24.3398203C317.160933 24.4283541 316.950668 24.5168865 316.7072 24.6054203 316.507999 24.6718206 316.275601 24.7271534 316.01 24.7714203 315.744399 24.8156872 315.467735 24.8378203 315.18 24.8378203 313.918394 24.8378203 312.939004 24.4726239 312.2418 23.7422203 311.544597 23.0118166 311.196 21.9383607 311.196 20.5218203L311.196 10.0638203 308.042 10.0638203 308.042 8.56982028 310.2 8.56982028C310.532002 8.56982028 310.808666 8.45362144 311.03 8.22122028 311.251335 7.98881912 311.362 7.66235571 311.362 7.24182028L311.362 3.25782028zM320.586 17.2018203C320.630267 18.0428911 320.829465 18.8341499 321.1836 19.5756203 321.537735 20.3170907 321.996997 20.9644842 322.5614 21.5178203 323.125803 22.0711564 323.77873 22.5138186 324.5202 22.8458203 325.26167 23.1778219 326.052929 23.3438203 326.894 23.3438203 327.757204 23.3438203 328.520797 23.199955 329.1848 22.9122203 329.848803 22.6244855 330.402131 22.3035554 330.8448 21.9494203 331.376003 21.5510183 331.829732 21.0862229 332.206 20.5550203L333.202 21.5178203C332.759331 22.1375567 332.228137 22.6908845 331.6084 23.1778203 331.077197 23.5983557 330.418737 23.9801519 329.633 24.3232203 328.847263 24.6662887 327.934272 24.8378203 326.894 24.8378203 325.853728 24.8378203 324.863271 24.6220224 323.9226 24.1904203 322.981929 23.7588181 322.151937 23.1722907 321.4326 22.4308203 320.713263 21.6893499 320.143336 20.815092 319.7228 19.8080203 319.302265 18.8009486 319.092 17.7108928 319.092 16.5378203 319.092 15.3868812 319.302265 14.3023587 319.7228 13.2842203 320.143336 12.2660819 320.70773 11.3862907 321.416 10.6448203 322.12427 9.9033499 322.937662 9.31682244 323.8562 8.88522028 324.774738 8.45361812 325.731995 8.23782028 326.728 8.23782028 327.724005 8.23782028 328.664662 8.43701829 329.55 8.83542028 330.435338 9.23382227 331.209997 9.79821663 331.874 10.5286203 332.538003 11.2590239 333.063665 12.1332819 333.451 13.1514203 333.838335 14.1695587 334.032 15.2983474 334.032 16.5378203L334.032 17.2018203 320.586 17.2018203zM326.728 9.73182028C325.931196 9.73182028 325.173137 9.89781862 324.4538 10.2298203 323.734463 10.5618219 323.092603 10.9989509 322.5282 11.5412203 321.963797 12.0834897 321.510068 12.7142833 321.167 13.4336203 320.823932 14.1529572 320.630267 14.9110163 320.586 15.7078203L332.538 15.7078203C332.493733 14.844616 332.316668 14.0478239 332.0068 13.3174203 331.696932 12.5870166 331.281936 11.9562229 330.7618 11.4250203 330.241664 10.8938176 329.638537 10.4788218 328.9524 10.1800203 328.266263 9.88121878 327.524804 9.73182028 326.728 9.73182028zM339.604 24.5058203L338.11 24.5058203 338.11 1.26582028 339.604 1.26582028 339.604 24.5058203zM346.504 24.5058203L345.01 24.5058203 345.01 1.26582028 346.504 1.26582028 346.504 24.5058203zM351.91 8.56982028L353.404 8.56982028 353.404 24.5058203 351.91 24.5058203 351.91 8.56982028zM351.578 2.92582028C351.578 2.59381862 351.688666 2.31715472 351.91 2.09582028 352.131335 1.87448584 352.407998 1.76382028 352.74 1.76382028 353.072002 1.76382028 353.348666 1.87448584 353.57 2.09582028 353.791335 2.31715472 353.902 2.59381862 353.902 2.92582028 353.902 3.25782194 353.791335 3.53448584 353.57 3.75582028 353.348666 3.97715472 353.072002 4.08782028 352.74 4.08782028 352.407998 4.08782028 352.131335 3.97715472 351.91 3.75582028 351.688666 3.53448584 351.578 3.25782194 351.578 2.92582028zM358.976 16.2058203C358.976 17.1132915 359.136465 17.9654163 359.4574 18.7622203 359.778335 19.5590243 360.209931 20.2451507 360.7522 20.8206203 361.294469 21.3960898 361.914197 21.8498186 362.6114 22.1818203 363.308604 22.5138219 364.033463 22.6798203 364.786 22.6798203 365.538537 22.6798203 366.26893 22.5138219 366.9772 22.1818203 367.68547 21.8498186 368.321797 21.3960898 368.8862 20.8206203 369.450603 20.2451507 369.904332 19.5590243 370.2474 18.7622203 370.590469 17.9654163 370.762 17.1132915 370.762 16.2058203 370.762 15.2983491 370.590469 14.4517575 370.2474 13.6660203 369.904332 12.880283 369.450603 12.1941565 368.8862 11.6076203 368.321797 11.021084 367.68547 10.5618219 366.9772 10.2298203 366.26893 9.89781862 365.538537 9.73182028 364.786 9.73182028 364.033463 9.73182028 363.308604 9.89781862 362.6114 10.2298203 361.914197 10.5618219 361.294469 11.021084 360.7522 11.6076203 360.209931 12.1941565 359.778335 12.880283 359.4574 13.6660203 359.136465 14.4517575 358.976 15.2983491 358.976 16.2058203zM370.762 20.8538203C370.385732 21.4735567 369.90987 22.0268845 369.3344 22.5138203 368.847464 22.9343557 368.227737 23.3161519 367.4752 23.6592203 366.722663 24.0022887 365.826272 24.1738203 364.786 24.1738203 363.834262 24.1738203 362.915738 23.969089 362.0304 23.5596203 361.145062 23.1501516 360.36487 22.5857572 359.6898 21.8664203 359.01473 21.1470833 358.478002 20.3060251 358.0796 19.3432203 357.681198 18.3804155 357.482 17.3346259 357.482 16.2058203 357.482 15.0770146 357.681198 14.0312251 358.0796 13.0684203 358.478002 12.1056155 359.01473 11.2645572 359.6898 10.5452203 360.36487 9.82588335 361.145062 9.26148899 362.0304 8.85202028 362.915738 8.44255156 363.834262 8.23782028 364.786 8.23782028 365.826272 8.23782028 366.722663 8.4093519 367.4752 8.75242028 368.227737 9.09548866 368.847464 9.47728484 369.3344 9.89782028 369.90987 10.384756 370.385732 10.9380838 370.762 11.5578203L370.762 8.56982028 372.256 8.56982028 372.256 23.5098203C372.256 24.6386259 372.051269 25.6844155 371.6418 26.6472203 371.232331 27.6100251 370.679004 28.4510833 369.9818 29.1704203 369.284597 29.8897572 368.476738 30.4541516 367.5582 30.8636203 366.639662 31.273089 365.660272 31.4778203 364.62 31.4778203 363.535461 31.4778203 362.594804 31.3062887 361.798 30.9632203 361.001196 30.6201519 360.348269 30.2383557 359.8392 29.8178203 359.241597 29.3308845 358.732536 28.7775567 358.312 28.1578203L359.308 27.1618203C359.684269 27.7151564 360.137997 28.1910183 360.6692 28.5894203 361.111869 28.9435554 361.659664 29.2644855 362.3126 29.5522203 362.965537 29.839955 363.734662 29.9838203 364.62 29.9838203 365.438938 29.9838203 366.224663 29.8178219 366.9772 29.4858203 367.729737 29.1538186 368.382664 28.7000898 368.936 28.1246203 369.489336 27.5491507 369.931998 26.8630243 370.264 26.0662203 370.596002 25.2694163 370.762 24.4172915 370.762 23.5098203L370.762 20.8538203zM377.828 17.2018203C377.872267 18.0428911 378.071465 18.8341499 378.4256 19.5756203 378.779735 20.3170907 379.238997 20.9644842 379.8034 21.5178203 380.367803 22.0711564 381.02073 22.5138186 381.7622 22.8458203 382.503671 23.1778219 383.294929 23.3438203 384.136 23.3438203 384.999204 23.3438203 385.762797 23.199955 386.4268 22.9122203 387.090803 22.6244855 387.644131 22.3035554 388.0868 21.9494203 388.618003 21.5510183 389.071732 21.0862229 389.448 20.5550203L390.444 21.5178203C390.001331 22.1375567 389.470137 22.6908845 388.8504 23.1778203 388.319197 23.5983557 387.660737 23.9801519 386.875 24.3232203 386.089263 24.6662887 385.176272 24.8378203 384.136 24.8378203 383.095728 24.8378203 382.105271 24.6220224 381.1646 24.1904203 380.223929 23.7588181 379.393937 23.1722907 378.6746 22.4308203 377.955263 21.6893499 377.385336 20.815092 376.9648 19.8080203 376.544265 18.8009486 376.334 17.7108928 376.334 16.5378203 376.334 15.3868812 376.544265 14.3023587 376.9648 13.2842203 377.385336 12.2660819 377.94973 11.3862907 378.658 10.6448203 379.36627 9.9033499 380.179662 9.31682244 381.0982 8.88522028 382.016738 8.45361812 382.973995 8.23782028 383.97 8.23782028 384.966005 8.23782028 385.906662 8.43701829 386.792 8.83542028 387.677338 9.23382227 388.451997 9.79821663 389.116 10.5286203 389.780003 11.2590239 390.305665 12.1332819 390.693 13.1514203 391.080335 14.1695587 391.274 15.2983474 391.274 16.5378203L391.274 17.2018203 377.828 17.2018203zM383.97 9.73182028C383.173196 9.73182028 382.415137 9.89781862 381.6958 10.2298203 380.976463 10.5618219 380.334603 10.9989509 379.7702 11.5412203 379.205797 12.0834897 378.752069 12.7142833 378.409 13.4336203 378.065932 14.1529572 377.872267 14.9110163 377.828 15.7078203L389.78 15.7078203C389.735733 14.844616 389.558668 14.0478239 389.2488 13.3174203 388.938932 12.5870166 388.523936 11.9562229 388.0038 11.4250203 387.483664 10.8938176 386.880537 10.4788218 386.1944 10.1800203 385.508263 9.88121878 384.766804 9.73182028 383.97 9.73182028zM396.846 11.3918203C397.155868 10.8163507 397.565331 10.2962226 398.0744 9.83142028 398.517069 9.43301829 399.086997 9.06782194 399.7842 8.73582028 400.481404 8.40381862 401.327995 8.23782028 402.324 8.23782028 403.231471 8.23782028 404.078063 8.40381862 404.8638 8.73582028 405.649537 9.06782194 406.335664 9.53815057 406.9222 10.1468203 407.508736 10.75549 407.967998 11.4748161 408.3 12.3048203 408.632002 13.1348244 408.798 14.0478153 408.798 15.0438203L408.798 24.5058203 407.304 24.5058203 407.304 15.0438203C407.304 14.2470163 407.176735 13.5221569 406.9222 12.8692203 406.667666 12.2162837 406.319069 11.6574226 405.8764 11.1926203 405.433731 10.727818 404.90807 10.3681549 404.2994 10.1136203 403.69073 9.85908567 403.03227 9.73182028 402.324 9.73182028 401.571463 9.73182028 400.863203 9.88121878 400.1992 10.1800203 399.535197 10.4788218 398.954203 10.8827511 398.4562 11.3918203 397.958198 11.9008895 397.565335 12.5150833 397.2776 13.2344203 396.989865 13.9537572 396.846 14.7228828 396.846 15.5418203L396.846 24.5058203 395.352 24.5058203 395.352 8.56982028 396.846 8.56982028 396.846 11.3918203zM412.544 16.5378203C412.544 15.3868812 412.754265 14.3023587 413.1748 13.2842203 413.595336 12.2660819 414.165263 11.3862907 414.8846 10.6448203 415.603937 9.9033499 416.433929 9.31682244 417.3746 8.88522028 418.315272 8.45361812 419.305728 8.23782028 420.346 8.23782028 421.386272 8.23782028 422.299263 8.4093519 423.085 8.75242028 423.870737 9.09548866 424.529197 9.47728484 425.0604 9.89782028 425.680137 10.384756 426.211331 10.9380838 426.654 11.5578203L425.492 12.5538203C425.159998 12.0226176 424.739469 11.5578223 424.2304 11.1594203 423.787731 10.8052852 423.24547 10.4788218 422.6036 10.1800203 421.96173 9.88121878 421.209204 9.73182028 420.346 9.73182028 419.504929 9.73182028 418.708137 9.90888517 417.9556 10.2630203 417.203063 10.6171554 416.533536 11.0985506 415.947 11.7072203 415.360464 12.31589 414.895669 13.0352161 414.5526 13.8652203 414.209532 14.6952244 414.038 15.5860822 414.038 16.5378203 414.038 17.4895584 414.209532 18.3804161 414.5526 19.2104203 414.895669 20.0404244 415.360464 20.7597506 415.947 21.3684203 416.533536 21.97709 417.203063 22.4584852 417.9556 22.8126203 418.708137 23.1667554 419.504929 23.3438203 420.346 23.3438203 421.209204 23.3438203 421.96173 23.199955 422.6036 22.9122203 423.24547 22.6244855 423.787731 22.3035554 424.2304 21.9494203 424.739469 21.5510183 425.159998 21.0751564 425.492 20.5218203L426.654 21.5178203C426.211331 22.1375567 425.680137 22.6908845 425.0604 23.1778203 424.529197 23.5983557 423.870737 23.9801519 423.085 24.3232203 422.299263 24.6662887 421.386272 24.8378203 420.346 24.8378203 419.305728 24.8378203 418.315272 24.6220224 417.3746 24.1904203 416.433929 23.7588181 415.603937 23.1722907 414.8846 22.4308203 414.165263 21.6893499 413.595336 20.815092 413.1748 19.8080203 412.754265 18.8009486 412.544 17.7108928 412.544 16.5378203zM430.566 17.2018203C430.610267 18.0428911 430.809465 18.8341499 431.1636 19.5756203 431.517735 20.3170907 431.976997 20.9644842 432.5414 21.5178203 433.105803 22.0711564 433.75873 22.5138186 434.5002 22.8458203 435.241671 23.1778219 436.032929 23.3438203 436.874 23.3438203 437.737204 23.3438203 438.500797 23.199955 439.1648 22.9122203 439.828803 22.6244855 440.382131 22.3035554 440.8248 21.9494203 441.356003 21.5510183 441.809732 21.0862229 442.186 20.5550203L443.182 21.5178203C442.739331 22.1375567 442.208137 22.6908845 441.5884 23.1778203 441.057197 23.5983557 440.398737 23.9801519 439.613 24.3232203 438.827263 24.6662887 437.914272 24.8378203 436.874 24.8378203 435.833728 24.8378203 434.843272 24.6220224 433.9026 24.1904203 432.961929 23.7588181 432.131937 23.1722907 431.4126 22.4308203 430.693263 21.6893499 430.123336 20.815092 429.7028 19.8080203 429.282265 18.8009486 429.072 17.7108928 429.072 16.5378203 429.072 15.3868812 429.282265 14.3023587 429.7028 13.2842203 430.123336 12.2660819 430.68773 11.3862907 431.396 10.6448203 432.10427 9.9033499 432.917662 9.31682244 433.8362 8.88522028 434.754738 8.45361812 435.711995 8.23782028 436.708 8.23782028 437.704005 8.23782028 438.644662 8.43701829 439.53 8.83542028 440.415338 9.23382227 441.189997 9.79821663 441.854 10.5286203 442.518003 11.2590239 443.043665 12.1332819 443.431 13.1514203 443.818335 14.1695587 444.012 15.2983474 444.012 16.5378203L444.012 17.2018203 430.566 17.2018203zM436.708 9.73182028C435.911196 9.73182028 435.153137 9.89781862 434.4338 10.2298203 433.714463 10.5618219 433.072603 10.9989509 432.5082 11.5412203 431.943797 12.0834897 431.490069 12.7142833 431.147 13.4336203 430.803932 14.1529572 430.610267 14.9110163 430.566 15.7078203L442.518 15.7078203C442.473733 14.844616 442.296668 14.0478239 441.9868 13.3174203 441.676932 12.5870166 441.261936 11.9562229 440.7418 11.4250203 440.221664 10.8938176 439.618537 10.4788218 438.9324 10.1800203 438.246263 9.88121878 437.504804 9.73182028 436.708 9.73182028zM51.9434316 6.68215768C54.2131367 6.68215768 55.9906166 7.62697095 57.1391421 8.91410788L57.1391421 7.02448133 61.910992 7.02448133 61.910992 24.0037344C61.910992 28.933195 58.8072386 32.9041494 52.9142091 32.9041494 48.4841823 32.9041494 45.2436997 30.6037344 43.8490617 27.8788382L48.0739946 25.5099585C48.9764075 27.3311203 50.5898123 28.4813278 52.9142091 28.4813278 55.4983914 28.4813278 57.1391421 26.4547718 57.1391421 24.1817427L57.1391421 22.5385892C55.9906166 23.8941909 54.1447721 24.8390041 51.875067 24.8390041 48.1697051 24.8390041 43.4662198 21.9087137 43.4662198 15.7605809 43.4662198 9.58506224 48.00563 6.68215768 51.9434316 6.68215768zM12.4697051.0684647303C16.9134048.0684647303 20.8785523 2.31410788 23.0935657 6.07966805L23.0935657 6.07966805 23.1619303 6.20290456 18.9096515 8.92780083 18.8412869 8.79087137C17.4466488 6.18921162 15.3 4.86099585 12.483378 4.86099585 8.13538874 4.86099585 4.8538874 8.16099585 4.8538874 12.5290456 4.8538874 16.7875519 8.14906166 20.1286307 12.3739946 20.1286307 15.2863271 20.1286307 17.7201072 18.526556 19.0327078 15.746888L19.0327078 15.746888 19.1010724 15.6099585 23.5174263 17.9514523 23.4490617 18.0746888C21.2203753 22.4016598 17.1184987 24.9896266 12.4697051 24.9896266 5.26407507 24.9896266.0273458445 19.7452282.0273458445 12.5290456.0273458445 5.42240664 5.37345845.0684647303 12.4697051.0684647303zM33.2252011 6.68215768C38.2431635 6.68215768 42.2630027 10.7352697 42.2630027 15.7605809 42.2630027 20.7858921 38.2568365 24.8390041 33.2252011 24.8390041 28.2072386 24.8390041 24.1873995 20.7858921 24.1873995 15.7605809 24.1873995 10.7352697 28.1935657 6.68215768 33.2252011 6.68215768zM113.075067 6.68215768C115.344772 6.68215768 117.122252 7.51742739 118.270777 8.74979253L118.270777 7.03817427 123.042627 7.03817427 123.042627 24.4966805 118.270777 24.4966805 118.270777 22.5385892C117.122252 23.8941909 115.276408 24.8390041 113.006702 24.8390041 109.30134 24.8390041 104.597855 21.9087137 104.597855 15.7605809 104.597855 9.58506224 109.137265 6.68215768 113.075067 6.68215768zM86.7546917 7.07925311L86.7546917 24.5377593 81.9828418 24.5377593 81.9828418 7.07925311 86.7546917 7.07925311zM73.3825737 6.69585062C77.4981233 6.69585062 79.9729223 9.35228216 79.9729223 13.8572614L79.9729223 24.5103734 75.1190349 24.5103734 75.1190349 14.4871369C75.1190349 12.1456432 74.038874 10.7900415 71.9058981 10.7900415 70.0873995 10.7900415 68.5970509 12.0497925 68.5970509 14.980083L68.5970509 24.5103734 63.8252011 24.5103734 63.8252011 7.03817427 68.5697051 7.03817427 68.5697051 8.99626556C69.6908847 7.55850622 71.4 6.69585062 73.3825737 6.69585062zM134.527882 6.69585062C138.643432 6.69585062 141.118231 9.35228216 141.118231 13.8572614L141.118231 24.5103734 136.264343 24.5103734 136.264343 14.4871369C136.264343 12.1456432 135.184182 10.7900415 133.051206 10.7900415 131.232708 10.7900415 129.742359 12.0497925 129.742359 14.980083L129.742359 24.5103734 124.970509 24.5103734 124.970509 7.03817427 129.715013 7.03817427 129.715013 8.99626556C130.836193 7.55850622 132.545308 6.69585062 134.527882 6.69585062zM104.146649 7.03817427L104.146649 11.3377593 94.972118 20.2655602 104.324397 20.2655602 104.324397 24.4966805 88.5595174 24.4966805 88.5595174 20.2381743 97.7340483 11.2692946 88.6962466 11.2692946 88.6962466 7.03817427 104.146649 7.03817427zM149.609115 1.25975104L149.609115 7.02448133 152.890617 7.02448133 152.890617 11.3103734 149.609115 11.3103734 149.609115 16.8697095C149.609115 19.5946058 149.964611 20.0190871 152.890617 20.0190871L152.890617 20.0190871 152.890617 24.4829876 152.193298 24.4829876C146.655764 24.4829876 144.837265 22.6070539 144.837265 16.9107884L144.837265 16.9107884 144.837265 11.3240664 141.870241 11.3240664 141.870241 7.02448133 144.837265 7.02448133 144.837265 1.25975104 149.609115 1.25975104zM113.950134 11.0502075C111.297587 11.0502075 109.273995 13.0356846 109.273995 15.733195 109.273995 18.4307054 111.297587 20.4435685 113.950134 20.4435685 116.520643 20.4435685 118.407507 18.3074689 118.407507 15.733195 118.407507 13.1452282 116.520643 11.0502075 113.950134 11.0502075zM52.8184987 11.0502075C50.1659517 11.0502075 48.1423592 13.0356846 48.1423592 15.733195 48.1423592 18.4307054 50.1659517 20.4435685 52.8184987 20.4435685 55.389008 20.4435685 57.2758713 18.3074689 57.2758713 15.733195 57.2758713 13.1452282 55.389008 11.0502075 52.8184987 11.0502075zM33.2252011 11.2145228C30.7504021 11.2145228 28.8635389 13.2684647 28.8635389 15.7605809 28.8635389 18.2390041 30.7504021 20.306639 33.2252011 20.306639 35.6726542 20.306639 37.6142091 18.2390041 37.6142091 15.7605809 37.6142091 13.2821577 35.6589812 11.2145228 33.2252011 11.2145228zM86.8230563 1.28713693L86.8230563 5.62780083 82.0512064 5.62780083 82.0512064 1.28713693 86.8230563 1.28713693z"/></svg>