<svg xmlns="http://www.w3.org/2000/svg" mask="url(#Mask-4)" viewBox="0 0 1600 575"><style>@keyframes a0_t{0%{transform:translate(-2026.373px,50.836px);animation-timing-function:cubic-bezier(0,0,.58,1)}54.545%,to{transform:translate(258.192px,50.836px)}}@keyframes a1_o{0%{opacity:0}77.273%{opacity:0;animation-timing-function:cubic-bezier(.165,.84,.44,1)}to{opacity:1}}@keyframes a2_t{0%{transform:translate(800px,1064.34px)}45.455%{transform:translate(800px,1064.34px);animation-timing-function:cubic-bezier(.165,.84,.44,1)}72.727%,to{transform:translate(800px,365.252px)}}@keyframes a3_t{0%{transform:translate(673.839px,347.939px)}22.727%{transform:translate(673.839px,347.939px);animation-timing-function:cubic-bezier(0,0,.58,1)}36.364%,to{transform:translate(673.839px,172.246px)}}@keyframes a4_t{0%{transform:translate(456.505px,347.939px)}13.636%{transform:translate(456.505px,347.939px);animation-timing-function:cubic-bezier(0,0,.58,1)}27.273%,to{transform:translate(456.505px,114.946px)}}@keyframes a5_t{0%{transform:translate(225.954px,347.939px)}4.545%{transform:translate(225.954px,347.939px);animation-timing-function:cubic-bezier(0,0,.58,1)}18.182%,to{transform:translate(225.954px,40.946px)}}@keyframes a6_t{0%{transform:translate(-.528px,347.939px);animation-timing-function:cubic-bezier(0,0,.58,1)}13.636%{transform:translate(-.528px,9.747px)}77.273%,to{transform:translate(-.528px,1.746px)}}</style><defs><mask id="Mask-1"><path fill="url(#Gradient-0)" transform="translate(-2026.373 50.836)" style="animation:2.2s linear both a0_t" d="M0 0H1600V575H0z"/></mask><mask id="Mask-2"><path fill="url(#Gradient-2)" d="M0 0H378.788V181.113H0z" transform="matrix(.00005 -.137 10.601 .0037 .028 42.839)"/></mask><mask id="Mask-3"><path fill="#fff" d="M-37.161 -24.146H842.8389999999999V250.58099999999996H-37.161z"/></mask><mask id="Mask-4"><path fill="#fff" d="M0 0H1600V575H0z"/></mask><linearGradient id="Gradient-0" x1="1.999" x2="1598" y1="350.165" y2="350.165" gradientUnits="userSpaceOnUse"><stop offset="0"/><stop offset=".08" stop-color="#fff"/><stop offset=".885" stop-color="#fff"/><stop offset="1"/></linearGradient><linearGradient id="Gradient-1" x1="340.667" x2="340.667" y1="0" y2="49.5" gradientUnits="userSpaceOnUse"><stop offset="0" stop-color="#0ff" stop-opacity="0"/><stop offset=".41" stop-color="#0ff" stop-opacity=".26"/><stop offset="1" stop-color="#0ff"/></linearGradient><linearGradient id="Gradient-2" x1="960" x2="960" y1="0" y2="181.321" gradientUnits="userSpaceOnUse"><stop offset="0"/><stop offset=".16" stop-color="#fff"/><stop offset=".52" stop-color="#fff"/><stop offset=".845" stop-color="#fff"/><stop offset="1"/></linearGradient><filter id="Filter-0" width="121%" height="155%" x="-10%" y="-19%" color-interpolation-filters="sRGB"><feGaussianBlur stdDeviation="20"/></filter><filter id="Filter-1" width="190%" height="149%" x="-30%" y="-17%" color-interpolation-filters="sRGB"><feGaussianBlur stdDeviation="14"/></filter></defs><g mask="url(#Mask-1)" transform="translate(-258.192 13)"><g><path fill="#0ff" d="M1783.2 562c-592.7-11.3-1163.5-225.9-1693.4-480.1c-85.5-32.3-71.1-75.5 10.9-21.9c525.1 260.8 1091.5 482.7 1682.5 502Z" class="st0"/></g></g><g mask="url(#Mask-2)" transform="matrix(.834 0 0 1 -.278 533.752)"><path fill="url(#Gradient-1)" d="M0 0H1920V43.174H0z" opacity=".5"/></g><g opacity="0" transform="translate(333.369 -115.556)" style="animation:2.2s linear both a1_o"><path fill="#0ff" stroke="#fff" d="M-189.027-126.015v53.94h-53.01v72.075h-61.845v-72.075h-146.01v-48.825l143.685-204.6h64.17v199.485Zm-108.345-126.945l-91.605 130.2h91.605Zm241.807 259.005c-25.73 0-48.515-7.13-68.355-21.39c-19.84-14.26-35.263-34.177-46.268-59.752c-11.005-25.576-16.507-54.793-16.507-87.653c0-32.86 5.502-62.077 16.507-87.653c11.005-25.574 26.428-45.492 46.268-59.752c19.84-14.26 42.625-21.39 68.355-21.39c25.73 0 48.515 7.13 68.355 21.39c19.84 14.26 35.262 34.178 46.267 59.752c11.005 25.576 16.508 54.793 16.508 87.653c0 32.86-5.503 62.077-16.508 87.652c-11.005 25.575-26.427 45.493-46.267 59.753c-19.84 14.26-42.625 21.39-68.355 21.39Zm0-55.8c13.64 0 25.575-4.65 35.805-13.95c10.23-9.3 18.135-22.475 23.715-39.525c5.58-17.05 8.37-36.89 8.37-59.52c0-22.63-2.79-42.47-8.37-59.52c-5.58-17.05-13.485-30.225-23.715-39.525c-10.23-9.3-22.165-13.95-35.805-13.95c-13.64 0-25.575 4.65-35.805 13.95c-10.23 9.3-18.135 22.475-23.715 39.525c-5.58 17.05-8.37 36.89-8.37 59.52c0 22.63 2.79 42.47 8.37 59.52c5.58 17.05 13.485 30.225 23.715 39.525c10.23 9.3 22.165 13.95 35.805 13.95Zm217.625-114.39c-16.43 0-31.077-3.565-43.942-10.695c-12.865-7.13-22.863-17.05-29.993-29.76c-7.13-12.71-10.695-27.125-10.695-43.245c0-16.12 3.565-30.535 10.695-43.245c7.13-12.71 17.128-22.63 29.993-29.76c12.865-7.13 27.512-10.695 43.942-10.695c16.12 0 30.69 3.565 43.71 10.695c13.02 7.13 23.173 17.05 30.458 29.76c7.285 12.71 10.927 27.125 10.927 43.245c0 16.12-3.642 30.535-10.927 43.245c-7.285 12.71-17.438 22.63-30.458 29.76c-13.02 7.13-27.59 10.695-43.71 10.695Zm-30.225 149.265l234.36-312.48l30.225 22.785l-234.36 312.48Zm30.225-190.65c12.09 0 21.933-3.952 29.528-11.857c7.595-7.905 11.392-18.058 11.392-30.458c0-12.71-3.797-23.017-11.392-30.922c-7.595-7.905-17.438-11.858-29.528-11.858c-11.78 0-21.467 3.953-29.062 11.858c-7.595 7.905-11.393 18.212-11.393 30.922c0 12.4 3.798 22.553 11.393 30.458c7.595 7.905 17.282 11.857 29.062 11.857Zm203.67 211.575c-16.12 0-30.612-3.565-43.477-10.695c-12.865-7.13-22.94-17.05-30.225-29.76c-7.285-12.71-10.928-27.125-10.928-43.245c0-16.12 3.643-30.535 10.928-43.245c7.285-12.71 17.36-22.63 30.225-29.76c12.865-7.13 27.357-10.695 43.477-10.695c16.12 0 30.613 3.565 43.478 10.695c12.865 7.13 22.94 17.05 30.225 29.76c7.285 12.71 10.927 27.125 10.927 43.245c0 16.12-3.642 30.535-10.927 43.245c-7.285 12.71-17.36 22.63-30.225 29.76c-12.865 7.13-27.358 10.695-43.478 10.695Zm0-40.92c11.78 0 21.468-3.952 29.063-11.857c7.595-7.905 11.392-18.213 11.392-30.923c0-12.4-3.797-22.552-11.392-30.458c-7.595-7.904-17.283-11.857-29.063-11.857c-12.09 0-21.855 3.875-29.295 11.625c-7.44 7.75-11.16 17.98-11.16 30.69c0 12.71 3.72 23.018 11.16 30.923c7.44 7.905 17.205 11.857 29.295 11.857Z" filter="url(#Filter-0)" opacity=".5" transform="translate(466.631 480.808)" style="isolation:isolate"/></g><path fill="rgba(0,0,99,0.85)" stroke="#fff" stroke-width="2" d="M-189.027-126.015v53.94h-53.01v72.075h-61.845v-72.075h-146.01v-48.825l143.685-204.6h64.17v199.485Zm-108.345-126.945l-91.605 130.2h91.605Zm241.807 259.005c-25.73 0-48.515-7.13-68.355-21.39c-19.84-14.26-35.263-34.177-46.268-59.752c-11.005-25.576-16.507-54.793-16.507-87.653c0-32.86 5.502-62.077 16.507-87.653c11.005-25.574 26.428-45.492 46.268-59.752c19.84-14.26 42.625-21.39 68.355-21.39c25.73 0 48.515 7.13 68.355 21.39c19.84 14.26 35.262 34.178 46.267 59.752c11.005 25.576 16.508 54.793 16.508 87.653c0 32.86-5.503 62.077-16.508 87.652c-11.005 25.575-26.427 45.493-46.267 59.753c-19.84 14.26-42.625 21.39-68.355 21.39Zm0-55.8c13.64 0 25.575-4.65 35.805-13.95c10.23-9.3 18.135-22.475 23.715-39.525c5.58-17.05 8.37-36.89 8.37-59.52c0-22.63-2.79-42.47-8.37-59.52c-5.58-17.05-13.485-30.225-23.715-39.525c-10.23-9.3-22.165-13.95-35.805-13.95c-13.64 0-25.575 4.65-35.805 13.95c-10.23 9.3-18.135 22.475-23.715 39.525c-5.58 17.05-8.37 36.89-8.37 59.52c0 22.63 2.79 42.47 8.37 59.52c5.58 17.05 13.485 30.225 23.715 39.525c10.23 9.3 22.165 13.95 35.805 13.95Zm217.625-114.39c-16.43 0-31.077-3.565-43.942-10.695c-12.865-7.13-22.863-17.05-29.993-29.76c-7.13-12.71-10.695-27.125-10.695-43.245c0-16.12 3.565-30.535 10.695-43.245c7.13-12.71 17.128-22.63 29.993-29.76c12.865-7.13 27.512-10.695 43.942-10.695c16.12 0 30.69 3.565 43.71 10.695c13.02 7.13 23.173 17.05 30.458 29.76c7.285 12.71 10.927 27.125 10.927 43.245c0 16.12-3.642 30.535-10.927 43.245c-7.285 12.71-17.438 22.63-30.458 29.76c-13.02 7.13-27.59 10.695-43.71 10.695Zm-30.225 149.265l234.36-312.48l30.225 22.785l-234.36 312.48Zm30.225-190.65c12.09 0 21.933-3.952 29.528-11.857c7.595-7.905 11.392-18.058 11.392-30.458c0-12.71-3.797-23.017-11.392-30.922c-7.595-7.905-17.438-11.858-29.528-11.858c-11.78 0-21.467 3.953-29.062 11.858c-7.595 7.905-11.393 18.212-11.393 30.922c0 12.4 3.798 22.553 11.393 30.458c7.595 7.905 17.282 11.857 29.062 11.857Zm203.67 211.575c-16.12 0-30.612-3.565-43.477-10.695c-12.865-7.13-22.94-17.05-30.225-29.76c-7.285-12.71-10.928-27.125-10.928-43.245c0-16.12 3.643-30.535 10.928-43.245c7.285-12.71 17.36-22.63 30.225-29.76c12.865-7.13 27.357-10.695 43.477-10.695c16.12 0 30.613 3.565 43.478 10.695c12.865 7.13 22.94 17.05 30.225 29.76c7.285 12.71 10.927 27.125 10.927 43.245c0 16.12-3.642 30.535-10.927 43.245c-7.285 12.71-17.36 22.63-30.225 29.76c-12.865 7.13-27.358 10.695-43.478 10.695Zm0-40.92c11.78 0 21.468-3.952 29.063-11.857c7.595-7.905 11.392-18.213 11.392-30.923c0-12.4-3.797-22.552-11.392-30.458c-7.595-7.904-17.283-11.857-29.063-11.857c-12.09 0-21.855 3.875-29.295 11.625c-7.44 7.75-11.16 17.98-11.16 30.69c0 12.71 3.72 23.018 11.16 30.923c7.44 7.905 17.205 11.857 29.295 11.857Z" transform="translate(800 1064.34)" style="isolation:isolate;animation:2.2s linear both a2_t"/><g mask="url(#Mask-3)" transform="translate(390.495 324.306)"><g transform="translate(673.839 347.939)" style="animation:2.2s linear both a3_t"><g filter="url(#Filter-1)"><path fill="#6dcbff" d="M72 37.5c42.4 0 72-9.9 72-18.8c0-8.9-29.6-18.7-72-18.7c-42.6 0-72 10-72 18.8c0 8.8 29.6 18.7 72 18.7Z" class="st0"/><g><path fill="#6dcbff" d="M0 26.2v49.6c0 8.8 29.5 18.7 72 18.7c42.4 0 72-9.9 72-18.7v-49.6c-10.8 9.7-42.1 14.9-72 14.9c-29.9 .1-61.2-5.1-72-14.9Z" class="st0"/></g><g><path fill="#6dcbff" d="M0 83.7v49.6c0 8.8 29.5 18.7 72 18.7c42.4 0 72-9.9 72-18.7v-49.6c-10.8 9.7-42.1 14.9-72 14.9c-29.9 .1-61.2-5.2-72-14.9Z" class="st0"/></g><g><path fill="#6dcbff" d="M0 141.2v49.6c0 8.8 29.5 18.7 72 18.7c42.4 0 72-9.9 72-18.7v-49.6c-10.8 9.7-42.1 14.9-72 14.9c-29.9 0-61.2-5.2-72-14.9Z" class="st0"/></g><g><path fill="#6dcbff" d="M0 198.7v49.6c0 8.8 29.5 18.7 72 18.7c42.4 0 72-9.9 72-18.7v-49.6c-10.8 9.7-42.1 14.9-72 14.9c-29.9 0-61.2-5.2-72-14.9Z" class="st0"/></g></g><g><path fill="#000063" d="M72 37.5c42.4 0 72-9.9 72-18.8c0-8.9-29.6-18.7-72-18.7c-42.6 0-72 10-72 18.8c0 8.8 29.6 18.7 72 18.7Z" class="st0"/><g><path fill="#000063" d="M0 26.2v49.6c0 8.8 29.5 18.7 72 18.7c42.4 0 72-9.9 72-18.7v-49.6c-10.8 9.7-42.1 14.9-72 14.9c-29.9 .1-61.2-5.1-72-14.9Z" class="st0"/><path fill="#6dcbff" d="M126.5 67.2c1.9 0 3.5 1.5 3.5 3.4c0 1.8-1.5 3.4-3.4 3.4c0 0-0.1 0-0.1 0c-1.9 0-3.5-1.5-3.5-3.4c0-1.9 1.5-3.4 3.5-3.4Z" class="st1"/></g><g><path fill="#000063" d="M0 83.7v49.6c0 8.8 29.5 18.7 72 18.7c42.4 0 72-9.9 72-18.7v-49.6c-10.8 9.7-42.1 14.9-72 14.9c-29.9 .1-61.2-5.2-72-14.9Z" class="st0"/><path fill="#6dcbff" d="M126.5 124.6c1.9 0 3.5 1.5 3.5 3.4c0 1.8-1.5 3.4-3.4 3.4c0 0-0.1 0-0.1 0c-1.9 0-3.5-1.5-3.5-3.4c0-1.9 1.5-3.4 3.5-3.4Z" class="st1"/></g><g><path fill="#000063" d="M0 141.2v49.6c0 8.8 29.5 18.7 72 18.7c42.4 0 72-9.9 72-18.7v-49.6c-10.8 9.7-42.1 14.9-72 14.9c-29.9 0-61.2-5.2-72-14.9Z" class="st0"/><path fill="#6dcbff" d="M126.5 182.1c1.9 0 3.5 1.5 3.5 3.4c0 1.8-1.5 3.4-3.4 3.4c0 0-0.1 0-0.1 0c-1.9 0-3.5-1.5-3.5-3.4c0-1.9 1.5-3.4 3.5-3.4Z" class="st1"/></g><g><path fill="#000063" d="M0 198.7v49.6c0 8.8 29.5 18.7 72 18.7c42.4 0 72-9.9 72-18.7v-49.6c-10.8 9.7-42.1 14.9-72 14.9c-29.9 0-61.2-5.2-72-14.9Z" class="st0"/><path fill="#6dcbff" d="M126.5 239.6c1.9 0 3.5 1.5 3.5 3.4c0 1.8-1.5 3.4-3.4 3.4c0 0-0.1 0-0.1 0c-1.9 0-3.5-1.5-3.5-3.4c0-1.9 1.5-3.4 3.5-3.4Z" class="st1"/></g></g></g><g transform="translate(456.505 347.939)" style="animation:2.2s linear both a4_t"><g filter="url(#Filter-1)"><path fill="#6dcbff" d="M72 37.5c42.4 0 72-9.9 72-18.8c0-8.9-29.6-18.7-72-18.7c-42.6 0-72 10-72 18.8c0 8.8 29.6 18.7 72 18.7Z" class="st0"/><g><path fill="#6dcbff" d="M0 26.2v49.6c0 8.8 29.5 18.7 72 18.7c42.4 0 72-9.9 72-18.7v-49.6c-10.8 9.7-42.1 14.9-72 14.9c-29.9 .1-61.2-5.1-72-14.9Z" class="st0"/></g><g><path fill="#6dcbff" d="M0 83.7v49.6c0 8.8 29.5 18.7 72 18.7c42.4 0 72-9.9 72-18.7v-49.6c-10.8 9.7-42.1 14.9-72 14.9c-29.9 .1-61.2-5.2-72-14.9Z" class="st0"/></g><g><path fill="#6dcbff" d="M0 141.2v49.6c0 8.8 29.5 18.7 72 18.7c42.4 0 72-9.9 72-18.7v-49.6c-10.8 9.7-42.1 14.9-72 14.9c-29.9 0-61.2-5.2-72-14.9Z" class="st0"/></g><g><path fill="#6dcbff" d="M0 198.7v49.6c0 8.8 29.5 18.7 72 18.7c42.4 0 72-9.9 72-18.7v-49.6c-10.8 9.7-42.1 14.9-72 14.9c-29.9 0-61.2-5.2-72-14.9Z" class="st0"/></g></g><g><path fill="#000063" d="M72 37.5c42.4 0 72-9.9 72-18.8c0-8.9-29.6-18.7-72-18.7c-42.6 0-72 10-72 18.8c0 8.8 29.6 18.7 72 18.7Z" class="st0"/><g><path fill="#000063" d="M0 26.2v49.6c0 8.8 29.5 18.7 72 18.7c42.4 0 72-9.9 72-18.7v-49.6c-10.8 9.7-42.1 14.9-72 14.9c-29.9 .1-61.2-5.1-72-14.9Z" class="st0"/><path fill="#6dcbff" d="M126.5 67.2c1.9 0 3.5 1.5 3.5 3.4c0 1.8-1.5 3.4-3.4 3.4c0 0-0.1 0-0.1 0c-1.9 0-3.5-1.5-3.5-3.4c0-1.9 1.5-3.4 3.5-3.4Z" class="st1"/></g><g><path fill="#000063" d="M0 83.7v49.6c0 8.8 29.5 18.7 72 18.7c42.4 0 72-9.9 72-18.7v-49.6c-10.8 9.7-42.1 14.9-72 14.9c-29.9 .1-61.2-5.2-72-14.9Z" class="st0"/><path fill="#6dcbff" d="M126.5 124.6c1.9 0 3.5 1.5 3.5 3.4c0 1.8-1.5 3.4-3.4 3.4c0 0-0.1 0-0.1 0c-1.9 0-3.5-1.5-3.5-3.4c0-1.9 1.5-3.4 3.5-3.4Z" class="st1"/></g><g><path fill="#000063" d="M0 141.2v49.6c0 8.8 29.5 18.7 72 18.7c42.4 0 72-9.9 72-18.7v-49.6c-10.8 9.7-42.1 14.9-72 14.9c-29.9 0-61.2-5.2-72-14.9Z" class="st0"/><path fill="#6dcbff" d="M126.5 182.1c1.9 0 3.5 1.5 3.5 3.4c0 1.8-1.5 3.4-3.4 3.4c0 0-0.1 0-0.1 0c-1.9 0-3.5-1.5-3.5-3.4c0-1.9 1.5-3.4 3.5-3.4Z" class="st1"/></g><g><path fill="#000063" d="M0 198.7v49.6c0 8.8 29.5 18.7 72 18.7c42.4 0 72-9.9 72-18.7v-49.6c-10.8 9.7-42.1 14.9-72 14.9c-29.9 0-61.2-5.2-72-14.9Z" class="st0"/><path fill="#6dcbff" d="M126.5 239.6c1.9 0 3.5 1.5 3.5 3.4c0 1.8-1.5 3.4-3.4 3.4c0 0-0.1 0-0.1 0c-1.9 0-3.5-1.5-3.5-3.4c0-1.9 1.5-3.4 3.5-3.4Z" class="st1"/></g></g></g><g transform="translate(225.954 347.939)" style="animation:2.2s linear both a5_t"><g filter="url(#Filter-1)"><path fill="#6dcbff" d="M72 37.5c42.4 0 72-9.9 72-18.8c0-8.9-29.6-18.7-72-18.7c-42.6 0-72 10-72 18.8c0 8.8 29.6 18.7 72 18.7Z" class="st0"/><g><path fill="#6dcbff" d="M0 26.2v49.6c0 8.8 29.5 18.7 72 18.7c42.4 0 72-9.9 72-18.7v-49.6c-10.8 9.7-42.1 14.9-72 14.9c-29.9 .1-61.2-5.1-72-14.9Z" class="st0"/></g><g><path fill="#6dcbff" d="M0 83.7v49.6c0 8.8 29.5 18.7 72 18.7c42.4 0 72-9.9 72-18.7v-49.6c-10.8 9.7-42.1 14.9-72 14.9c-29.9 .1-61.2-5.2-72-14.9Z" class="st0"/></g><g><path fill="#6dcbff" d="M0 141.2v49.6c0 8.8 29.5 18.7 72 18.7c42.4 0 72-9.9 72-18.7v-49.6c-10.8 9.7-42.1 14.9-72 14.9c-29.9 0-61.2-5.2-72-14.9Z" class="st0"/></g><g><path fill="#6dcbff" d="M0 198.7v49.6c0 8.8 29.5 18.7 72 18.7c42.4 0 72-9.9 72-18.7v-49.6c-10.8 9.7-42.1 14.9-72 14.9c-29.9 0-61.2-5.2-72-14.9Z" class="st0"/></g></g><g><path fill="#000063" d="M72 37.5c42.4 0 72-9.9 72-18.8c0-8.9-29.6-18.7-72-18.7c-42.6 0-72 10-72 18.8c0 8.8 29.6 18.7 72 18.7Z" class="st0"/><g><path fill="#000063" d="M0 26.2v49.6c0 8.8 29.5 18.7 72 18.7c42.4 0 72-9.9 72-18.7v-49.6c-10.8 9.7-42.1 14.9-72 14.9c-29.9 .1-61.2-5.1-72-14.9Z" class="st0"/><path fill="#6dcbff" d="M126.5 67.2c1.9 0 3.5 1.5 3.5 3.4c0 1.8-1.5 3.4-3.4 3.4c0 0-0.1 0-0.1 0c-1.9 0-3.5-1.5-3.5-3.4c0-1.9 1.5-3.4 3.5-3.4Z" class="st1"/></g><g><path fill="#000063" d="M0 83.7v49.6c0 8.8 29.5 18.7 72 18.7c42.4 0 72-9.9 72-18.7v-49.6c-10.8 9.7-42.1 14.9-72 14.9c-29.9 .1-61.2-5.2-72-14.9Z" class="st0"/><path fill="#6dcbff" d="M126.5 124.6c1.9 0 3.5 1.5 3.5 3.4c0 1.8-1.5 3.4-3.4 3.4c0 0-0.1 0-0.1 0c-1.9 0-3.5-1.5-3.5-3.4c0-1.9 1.5-3.4 3.5-3.4Z" class="st1"/></g><g><path fill="#000063" d="M0 141.2v49.6c0 8.8 29.5 18.7 72 18.7c42.4 0 72-9.9 72-18.7v-49.6c-10.8 9.7-42.1 14.9-72 14.9c-29.9 0-61.2-5.2-72-14.9Z" class="st0"/><path fill="#6dcbff" d="M126.5 182.1c1.9 0 3.5 1.5 3.5 3.4c0 1.8-1.5 3.4-3.4 3.4c0 0-0.1 0-0.1 0c-1.9 0-3.5-1.5-3.5-3.4c0-1.9 1.5-3.4 3.5-3.4Z" class="st1"/></g><g><path fill="#000063" d="M0 198.7v49.6c0 8.8 29.5 18.7 72 18.7c42.4 0 72-9.9 72-18.7v-49.6c-10.8 9.7-42.1 14.9-72 14.9c-29.9 0-61.2-5.2-72-14.9Z" class="st0"/><path fill="#6dcbff" d="M126.5 239.6c1.9 0 3.5 1.5 3.5 3.4c0 1.8-1.5 3.4-3.4 3.4c0 0-0.1 0-0.1 0c-1.9 0-3.5-1.5-3.5-3.4c0-1.9 1.5-3.4 3.5-3.4Z" class="st1"/></g></g></g><g transform="translate(-.528 347.939)" style="animation:2.2s linear both a6_t"><g filter="url(#Filter-1)"><path fill="#6dcbff" d="M72 37.5c42.4 0 72-9.9 72-18.8c0-8.9-29.6-18.7-72-18.7c-42.6 0-72 10-72 18.8c0 8.8 29.6 18.7 72 18.7Z" class="st0"/><g><path fill="#6dcbff" d="M0 26.2v49.6c0 8.8 29.5 18.7 72 18.7c42.4 0 72-9.9 72-18.7v-49.6c-10.8 9.7-42.1 14.9-72 14.9c-29.9 .1-61.2-5.1-72-14.9Z" class="st0"/></g><g><path fill="#6dcbff" d="M0 83.7v49.6c0 8.8 29.5 18.7 72 18.7c42.4 0 72-9.9 72-18.7v-49.6c-10.8 9.7-42.1 14.9-72 14.9c-29.9 .1-61.2-5.2-72-14.9Z" class="st0"/></g><g><path fill="#6dcbff" d="M0 141.2v49.6c0 8.8 29.5 18.7 72 18.7c42.4 0 72-9.9 72-18.7v-49.6c-10.8 9.7-42.1 14.9-72 14.9c-29.9 0-61.2-5.2-72-14.9Z" class="st0"/></g><g><path fill="#6dcbff" d="M0 198.7v49.6c0 8.8 29.5 18.7 72 18.7c42.4 0 72-9.9 72-18.7v-49.6c-10.8 9.7-42.1 14.9-72 14.9c-29.9 0-61.2-5.2-72-14.9Z" class="st0"/></g></g><g><path fill="#000063" d="M72 37.5c42.4 0 72-9.9 72-18.8c0-8.9-29.6-18.7-72-18.7c-42.6 0-72 10-72 18.8c0 8.8 29.6 18.7 72 18.7Z" class="st0"/><g><path fill="#000063" d="M0 26.2v49.6c0 8.8 29.5 18.7 72 18.7c42.4 0 72-9.9 72-18.7v-49.6c-10.8 9.7-42.1 14.9-72 14.9c-29.9 .1-61.2-5.1-72-14.9Z" class="st0"/><path fill="#6dcbff" d="M126.5 67.2c1.9 0 3.5 1.5 3.5 3.4c0 1.8-1.5 3.4-3.4 3.4c0 0-0.1 0-0.1 0c-1.9 0-3.5-1.5-3.5-3.4c0-1.9 1.5-3.4 3.5-3.4Z" class="st1"/></g><g><path fill="#000063" d="M0 83.7v49.6c0 8.8 29.5 18.7 72 18.7c42.4 0 72-9.9 72-18.7v-49.6c-10.8 9.7-42.1 14.9-72 14.9c-29.9 .1-61.2-5.2-72-14.9Z" class="st0"/><path fill="#6dcbff" d="M126.5 124.6c1.9 0 3.5 1.5 3.5 3.4c0 1.8-1.5 3.4-3.4 3.4c0 0-0.1 0-0.1 0c-1.9 0-3.5-1.5-3.5-3.4c0-1.9 1.5-3.4 3.5-3.4Z" class="st1"/></g><g><path fill="#000063" d="M0 141.2v49.6c0 8.8 29.5 18.7 72 18.7c42.4 0 72-9.9 72-18.7v-49.6c-10.8 9.7-42.1 14.9-72 14.9c-29.9 0-61.2-5.2-72-14.9Z" class="st0"/><path fill="#6dcbff" d="M126.5 182.1c1.9 0 3.5 1.5 3.5 3.4c0 1.8-1.5 3.4-3.4 3.4c0 0-0.1 0-0.1 0c-1.9 0-3.5-1.5-3.5-3.4c0-1.9 1.5-3.4 3.5-3.4Z" class="st1"/></g><g><path fill="#000063" d="M0 198.7v49.6c0 8.8 29.5 18.7 72 18.7c42.4 0 72-9.9 72-18.7v-49.6c-10.8 9.7-42.1 14.9-72 14.9c-29.9 0-61.2-5.2-72-14.9Z" class="st0"/><path fill="#6dcbff" d="M126.5 239.6c1.9 0 3.5 1.5 3.5 3.4c0 1.8-1.5 3.4-3.4 3.4c0 0-0.1 0-0.1 0c-1.9 0-3.5-1.5-3.5-3.4c0-1.9 1.5-3.4 3.5-3.4Z" class="st1"/></g></g></g></g></svg>