<svg xmlns="http://www.w3.org/2000/svg" mask="url(#Mask-5)" viewBox="0 0 1600 575"><style>@keyframes a0_t{0%{transform:translate(637.5px,180.5px)}40%{transform:translate(637.5px,180.5px);animation-timing-function:cubic-bezier(.2,.8,.4,1)}53.333%,to{transform:translate(637.5px,-190.3px)}}@keyframes a1_o{0%{opacity:0}83.333%{opacity:0;animation-timing-function:cubic-bezier(.2,.8,.4,1)}to{opacity:1}}@keyframes a2_t{0%{transform:translate(-1430.3px,-258.8px)}16.667%{transform:translate(-1430.3px,-258.8px);animation-timing-function:cubic-bezier(.2,.8,.4,1)}60%,to{transform:translate(205px,-258.8px)}}@keyframes a3_t{0%{transform:translate(800px,1064.3px)}50%{transform:translate(800px,1064.3px);animation-timing-function:cubic-bezier(.2,.8,.4,1)}70%,to{transform:translate(800px,365.3px)}}</style><defs><mask id="Mask-1"><path fill="url(#Gradient-1)" d="M0 0H1754.7V181.1H0z" transform="matrix(0 -.057 10.601 0 -.41 76.02)"/></mask><mask id="Mask-2"><path fill="url(#Gradient-1)" d="M0 0H2576.4V181.1H0z" transform="matrix(0 -.203 8.833 0 160.1 166.11)"/></mask><mask id="Mask-3"><path fill="url(#Gradient-2)" transform="translate(-1430.4 -258.8)" style="animation:3s linear both a2_t" d="M0 0H1600V587H0z"/></mask><mask id="Mask-4"><path fill="url(#Gradient-3)" d="M0 0H1600V575H0z" transform="translate(205 -258.8)"/></mask><mask id="Mask-5"><path fill="#fff" d="M0 0H1600V575H0z"/></mask><linearGradient id="Gradient-0" x1="340.7" x2="340.7" y1="0" y2="49.5" gradientUnits="userSpaceOnUse"><stop offset="0" stop-color="#0ff" stop-opacity="0"/><stop offset=".4" stop-color="#0ff" stop-opacity=".26"/><stop offset="1" stop-color="#0ff"/></linearGradient><linearGradient id="Gradient-1" x1="960" x2="960" y1="0" y2="181.3" gradientUnits="userSpaceOnUse"><stop offset="0"/><stop offset=".2" stop-color="#fff"/><stop offset=".5" stop-color="#fff"/><stop offset=".8" stop-color="#fff"/><stop offset="1"/></linearGradient><linearGradient id="Gradient-2" x1="0" x2="1600" y1="525" y2="525" gradientUnits="userSpaceOnUse"><stop offset="0"/><stop offset=".1" stop-color="#fff"/><stop offset=".9" stop-color="#fff"/><stop offset="1"/></linearGradient><linearGradient id="Gradient-3" x1="800" x2="800" y1="0" y2="575" gradientUnits="userSpaceOnUse"><stop offset="0"/><stop offset=".1" stop-color="#fff"/><stop offset=".9" stop-color="#fff"/><stop offset="1"/></linearGradient><filter id="Filter-0" width="123%" height="155%" x="-10%" y="-19%" color-interpolation-filters="sRGB"><feGaussianBlur stdDeviation="20"/></filter></defs><g mask="url(#Mask-1)" transform="matrix(.838 0 0 1 -.18 377.4)"><path fill="url(#Gradient-0)" d="M0 0H1920V43.2H0z" opacity=".5"/></g><g mask="url(#Mask-2)" transform="translate(-160 421)"><g transform="translate(637.5 180.5)" style="animation:3s linear both a0_t" fill="none" stroke-linecap="round" stroke-linejoin="round" stroke-width="2.5"><path stroke="#0ff" d="M555.7 197.7"/><path stroke="#1ef" d="M483.1 0h-328.2l-62.3 96.5h458.9Z"/><path stroke="#1ef" d="M92.6 189.9v146.7h462.1v-146.7"/><path stroke="#1ef" d="M154.9 96.5v-96.5l-68.7 35.8l-86.2 96.9l92.6-36.2l-25.5 93.4h514.3l-29.9-93.4l93.5 21.3l-86.2-96.9l-75.7-20.9v96.3"/><path stroke="#1ef" d="M154.9 0"/></g></g><g opacity="0" transform="translate(333.4 -115.6)" style="animation:3s linear both a1_o"><path fill="#0ff" stroke="#fff" d="M-412.7-325.5h208.3v37.7l-122.7 287.8h-62.3l117.6-271.6h-140.9Zm348.3 120.4c31.3 0 55.9 9.3 73.7 27.9c17.8 18.6 26.7 43.4 26.7 74.4c0 33.8-10.2 60.4-30.7 79.8c-20.4 19.4-47.7 29-81.8 29c-20.8 0-39.7-2-56.7-6c-17.1-4-34.9-11.6-53.5-22.8l19.1-51.1c24.1 17.3 51.6 26 82.3 26c18.6 0 33.8-4.8 45.5-14.4c11.8-9.6 17.7-23.9 17.7-42.8c0-16.4-5.1-29.3-15.3-38.6c-10.3-9.3-23.6-13.9-40-13.9c-7.8 0-15.8 1-24 3c-8.2 2-15.4 5.3-21.6 10l-48.8-15.8l15.3-165.1h181.4v53.9h-129.8l-6.5 74c14.9-5 30.6-7.5 47-7.5Zm190.2 41c-16.5 0-31.1-3.6-44-10.7c-12.8-7.2-22.8-17.1-30-29.8c-7.1-12.7-10.7-27.1-10.7-43.2c0-16.2 3.6-30.6 10.7-43.3c7.2-12.7 17.2-22.6 30-29.8c12.9-7.1 27.5-10.6 44-10.6c16.1 0 30.7 3.5 43.7 10.7c13 7.1 23.2 17 30.4 29.7c7.3 12.7 11 27.1 11 43.3c0 16.1-3.7 30.5-11 43.2c-7.2 12.7-17.4 22.6-30.4 29.8c-13 7.1-27.6 10.7-43.7 10.7Zm-30.2 149.2l234.3-312.5l30.2 22.8l-234.3 312.5Zm30.2-190.6c12.1 0 21.9-4 29.5-11.9c7.6-7.9 11.4-18 11.4-30.4c0-12.8-3.8-23.1-11.4-31c-7.6-7.9-17.4-11.8-29.5-11.8c-11.8 0-21.5 3.9-29.1 11.8c-7.6 7.9-11.4 18.2-11.4 31c0 12.4 3.8 22.5 11.4 30.4c7.6 7.9 17.3 11.9 29.1 11.9Zm203.6 211.5c-16.1 0-30.6-3.5-43.4-10.6c-12.9-7.2-23-17.1-30.3-29.8c-7.2-12.7-10.9-27.1-10.9-43.3c0-16.1 3.7-30.5 10.9-43.2c7.3-12.7 17.4-22.6 30.3-29.8c12.8-7.1 27.3-10.7 43.4-10.7c16.2 0 30.7 3.6 43.5 10.7c12.9 7.2 23 17.1 30.3 29.8c7.2 12.7 10.9 27.1 10.9 43.2c0 16.2-3.7 30.6-10.9 43.3c-7.3 12.7-17.4 22.6-30.3 29.7c-12.8 7.2-27.3 10.7-43.5 10.7Zm0-40.9c11.8 0 21.5-3.9 29.1-11.8c7.6-7.9 11.4-18.2 11.4-31c0-12.4-3.8-22.5-11.4-30.4c-7.6-7.9-17.3-11.9-29.1-11.9c-12 0-21.8 3.9-29.2 11.7c-7.5 7.7-11.2 17.9-11.2 30.6c0 12.8 3.7 23.1 11.2 31c7.4 7.9 17.2 11.8 29.2 11.8Z" filter="url(#Filter-0)" opacity=".5" transform="translate(466.6 480.8)" style="isolation:isolate"/></g><g mask="url(#Mask-4)" transform="translate(-205 258.8)"><g mask="url(#Mask-3)"><g fill="#1ef"><path d="M1402.5 0c-33 0-68 7.1-68 20.3v154.8c0 13.2 35 20.3 68 20.3c32.9 0 67.9-7.1 67.9-20.3v-154.8c0-13.2-35-20.3-67.9-20.3Zm0 3.5c37.9 0 64.4 8.8 64.4 16.8c0 8-26.5 17-64.4 17c-38 0-64.5-8.9-64.5-16.9c0-7.9 26.3-16.9 64.5-16.9Zm-64.5 75.3c9.7 8.8 37.7 13.4 64.5 13.4c26.7 0 54.7-4.7 64.4-13.4v44.7c0 8-26.5 16.9-64.4 16.9c-38 0-64.5-8.9-64.5-16.9v-44.7Zm64.5 10c-38 0-64.5-8.9-64.5-16.9v-44.8c9.7 8.8 37.7 13.5 64.5 13.5c26.7 0 54.7-4.7 64.4-13.5v44.8c0 7.9-26.5 16.8-64.4 16.8v.1Zm0 103.2c-38 0-64.5-8.9-64.5-16.9v-44.8c9.7 8.8 37.7 13.5 64.5 13.5c26.7 0 54.7-4.7 64.4-13.5v44.8c0 8-26.5 16.8-64.4 16.8v.1Z"/><path d="M1451.2 60.6c-3.6 0-6.6 3-6.6 6.5c0 3.6 3 6.6 6.6 6.6c3.7 0 6.6-3 6.6-6.6c0 0 0 0 0 0c0-3.6-2.9-6.5-6.6-6.5Zm0 9.6c-1.7 0-3.1-1.4-3.1-3.1c0-1.7 1.4-3 3.1-3c1.7 0 3.1 1.3 3.1 3c0 1.7-1.3 3-3 3.1c0 0 0 0-0.1 0Z"/><path d="M1451.2 125.2c3.7 0 6.6-2.9 6.6-6.5c0-3.6-2.9-6.5-6.6-6.5c-3.6 0-6.6 2.9-6.6 6.5c0 3.6 3 6.5 6.6 6.5Zm0-9.5c1.7 0 3.1 1.3 3.1 3c0 1.7-1.4 3.1-3.1 3.1c-1.7 0-3.1-1.4-3.1-3.1c0-1.7 1.4-3 3.1-3c0 0 0 0 0 0Z"/><path d="M1451.2 165.7c-3.6 0-6.6 2.9-6.6 6.5c0 3.6 3 6.5 6.6 6.5c3.7 0 6.6-2.9 6.6-6.5c0-3.6-2.9-6.5-6.6-6.5Zm0 9.5c-1.7 0-3.1-1.4-3.1-3.1c0-1.6 1.4-3 3.1-3c1.7 0 3.1 1.4 3.1 3c0 1.7-1.3 3.1-3 3.1c0 0 0 0-0.1 0Z"/></g><g fill="#1ef"><path d="M607.6 0c-32.9 0-67.9 7.1-67.9 20.3v154.8c0 13.2 35 20.3 67.9 20.3c33 0 68-7.1 68-20.3v-154.8c0-13.2-35-20.3-68-20.3Zm0 3.5c38 0 64.5 8.8 64.5 16.8c0 8-26.5 17-64.5 17c-37.9 0-64.4-8.9-64.4-16.9c0-7.9 26.3-16.9 64.4-16.9Zm-64.4 75.3c9.7 8.8 37.7 13.4 64.4 13.4c26.8 0 54.8-4.7 64.5-13.4v44.7c0 8-26.5 16.9-64.5 16.9c-37.9 0-64.4-8.9-64.4-16.9v-44.7Zm64.4 10c-38 0-64.4-8.9-64.4-16.9v-44.8c9.7 8.8 37.7 13.5 64.4 13.5c26.8 0 54.8-4.7 64.5-13.5v44.8c0 7.9-26.5 16.8-64.5 16.8v.1Zm0 103.2c-38 0-64.4-8.9-64.4-16.9v-44.8c9.7 8.8 37.7 13.5 64.4 13.5c26.8 0 54.8-4.7 64.5-13.5v44.8c0 8-26.5 16.8-64.5 16.8v.1Z"/><path d="M656.4 60.6c-3.6 0-6.6 3-6.6 6.5c0 3.6 3 6.6 6.6 6.6c3.7 0 6.6-3 6.6-6.6c0 0 0 0 0 0c0-3.6-3-6.5-6.6-6.5Zm0 9.6c-1.7 0-3.1-1.4-3.1-3.1c0-1.7 1.4-3 3.1-3c1.7 0 3.1 1.3 3.1 3c0 1.7-1.3 3-3 3.1c0 0-0.1 0-0.1 0Z"/><path d="M656.4 125.2c3.7 0 6.6-2.9 6.6-6.5c0-3.6-2.9-6.5-6.6-6.5c-3.6 0-6.6 2.9-6.6 6.5c0 3.6 3 6.5 6.6 6.5Zm0-9.5c1.7 0 3.1 1.3 3.1 3c0 1.7-1.4 3.1-3.1 3.1c-1.7 0-3.1-1.4-3.1-3.1c0-1.7 1.4-3 3.1-3c0 0 0 0 0 0Z"/><path d="M656.4 165.7c-3.6 0-6.6 2.9-6.6 6.5c0 3.6 3 6.5 6.6 6.5c3.7 0 6.6-2.9 6.6-6.5c0-3.6-2.9-6.5-6.6-6.5Zm0 9.5c-1.7 0-3.1-1.4-3.1-3.1c0-1.6 1.4-3 3.1-3c1.7 0 3.1 1.4 3.1 3c0 1.7-1.3 3.1-3 3.1c0 0-0.1 0-0.1 0Z"/></g><path fill="none" stroke="#0ff" stroke-miterlimit="10" stroke-width="3" d="M542.1 161.1h-542.1"/><path fill="none" stroke="#0ff" stroke-miterlimit="10" stroke-width="3" d="M2010 161.1h-542.1"/></g></g><path fill="rgba(0,0,99,0.85)" stroke="#fff" stroke-width="2" d="M-412.7-325.5h208.3v37.7l-122.7 287.8h-62.3l117.6-271.6h-140.9Zm348.3 120.4c31.3 0 55.9 9.3 73.7 27.9c17.8 18.6 26.7 43.4 26.7 74.4c0 33.8-10.2 60.4-30.7 79.8c-20.4 19.4-47.7 29-81.8 29c-20.8 0-39.7-2-56.7-6c-17.1-4-34.9-11.6-53.5-22.8l19.1-51.1c24.1 17.3 51.6 26 82.3 26c18.6 0 33.8-4.8 45.5-14.4c11.8-9.6 17.7-23.9 17.7-42.8c0-16.4-5.1-29.3-15.3-38.6c-10.3-9.3-23.6-13.9-40-13.9c-7.8 0-15.8 1-24 3c-8.2 2-15.4 5.3-21.6 10l-48.8-15.8l15.3-165.1h181.4v53.9h-129.8l-6.5 74c14.9-5 30.6-7.5 47-7.5Zm190.2 41c-16.5 0-31.1-3.6-44-10.7c-12.8-7.2-22.8-17.1-30-29.8c-7.1-12.7-10.7-27.1-10.7-43.2c0-16.2 3.6-30.6 10.7-43.3c7.2-12.7 17.2-22.6 30-29.8c12.9-7.1 27.5-10.6 44-10.6c16.1 0 30.7 3.5 43.7 10.7c13 7.1 23.2 17 30.4 29.7c7.3 12.7 11 27.1 11 43.3c0 16.1-3.7 30.5-11 43.2c-7.2 12.7-17.4 22.6-30.4 29.8c-13 7.1-27.6 10.7-43.7 10.7Zm-30.2 149.2l234.3-312.5l30.2 22.8l-234.3 312.5Zm30.2-190.6c12.1 0 21.9-4 29.5-11.9c7.6-7.9 11.4-18 11.4-30.4c0-12.8-3.8-23.1-11.4-31c-7.6-7.9-17.4-11.8-29.5-11.8c-11.8 0-21.5 3.9-29.1 11.8c-7.6 7.9-11.4 18.2-11.4 31c0 12.4 3.8 22.5 11.4 30.4c7.6 7.9 17.3 11.9 29.1 11.9Zm203.6 211.5c-16.1 0-30.6-3.5-43.4-10.6c-12.9-7.2-23-17.1-30.3-29.8c-7.2-12.7-10.9-27.1-10.9-43.3c0-16.1 3.7-30.5 10.9-43.2c7.3-12.7 17.4-22.6 30.3-29.8c12.8-7.1 27.3-10.7 43.4-10.7c16.2 0 30.7 3.6 43.5 10.7c12.9 7.2 23 17.1 30.3 29.8c7.2 12.7 10.9 27.1 10.9 43.2c0 16.2-3.7 30.6-10.9 43.3c-7.3 12.7-17.4 22.6-30.3 29.7c-12.8 7.2-27.3 10.7-43.5 10.7Zm0-40.9c11.8 0 21.5-3.9 29.1-11.8c7.6-7.9 11.4-18.2 11.4-31c0-12.4-3.8-22.5-11.4-30.4c-7.6-7.9-17.3-11.9-29.1-11.9c-12 0-21.8 3.9-29.2 11.7c-7.5 7.7-11.2 17.9-11.2 30.6c0 12.8 3.7 23.1 11.2 31c7.4 7.9 17.2 11.8 29.2 11.8Z" transform="translate(800 1064.3)" style="isolation:isolate;animation:3s linear both a3_t"/></svg>