<svg xmlns="http://www.w3.org/2000/svg" mask="url(#Mask-3)" viewBox="0 0 1600 575"><style>@keyframes a0_t{0%{transform:translate(-1775.72px,497.154px) scale(1.581,1.729) translate(-800.847px,-287.5px);animation-timing-function:cubic-bezier(0,0,.58,1)}25%,to{transform:translate(1266px,497.154px) scale(1.581,1.729) translate(-800.847px,-287.5px)}}@keyframes a1_t{0%{transform:translate(-1491.74px,447.384px) scale(1.501,1.556) translate(-800.847px,-287.5px)}20%{transform:translate(-1491.74px,447.384px) scale(1.501,1.556) translate(-800.847px,-287.5px);animation-timing-function:cubic-bezier(0,0,.58,1)}45%,to{transform:translate(1202.27px,447.384px) scale(1.501,1.556) translate(-800.847px,-287.5px)}}@keyframes a2_o{0%{opacity:0}75%{opacity:0;animation-timing-function:cubic-bezier(.165,.84,.44,1)}to{opacity:1}}@keyframes a3_t{0%{transform:translate(800px,1064.34px)}45%{transform:translate(800px,1064.34px);animation-timing-function:cubic-bezier(.165,.84,.44,1)}75%,to{transform:translate(799.46px,445.792px)}}</style><defs><mask id="Mask-1"><path fill="url(#Gradient-0)" transform="matrix(1.581 0 0 1.729 -3041.86 .066)" style="animation:2s linear both a0_t" d="M0 0H1600V575H0z"/></mask><mask id="Mask-2"><path fill="url(#Gradient-0)" transform="matrix(1.501 0 0 1.556 -2693.811 .034)" style="animation:2s linear both a1_t" d="M0 0H1600V575H0z"/></mask><mask id="Mask-3"><path fill="#fff" d="M0 0H1600V575H0z"/></mask><linearGradient id="Gradient-0" x1="0" x2="1601.69" y1="287.5" y2="287.5" gradientUnits="userSpaceOnUse"><stop offset="0"/><stop offset=".15" stop-color="#fff"/><stop offset=".875" stop-color="#fff"/><stop offset="1"/></linearGradient><filter id="Filter-0" width="139%" height="157%" x="-13%" y="-19%" color-interpolation-filters="sRGB"><feGaussianBlur stdDeviation="20"/></filter></defs><g mask="url(#Mask-1)" transform="matrix(.632 0 0 .574 .098 .236)"><g><path fill="#6dcbff" d="M32 933.2c58.4-125.7 180.8-306.4 320.6-415.2c426.8-331.9 716.6 156.4 829.7 259.6c.1 .1 14.7 13.3 14.6 13.2c285 250.3 604.7 203.1 885.7-47c204.3-182.5 364.6-456.2 417-713.1c.2-1 1.6-0.7 1.5 .3c-85.1 514.9-631.9 1132-1140.1 880.8c-290.5-143.8-351-452.3-663.3-491.4c-403.6-50.8-702.8 586.8-664.4 513.5c-0.2 .4-0.6 .5-1 .3c-0.3-0.2-0.5-0.6-0.3-1Z" class="st0"/></g></g><g mask="url(#Mask-2)" transform="matrix(.666 0 0 .642 -.373 .278)"><path fill="#ff9100" d="M35.5 420.3c223.2 551.8 584.5 626 991.8 101.2c50.2-63.8 168.6-243.8 354.3-379c104.2-78 238.7-136 368.5-142c257.7-12.1 493.6 162.6 638.2 376.2c4.6 6.8 9.2 13.7 13.5 20.8c.6 .9-0.8 1.8-1.4 .9c-34-49.7-83.1-105.8-127.9-149.8c-399.6-391.7-809-256.6-1163.4 180.1c-48.4 59.3-138.3 185.7-261.9 296.2c-124.8 111.7-279.3 202.1-440.2 153.4c-204.1-60.9-340.3-322.8-400.4-526.4c-2.3-7.9-4.5-15.8-6.6-23.9c-0.3-1.1 1.3-1.5 1.6-0.5c9.8 30.7 21.9 63 33.9 92.8Z" class="st0"/></g><g opacity="0" transform="translate(333.369 -95.556)" style="animation:2s linear both a2_o"><path fill="#0ff" stroke="#fff" d="M15.107-126.015v53.94h-53.01v72.075h-61.845v-72.075h-146.01v-48.825l143.685-204.6h64.17v199.485Zm-108.345-126.945l-91.605 130.2h91.605Zm113.002 192.51l73.005-73.47l-73.005-73.47l34.875-34.875l73.47 73.005l73.47-73.005l34.875 34.875l-73.005 73.47l73.005 73.47l-34.875 34.875l-73.47-73.005l-73.47 73.005Z" filter="url(#Filter-0)" opacity=".5" transform="translate(466.631 540.542)" style="isolation:isolate"/></g><path fill="rgba(0,0,99,0.85)" stroke="#fff" stroke-width="2" d="M15.107-126.015v53.94h-53.01v72.075h-61.845v-72.075h-146.01v-48.825l143.685-204.6h64.17v199.485Zm-108.345-126.945l-91.605 130.2h91.605Zm113.002 192.51l73.005-73.47l-73.005-73.47l34.875-34.875l73.47 73.005l73.47-73.005l34.875 34.875l-73.005 73.47l73.005 73.47l-34.875 34.875l-73.47-73.005l-73.47 73.005Z" transform="translate(800 1064.34)" style="isolation:isolate;animation:2s linear both a3_t"/></svg>