<svg xmlns="http://www.w3.org/2000/svg" mask="url(#Mask-3)" viewBox="0 0 1600 575"><style>@keyframes a0_o{0%{opacity:0}63.333%{opacity:0;animation-timing-function:cubic-bezier(.2,.8,.4,1)}80%,to{opacity:1}}@keyframes a1_t{0%{transform:translate(800px,1313.9px)}23.333%{transform:translate(800px,1313.9px);animation-timing-function:cubic-bezier(.2,1,.3,1)}43.333%,to{transform:translate(800px,485.8px)}}@keyframes a2_t{0%{transform:translate(-958.9px,-195.7px) rotate(-90deg) scale(.2,10.6) translate(-1693.5px,-90.7px)}16.667%{transform:translate(-958.9px,-195.7px) rotate(-90deg) scale(.2,10.6) translate(-1693.5px,-90.7px);animation-timing-function:cubic-bezier(.2,.5,.5,.9)}to{transform:translate(961.1px,-195.7px) rotate(-90deg) scale(.2,10.6) translate(-1693.5px,-90.7px)}}@keyframes a3_t{0%{transform:translate(-70.5px,-123.4px) rotate(9deg)}16.667%{transform:translate(-70.5px,-123.4px) rotate(9deg);animation-timing-function:cubic-bezier(.3,.3,.7,.7)}17.1%{transform:translate(-47.7px,-119.5px) rotate(10.4deg);animation-timing-function:cubic-bezier(.3,.3,.7,.7)}17.533%{transform:translate(-25.4px,-115.2px) rotate(11.9deg);animation-timing-function:cubic-bezier(.3,.3,.7,.7)}18.433%{transform:translate(21.2px,-104px) rotate(15.1deg);animation-timing-function:cubic-bezier(.3,.3,.7,.7)}20.2%{transform:translate(111.2px,-73.8px) rotate(22deg);animation-timing-function:cubic-bezier(.3,.3,.7,.7)}23.733%{transform:translate(278.3px,14.6px) rotate(32.5deg);animation-timing-function:cubic-bezier(.3,.4,.6,.7)}30.833%{transform:translate(580.2px,203.2px) rotate(26.8deg);animation-timing-function:cubic-bezier(.3,.4,.6,.8)}45%{transform:translate(1073.1px,343.7px) rotate(7deg);animation-timing-function:cubic-bezier(.3,.5,.6,.8)}59.167%{transform:translate(1339.2px,362.1px) rotate(1.3deg);animation-timing-function:cubic-bezier(.3,.4,.7,.7)}73.333%,to{transform:translate(1442.9px,363px) rotate(-.3deg)}}</style><defs><mask id="Mask-1"><path fill="url(#Gradient-0)" d="M0 0H1600V575H0z" transform="translate(173.7 101.4)"/></mask><mask id="Mask-2"><path fill="url(#Gradient-1)" transform="matrix(0 -.203 10.601 0 -1920.41 148.08)" style="animation:3s linear both a2_t" d="M0 0H2358.8V181.1H0z"/></mask><mask id="Mask-3"><path fill="#fff" d="M0 0H1920V575H0z"/></mask><radialGradient id="Gradient-0" cx="1359.1" cy="246" r="333" fx="1359.1" fy="246" gradientUnits="userSpaceOnUse"><stop offset="0" stop-color="#fff"/><stop offset="1"/></radialGradient><linearGradient id="Gradient-1" x1="1179.4" x2="1179.4" y1="0" y2="181.1" gradientUnits="userSpaceOnUse"><stop offset="0"/><stop offset=".1" stop-color="#fff"/><stop offset=".5" stop-color="#fff"/><stop offset=".9" stop-color="#fff"/><stop offset="1"/></linearGradient><filter id="Filter-0" width="121%" height="155%" x="-10%" y="-19%" color-interpolation-filters="sRGB"><feGaussianBlur stdDeviation="20"/></filter></defs><g mask="url(#Mask-1)" transform="translate(-173.7 -101.4)"><g><path fill="#030c2a" d="M1594.1 530.6v-21.9h-10.2v-155.1c1.5 0 2.9-0.9 3.6-2.4l20.5-43.1c.3-0.6 .4-1.2 .4-1.9h8.2v-21.5h-26.6v-15.1h-86.1v15.1h-26.6v21.5h8.2c0 .7 .1 1.3 .4 1.9l20.5 43.1c.7 1.5 2.1 2.4 3.7 2.4v155.1h-10.3v23.4c-5.5 .1-11.1 .2-16.7 .3h-42.7v.4c-299.3 .4-659.6-53.2-916.7-266.1c-134.4-111.2-245-165.3-245-165.3c0 0-105 0-105 0v575h1600v-144.3l-179.6-1.5Zm-21.2-220.1h24.8l-16.4 34.5h-14.9l6.5-34.5Zm-8.4 0l-6.4 34.5h-22.2l-6.5-34.5h35.1Zm-68.3 0h24.9l6.4 34.5h-14.9l-16.4-34.5Z"/></g></g><g opacity="0" transform="translate(333.4 5)" style="animation:3s linear both a0_o"><path fill="#0ff" stroke="#fff" d="M-262-171.1c15.5 7.7 27.4 18.7 35.8 32.8c8.3 14.1 12.5 29.6 12.5 46.7c0 18.3-4.8 34.9-14.4 49.8c-9.6 14.8-23.1 26.5-40.4 35.1c-17.4 8.5-37.4 12.7-60 12.7c-22.7 0-42.7-4.2-60-12.7c-17.4-8.6-30.9-20.3-40.5-35.1c-9.6-14.9-14.4-31.7-14.4-50.3c0-17 4.2-32.6 12.6-46.7c8.3-14.1 20.3-24.9 35.8-32.3c-12.7-7.1-22.6-16.8-29.5-28.8c-7-12.1-10.5-25.8-10.5-41c0-17 4.4-32.4 13.2-46.2c8.9-13.8 21.4-24.7 37.5-32.6c16.1-7.9 34.7-11.8 55.8-11.8c21.1 0 39.7 3.9 55.8 11.8c16.1 7.9 28.6 18.7 37.4 32.3c8.8 13.7 13.3 29 13.3 46.1c0 14.8-3.5 28.4-10.5 40.7c-7 12.2-16.8 22-29.5 29.5Zm-66.5-111.2c-14.6 0-26.3 4.1-35.1 12.1c-8.9 8.1-13.3 18.6-13.3 31.7c0 12.7 4.4 23.1 13.3 31.3c8.8 8.3 20.5 12.4 35.1 12.4c14.5 0 26.2-4.1 34.8-12.4c8.7-8.2 13.1-18.6 13.1-31.3c0-13.1-4.4-23.6-13.1-31.7c-8.6-8-20.3-12.1-34.8-12.1Zm0 239.1c16.7 0 30.3-4.8 40.7-14.5c10.3-9.6 15.5-21.8 15.5-36.7c0-14.9-5.2-27.1-15.5-36.7c-10.4-9.6-24-14.4-40.7-14.4c-16.8 0-30.3 4.8-40.7 14.4c-10.4 9.6-15.6 21.8-15.6 36.7c0 14.9 5.2 27.1 15.6 36.7c10.4 9.7 23.9 14.5 40.7 14.5Zm264.1 49.2c-25.7 0-48.5-7.1-68.4-21.3c-19.8-14.3-35.2-34.2-46.2-59.8c-11-25.6-16.5-54.8-16.5-87.6c0-32.9 5.5-62.1 16.5-87.7c11-25.6 26.4-45.5 46.2-59.8c19.9-14.2 42.7-21.3 68.4-21.3c25.7 0 48.5 7.1 68.4 21.3c19.8 14.3 35.2 34.2 46.2 59.8c11 25.6 16.5 54.8 16.5 87.6c0 32.9-5.5 62.1-16.5 87.7c-11 25.6-26.4 45.5-46.2 59.8c-19.9 14.2-42.7 21.3-68.4 21.3Zm0-55.8c13.6 0 25.6-4.6 35.8-13.9c10.2-9.3 18.1-22.5 23.7-39.5c5.6-17.1 8.4-36.9 8.4-59.5c0-22.7-2.8-42.5-8.4-59.6c-5.6-17-13.5-30.2-23.7-39.5c-10.2-9.3-22.2-13.9-35.8-13.9c-13.6 0-25.6 4.6-35.8 13.9c-10.2 9.3-18.1 22.5-23.7 39.5c-5.6 17.1-8.4 36.9-8.4 59.6c0 22.6 2.8 42.4 8.4 59.5c5.6 17 13.5 30.2 23.7 39.5c10.2 9.3 22.2 13.9 35.8 13.9Zm226.9-114.3c-16.4 0-31.1-3.6-43.9-10.7c-12.9-7.2-22.9-17.1-30-29.8c-7.1-12.7-10.7-27.1-10.7-43.2c0-16.2 3.6-30.6 10.7-43.3c7.1-12.7 17.1-22.6 30-29.8c12.8-7.1 27.5-10.6 43.9-10.6c16.1 0 30.7 3.5 43.7 10.7c13.1 7.1 23.2 17 30.5 29.7c7.3 12.7 10.9 27.1 10.9 43.3c0 16.1-3.6 30.5-10.9 43.2c-7.3 12.7-17.4 22.6-30.5 29.8c-13 7.1-27.6 10.7-43.7 10.7Zm-30.2 149.2l234.4-312.5l30.2 22.8l-234.4 312.5Zm30.2-190.6c12.1 0 22-4 29.6-11.9c7.5-7.9 11.3-18 11.3-30.4c0-12.8-3.8-23.1-11.3-31c-7.6-7.9-17.5-11.8-29.6-11.8c-11.8 0-21.4 3.9-29 11.8c-7.6 7.9-11.4 18.2-11.4 31c0 12.4 3.8 22.5 11.4 30.4c7.6 7.9 17.2 11.9 29 11.9Zm203.7 211.5c-16.1 0-30.6-3.5-43.5-10.6c-12.8-7.2-22.9-17.1-30.2-29.8c-7.3-12.7-10.9-27.1-10.9-43.3c0-16.1 3.6-30.5 10.9-43.2c7.3-12.7 17.4-22.6 30.2-29.8c12.9-7.1 27.4-10.7 43.5-10.7c16.1 0 30.6 3.6 43.5 10.7c12.8 7.2 22.9 17.1 30.2 29.8c7.3 12.7 10.9 27.1 10.9 43.2c0 16.2-3.6 30.6-10.9 43.3c-7.3 12.7-17.4 22.6-30.2 29.8c-12.9 7.1-27.4 10.6-43.5 10.6Zm0-40.9c11.8 0 21.5-3.9 29.1-11.8c7.6-7.9 11.3-18.2 11.3-31c0-12.4-3.7-22.5-11.3-30.4c-7.6-7.9-17.3-11.9-29.1-11.9c-12.1 0-21.9 3.9-29.3 11.7c-7.4 7.7-11.2 17.9-11.2 30.6c0 12.8 3.8 23.1 11.2 31c7.4 7.9 17.2 11.8 29.3 11.8Z" filter="url(#Filter-0)" opacity=".5" transform="translate(466.6 480.8)" style="isolation:isolate"/></g><path fill="rgba(12,23,89,0.85)" stroke="#fff" stroke-width="2" d="M-262-171.1c15.5 7.7 27.4 18.7 35.8 32.8c8.3 14.1 12.5 29.6 12.5 46.7c0 18.3-4.8 34.9-14.4 49.8c-9.6 14.8-23.1 26.5-40.4 35.1c-17.4 8.5-37.4 12.7-60 12.7c-22.7 0-42.7-4.2-60-12.7c-17.4-8.6-30.9-20.3-40.5-35.1c-9.6-14.9-14.4-31.7-14.4-50.3c0-17 4.2-32.6 12.6-46.7c8.3-14.1 20.3-24.9 35.8-32.3c-12.7-7.1-22.6-16.8-29.5-28.8c-7-12.1-10.5-25.8-10.5-41c0-17 4.4-32.4 13.2-46.2c8.9-13.8 21.4-24.7 37.5-32.6c16.1-7.9 34.7-11.8 55.8-11.8c21.1 0 39.7 3.9 55.8 11.8c16.1 7.9 28.6 18.7 37.4 32.3c8.8 13.7 13.3 29 13.3 46.1c0 14.8-3.5 28.4-10.5 40.7c-7 12.2-16.8 22-29.5 29.5Zm-66.5-111.2c-14.6 0-26.3 4.1-35.1 12.1c-8.9 8.1-13.3 18.6-13.3 31.7c0 12.7 4.4 23.1 13.3 31.3c8.8 8.3 20.5 12.4 35.1 12.4c14.5 0 26.2-4.1 34.8-12.4c8.7-8.2 13.1-18.6 13.1-31.3c0-13.1-4.4-23.6-13.1-31.7c-8.6-8-20.3-12.1-34.8-12.1Zm0 239.1c16.7 0 30.3-4.8 40.7-14.5c10.3-9.6 15.5-21.8 15.5-36.7c0-14.9-5.2-27.1-15.5-36.7c-10.4-9.6-24-14.4-40.7-14.4c-16.8 0-30.3 4.8-40.7 14.4c-10.4 9.6-15.6 21.8-15.6 36.7c0 14.9 5.2 27.1 15.6 36.7c10.4 9.7 23.9 14.5 40.7 14.5Zm264.1 49.2c-25.7 0-48.5-7.1-68.4-21.3c-19.8-14.3-35.2-34.2-46.2-59.8c-11-25.6-16.5-54.8-16.5-87.6c0-32.9 5.5-62.1 16.5-87.7c11-25.6 26.4-45.5 46.2-59.8c19.9-14.2 42.7-21.3 68.4-21.3c25.7 0 48.5 7.1 68.4 21.3c19.8 14.3 35.2 34.2 46.2 59.8c11 25.6 16.5 54.8 16.5 87.6c0 32.9-5.5 62.1-16.5 87.7c-11 25.6-26.4 45.5-46.2 59.8c-19.9 14.2-42.7 21.3-68.4 21.3Zm0-55.8c13.6 0 25.6-4.6 35.8-13.9c10.2-9.3 18.1-22.5 23.7-39.5c5.6-17.1 8.4-36.9 8.4-59.5c0-22.7-2.8-42.5-8.4-59.6c-5.6-17-13.5-30.2-23.7-39.5c-10.2-9.3-22.2-13.9-35.8-13.9c-13.6 0-25.6 4.6-35.8 13.9c-10.2 9.3-18.1 22.5-23.7 39.5c-5.6 17.1-8.4 36.9-8.4 59.6c0 22.6 2.8 42.4 8.4 59.5c5.6 17 13.5 30.2 23.7 39.5c10.2 9.3 22.2 13.9 35.8 13.9Zm226.9-114.3c-16.4 0-31.1-3.6-43.9-10.7c-12.9-7.2-22.9-17.1-30-29.8c-7.1-12.7-10.7-27.1-10.7-43.2c0-16.2 3.6-30.6 10.7-43.3c7.1-12.7 17.1-22.6 30-29.8c12.8-7.1 27.5-10.6 43.9-10.6c16.1 0 30.7 3.5 43.7 10.7c13.1 7.1 23.2 17 30.5 29.7c7.3 12.7 10.9 27.1 10.9 43.3c0 16.1-3.6 30.5-10.9 43.2c-7.3 12.7-17.4 22.6-30.5 29.8c-13 7.1-27.6 10.7-43.7 10.7Zm-30.2 149.2l234.4-312.5l30.2 22.8l-234.4 312.5Zm30.2-190.6c12.1 0 22-4 29.6-11.9c7.5-7.9 11.3-18 11.3-30.4c0-12.8-3.8-23.1-11.3-31c-7.6-7.9-17.5-11.8-29.6-11.8c-11.8 0-21.4 3.9-29 11.8c-7.6 7.9-11.4 18.2-11.4 31c0 12.4 3.8 22.5 11.4 30.4c7.6 7.9 17.2 11.9 29 11.9Zm203.7 211.5c-16.1 0-30.6-3.5-43.5-10.6c-12.8-7.2-22.9-17.1-30.2-29.8c-7.3-12.7-10.9-27.1-10.9-43.3c0-16.1 3.6-30.5 10.9-43.2c7.3-12.7 17.4-22.6 30.2-29.8c12.9-7.1 27.4-10.7 43.5-10.7c16.1 0 30.6 3.6 43.5 10.7c12.8 7.2 22.9 17.1 30.2 29.8c7.3 12.7 10.9 27.1 10.9 43.2c0 16.2-3.6 30.6-10.9 43.3c-7.3 12.7-17.4 22.6-30.2 29.8c-12.9 7.1-27.4 10.6-43.5 10.6Zm0-40.9c11.8 0 21.5-3.9 29.1-11.8c7.6-7.9 11.3-18.2 11.3-31c0-12.4-3.7-22.5-11.3-30.4c-7.6-7.9-17.3-11.9-29.1-11.9c-12.1 0-21.9 3.9-29.3 11.7c-7.4 7.7-11.2 17.9-11.2 30.6c0 12.8 3.8 23.1 11.2 31c7.4 7.9 17.2 11.8 29.3 11.8Z" transform="translate(800 1313.9)" style="isolation:isolate;animation:3s linear both a1_t"/><g mask="url(#Mask-2)" transform="translate(-160 331)"><g transform="translate(-662.3 -454.4)"><path fill="#0ff" d="M1693 520.1c207.6 27.3 328.8 30.2 560 33.7c-167 12-379 6.2-560-33.7Z" class="st0"/><path fill="#0ff" d="M1266.9 354.3c127.5 74.8 207 101.3 342.6 143.7c-122.1-23.5-240.2-66.9-342.6-143.7Z" class="st0"/><path fill="#0ff" d="M0 135.4c133.5-97.4 382.9-167 634.1-120.8c308.5 53.2 510.4 246.7 566.5 291.8c-110.1-78.1-353.8-289.5-731.3-293.6c-152.4-1.7-341.6 41.1-469.3 122.6Z" class="st0"/></g></g><g transform="rotate(9 748.723 -509.594)" style="animation:3s linear both a3_t"><path fill="none" stroke="#0ff" stroke-linecap="round" stroke-linejoin="round" stroke-miterlimit="10" stroke-width="3" d="M114.5 42.7c-0.2-4.5-0.3-7.7-17.3-10.7c-5.3-0.9-10.7-1.2-16.1-0.7l-4.8 .5l-33.6-30.3l-13.6 .6l16.6 32.5l-20.9 2l-14.5-13.2l-8.8 .4l8.6 25l77.7 .8c5.4 0 27 .5 26.7-6.9Z" class="st0"/></g></svg>