<svg xmlns="http://www.w3.org/2000/svg" width="21" height="300" viewBox="0 0 21 300"><g fill="none" fill-rule="evenodd"><path fill="#FFFFFF" fill-rule="nonzero" d="M10.5,0 C4.70101013,0 0,4.70101013 0,10.5 C0,16.2989899 4.70101013,21 10.5,21 C16.2989899,21 21,16.2989899 21,10.5 C21,4.70101013 16.2989899,0 10.5,0 Z M10.5,1 C15.7467051,1 20,5.25329488 20,10.5 C20,15.7467051 15.7467051,20 10.5,20 C5.25329488,20 1,15.7467051 1,10.5 C1,5.25329488 5.25329488,1 10.5,1 Z"/><polygon fill="#FFFFFF" fill-rule="nonzero" points="11 21 11 300 10 300 10 21"/></g></svg>