<svg xmlns="http://www.w3.org/2000/svg" width="1474" height="1926" viewBox="0 0 1474 1926"><defs><linearGradient id="a" x1="50%" x2="50%" y1="100%" y2="0%"><stop offset="0%" stop-color="#2F2F2F"/><stop offset="1%" stop-color="#595959"/><stop offset="2%" stop-color="#818181"/><stop offset="3%" stop-color="#A3A3A3"/><stop offset="5%" stop-color="#BDBDBD"/><stop offset="6%" stop-color="#CFCFCF"/><stop offset="7%" stop-color="#DADADA"/><stop offset="9%" stop-color="#DEDEDE"/><stop offset="72%" stop-color="#C6C6C6"/><stop offset="83%" stop-color="#C4C4C4"/><stop offset="87%" stop-color="#BDBDBD"/><stop offset="90%" stop-color="#B1B1B1"/><stop offset="93%" stop-color="#A0A0A0"/><stop offset="95%" stop-color="#8A8A8A"/><stop offset="97%" stop-color="#6E6E6E"/><stop offset="99%" stop-color="#4E4E4E"/><stop offset="100%" stop-color="#2F2F2F"/></linearGradient><linearGradient id="b" x1="50%" x2="50%" y1="100.029%" y2="0%"><stop offset="0%" stop-color="#2F2F2F"/><stop offset="1%" stop-color="#595959"/><stop offset="2%" stop-color="#818181"/><stop offset="3%" stop-color="#A3A3A3"/><stop offset="5%" stop-color="#BDBDBD"/><stop offset="6%" stop-color="#CFCFCF"/><stop offset="7%" stop-color="#DADADA"/><stop offset="9%" stop-color="#DEDEDE"/><stop offset="72%" stop-color="#C6C6C6"/><stop offset="83%" stop-color="#C4C4C4"/><stop offset="87%" stop-color="#BDBDBD"/><stop offset="90%" stop-color="#B1B1B1"/><stop offset="93%" stop-color="#A0A0A0"/><stop offset="95%" stop-color="#8A8A8A"/><stop offset="97%" stop-color="#6E6E6E"/><stop offset="99%" stop-color="#4E4E4E"/><stop offset="100%" stop-color="#2F2F2F"/></linearGradient><linearGradient id="c" x1="50%" x2="50%" y1=".012%" y2="100%"><stop offset="0%" stop-color="#2F2F2F"/><stop offset="1%" stop-color="#595959"/><stop offset="2%" stop-color="#818181"/><stop offset="3%" stop-color="#A3A3A3"/><stop offset="5%" stop-color="#BDBDBD"/><stop offset="6%" stop-color="#CFCFCF"/><stop offset="7%" stop-color="#DADADA"/><stop offset="9%" stop-color="#DEDEDE"/><stop offset="72%" stop-color="#C6C6C6"/><stop offset="83%" stop-color="#C4C4C4"/><stop offset="87%" stop-color="#BDBDBD"/><stop offset="90%" stop-color="#B1B1B1"/><stop offset="93%" stop-color="#A0A0A0"/><stop offset="95%" stop-color="#8A8A8A"/><stop offset="97%" stop-color="#6E6E6E"/><stop offset="99%" stop-color="#4E4E4E"/><stop offset="100%" stop-color="#2F2F2F"/></linearGradient><radialGradient id="d" cx="50%" cy="50%" r="50%" fx="50%" fy="50%"><stop offset="0%" stop-color="#347BBD"/><stop offset="100%" stop-color="#04274D"/></radialGradient></defs><g fill="none" fill-rule="evenodd" transform="translate(4 -4)"><path fill="url(#a)" fill-rule="nonzero" d="M1466.58,135.94 L1471.28,135.94 C1472.69385,135.94 1473.84,137.086151 1473.84,138.5 L1473.84,201.3 C1473.84,202.713849 1472.69385,203.86 1471.28,203.86 L1466.58,203.86 L1466.58,135.94 Z"/><path fill="url(#b)" fill-rule="nonzero" d="M1466.58,219.66 L1471.27,219.66 C1472.68937,219.66 1473.84,220.810628 1473.84,222.23 L1473.84,285 C1473.83449,286.415465 1472.68548,287.56 1471.27,287.56 L1466.58,287.56"/><path fill="url(#c)" fill-rule="nonzero" d="M1342.935,-37.995 L1347.355,-37.995 C1348.92349,-37.995 1350.195,-36.7234887 1350.195,-35.155 L1350.195,42.415 C1350.195,43.9834887 1348.92349,45.255 1347.355,45.255 L1342.935,45.255 L1342.935,-37.995 Z" transform="rotate(-90 1346.565 3.63)"/><rect width="1465.13" height="1917.05" x=".81" y="8.12" stroke="#666666" stroke-width="9.61" rx="78.6"/><rect width="1465.13" height="1917.05" x=".81" y="8.12" stroke="#747474" stroke-width="9.03" rx="78.6"/><rect width="1465.13" height="1917.05" x=".81" y="8.12" stroke="#828282" stroke-width="8.45" rx="78.6"/><rect width="1465.13" height="1917.05" x=".81" y="8.12" stroke="#909090" stroke-width="7.86" rx="78.6"/><rect width="1465.13" height="1917.05" x=".81" y="8.12" stroke="#9E9E9E" stroke-width="7.28" rx="78.6"/><rect width="1465.13" height="1917.05" x=".81" y="8.12" stroke="#ACACAC" stroke-width="6.7" rx="78.6"/><rect width="1465.13" height="1917.05" x=".81" y="8.12" stroke="#B9B9B9" stroke-width="6.12" rx="78.6"/><rect width="1465.13" height="1917.05" x=".81" y="8.12" stroke="#C7C7C7" stroke-width="5.53" rx="78.6"/><rect width="1465.13" height="1917.05" x=".81" y="8.12" stroke="#D5D5D5" stroke-width="4.95" rx="78.6"/><rect width="1465.13" height="1917.05" x=".81" y="8.12" stroke="#E3E3E3" stroke-width="4.37" rx="78.6"/><rect width="1465.13" height="1917.05" x=".81" y="8.12" stroke="#F1F1F1" stroke-width="3.79" rx="78.6"/><rect width="1465.13" height="1917.05" x=".81" y="8.12" stroke="#FFFFFF" stroke-width="3.2" rx="78.6"/><path fill="#000000" fill-rule="nonzero" d="M1387.34,8.12 C1430.74958,8.12 1465.94,43.3104187 1465.94,86.72 L1465.94,1846.57 C1465.94,1889.97958 1430.74958,1925.17 1387.34,1925.17 L79.41,1925.17 C36.0004187,1925.17 0.81,1889.97958 0.81,1846.57 L0.81,86.72 C0.81,43.3104187 36.0004187,8.12 79.41,8.12 L1387.34,8.12 Z M1387.49,62.69 L79.99,62.69 C66.5418663,62.69 55.64,73.5918663 55.64,87.04 L55.64,87.04 L55.64,1846.04 C55.64,1859.48813 66.5418663,1870.39 79.99,1870.39 L79.99,1870.39 L1387.49,1870.39 C1400.93813,1870.39 1411.84,1859.48813 1411.84,1846.04 L1411.84,1846.04 L1411.84,87.04 C1411.84,73.5918663 1400.93813,62.69 1387.49,62.69 L1387.49,62.69 Z"/><path fill="#011432" fill-rule="nonzero" d="M740.870006,33.4 C740.870006,36.5880719 738.949013,39.4620365 736.003231,40.6811225 C733.057449,41.9002086 729.667337,41.2241943 727.414462,38.9684562 C725.161586,36.712718 724.489878,33.3217507 725.712703,30.377519 C726.935529,27.4332874 729.811931,25.5159542 733,25.5199936 C735.088988,25.5199936 737.09227,26.3505292 738.568469,27.828604 C740.044668,29.3066789 740.872654,31.3110141 740.870006,33.4 L740.870006,33.4 Z" opacity=".5"/><path fill="#0A1527" fill-rule="nonzero" d="M738.380037,33 C738.368964,35.9686634 735.955391,38.367334 732.986716,38.3600004 C730.018041,38.352633 727.616376,35.9420398 727.620037,32.9733581 C727.623706,30.0046764 730.031316,27.6 733,27.6 C734.430337,27.6 735.8018,28.1695545 736.811323,29.18283 C737.820846,30.1961055 738.385317,31.5696732 738.380037,33 L738.380037,33 Z" opacity=".5"/><path fill="url(#d)" fill-rule="nonzero" d="M735.69,33.92 C735.69,35.405646 734.485646,36.61 733,36.61 C731.514354,36.61 730.31,35.405646 730.31,33.92 C730.31,32.434354 731.514354,31.23 733,31.23 C734.485646,31.23 735.69,32.434354 735.69,33.92 L735.69,33.92 Z" opacity=".5"/></g></svg>