<svg xmlns="http://www.w3.org/2000/svg" width="280" height="59" viewBox="0 0 280 59"><path fill="#FFFFFF" fill-rule="evenodd" d="M2.4568 51.51L5.5112 44.0732 16.8656 44.0732 19.8868 51.51 21.58 51.51 11.9852 28.27 10.3584 28.27.7636 51.51 2.4568 51.51zM16.268 42.6456L6.0756 42.6456 11.1884 30.1624 16.268 42.6456zM26.226 51.51L26.226 42.2472C26.226 38.6948 28.3176 36.238 31.2392 36.238 31.8368 36.238 32.5008 36.3376 33.1648 36.5036L33.3972 35.2088C32.6668 34.9764 31.9364 34.8768 31.3056 34.8768 28.9152 34.8768 26.9896 36.1052 26.0932 38.064L25.9272 35.2088 24.6324 35.2088 24.6324 51.51 26.226 51.51zM41.1972 51.8088C42.1932 51.8088 42.7576 51.7424 43.6872 51.3108L43.488 50.1156C42.658 50.3812 42.2596 50.4808 41.496 50.4808 39.67 50.4808 39.2384 49.186 39.2384 47.0612L39.2384 36.5036 43.4216 36.5036 43.4216 35.1756 39.2384 35.1756 39.2384 30.6272 37.6448 30.6272 37.6448 35.1756 34.856 35.1756 34.856 36.5036 37.6448 36.5036 37.6448 47.194C37.6448 50.016 38.6076 51.8088 41.1972 51.8088zM47.7688 31.4572C48.4992 31.4572 49.0304 30.9592 49.0304 30.262 49.0304 29.5316 48.4992 29.0668 47.7688 29.0668 47.0384 29.0668 46.5072 29.5316 46.5072 30.262 46.5072 30.9592 47.0384 31.4572 47.7688 31.4572zM48.5656 51.51L48.5656 35.1756 46.972 35.1756 46.972 51.51 48.5656 51.51zM56.1664 51.51L56.1664 36.5036 64.0016 36.5036 64.0016 51.51 65.5952 51.51 65.5952 35.1756 56.1664 35.1756 56.1664 33.3496C56.1664 30.8928 57.8596 29.2992 60.1504 29.2992 61.3456 29.2992 62.574 29.4652 64.1344 30.5276L64.5992 29.3324C62.8728 28.2036 61.3124 27.9712 59.918 27.9712 56.8304 27.9712 54.5728 30.0628 54.5728 33.3164L54.5728 35.1756 51.6512 35.1756 51.6512 36.5036 54.5728 36.5036 54.5728 51.51 56.1664 51.51zM76.9476 51.8088C78.7736 51.8088 80.5996 51.2112 82.326 49.8168L81.5624 48.6216C80.168 49.7504 78.7072 50.348 77.0804 50.348 73.3288 50.348 70.6064 47.526 70.6064 43.376 70.6064 39.226 73.362 36.3376 77.0472 36.3376 78.6408 36.3376 80.2344 36.9684 81.5624 38.1968L82.326 36.9684C80.7324 35.5076 78.8068 34.8768 76.9808 34.8768 72.2996 34.8768 68.9796 38.4292 68.9796 43.4092 68.9796 48.2896 72.2332 51.8088 76.9476 51.8088zM87.2376 31.4572C87.968 31.4572 88.4992 30.9592 88.4992 30.262 88.4992 29.5316 87.968 29.0668 87.2376 29.0668 86.5072 29.0668 85.976 29.5316 85.976 30.262 85.976 30.9592 86.5072 31.4572 87.2376 31.4572zM88.0344 51.51L88.0344 35.1756 86.4408 35.1756 86.4408 51.51 88.0344 51.51zM97.594 51.8088C100.1172 51.8088 101.9432 50.7796 103.0388 48.9536L103.238 51.51 104.5328 51.51 104.5328 40.4544C104.5328 37.0348 102.0096 34.8768 98.424 34.8768 96.1664 34.8768 94.4068 35.4744 92.8464 36.7028L93.278 38.0308C94.7388 36.8688 96.3324 36.3376 98.258 36.3376 101.0468 36.3376 103.0388 37.9976 103.0388 40.5872L103.0388 42.4132C101.6776 42.048 100.3496 41.9152 99.088 41.9152 94.5728 41.9152 91.8504 43.874 91.8504 46.9616 91.8504 49.8832 94.3072 51.8088 97.594 51.8088zM97.8264 50.4808C95.3364 50.4808 93.444 49.02 93.444 46.8952 93.444 44.704 95.5688 43.21 99.3204 43.21 100.4492 43.21 101.7108 43.3428 103.0388 43.708L103.0388 45.1356C103.0388 48.1568 100.9472 50.4808 97.8264 50.4808zM111.0712 51.51L111.0712 28.27 109.4776 28.27 109.4776 51.51 111.0712 51.51zM125.642 51.51L125.642 28.27 124.0152 28.27 124.0152 51.51 125.642 51.51zM132.7116 51.51L132.7116 42.4132C132.7116 38.9272 134.8696 36.2712 137.9572 36.2712 141.0116 36.2712 143.0036 38.4292 143.0036 41.882L143.0036 51.51 144.5972 51.51 144.5972 41.6164C144.5972 37.5992 142.0076 34.8768 138.256 34.8768 135.6332 34.8768 133.7076 36.2048 132.612 38.2632L132.4128 35.2088 131.118 35.2088 131.118 51.51 132.7116 51.51zM153.526 51.8088C154.522 51.8088 155.0864 51.7424 156.016 51.3108L155.8168 50.1156C154.9868 50.3812 154.5884 50.4808 153.8248 50.4808 151.9988 50.4808 151.5672 49.186 151.5672 47.0612L151.5672 36.5036 155.7504 36.5036 155.7504 35.1756 151.5672 35.1756 151.5672 30.6272 149.9736 30.6272 149.9736 35.1756 147.1848 35.1756 147.1848 36.5036 149.9736 36.5036 149.9736 47.194C149.9736 50.016 150.9364 51.8088 153.526 51.8088zM165.5424 51.8088C167.3684 51.8088 169.294 51.2776 171.1864 49.7836L170.5888 48.5552C168.8956 49.8832 167.2356 50.348 165.6752 50.348 161.9568 50.348 159.334 47.7584 159.1016 43.8408L171.9168 43.8408C171.95 43.6084 171.9832 43.21 171.9832 43.0108 171.9832 38.2632 168.962 34.8768 165.0112 34.8768 160.7284 34.8768 157.508 38.4956 157.508 43.3428 157.508 48.2232 160.828 51.8088 165.5424 51.8088zM170.3564 42.4132L159.1348 42.4132C159.5 38.894 161.8572 36.3376 164.978 36.3376 167.9328 36.3376 170.2568 38.8608 170.3564 42.4132zM177.2932 51.51L177.2932 28.27 175.6996 28.27 175.6996 51.51 177.2932 51.51zM183.6656 51.51L183.6656 28.27 182.072 28.27 182.072 51.51 183.6656 51.51zM189.706 31.4572C190.4364 31.4572 190.9676 30.9592 190.9676 30.262 190.9676 29.5316 190.4364 29.0668 189.706 29.0668 188.9756 29.0668 188.4444 29.5316 188.4444 30.262 188.4444 30.9592 188.9756 31.4572 189.706 31.4572zM190.5028 51.51L190.5028 35.1756 188.9092 35.1756 188.9092 51.51 190.5028 51.51zM202.1208 58.7808C206.4368 58.7808 209.624 55.494 209.624 51.2776L209.624 35.2088 208.3292 35.2088 208.0636 38.5952C206.9016 36.404 204.5776 34.8768 201.7224 34.8768 197.506 34.8768 194.3852 38.5288 194.3852 43.376 194.3852 48.2232 197.506 51.7756 201.7224 51.7756 204.5444 51.7756 206.8684 50.3148 208.0304 48.19L208.0304 51.3108C208.0304 54.7636 205.5072 57.4528 201.988 57.4528 199.5312 57.4528 197.9044 56.822 195.8792 55.2616L195.3812 56.5232C197.5724 58.15 199.3984 58.7808 202.1208 58.7808zM201.988 50.3148C198.5684 50.3148 195.9788 47.3268 195.9788 43.3428 195.9788 39.3588 198.5684 36.3376 201.988 36.3376 205.4408 36.3376 208.0304 39.3588 208.0304 43.3428 208.0304 47.3268 205.4408 50.3148 201.988 50.3148zM221.408 51.8088C223.234 51.8088 225.1596 51.2776 227.052 49.7836L226.4544 48.5552C224.7612 49.8832 223.1012 50.348 221.5408 50.348 217.8224 50.348 215.1996 47.7584 214.9672 43.8408L227.7824 43.8408C227.8156 43.6084 227.8488 43.21 227.8488 43.0108 227.8488 38.2632 224.8276 34.8768 220.8768 34.8768 216.594 34.8768 213.3736 38.4956 213.3736 43.3428 213.3736 48.2232 216.6936 51.8088 221.408 51.8088zM226.222 42.4132L215.0004 42.4132C215.3656 38.894 217.7228 36.3376 220.8436 36.3376 223.7984 36.3376 226.1224 38.8608 226.222 42.4132zM233.1588 51.51L233.1588 42.4132C233.1588 38.9272 235.3168 36.2712 238.4044 36.2712 241.4588 36.2712 243.4508 38.4292 243.4508 41.882L243.4508 51.51 245.0444 51.51 245.0444 41.6164C245.0444 37.5992 242.4548 34.8768 238.7032 34.8768 236.0804 34.8768 234.1548 36.2048 233.0592 38.2632L232.86 35.2088 231.5652 35.2088 231.5652 51.51 233.1588 51.51zM256.5628 51.8088C258.3888 51.8088 260.2148 51.2112 261.9412 49.8168L261.1776 48.6216C259.7832 49.7504 258.3224 50.348 256.6956 50.348 252.944 50.348 250.2216 47.526 250.2216 43.376 250.2216 39.226 252.9772 36.3376 256.6624 36.3376 258.256 36.3376 259.8496 36.9684 261.1776 38.1968L261.9412 36.9684C260.3476 35.5076 258.422 34.8768 256.596 34.8768 251.9148 34.8768 248.5948 38.4292 248.5948 43.4092 248.5948 48.2896 251.8484 51.8088 256.5628 51.8088zM272.2312 51.8088C274.0572 51.8088 275.9828 51.2776 277.8752 49.7836L277.2776 48.5552C275.5844 49.8832 273.9244 50.348 272.364 50.348 268.6456 50.348 266.0228 47.7584 265.7904 43.8408L278.6056 43.8408C278.6388 43.6084 278.672 43.21 278.672 43.0108 278.672 38.2632 275.6508 34.8768 271.7 34.8768 267.4172 34.8768 264.1968 38.4956 264.1968 43.3428 264.1968 48.2232 267.5168 51.8088 272.2312 51.8088zM277.0452 42.4132L265.8236 42.4132C266.1888 38.894 268.546 36.3376 271.6668 36.3376 274.6216 36.3376 276.9456 38.8608 277.0452 42.4132zM31.912958 4.04979253C33.3074173 4.04979253 34.3994638 4.62240664 35.1050938 5.40248963L35.1050938 4.25726141 38.0368186 4.25726141 38.0368186 14.5477178C38.0368186 17.5352697 36.1299374 19.9419087 32.5093834 19.9419087 29.7876676 19.9419087 27.7967828 18.5477178 26.9399464 16.8962656L29.5356568 15.4605809C30.0900804 16.5643154 31.0813226 17.2614108 32.5093834 17.2614108 34.0970509 17.2614108 35.1050938 16.033195 35.1050938 14.6556017L35.1050938 13.659751C34.3994638 14.4813278 33.2654155 15.0539419 31.8709562 15.0539419 29.5944593 15.0539419 26.7047364 13.2780083 26.7047364 9.55186722 26.7047364 5.80912863 29.493655 4.04979253 31.912958 4.04979253zM7.66112601.0414937759C10.3912422.0414937759 12.8273458 1.40248963 14.1882038 3.6846473L14.1882038 3.6846473 14.2302055 3.7593361 11.6176944 5.41078838 11.5756926 5.32780083C10.7188561 3.75103734 9.4 2.94605809 7.66952636 2.94605809 4.99821269 2.94605809 2.9821269 4.94605809 2.9821269 7.593361 2.9821269 10.1742739 5.00661305 12.1991701 7.6023235 12.1991701 9.39159964 12.1991701 10.8868633 11.2282158 11.6932976 9.54356846L11.6932976 9.54356846 11.7352994 9.46058091 14.4486148 10.879668 14.406613 10.9543568C13.0373548 13.5767635 10.5172475 15.1452282 7.66112601 15.1452282 3.23413762 15.1452282.0168007149 11.966805.0168007149 7.593361.0168007149 3.28630705 3.30134048.0414937759 7.66112601.0414937759zM20.4128686 4.04979253C23.4957998 4.04979253 25.9655049 6.50622407 25.9655049 9.55186722 25.9655049 12.5975104 23.5042002 15.0539419 20.4128686 15.0539419 17.3299374 15.0539419 14.8602324 12.5975104 14.8602324 9.55186722 14.8602324 6.50622407 17.3215371 4.04979253 20.4128686 4.04979253zM69.4709562 4.04979253C70.8654155 4.04979253 71.957462 4.5560166 72.663092 5.30290456L72.663092 4.26556017 75.5948168 4.26556017 75.5948168 14.846473 72.663092 14.846473 72.663092 13.659751C71.957462 14.4813278 70.8234138 15.0539419 69.4289544 15.0539419 67.1524576 15.0539419 64.2627346 13.2780083 64.2627346 9.55186722 64.2627346 5.80912863 67.0516533 4.04979253 69.4709562 4.04979253zM53.3002681 4.29045643L53.3002681 14.8713693 50.3685433 14.8713693 50.3685433 4.29045643 53.3002681 4.29045643zM45.0847185 4.05809129C47.6132261 4.05809129 49.1336908 5.66804979 49.1336908 8.39834025L49.1336908 14.8547718 46.1515639 14.8547718 46.1515639 8.78008299C46.1515639 7.36099585 45.4879357 6.53941909 44.1774799 6.53941909 43.0602324 6.53941909 42.1445934 7.30290456 42.1445934 9.07883817L42.1445934 14.8547718 39.2128686 14.8547718 39.2128686 4.26556017 42.1277927 4.26556017 42.1277927 5.45228216C42.816622 4.58091286 43.8666667 4.05809129 45.0847185 4.05809129zM82.6511171 4.05809129C85.1796247 4.05809129 86.7000894 5.66804979 86.7000894 8.39834025L86.7000894 14.8547718 83.7179625 14.8547718 83.7179625 8.78008299C83.7179625 7.36099585 83.0543342 6.53941909 81.7438785 6.53941909 80.6266309 6.53941909 79.710992 7.30290456 79.710992 9.07883817L79.710992 14.8547718 76.7792672 14.8547718 76.7792672 4.26556017 79.6941912 4.26556017 79.6941912 5.45228216C80.3830206 4.58091286 81.4330652 4.05809129 82.6511171 4.05809129zM63.9855228 4.26556017L63.9855228 6.87136929 58.3488829 12.2821577 64.0947274 12.2821577 64.0947274 14.846473 54.4091153 14.846473 54.4091153 12.2655602 60.0457551 6.82987552 54.4931189 6.82987552 54.4931189 4.26556017 63.9855228 4.26556017zM91.9167113.763485477L91.9167113 4.25726141 93.9327971 4.25726141 93.9327971 6.85477178 91.9167113 6.85477178 91.9167113 10.2240664C91.9167113 11.8755187 92.1351206 12.1327801 93.9327971 12.1327801L93.9327971 12.1327801 93.9327971 14.8381743 93.5043789 14.8381743C90.1022341 14.8381743 88.9849866 13.7012448 88.9849866 10.2489627L88.9849866 10.2489627 88.9849866 6.86307054 87.162109 6.86307054 87.162109 4.25726141 88.9849866 4.25726141 88.9849866.763485477 91.9167113.763485477zM70.0085791 6.69709544C68.3789097 6.69709544 67.1356568 7.90041494 67.1356568 9.53526971 67.1356568 11.1701245 68.3789097 12.3900415 70.0085791 12.3900415 71.5878463 12.3900415 72.7470956 11.0954357 72.7470956 9.53526971 72.7470956 7.96680498 71.5878463 6.69709544 70.0085791 6.69709544zM32.4505809 6.69709544C30.8209115 6.69709544 29.5776586 7.90041494 29.5776586 9.53526971 29.5776586 11.1701245 30.8209115 12.3900415 32.4505809 12.3900415 34.0298481 12.3900415 35.1890974 11.0954357 35.1890974 9.53526971 35.1890974 7.96680498 34.0298481 6.69709544 32.4505809 6.69709544zM20.4128686 6.7966805C18.8924039 6.7966805 17.7331546 8.04149378 17.7331546 9.55186722 17.7331546 11.0539419 18.8924039 12.3070539 20.4128686 12.3070539 21.9165326 12.3070539 23.1093834 11.0539419 23.1093834 9.55186722 23.1093834 8.04979253 21.9081323 6.7966805 20.4128686 6.7966805zM53.3422699.780082988L53.3422699 3.41078838 50.4105451 3.41078838 50.4105451.780082988 53.3422699.780082988z"/></svg>