<svg xmlns="http://www.w3.org/2000/svg" viewBox="0 0 1600 575" mask="url(#Mask-5)"><style>
@keyframes a0_t { 0% { transform: translate(-63.1px,189.5px); } 59.375% { transform: translate(-63.1px,189.5px); animation-timing-function: cubic-bezier(.2,.8,.4,1); } 71.875% { transform: translate(-63.1px,0px); } 100% { transform: translate(-63.1px,0px); } }
@keyframes a1_t { 0% { transform: translate(-63.1px,189.5px); } 53.125% { transform: translate(-63.1px,189.5px); animation-timing-function: cubic-bezier(.2,.8,.4,1); } 65.625% { transform: translate(-63.1px,0px); } 100% { transform: translate(-63.1px,0px); } }
@keyframes a2_t { 0% { transform: translate(-63.1px,189.5px); } 46.875% { transform: translate(-63.1px,189.5px); animation-timing-function: cubic-bezier(.2,.8,.4,1); } 59.375% { transform: translate(-63.1px,0px); } 100% { transform: translate(-63.1px,0px); } }
@keyframes a3_t { 0% { transform: translate(-63.1px,189.5px); } 50% { transform: translate(-63.1px,189.5px); animation-timing-function: cubic-bezier(.2,.8,.4,1); } 62.5% { transform: translate(-63.1px,0px); } 100% { transform: translate(-63.1px,0px); } }
@keyframes a4_t { 0% { transform: translate(-63.1px,189.5px); } 53.125% { transform: translate(-63.1px,189.5px); animation-timing-function: cubic-bezier(.2,.8,.4,1); } 65.625% { transform: translate(-63.1px,0px); } 100% { transform: translate(-63.1px,0px); } }
@keyframes a5_t { 0% { transform: translate(-63.1px,189.5px); } 56.25% { transform: translate(-63.1px,189.5px); animation-timing-function: cubic-bezier(.2,.8,.4,1); } 68.75% { transform: translate(-63.1px,0px); } 100% { transform: translate(-63.1px,0px); } }
@keyframes a6_t { 0% { transform: translate(-86.6px,61.5px); } 71.875% { transform: translate(-86.6px,61.5px); animation-timing-function: cubic-bezier(.2,.8,.4,1); } 84.375% { transform: translate(-86.6px,-85.4px); } 100% { transform: translate(-86.6px,-85.4px); } }
@keyframes a7_t { 0% { transform: translate(-144.7px,59.2px); } 65.625% { transform: translate(-144.7px,59.2px); animation-timing-function: cubic-bezier(.2,.8,.4,1); } 78.125% { transform: translate(-144.7px,-87.6px); animation-timing-function: cubic-bezier(.2,.8,.4,1); } 87.5% { transform: translate(-144.7px,-87.6px); } 100% { transform: translate(-144.7px,-87.6px); } }
@keyframes a8_t { 0% { transform: translate(-201.6px,186.2px); } 59.375% { transform: translate(-201.6px,186.2px); animation-timing-function: cubic-bezier(.2,.8,.4,1); } 71.875% { transform: translate(-202.7px,39.4px); } 100% { transform: translate(-202.7px,39.4px); } }
@keyframes a9_t { 0% { transform: translate(-260.7px,199.2px); } 62.5% { transform: translate(-260.7px,199.2px); animation-timing-function: cubic-bezier(.2,.8,.4,1); } 75% { transform: translate(-260.7px,52.4px); } 100% { transform: translate(-260.7px,52.4px); } }
@keyframes a10_t { 0% { transform: translate(-318.7px,69.2px); } 65.625% { transform: translate(-318.7px,69.2px); animation-timing-function: cubic-bezier(.2,.8,.4,1); } 78.125% { transform: translate(-318.7px,-77.6px); } 100% { transform: translate(-318.7px,-77.6px); } }
@keyframes a11_t { 0% { transform: translate(-375.7px,61.5px); } 68.75% { transform: translate(-375.7px,61.5px); animation-timing-function: cubic-bezier(.2,.8,.4,1); } 81.25% { transform: translate(-375.7px,-85.4px); } 100% { transform: translate(-375.7px,-85.4px); } }
@keyframes a12_t { 0% { transform: translate(-958.9px,-195.7px) rotate(-90deg) scale(.2,8.8) translate(-1693.5px,-90.7px); } 15.625% { transform: translate(-958.9px,-195.7px) rotate(-90deg) scale(.2,8.8) translate(-1693.5px,-90.7px); animation-timing-function: cubic-bezier(.2,.8,.4,1); } 62.5% { transform: translate(961.2px,-194.9px) rotate(-90deg) scale(.2,8.8) translate(-1693.5px,-90.7px); } 100% { transform: translate(961.2px,-194.9px) rotate(-90deg) scale(.2,8.8) translate(-1693.5px,-90.7px); } }
@keyframes a13_o { 0% { opacity: 0; } 84.375% { opacity: 0; animation-timing-function: cubic-bezier(.2,.8,.4,1); } 100% { opacity: 1; } }
@keyframes a14_t { 0% { transform: translate(800px,1281px); } 34.375% { transform: translate(800px,1281px); animation-timing-function: cubic-bezier(.2,.8,.4,1); } 53.125% { transform: translate(800px,521.8px); } 100% { transform: translate(800px,521.8px); } }
</style><defs><filter id="Filter-0" x="-10%" y="-19%" width="122%" height="155%" color-interpolation-filters="sRGB"><feGaussianBlur stdDeviation="20"/></filter><linearGradient id="Gradient-0" x1="340.7" y1="0" x2="340.7" y2="49.5" gradientUnits="userSpaceOnUse"><stop offset="0" stop-color="#0ff" stop-opacity="0"/><stop offset=".4" stop-color="#0ff" stop-opacity=".26"/><stop offset="1" stop-color="#0ff"/></linearGradient><linearGradient id="Gradient-1" x1="877.3" y1="0" x2="877.3" y2="150.9" gradientUnits="userSpaceOnUse"><stop offset="0" stop-color="#000"/><stop offset=".2" stop-color="#fff"/><stop offset=".8" stop-color="#fff"/><stop offset="1" stop-color="#000"/></linearGradient><linearGradient id="Gradient-2" x1="23.5" y1="0" x2="23.5" y2="13" gradientUnits="userSpaceOnUse"><stop offset="0" stop-color="#fff" stop-opacity="0"/><stop offset="1" stop-color="#000"/></linearGradient><linearGradient id="Gradient-3" x1="1179.4" y1="0" x2="1179.4" y2="181.1" gradientUnits="userSpaceOnUse"><stop offset="0" stop-color="#000"/><stop offset=".1" stop-color="#fff"/><stop offset=".5" stop-color="#fff"/><stop offset=".9" stop-color="#fff"/><stop offset="1" stop-color="#000"/></linearGradient><linearGradient id="Gradient-4" x1="800" y1="0" x2="800" y2="575" gradientUnits="userSpaceOnUse"><stop offset="0" stop-color="#000"/><stop offset=".1" stop-color="#fff"/><stop offset=".9" stop-color="#fff"/><stop offset="1" stop-color="#000"/></linearGradient><mask id="Mask-1"><rect width="1754.7" height="150.9" fill="url(#Gradient-1)" transform="translate(1121.1,21.3) rotate(-90) scale(.057,10.601) translate(-960,-90.7)"/></mask><mask id="Mask-2"><path fill="#fff" d="M1128-20.5h-1920v351h748.7h462.1h709.2Zm-709.2 351v-195c-19.4-4.9-38.9-9.7-58.4-14.6h-0.1c-19.2-4.8-38.3-9.5-57.4-14.3c-5 10.7-12.3 22.8-23.4 34.2c-41.3 42.5-100.8 40.3-114 39.5c-11.9 .8-69 3.6-109.4-37.2c-12.2-12.3-19.9-25.5-24.7-36.5l-74.7 18.5v205.4Z" fill-rule="evenodd"/></mask><mask id="Mask-3"><rect width="2361.6" height="181.1" fill="url(#Gradient-3)" transform="translate(-958.9,-195.7) rotate(-90) scale(.203,8.836) translate(-1693.5,-90.7)" style="animation: 3.2s linear both a12_t;"/></mask><mask id="Mask-4"><rect width="1600" height="575" fill="url(#Gradient-4)" transform="translate(160,-130.2)"/></mask><mask id="Mask-5"><rect width="1600" height="575" fill="#fff"/></mask></defs><g mask="url(#Mask-1)" transform="translate(-160,307.4)"><rect width="1600" height="43.2" fill="url(#Gradient-0)" opacity=".5" transform="translate(160,0)"/></g><g mask="url(#Mask-2)" transform="translate(632,20.5)"><g><path class="st0" d="M363.9 98.2l35.2 8.4v-106.6h-47v117.6c5.9-8.4 9-14.5 11.8-19.4Z" fill="#0091ff" transform="translate(-63.1,189.5)" style="animation: 3.2s linear both a0_t;"/><path class="st0" d="M341.1 131.9v-131.9h-47v161.7c18.5-6.1 33.8-15.6 47-29.8Z" fill="#0091ff" transform="translate(-63.1,189.5)" style="animation: 3.2s linear both a1_t;"/><path class="st0" d="M283.1 164.9v-164.9h-47v170.1c19.9-0.3 34.8-2.4 47-5.2Z" fill="#0091ff" transform="translate(-63.1,189.5)" style="animation: 3.2s linear both a2_t;"/><path class="st0" d="M225.1 170.1v-170.1h-47v164.7c15.3 3.7 31.2 5.1 47 5.4Z" fill="#0091ff" transform="translate(-63.1,189.5)" style="animation: 3.2s linear both a3_t;"/><path class="st0" d="M167.1 161.4v-161.4h-47v131.2c12.7 13.8 27.7 23.8 47 30.2Z" fill="#0091ff" transform="translate(-63.1,189.5)" style="animation: 3.2s linear both a4_t;"/><path class="st0" d="M98.9 98.2c2.7 4.6 5.8 10.6 11.2 18.4v-116.6h-47v106.8l35.8-8.6Z" fill="#0091ff" transform="translate(-63.1,189.5)" style="animation: 3.2s linear both a5_t;"/></g><g transform="translate(375.7,-21.2)"><g transform="translate(-63.1,199.3) translate(-23.5,-137.8)" style="animation: 3.2s linear both a6_t;"><path class="st1" d="M11.8 205.3l35.2 8.4v-62.9h-47v73.9c5.9-8.5 9-14.5 11.8-19.4Z" fill="#0ff"/><rect class="st9" width="47" height="13" fill="url(#Gradient-2)" opacity=".37" transform="translate(0,137.8)"/></g><g transform="translate(-121.2,199.3) translate(-23.5,-140.1)" style="animation: 3.2s linear both a7_t;"><path class="st1" d="M47 241.3v-88.2h-47v117.9c18.5-6 33.8-15.5 47-29.7Z" fill="#0ff"/><rect class="st8" width="47" height="13" fill="url(#Gradient-2)" opacity=".37" transform="translate(0,140.1)"/></g><g transform="translate(-178.1,199.3) translate(-23.5,-13.1)" style="animation: 3.2s linear both a8_t;"><path class="st1" d="M47 147.3v-121.2h-47v126.4c19.9-0.3 34.8-2.4 47-5.2Z" fill="#0ff"/><rect class="st7" width="47" height="13" fill="url(#Gradient-2)" opacity=".37" transform="translate(0,13.1)"/></g><g transform="translate(-237.2,199.3) translate(-23.5,-0.1)" style="animation: 3.2s linear both a9_t;"><path class="st1" d="M47 139.5v-126.4h-47v121c15.3 3.7 31.2 5.1 47 5.4Z" fill="#0ff"/><rect class="st6" width="47" height="13" fill="url(#Gradient-2)" opacity=".37" transform="translate(0,.1)"/></g><g transform="translate(-295.2,199.3) translate(-23.5,-130.1)" style="animation: 3.2s linear both a10_t;"><path class="st1" d="M47 260.8v-117.7h-47v87.5c12.7 13.8 27.7 23.8 47 30.2Z" fill="#0ff"/><rect class="st5" width="47" height="13" fill="url(#Gradient-2)" opacity=".37" transform="translate(0,130.1)"/></g><g transform="translate(-352.2,199.3) translate(-23.5,-137.8)" style="animation: 3.2s linear both a11_t;"><path class="st1" d="M35.8 205.3c2.7 4.6 5.8 10.6 11.2 18.4v-72.9h-47v63.1l35.8-8.6Z" fill="#0ff"/><rect class="st4" width="47" height="13" fill="url(#Gradient-2)" opacity=".37" transform="translate(0,137.8)"/></g></g></g><g mask="url(#Mask-4)" transform="translate(-160,130.2)"><g mask="url(#Mask-3)" transform="translate(0,200.8)"><g transform="translate(0,-200.8)"><path class="st2" d="M963 70.4c-64.3 .6-109.2-15.1-140.7-70.4c-55.7 13.4-40.4 9.7-44.2 10.7l41 294.5c1.2 8.6 9 15.1 18.1 15.1h245.8c9.2 0 16.9-6.5 18.1-15.1l41-294.5l-44.2-10.7c-30 53.1-72.6 70-134.9 70.4Z" stroke-miterlimit="10" stroke-linecap="round" stroke="#0ff" stroke-width="4" stroke-linejoin="round" fill="none"/><path class="st3" d="M807.5 220.8h-807.5" stroke-linecap="round" stroke-width="3.2" stroke="#0ff" fill="none"/><path class="st3" d="M1920 220.8h-807.5" stroke-linecap="round" stroke-width="3.2" stroke="#0ff" fill="none"/></g></g></g><g opacity="0" transform="translate(333.4,41)" style="animation: 3.2s linear both a13_o;"><path fill="#0ff" filter="url(#Filter-0)" opacity=".5" stroke="#fff" d="M-322.9-325.5h52.5v325.5h-62.3v-257.6l-65.1 37.2l-27-47Zm230.6 331.5c-25.7 0-48.5-7.1-68.4-21.3c-19.8-14.3-35.2-34.2-46.2-59.8c-11-25.6-16.5-54.8-16.5-87.7c0-32.8 5.5-62 16.5-87.6c11-25.6 26.4-45.5 46.2-59.8c19.9-14.2 42.7-21.3 68.4-21.3c25.7 0 48.5 7.1 68.3 21.3c19.9 14.3 35.3 34.2 46.3 59.8c11 25.6 16.5 54.8 16.5 87.6c0 32.9-5.5 62.1-16.5 87.7c-11 25.6-26.4 45.5-46.3 59.8c-19.8 14.2-42.6 21.3-68.3 21.3Zm0-55.8c13.6 0 25.6-4.6 35.8-13.9c10.2-9.3 18.1-22.5 23.7-39.5c5.6-17.1 8.4-36.9 8.4-59.6c0-22.6-2.8-42.4-8.4-59.5c-5.6-17-13.5-30.2-23.7-39.5c-10.2-9.3-22.2-13.9-35.8-13.9c-13.6 0-25.6 4.6-35.8 13.9c-10.2 9.3-18.1 22.5-23.7 39.5c-5.6 17.1-8.4 36.9-8.4 59.5c0 22.7 2.8 42.5 8.4 59.6c5.6 17 13.5 30.2 23.7 39.5c10.2 9.3 22.2 13.9 35.8 13.9Zm226.9-114.3c-16.4 0-31.1-3.6-43.9-10.7c-12.9-7.2-22.9-17.1-30-29.8c-7.1-12.7-10.7-27.1-10.7-43.2c0-16.2 3.6-30.6 10.7-43.3c7.1-12.7 17.1-22.6 30-29.8c12.8-7.1 27.5-10.6 43.9-10.6c16.1 0 30.7 3.5 43.7 10.7c13 7.1 23.2 17 30.5 29.7c7.3 12.7 10.9 27.1 10.9 43.3c0 16.1-3.6 30.5-10.9 43.2c-7.3 12.7-17.5 22.6-30.5 29.8c-13 7.1-27.6 10.7-43.7 10.7Zm-30.2 149.2l234.4-312.5l30.2 22.8l-234.4 312.5Zm30.2-190.6c12.1 0 22-4 29.5-11.9c7.6-7.9 11.4-18 11.4-30.4c0-12.8-3.8-23.1-11.4-31c-7.5-7.9-17.4-11.8-29.5-11.8c-11.8 0-21.4 3.9-29 11.8c-7.6 7.9-11.4 18.2-11.4 31c0 12.4 3.8 22.5 11.4 30.4c7.6 7.9 17.2 11.9 29 11.9Zm203.7 211.5c-16.1 0-30.6-3.5-43.5-10.6c-12.9-7.2-22.9-17.1-30.2-29.8c-7.3-12.7-10.9-27.1-10.9-43.3c0-16.1 3.6-30.5 10.9-43.2c7.3-12.7 17.3-22.6 30.2-29.8c12.9-7.1 27.4-10.7 43.5-10.7c16.1 0 30.6 3.6 43.5 10.7c12.8 7.2 22.9 17.1 30.2 29.8c7.3 12.7 10.9 27.1 10.9 43.2c0 16.2-3.6 30.6-10.9 43.3c-7.3 12.7-17.4 22.6-30.2 29.7c-12.9 7.2-27.4 10.7-43.5 10.7Zm0-40.9c11.8 0 21.5-3.9 29.1-11.8c7.5-7.9 11.3-18.2 11.3-31c0-12.4-3.8-22.5-11.3-30.4c-7.6-7.9-17.3-11.9-29.1-11.9c-12.1 0-21.9 3.9-29.3 11.7c-7.4 7.7-11.2 17.9-11.2 30.6c0 12.8 3.8 23.1 11.2 31c7.4 7.9 17.2 11.8 29.3 11.8Z" transform="translate(466.6,480.8)" style="isolation: isolate;"/></g><path fill="rgba(0,0,99,0.85)" stroke="#fff" stroke-width="2" d="M-322.9-325.5h52.5v325.5h-62.3v-257.6l-65.1 37.2l-27-47Zm230.6 331.5c-25.7 0-48.5-7.1-68.4-21.3c-19.8-14.3-35.2-34.2-46.2-59.8c-11-25.6-16.5-54.8-16.5-87.7c0-32.8 5.5-62 16.5-87.6c11-25.6 26.4-45.5 46.2-59.8c19.9-14.2 42.7-21.3 68.4-21.3c25.7 0 48.5 7.1 68.3 21.3c19.9 14.3 35.3 34.2 46.3 59.8c11 25.6 16.5 54.8 16.5 87.6c0 32.9-5.5 62.1-16.5 87.7c-11 25.6-26.4 45.5-46.3 59.8c-19.8 14.2-42.6 21.3-68.3 21.3Zm0-55.8c13.6 0 25.6-4.6 35.8-13.9c10.2-9.3 18.1-22.5 23.7-39.5c5.6-17.1 8.4-36.9 8.4-59.6c0-22.6-2.8-42.4-8.4-59.5c-5.6-17-13.5-30.2-23.7-39.5c-10.2-9.3-22.2-13.9-35.8-13.9c-13.6 0-25.6 4.6-35.8 13.9c-10.2 9.3-18.1 22.5-23.7 39.5c-5.6 17.1-8.4 36.9-8.4 59.5c0 22.7 2.8 42.5 8.4 59.6c5.6 17 13.5 30.2 23.7 39.5c10.2 9.3 22.2 13.9 35.8 13.9Zm226.9-114.3c-16.4 0-31.1-3.6-43.9-10.7c-12.9-7.2-22.9-17.1-30-29.8c-7.1-12.7-10.7-27.1-10.7-43.2c0-16.2 3.6-30.6 10.7-43.3c7.1-12.7 17.1-22.6 30-29.8c12.8-7.1 27.5-10.6 43.9-10.6c16.1 0 30.7 3.5 43.7 10.7c13 7.1 23.2 17 30.5 29.7c7.3 12.7 10.9 27.1 10.9 43.3c0 16.1-3.6 30.5-10.9 43.2c-7.3 12.7-17.5 22.6-30.5 29.8c-13 7.1-27.6 10.7-43.7 10.7Zm-30.2 149.2l234.4-312.5l30.2 22.8l-234.4 312.5Zm30.2-190.6c12.1 0 22-4 29.5-11.9c7.6-7.9 11.4-18 11.4-30.4c0-12.8-3.8-23.1-11.4-31c-7.5-7.9-17.4-11.8-29.5-11.8c-11.8 0-21.4 3.9-29 11.8c-7.6 7.9-11.4 18.2-11.4 31c0 12.4 3.8 22.5 11.4 30.4c7.6 7.9 17.2 11.9 29 11.9Zm203.7 211.5c-16.1 0-30.6-3.5-43.5-10.6c-12.9-7.2-22.9-17.1-30.2-29.8c-7.3-12.7-10.9-27.1-10.9-43.3c0-16.1 3.6-30.5 10.9-43.2c7.3-12.7 17.3-22.6 30.2-29.8c12.9-7.1 27.4-10.7 43.5-10.7c16.1 0 30.6 3.6 43.5 10.7c12.8 7.2 22.9 17.1 30.2 29.8c7.3 12.7 10.9 27.1 10.9 43.2c0 16.2-3.6 30.6-10.9 43.3c-7.3 12.7-17.4 22.6-30.2 29.7c-12.9 7.2-27.4 10.7-43.5 10.7Zm0-40.9c11.8 0 21.5-3.9 29.1-11.8c7.5-7.9 11.3-18.2 11.3-31c0-12.4-3.8-22.5-11.3-30.4c-7.6-7.9-17.3-11.9-29.1-11.9c-12.1 0-21.9 3.9-29.3 11.7c-7.4 7.7-11.2 17.9-11.2 30.6c0 12.8 3.8 23.1 11.2 31c7.4 7.9 17.2 11.8 29.3 11.8Z" transform="translate(800,1281)" style="isolation: isolate; animation: 3.2s linear both a14_t;"/></svg>