<svg xmlns="http://www.w3.org/2000/svg" xmlns:xlink="http://www.w3.org/1999/xlink" viewBox="0 0 1600 525"><style>
@keyframes a0_t { 0% { transform: translate(0px,-0.6px); } 20% { transform: translate(0px,-0.6px); animation-timing-function: cubic-bezier(.2,.8,.4,1); } 44% { transform: translate(0px,-365px); } 100% { transform: translate(0px,-365px); } }
@keyframes a1_t { 0% { transform: translate(952.8px,-0.2px) rotate(-107.8deg) translate(-362.7px,-363.2px); } 80% { transform: translate(952.8px,-0.2px) rotate(-107.8deg) translate(-362.7px,-363.2px); animation-timing-function: cubic-bezier(.2,.8,.4,1); } 100% { transform: translate(952.8px,-0.2px) rotate(0deg) translate(-362.7px,-363.2px); } }
@keyframes a2_o { 0% { opacity: 0; } 80% { opacity: 0; animation-timing-function: cubic-bezier(.2,.8,.4,1); } 100% { opacity: 1; } }
@keyframes a3_t { 0% { transform: translate(466.6px,429.3px); } 48% { transform: translate(466.6px,429.3px); animation-timing-function: cubic-bezier(.2,.8,.4,1); } 72% { transform: translate(466.6px,-104.7px); } 100% { transform: translate(466.6px,-104.7px); } }
</style><defs><filter id="Filter-0" x="-10%" y="-19%" width="121%" height="155%" color-interpolation-filters="sRGB"><feGaussianBlur stdDeviation="20"/></filter><linearGradient id="Gradient-0" x1="340.7" y1="0" x2="340.7" y2="49.5" gradientUnits="userSpaceOnUse"><stop offset="0" stop-color="#0ff" stop-opacity="0"/><stop offset=".4" stop-color="#0ff" stop-opacity=".26"/><stop offset="1" stop-color="#0ff"/></linearGradient><linearGradient id="Gradient-1" x1="960" y1="0" x2="960" y2="181.3" gradientUnits="userSpaceOnUse"><stop offset="0" stop-color="#000"/><stop offset=".2" stop-color="#fff"/><stop offset=".5" stop-color="#fff"/><stop offset=".8" stop-color="#fff"/><stop offset="1" stop-color="#000"/></linearGradient><mask id="Mask-1"><rect width="1754.7" height="181.1" fill="url(#Gradient-1)" transform="translate(961.1,21.3) rotate(-90) scale(.057,10.601) translate(-960,-90.7)"/></mask><mask id="Mask-2"><rect width="1751.5" height="181.1" fill="url(#Gradient-1)" transform="translate(160.1,-356.9) rotate(-90) scale(.203,8.833) translate(-1751.5,0)"/></mask><mask id="Mask-3"><rect x="-333.4" y="-583.5" width="1600" height="525" fill="#fff"/></mask></defs><g mask="url(#Mask-1)" transform="translate(804.3,336) scale(.838,1) translate(-960,-21.6)"><rect width="1920" height="43.2" fill="url(#Gradient-0)" opacity=".5"/></g><g mask="url(#Mask-2)" transform="translate(-160,358)"><g transform="translate(960,195) translate(-960,-195.6)" style="animation: 2.5s linear both a0_t;"><g transform="translate(-1.5,0)"><path class="st0" d="M617.5 364.7c0-187.3 152.2-339.2 340-339.2c187.8 0 340 151.9 340 339.2c-2.9 0-53.4 0-53.4 0c0-155.2-128.3-281.1-286.6-281.1c-0.3 0-0.5 0-0.8 0c-158 .4-285.9 126.1-285.9 281.1" stroke-width="2" stroke="#0ff" stroke-miterlimit="10" fill="none"/></g><g transform="translate(-1.5,0)"><path class="st1" d="M934 127.4l-5.2 .5l-1.6-14.7l5.2-0.5Z" fill="#0ff"/><path class="st1" d="M908.1 130.9l-5.1 1l-3.3-14.4l5.1-1Z" fill="#0ff"/><path class="st1" d="M882.8 137l-5 1.5l-4.9-14.1l5-1.4Z" fill="#0ff"/><path class="st1" d="M858.3 145.4l-4.8 2l-6.4-13.5l4.7-1.9Z" fill="#0ff"/><path class="st1" d="M812.7 169.3l-4.2 2.8l-9.3-11.9l4.2-2.9Z" fill="#0ff"/><path class="st1" d="M792.2 184.3l-3.8 3.3l-10.6-11l3.8-3.2Z" fill="#0ff"/><path class="st1" d="M773.5 201.4l-3.4 3.5l-11.8-9.8l3.5-3.6Z" fill="#0ff"/><path class="st1" d="M756.9 220.1l-3.1 3.9l-12.8-8.7l3-3.9Z" fill="#0ff"/><path class="st1" d="M730.3 261.9l-2.2 4.4l-14.4-6l2.1-4.4Z" fill="#0ff"/><path class="st1" d="M720.6 284.4l-1.6 4.6l-15.1-4.5l1.7-4.6Z" fill="#0ff"/><path class="st1" d="M713.6 307.8l-1.1 4.8l-15.5-3.1l1.1-4.7Z" fill="#0ff"/><path class="st1" d="M709.2 331.8l-0.5 4.8l-15.8-1.5l.6-4.8Z" fill="#0ff"/><path class="st1" d="M1221.6 330.3l.6 4.8l-15.8 1.5l-0.5-4.8Z" fill="#0ff"/><path class="st1" d="M1217 304.8l1.1 4.7l-15.5 3.1l-1.1-4.8Z" fill="#0ff"/><path class="st1" d="M1209.6 279.9l1.6 4.6l-15.1 4.5l-1.6-4.6Z" fill="#0ff"/><path class="st1" d="M1199.3 255.9l2.1 4.4l-14.4 6l-2.2-4.4Z" fill="#0ff"/><path class="st1" d="M1171.1 211.4l3 3.9l-12.8 8.7l-3.1-3.9Z" fill="#0ff"/><path class="st1" d="M1153.3 191.5l3.5 3.6l-11.8 9.8l-3.4-3.5Z" fill="#0ff"/><path class="st1" d="M1133.5 173.4l3.8 3.2l-10.6 11l-3.8-3.3Z" fill="#0ff"/><path class="st1" d="M1111.7 157.3l4.2 2.9l-9.3 11.9l-4.2-2.8Z" fill="#0ff"/><path class="st1" d="M1063.3 132l4.7 1.9l-6.4 13.5l-4.8-2Z" fill="#0ff"/><path class="st1" d="M1037.2 123l5 1.4l-4.9 14.1l-5-1.5Z" fill="#0ff"/><path class="st1" d="M1010.3 116.5l5.1 1l-3.3 14.4l-5.1-1Z" fill="#0ff"/><path class="st1" d="M982.8 112.7l5.1 .5l-1.6 14.7l-5.2-0.5Z" fill="#0ff"/><rect x="954.6" y="111.3" class="st1" width="6.4" height="54.2" fill="#0ff"/><path class="st1" d="M856 190.2l-5.5 3.1l-28.7-47l5.5-3Z" fill="#0ff"/><path class="st1" d="M778.3 261.2l-3.2 5.2l-49.7-27.1l3.2-5.2Z" fill="#0ff"/><rect x="691.2" y="359.3" class="st1" width="57.4" height="6" fill="#0ff"/><rect x="1166.5" y="359.7" class="st1" width="57.4" height="6" fill="#0ff"/><path class="st1" d="M1186.8 234.4l3.2 5.3l-49.8 27.1l-3.2-5.3Z" fill="#0ff"/><path class="st1" d="M1088.2 143.5l5.5 3l-28.7 47l-5.6-3.1Z" fill="#0ff"/></g><path class="st2" d="M669.4 362.9h-669.4" stroke-linecap="round" stroke-width="3" stroke="#0ff" fill="none"/><path class="st2" d="M1920 362.9h-677.3" stroke-linecap="round" stroke-width="3" stroke="#0ff" fill="none"/></g><g transform="translate(952.8,-0.2) rotate(-107.8) translate(-362.7,-363.2)" style="animation: 2.5s linear both a1_t;"><path class="st0" d="M364.8 24.5c-187.8 0-340 151.9-340 339.2h53.4c-0.1-155 127.8-280.6 285.8-281c.3 0 .5 0 .8 0c25.5 0 50.1 3.3 73.6 9.4l14.6-56c-28.2-7.5-57.7-11.6-88.2-11.6Z" fill="#0ff"/></g></g><g opacity="0" transform="translate(333.4,.4)" style="animation: 2.5s linear both a2_o;"><path fill="#0ff" filter="url(#Filter-0)" opacity=".5" stroke="#fff" d="M-314.1-205.5c19.8 0 37.5 4.4 53 13.2c15.5 8.9 27.5 21.2 36 37c8.6 15.8 12.8 33.5 12.8 53c0 20.8-4.6 39.4-13.9 56c-9.3 16.6-22.3 29.6-38.9 38.9c-16.5 9.3-35.1 13.9-55.5 13.9c-42.2 0-73.2-14.1-93-42.3c-19.9-28.2-29.8-66.3-29.8-114.4c0-56.4 10.4-100.8 31.2-133.2c20.7-32.4 54.2-48.6 100.4-48.6c16.8 0 33.3 2.9 49.5 8.6c16.3 5.7 30.6 14 43 24.9l-21.8 44.6c-11.5-8.7-22.3-14.9-32.6-18.6c-10.2-3.7-21.3-5.6-33.4-5.6c-27.3 0-46.8 8.4-58.6 25.1c-11.8 16.8-18.5 41.1-20 73c8.3-8 18.7-14.3 31.1-18.8c12.4-4.5 25.9-6.7 40.5-6.7Zm-10.7 159c15.2 0 27.5-5.3 37-15.8c9.4-10.5 14.1-23.1 14.1-37.7c0-14.9-4.5-27.2-13.7-36.9c-9.1-9.8-21.6-14.7-37.4-14.7c-15.8 0-28.7 4.8-38.6 14.4c-9.9 9.6-14.9 21.1-14.9 34.4c0 15.8 5 29.2 14.9 40c9.9 10.9 22.8 16.3 38.6 16.3Zm260.4 52.5c-25.7 0-48.5-7.1-68.4-21.3c-19.8-14.3-35.2-34.2-46.2-59.8c-11-25.6-16.5-54.8-16.5-87.7c0-32.8 5.5-62 16.5-87.6c11-25.6 26.4-45.5 46.2-59.8c19.9-14.2 42.7-21.3 68.4-21.3c25.7 0 48.5 7.1 68.4 21.3c19.8 14.3 35.2 34.2 46.2 59.8c11 25.6 16.5 54.8 16.5 87.6c0 32.9-5.5 62.1-16.5 87.7c-11 25.6-26.4 45.5-46.2 59.8c-19.9 14.2-42.7 21.3-68.4 21.3Zm0-55.8c13.6 0 25.6-4.6 35.8-13.9c10.2-9.3 18.1-22.5 23.7-39.5c5.6-17.1 8.4-36.9 8.4-59.6c0-22.6-2.8-42.4-8.4-59.5c-5.6-17-13.5-30.2-23.7-39.5c-10.2-9.3-22.2-13.9-35.8-13.9c-13.6 0-25.6 4.6-35.8 13.9c-10.2 9.3-18.1 22.5-23.7 39.5c-5.6 17.1-8.4 36.9-8.4 59.5c0 22.7 2.8 42.5 8.4 59.6c5.6 17 13.5 30.2 23.7 39.5c10.2 9.3 22.2 13.9 35.8 13.9Zm226.9-114.3c-16.4 0-31.1-3.6-43.9-10.7c-12.9-7.2-22.9-17.1-30-29.8c-7.1-12.7-10.7-27.1-10.7-43.2c0-16.2 3.6-30.6 10.7-43.3c7.1-12.7 17.1-22.6 30-29.8c12.8-7.1 27.5-10.6 43.9-10.6c16.1 0 30.7 3.5 43.7 10.7c13.1 7.1 23.2 17 30.5 29.7c7.3 12.7 10.9 27.1 10.9 43.3c0 16.1-3.6 30.5-10.9 43.2c-7.3 12.7-17.4 22.6-30.5 29.8c-13 7.1-27.6 10.7-43.7 10.7Zm-30.2 149.2l234.4-312.5l30.2 22.8l-234.4 312.5Zm30.2-190.6c12.1 0 22-4 29.6-11.9c7.5-7.9 11.3-18 11.3-30.4c0-12.8-3.8-23.1-11.3-31c-7.6-7.9-17.5-11.8-29.6-11.8c-11.8 0-21.4 3.9-29 11.8c-7.6 7.9-11.4 18.2-11.4 31c0 12.4 3.8 22.5 11.4 30.4c7.6 7.9 17.2 11.9 29 11.9Zm203.7 211.5c-16.1 0-30.6-3.5-43.5-10.6c-12.8-7.2-22.9-17.1-30.2-29.8c-7.3-12.7-10.9-27.1-10.9-43.3c0-16.1 3.6-30.5 10.9-43.2c7.3-12.7 17.4-22.6 30.2-29.8c12.9-7.1 27.4-10.7 43.5-10.7c16.1 0 30.6 3.6 43.5 10.7c12.8 7.2 22.9 17.1 30.2 29.8c7.3 12.7 10.9 27.1 10.9 43.2c0 16.2-3.6 30.6-10.9 43.3c-7.3 12.7-17.4 22.6-30.2 29.7c-12.9 7.2-27.4 10.7-43.5 10.7Zm0-40.9c11.8 0 21.5-3.9 29.1-11.8c7.6-7.9 11.3-18.2 11.3-31c0-12.4-3.7-22.5-11.3-30.4c-7.6-7.9-17.3-11.9-29.1-11.9c-12.1 0-21.9 3.9-29.3 11.7c-7.4 7.7-11.2 17.9-11.2 30.6c0 12.8 3.8 23.1 11.2 31c7.4 7.9 17.2 11.8 29.3 11.8Z" transform="translate(466.6,480.8)" style="isolation: isolate;"/></g><g mask="url(#Mask-3)" transform="translate(333.4,583.5)"><path fill="rgba(0,0,99,0.85)" stroke="#fff" stroke-width="2" d="M-314.1-205.5c19.8 0 37.5 4.4 53 13.2c15.5 8.9 27.5 21.2 36 37c8.6 15.8 12.8 33.5 12.8 53c0 20.8-4.6 39.4-13.9 56c-9.3 16.6-22.3 29.6-38.9 38.9c-16.5 9.3-35.1 13.9-55.5 13.9c-42.2 0-73.2-14.1-93-42.3c-19.9-28.2-29.8-66.3-29.8-114.4c0-56.4 10.4-100.8 31.2-133.2c20.7-32.4 54.2-48.6 100.4-48.6c16.8 0 33.3 2.9 49.5 8.6c16.3 5.7 30.6 14 43 24.9l-21.8 44.6c-11.5-8.7-22.3-14.9-32.6-18.6c-10.2-3.7-21.3-5.6-33.4-5.6c-27.3 0-46.8 8.4-58.6 25.1c-11.8 16.8-18.5 41.1-20 73c8.3-8 18.7-14.3 31.1-18.8c12.4-4.5 25.9-6.7 40.5-6.7Zm-10.7 159c15.2 0 27.5-5.3 37-15.8c9.4-10.5 14.1-23.1 14.1-37.7c0-14.9-4.5-27.2-13.7-36.9c-9.1-9.8-21.6-14.7-37.4-14.7c-15.8 0-28.7 4.8-38.6 14.4c-9.9 9.6-14.9 21.1-14.9 34.4c0 15.8 5 29.2 14.9 40c9.9 10.9 22.8 16.3 38.6 16.3Zm260.4 52.5c-25.7 0-48.5-7.1-68.4-21.3c-19.8-14.3-35.2-34.2-46.2-59.8c-11-25.6-16.5-54.8-16.5-87.7c0-32.8 5.5-62 16.5-87.6c11-25.6 26.4-45.5 46.2-59.8c19.9-14.2 42.7-21.3 68.4-21.3c25.7 0 48.5 7.1 68.4 21.3c19.8 14.3 35.2 34.2 46.2 59.8c11 25.6 16.5 54.8 16.5 87.6c0 32.9-5.5 62.1-16.5 87.7c-11 25.6-26.4 45.5-46.2 59.8c-19.9 14.2-42.7 21.3-68.4 21.3Zm0-55.8c13.6 0 25.6-4.6 35.8-13.9c10.2-9.3 18.1-22.5 23.7-39.5c5.6-17.1 8.4-36.9 8.4-59.6c0-22.6-2.8-42.4-8.4-59.5c-5.6-17-13.5-30.2-23.7-39.5c-10.2-9.3-22.2-13.9-35.8-13.9c-13.6 0-25.6 4.6-35.8 13.9c-10.2 9.3-18.1 22.5-23.7 39.5c-5.6 17.1-8.4 36.9-8.4 59.5c0 22.7 2.8 42.5 8.4 59.6c5.6 17 13.5 30.2 23.7 39.5c10.2 9.3 22.2 13.9 35.8 13.9Zm226.9-114.3c-16.4 0-31.1-3.6-43.9-10.7c-12.9-7.2-22.9-17.1-30-29.8c-7.1-12.7-10.7-27.1-10.7-43.2c0-16.2 3.6-30.6 10.7-43.3c7.1-12.7 17.1-22.6 30-29.8c12.8-7.1 27.5-10.6 43.9-10.6c16.1 0 30.7 3.5 43.7 10.7c13.1 7.1 23.2 17 30.5 29.7c7.3 12.7 10.9 27.1 10.9 43.3c0 16.1-3.6 30.5-10.9 43.2c-7.3 12.7-17.4 22.6-30.5 29.8c-13 7.1-27.6 10.7-43.7 10.7Zm-30.2 149.2l234.4-312.5l30.2 22.8l-234.4 312.5Zm30.2-190.6c12.1 0 22-4 29.6-11.9c7.5-7.9 11.3-18 11.3-30.4c0-12.8-3.8-23.1-11.3-31c-7.6-7.9-17.5-11.8-29.6-11.8c-11.8 0-21.4 3.9-29 11.8c-7.6 7.9-11.4 18.2-11.4 31c0 12.4 3.8 22.5 11.4 30.4c7.6 7.9 17.2 11.9 29 11.9Zm203.7 211.5c-16.1 0-30.6-3.5-43.5-10.6c-12.8-7.2-22.9-17.1-30.2-29.8c-7.3-12.7-10.9-27.1-10.9-43.3c0-16.1 3.6-30.5 10.9-43.2c7.3-12.7 17.4-22.6 30.2-29.8c12.9-7.1 27.4-10.7 43.5-10.7c16.1 0 30.6 3.6 43.5 10.7c12.8 7.2 22.9 17.1 30.2 29.8c7.3 12.7 10.9 27.1 10.9 43.2c0 16.2-3.6 30.6-10.9 43.3c-7.3 12.7-17.4 22.6-30.2 29.7c-12.9 7.2-27.4 10.7-43.5 10.7Zm0-40.9c11.8 0 21.5-3.9 29.1-11.8c7.6-7.9 11.3-18.2 11.3-31c0-12.4-3.7-22.5-11.3-30.4c-7.6-7.9-17.3-11.9-29.1-11.9c-12.1 0-21.9 3.9-29.3 11.7c-7.4 7.7-11.2 17.9-11.2 30.6c0 12.8 3.8 23.1 11.2 31c7.4 7.9 17.2 11.8 29.3 11.8Z" transform="translate(466.6,429.3)" style="isolation: isolate; animation: 2.5s linear both a3_t;"/></g></svg>