<svg xmlns="http://www.w3.org/2000/svg" xmlns:xlink="http://www.w3.org/1999/xlink" viewBox="0 0 1600 575"><style>
@keyframes a0_o { 0% { opacity: 0; } 50% { opacity: 0; animation-timing-function: cubic-bezier(.2,.8,.4,1); } 75% { opacity: 1; } 100% { opacity: 1; } }
@keyframes a1_t { 0% { transform: translate(1742.5px,1181.2px); } 25% { transform: translate(1742.5px,1181.2px); animation-timing-function: cubic-bezier(.2,.8,.4,1); } 55% { transform: translate(1741px,621.7px); } 100% { transform: translate(1741px,621.7px); } }
@keyframes a2_t { 0% { transform: translate(-1430.3px,-258.8px); } 35% { transform: translate(-1430.3px,-258.8px); animation-timing-function: cubic-bezier(.2,.5,.5,.9); } 100% { transform: translate(205px,-258.8px); } }
@keyframes a3_o { 0% { opacity: 0; } 70% { opacity: 0; animation-timing-function: cubic-bezier(.2,.5,.5,.9); } 80% { opacity: 1; } 100% { opacity: 1; } }
</style><defs><filter id="Filter-0" x="-10%" y="-19%" width="123%" height="155%" color-interpolation-filters="sRGB"><feGaussianBlur stdDeviation="20"/></filter><filter id="Filter-1" x="-90%" y="-90%" width="370%" height="370%" color-interpolation-filters="sRGB"><feGaussianBlur stdDeviation="3.6"/></filter><linearGradient id="Gradient-0" x1="340.7" y1="0" x2="340.7" y2="49.5" gradientUnits="userSpaceOnUse"><stop offset="0" stop-color="#0ff" stop-opacity="0"/><stop offset=".4" stop-color="#0ff" stop-opacity=".26"/><stop offset="1" stop-color="#0ff"/></linearGradient><linearGradient id="Gradient-1" x1="960" y1="0" x2="960" y2="181.3" gradientUnits="userSpaceOnUse"><stop offset="0" stop-color="#000"/><stop offset=".2" stop-color="#fff"/><stop offset=".5" stop-color="#fff"/><stop offset=".8" stop-color="#fff"/><stop offset="1" stop-color="#000"/></linearGradient><linearGradient id="Gradient-2" x1="800" y1="0" x2="800" y2="575" gradientUnits="userSpaceOnUse"><stop offset="0" stop-color="#000"/><stop offset=".1" stop-color="#fff"/><stop offset="1" stop-color="#fff"/></linearGradient><linearGradient id="Gradient-3" x1="0" y1="525" x2="1600" y2="525" gradientUnits="userSpaceOnUse"><stop offset="0" stop-color="#000"/><stop offset=".1" stop-color="#fff"/><stop offset=".9" stop-color="#fff"/><stop offset="1" stop-color="#000"/></linearGradient><linearGradient id="Gradient-4" x1="0" y1="0" x2="1600" y2="0" gradientUnits="userSpaceOnUse"><stop offset="0" stop-color="#000"/><stop offset=".1" stop-color="#fff"/><stop offset=".9" stop-color="#fff"/><stop offset="1" stop-color="#000"/></linearGradient><mask id="Mask-1"><rect width="1754.7" height="181.1" fill="url(#Gradient-1)" transform="translate(961.1,21.3) rotate(-90) scale(.057,10.601) translate(-960,-90.7)"/></mask><mask id="Mask-2"><rect width="1600" height="575" fill="url(#Gradient-2)" transform="translate(-209.1,116.9)"/></mask><mask id="Mask-3"><rect width="1600" height="587" fill="url(#Gradient-3)" transform="translate(-626.1,65.7) translate(-804.3,-324.5)" style="animation: 2s linear both a2_t;"/></mask><mask id="Mask-4"><rect width="1600" height="575" fill="url(#Gradient-4)" transform="translate(941,116.9)"/></mask></defs><g mask="url(#Mask-4)" transform="translate(-942.6,-116.9)"><g mask="url(#Mask-1)" transform="translate(1746.8,515.8) scale(.838,1) translate(-960,-21.6)"><rect width="1920" height="43.2" fill="url(#Gradient-0)" opacity=".5"/></g><g mask="url(#Mask-2)" transform="translate(1151.7,0)"><g transform="translate(-1.5,-0.2)"><path opacity=".24" fill="none" stroke="#1ef" stroke-width="3" stroke-linecap="round" stroke-linejoin="round" stroke-miterlimit="10" d="M1.5 539.3v19.7"/><path opacity=".24" fill="none" stroke="#1ef" stroke-width="3" stroke-linecap="round" stroke-linejoin="round" stroke-miterlimit="10" d="M60.6 539.3v19.7"/><path opacity=".24" fill="none" stroke="#1ef" stroke-width="3" stroke-linecap="round" stroke-linejoin="round" stroke-miterlimit="10" d="M119.7 539.3v19.7"/><path opacity=".24" fill="none" stroke="#1ef" stroke-width="3" stroke-linecap="round" stroke-linejoin="round" stroke-miterlimit="10" d="M178.8 539.3v19.7"/><path opacity=".24" fill="none" stroke="#1ef" stroke-width="3" stroke-linecap="round" stroke-linejoin="round" stroke-miterlimit="10" d="M237.8 539.3v19.7"/><path opacity=".24" fill="none" stroke="#1ef" stroke-width="3" stroke-linecap="round" stroke-linejoin="round" stroke-miterlimit="10" d="M296.9 539.3v19.7"/><path opacity=".24" fill="none" stroke="#1ef" stroke-width="3" stroke-linecap="round" stroke-linejoin="round" stroke-miterlimit="10" d="M356 539.3v19.7"/><path opacity=".24" fill="none" stroke="#1ef" stroke-width="3" stroke-linecap="round" stroke-linejoin="round" stroke-miterlimit="10" d="M415.1 539.3v19.7"/><path opacity=".24" fill="none" stroke="#1ef" stroke-width="3" stroke-linecap="round" stroke-linejoin="round" stroke-miterlimit="10" d="M474.2 539.3v19.7"/><path opacity=".24" fill="none" stroke="#1ef" stroke-width="3" stroke-linecap="round" stroke-linejoin="round" stroke-miterlimit="10" d="M533.3 539.3v19.7"/><path opacity=".24" fill="none" stroke="#1ef" stroke-width="3" stroke-linecap="round" stroke-linejoin="round" stroke-miterlimit="10" d="M592.4 539.3v19.7"/><path opacity=".24" fill="none" stroke="#1ef" stroke-width="3" stroke-linecap="round" stroke-linejoin="round" stroke-miterlimit="10" d="M651.5 539.3v19.7"/><path opacity=".24" fill="none" stroke="#1ef" stroke-width="3" stroke-linecap="round" stroke-linejoin="round" stroke-miterlimit="10" d="M710.5 539.3v19.7"/><path opacity=".24" fill="none" stroke="#1ef" stroke-width="3" stroke-linecap="round" stroke-linejoin="round" stroke-miterlimit="10" d="M769.6 539.3v19.7"/><path opacity=".24" fill="none" stroke="#1ef" stroke-width="3" stroke-linecap="round" stroke-linejoin="round" stroke-miterlimit="10" d="M828.7 539.3v19.7"/><path opacity=".24" fill="none" stroke="#1ef" stroke-width="3" stroke-linecap="round" stroke-linejoin="round" stroke-miterlimit="10" d="M887.8 539.3v19.7"/><path opacity=".24" fill="none" stroke="#1ef" stroke-width="3" stroke-linecap="round" stroke-linejoin="round" stroke-miterlimit="10" d="M946.9 539.3v19.7"/><path opacity=".24" fill="none" stroke="#1ef" stroke-width="3" stroke-linecap="round" stroke-linejoin="round" stroke-miterlimit="10" d="M1006 539.3v19.7"/><path opacity=".24" fill="none" stroke="#1ef" stroke-width="3" stroke-linecap="round" stroke-linejoin="round" stroke-miterlimit="10" d="M1065.1 539.3v19.7"/><path opacity=".24" fill="none" stroke="#1ef" stroke-width="3" stroke-linecap="round" stroke-linejoin="round" stroke-miterlimit="10" d="M1124.2 539.3v19.7"/><path opacity=".24" fill="none" stroke="#1ef" stroke-width="3" stroke-linecap="round" stroke-linejoin="round" stroke-miterlimit="10" d="M1183.2 539.3v19.7"/></g><g transform="translate(-1.5,-0.2)"><path opacity=".24" fill="none" stroke="#0ff" stroke-width=".5" stroke-linecap="round" stroke-linejoin="round" stroke-miterlimit="10" d="M1.5 .2v536.7"/><path opacity=".24" fill="none" stroke="#0ff" stroke-width=".5" stroke-linecap="round" stroke-linejoin="round" stroke-miterlimit="10" d="M60.6 .3v536.6"/><path opacity=".24" fill="none" stroke="#0ff" stroke-width=".5" stroke-linecap="round" stroke-linejoin="round" stroke-miterlimit="10" d="M119.7 .3v536.6"/><path opacity=".24" fill="none" stroke="#0ff" stroke-width=".5" stroke-linecap="round" stroke-linejoin="round" stroke-miterlimit="10" d="M178.8 .3v536.6"/><path opacity=".24" fill="none" stroke="#0ff" stroke-width=".5" stroke-linecap="round" stroke-linejoin="round" stroke-miterlimit="10" d="M237.8 .3v536.6"/><path opacity=".24" fill="none" stroke="#0ff" stroke-width=".5" stroke-linecap="round" stroke-linejoin="round" stroke-miterlimit="10" d="M296.9 .3v536.6"/><path opacity=".24" fill="none" stroke="#0ff" stroke-width=".5" stroke-linecap="round" stroke-linejoin="round" stroke-miterlimit="10" d="M356 .3v536.6"/><path opacity=".24" fill="none" stroke="#0ff" stroke-width=".5" stroke-linecap="round" stroke-linejoin="round" stroke-miterlimit="10" d="M415.1 .3v536.6"/><path opacity=".24" fill="none" stroke="#0ff" stroke-width=".5" stroke-linecap="round" stroke-linejoin="round" stroke-miterlimit="10" d="M474.2 .3v536.6"/><path opacity=".24" fill="none" stroke="#0ff" stroke-width=".5" stroke-linecap="round" stroke-linejoin="round" stroke-miterlimit="10" d="M533.3 .3v536.6"/><path opacity=".24" fill="none" stroke="#0ff" stroke-width=".5" stroke-linecap="round" stroke-linejoin="round" stroke-miterlimit="10" d="M592.4 .3v536.6"/><path opacity=".24" fill="none" stroke="#0ff" stroke-width=".5" stroke-linecap="round" stroke-linejoin="round" stroke-miterlimit="10" d="M651.5 .3v536.6"/><path opacity=".24" fill="none" stroke="#0ff" stroke-width=".5" stroke-linecap="round" stroke-linejoin="round" stroke-miterlimit="10" d="M710.5 .3v536.6"/><path opacity=".24" fill="none" stroke="#0ff" stroke-width=".5" stroke-linecap="round" stroke-linejoin="round" stroke-miterlimit="10" d="M769.6 .3v536.6"/><path opacity=".24" fill="none" stroke="#0ff" stroke-width=".5" stroke-linecap="round" stroke-linejoin="round" stroke-miterlimit="10" d="M828.7 .3v536.6"/><path opacity=".24" fill="none" stroke="#0ff" stroke-width=".5" stroke-linecap="round" stroke-linejoin="round" stroke-miterlimit="10" d="M887.8 .3v536.6"/><path opacity=".24" fill="none" stroke="#0ff" stroke-width=".5" stroke-linecap="round" stroke-linejoin="round" stroke-miterlimit="10" d="M946.9 .3v536.6"/><path opacity=".24" fill="none" stroke="#0ff" stroke-width=".5" stroke-linecap="round" stroke-linejoin="round" stroke-miterlimit="10" d="M946.9 536.9"/><path opacity=".24" fill="none" stroke="#0ff" stroke-width=".5" stroke-linecap="round" stroke-linejoin="round" stroke-miterlimit="10" d="M946.9 .3"/><path opacity=".24" fill="none" stroke="#0ff" stroke-width=".5" stroke-linecap="round" stroke-linejoin="round" stroke-miterlimit="10" d="M1006 .3v536.6"/><path opacity=".24" fill="none" stroke="#0ff" stroke-width=".5" stroke-linecap="round" stroke-linejoin="round" stroke-miterlimit="10" d="M1065.1 .3v536.6"/><path opacity=".24" fill="none" stroke="#0ff" stroke-width=".5" stroke-linecap="round" stroke-linejoin="round" stroke-miterlimit="10" d="M1124.2 .3v536.6"/><path opacity=".24" fill="none" stroke="#0ff" stroke-width=".5" stroke-linecap="round" stroke-linejoin="round" stroke-miterlimit="10" d="M1183.2 .3v536.6"/></g></g><g opacity="0" transform="translate(1275.9,140.9)" style="animation: 2s linear both a0_o;"><path fill="#0ff" filter="url(#Filter-0)" opacity=".5" stroke="#fff" d="M-303.9-331.5c42.2 0 73.2 14 93 42c19.9 28.1 29.8 66.1 29.8 114.2c0 56.4-10.5 100.8-31.4 133.2c-20.9 32.4-54.3 48.6-100.2 48.6c-17.1 0-33.7-2.9-50-8.6c-16.3-5.7-30.6-14-43-24.9l22.3-44.6c11.5 9 22.3 15.3 32.3 19.1c10.1 3.7 21.3 5.5 33.7 5.5c27.3 0 46.8-8.4 58.6-25.3c11.8-16.9 18.5-41.5 20-73.7c-8.3 8.4-18.8 14.9-31.4 19.5c-12.5 4.7-26.1 7-40.7 7c-19.8 0-37.4-4.4-52.7-13.3c-15.4-8.8-27.3-21.1-35.8-36.9c-8.6-15.8-12.8-33.7-12.8-53.5c0-20.8 4.6-39.4 13.9-55.8c9.3-16.4 22.2-29.3 38.6-38.6c16.5-9.3 35.1-13.9 55.8-13.9Zm4.2 157.6c15.8 0 28.6-4.7 38.4-14.2c9.7-9.4 14.6-21 14.6-34.6c0-15.8-4.9-29.2-14.6-40c-9.8-10.9-22.7-16.3-38.9-16.3c-14.8 0-27 5.3-36.5 15.8c-9.4 10.5-14.1 23.1-14.1 37.7c0 14.9 4.5 27.2 13.7 36.9c9.1 9.8 21.6 14.7 37.4 14.7Zm286.5 6.5c15.8 6.5 28.4 16.7 37.8 30.5c9.5 13.8 14.2 29.6 14.2 47.6c0 29.2-10.2 52.3-30.7 69.5c-20.4 17.2-48 25.8-82.7 25.8c-20.2 0-38.5-2.2-55.1-6.7c-16.6-4.5-33.7-12.8-51.4-24.9l19.1-49.7c11.4 8.7 24.2 15.2 38.3 19.7c14.1 4.5 27.5 6.8 40.2 6.8c17.7 0 31.9-4.1 42.6-12.1c10.7-8.1 16-19.4 16-34c0-13.6-5.7-24.6-17.2-33c-11.4-8.3-27.9-12.5-49.3-12.5h-21.8v-49.8h21.8c20.2 0 35.4-4.1 45.8-12.3c10.4-8.2 15.6-18.8 15.6-31.9c0-12.4-5.1-22.4-15.3-30.2c-10.3-7.7-24.1-11.6-41.4-11.6c-10.6 0-21.7 1.9-33.5 5.8c-11.8 3.9-22.8 9.2-33 16l-19.1-47.8c16.1-11.5 32.2-19.3 48.1-23.3c16-4 34.1-6 54.2-6c20.5 0 38.5 3.6 54.2 10.9c15.6 7.3 27.7 17.3 36 30.2c8.4 12.9 12.6 27.5 12.6 44c0 17.3-4.2 33-12.6 47.1c-8.3 14.2-19.5 24.8-33.4 31.9Zm144.6 3.3c-16.5 0-31.1-3.6-44-10.7c-12.8-7.2-22.8-17.1-30-29.8c-7.1-12.7-10.7-27.1-10.7-43.2c0-16.2 3.6-30.6 10.7-43.3c7.2-12.7 17.2-22.6 30-29.8c12.9-7.1 27.5-10.6 44-10.6c16.1 0 30.7 3.5 43.7 10.7c13 7.1 23.1 17 30.4 29.7c7.3 12.7 11 27.1 11 43.3c0 16.1-3.7 30.5-11 43.2c-7.3 12.7-17.4 22.6-30.4 29.8c-13 7.1-27.6 10.7-43.7 10.7Zm-30.3 149.2l234.4-312.5l30.2 22.8l-234.3 312.5Zm30.3-190.6c12.1 0 21.9-4 29.5-11.9c7.6-7.9 11.4-18 11.4-30.4c0-12.8-3.8-23.1-11.4-31c-7.6-7.9-17.4-11.8-29.5-11.8c-11.8 0-21.5 3.9-29.1 11.8c-7.6 7.9-11.4 18.2-11.4 31c0 12.4 3.8 22.5 11.4 30.4c7.6 7.9 17.3 11.9 29.1 11.9Zm203.6 211.5c-16.1 0-30.6-3.5-43.4-10.6c-12.9-7.2-23-17.1-30.3-29.8c-7.3-12.7-10.9-27.1-10.9-43.3c0-16.1 3.6-30.5 10.9-43.2c7.3-12.7 17.4-22.6 30.3-29.8c12.8-7.1 27.3-10.7 43.4-10.7c16.2 0 30.6 3.6 43.5 10.7c12.9 7.2 23 17.1 30.2 29.8c7.3 12.7 11 27.1 11 43.2c0 16.2-3.7 30.6-11 43.3c-7.2 12.7-17.3 22.6-30.2 29.7c-12.9 7.2-27.3 10.7-43.5 10.7Zm0-40.9c11.8 0 21.5-3.9 29.1-11.8c7.6-7.9 11.4-18.2 11.4-31c0-12.4-3.8-22.5-11.4-30.4c-7.6-7.9-17.3-11.9-29.1-11.9c-12.1 0-21.8 3.9-29.3 11.7c-7.4 7.7-11.1 17.9-11.1 30.6c0 12.8 3.7 23.1 11.1 31c7.5 7.9 17.2 11.8 29.3 11.8Z" transform="translate(466.6,480.8)" style="isolation: isolate;"/></g><path fill="rgba(0,0,99,0.85)" stroke="#fff" stroke-width="2" d="M-303.9-331.5c42.2 0 73.2 14 93 42c19.9 28.1 29.8 66.1 29.8 114.2c0 56.4-10.5 100.8-31.4 133.2c-20.9 32.4-54.3 48.6-100.2 48.6c-17.1 0-33.7-2.9-50-8.6c-16.3-5.7-30.6-14-43-24.9l22.3-44.6c11.5 9 22.3 15.3 32.3 19.1c10.1 3.7 21.3 5.5 33.7 5.5c27.3 0 46.8-8.4 58.6-25.3c11.8-16.9 18.5-41.5 20-73.7c-8.3 8.4-18.8 14.9-31.4 19.5c-12.5 4.7-26.1 7-40.7 7c-19.8 0-37.4-4.4-52.7-13.3c-15.4-8.8-27.3-21.1-35.8-36.9c-8.6-15.8-12.8-33.7-12.8-53.5c0-20.8 4.6-39.4 13.9-55.8c9.3-16.4 22.2-29.3 38.6-38.6c16.5-9.3 35.1-13.9 55.8-13.9Zm4.2 157.6c15.8 0 28.6-4.7 38.4-14.2c9.7-9.4 14.6-21 14.6-34.6c0-15.8-4.9-29.2-14.6-40c-9.8-10.9-22.7-16.3-38.9-16.3c-14.8 0-27 5.3-36.5 15.8c-9.4 10.5-14.1 23.1-14.1 37.7c0 14.9 4.5 27.2 13.7 36.9c9.1 9.8 21.6 14.7 37.4 14.7Zm286.5 6.5c15.8 6.5 28.4 16.7 37.8 30.5c9.5 13.8 14.2 29.6 14.2 47.6c0 29.2-10.2 52.3-30.7 69.5c-20.4 17.2-48 25.8-82.7 25.8c-20.2 0-38.5-2.2-55.1-6.7c-16.6-4.5-33.7-12.8-51.4-24.9l19.1-49.7c11.4 8.7 24.2 15.2 38.3 19.7c14.1 4.5 27.5 6.8 40.2 6.8c17.7 0 31.9-4.1 42.6-12.1c10.7-8.1 16-19.4 16-34c0-13.6-5.7-24.6-17.2-33c-11.4-8.3-27.9-12.5-49.3-12.5h-21.8v-49.8h21.8c20.2 0 35.4-4.1 45.8-12.3c10.4-8.2 15.6-18.8 15.6-31.9c0-12.4-5.1-22.4-15.3-30.2c-10.3-7.7-24.1-11.6-41.4-11.6c-10.6 0-21.7 1.9-33.5 5.8c-11.8 3.9-22.8 9.2-33 16l-19.1-47.8c16.1-11.5 32.2-19.3 48.1-23.3c16-4 34.1-6 54.2-6c20.5 0 38.5 3.6 54.2 10.9c15.6 7.3 27.7 17.3 36 30.2c8.4 12.9 12.6 27.5 12.6 44c0 17.3-4.2 33-12.6 47.1c-8.3 14.2-19.5 24.8-33.4 31.9Zm144.6 3.3c-16.5 0-31.1-3.6-44-10.7c-12.8-7.2-22.8-17.1-30-29.8c-7.1-12.7-10.7-27.1-10.7-43.2c0-16.2 3.6-30.6 10.7-43.3c7.2-12.7 17.2-22.6 30-29.8c12.9-7.1 27.5-10.6 44-10.6c16.1 0 30.7 3.5 43.7 10.7c13 7.1 23.1 17 30.4 29.7c7.3 12.7 11 27.1 11 43.3c0 16.1-3.7 30.5-11 43.2c-7.3 12.7-17.4 22.6-30.4 29.8c-13 7.1-27.6 10.7-43.7 10.7Zm-30.3 149.2l234.4-312.5l30.2 22.8l-234.3 312.5Zm30.3-190.6c12.1 0 21.9-4 29.5-11.9c7.6-7.9 11.4-18 11.4-30.4c0-12.8-3.8-23.1-11.4-31c-7.6-7.9-17.4-11.8-29.5-11.8c-11.8 0-21.5 3.9-29.1 11.8c-7.6 7.9-11.4 18.2-11.4 31c0 12.4 3.8 22.5 11.4 30.4c7.6 7.9 17.3 11.9 29.1 11.9Zm203.6 211.5c-16.1 0-30.6-3.5-43.4-10.6c-12.9-7.2-23-17.1-30.3-29.8c-7.3-12.7-10.9-27.1-10.9-43.3c0-16.1 3.6-30.5 10.9-43.2c7.3-12.7 17.4-22.6 30.3-29.8c12.8-7.1 27.3-10.7 43.4-10.7c16.2 0 30.6 3.6 43.5 10.7c12.9 7.2 23 17.1 30.2 29.8c7.3 12.7 11 27.1 11 43.2c0 16.2-3.7 30.6-11 43.3c-7.2 12.7-17.3 22.6-30.2 29.7c-12.9 7.2-27.3 10.7-43.5 10.7Zm0-40.9c11.8 0 21.5-3.9 29.1-11.8c7.6-7.9 11.4-18.2 11.4-31c0-12.4-3.8-22.5-11.4-30.4c-7.6-7.9-17.3-11.9-29.1-11.9c-12.1 0-21.8 3.9-29.3 11.7c-7.4 7.7-11.1 17.9-11.1 30.6c0 12.8 3.7 23.1 11.1 31c7.5 7.9 17.2 11.8 29.3 11.8Z" transform="translate(1742.5,1181.2)" style="isolation: isolate; animation: 2s linear both a1_t;"/><g mask="url(#Mask-3)" transform="translate(1506.2,374.1) scale(1.622,1.622) translate(-1005,-97.7)"><g transform="translate(76.2,-35.7)"><g><path fill="#0ff" d="M1286.4 41.2v-2.6l14.6-6.5v2.5l-14.6 6.6Zm21.9-10v-2.4l14.6-6.6v2.4l-14.6 6.6Zm21.9-9.5v-2.7l14.6-6.6v2.8l-14.6 6.5Zm21.9-10.3v-2.3l14.1-6.3l.8 1.8l-14.9 6.8Z"/></g><path fill="none" stroke="#1ef" stroke-width=".5" stroke-linecap="round" stroke-linejoin="round" d="M831.6 163"/><path fill="#0ff" d="M0 195.4c227-2.1 309.9-1.8 567.9-1.7c79.2 .1 99.6 4.9 133.9-27.2c44.2-41.2 94.6-135.4 138.3-74.8c-44.4-59.1-92.3 34.3-136.7 76.5c-36.5 34.6-66.6 28.8-135.5 29c-228.9 .1-336.2 .5-567.9-1.8Z"/><path fill="#0ff" d="M892.6 138.6c-0.2 0-10.3-2-19.7-10.4c6.9 5.5 8.1 7.4 17.4 10.6c10.8 2.4 36.5 12.9 105.8 1.8c41.2-6.5 74.8-17.2 109.7-27.6c54.5-17.3 128.6-48 170.4-67.4v-2.3c-62.2 26.4-280.8 124.7-383.6 95.3Z"/><ellipse cx="1366.4" cy="3.5" fill="#0ff" rx="3.5" ry="3.5"/></g></g><ellipse fill="#0ff" rx="6.7" ry="6.7" filter="url(#Filter-1)" opacity="0" transform="translate(0,157.8) scale(1.622,1.622) translate(1366.4,3.5)" style="animation: 2s linear both a3_o;"/></g></svg>